<svg xmlns="http://www.w3.org/2000/svg">
<defs>
<font id="AvenirLTPro-LightOblique" horiz-adv-x="491" >
  <font-face 
    font-family="Avenir LT Pro 35 Light"
    font-weight="300"
    font-style="oblique"
    font-stretch="normal"
    units-per-em="2048"
    panose-1="2 11 4 2 2 2 3 9 2 4"
    ascent="1548"
    descent="-500"
    x-height="946"
    cap-height="1450"
    bbox="-342 -567 2128 1917"
    underline-thickness="102"
    underline-position="-307"
    slope="-8"
    unicode-range="U+000D-FB02"
  />
<missing-glyph horiz-adv-x="1048" 
d="M455 240h114v137h-114v-137zM461 479h94q0 107 12 148q11 38 88 106q75 69 102 123t27 123q0 121 -71 194.5t-183 73.5q-116 0 -189.5 -69t-86.5 -211l102 -17q11 100 56 147.5t112 47.5q64 0 110 -50.5t46 -123.5q0 -40 -20 -76t-82 -94q-67 -67 -95 -121
q-26 -51 -26 -166zM946 102h-844v1264h844v-1264zM1049 1470h-1049v-1470h1049v1470z" />
    <glyph glyph-name="IJ" unicode="IJ" horiz-adv-x="1449" 
d="M199 0l204 1450h136l-205 -1450h-135zM1456 1450l-145 -1024q-7 -45 -14 -81t-23 -86.5t-37.5 -88.5t-57 -79t-80 -67.5t-109 -43.5t-142.5 -17q-153 0 -237.5 79.5t-96.5 217.5l139 25q18 -199 213 -199q137 0 211 82.5t94 224.5l150 1057h135z" />
    <glyph glyph-name="ij" unicode="ij" horiz-adv-x="931" 
d="M184 0l133 946h123l-133 -946h-123zM340 1321q4 38 35 65t69 27t61.5 -27t18.5 -65q-6 -38 -37 -65t-69 -27t-61 27t-17 65zM881 946l-156 -1112q-12 -78 -32 -134t-55.5 -101.5t-93 -68t-136.5 -22.5q-46 0 -95 19l33 108q40 -16 76 -16q48 0 81.5 16t52.5 47.5t28.5 64
t15.5 77.5l158 1122h123zM780 1321q4 38 35.5 65t69.5 27t61.5 -27t18.5 -65q-6 -38 -37.5 -65t-69.5 -27t-61 27t-17 65z" />
    <glyph glyph-name="napostrophe" unicode="&#x22;n" horiz-adv-x="1138" 
d="M164 0l96 680q4 35 14 138t13 128h123q-17 -148 -15 -166h6q50 82 145 136.5t206 54.5q86 0 148 -22.5t94.5 -61.5t51 -91t17.5 -111t-8 -122l-80 -563h-123l78 557q45 303 -195 303q-144 0 -250 -100t-133 -287l-65 -473h-123zM334 1450l-160 -379h109l184 379h-133z
" />
    <glyph glyph-name="fi" unicode="fi" horiz-adv-x="1062" 
d="M756 0l133 946h123l-133 -946h-123zM911 1321q4 38 35.5 65t69.5 27t61.5 -27t18.5 -65q-6 -38 -37.5 -65t-69.5 -27t-61 27t-17 65zM233 0l117 836h-196l16 110h197l43 309q12 87 48 152t84 99.5t97 50.5t98 16q82 0 137 -25l-38 -106q-39 20 -109 20q-84 0 -133 -62
t-68 -190l-37 -264h222l-17 -110h-221l-117 -836h-123z" />
    <glyph glyph-name="fl" unicode="fl" horiz-adv-x="1062" 
d="M233 0l117 836h-196l16 110h197l43 309q12 87 48 152t84 99.5t97 50.5t98 16q82 0 137 -25l-38 -106q-39 20 -109 20q-84 0 -133 -62t-68 -190l-37 -264h222l-17 -110h-221l-117 -836h-123zM756 0l217 1548h123l-217 -1548h-123z" />
    <glyph glyph-name=".notdef" horiz-adv-x="1048" 
d="M455 240h114v137h-114v-137zM461 479h94q0 107 12 148q11 38 88 106q75 69 102 123t27 123q0 121 -71 194.5t-183 73.5q-116 0 -189.5 -69t-86.5 -211l102 -17q11 100 56 147.5t112 47.5q64 0 110 -50.5t46 -123.5q0 -40 -20 -76t-82 -94q-67 -67 -95 -121
q-26 -51 -26 -166zM946 102h-844v1264h844v-1264zM1049 1470h-1049v-1470h1049v1470z" />
    <glyph glyph-name=".null" horiz-adv-x="409" 
 />
    <glyph glyph-name="nonmarkingreturn" horiz-adv-x="682" 
 />
    <glyph glyph-name="CR" unicode="&#xd;" horiz-adv-x="0" 
 />
    <glyph glyph-name="space" unicode=" " horiz-adv-x="532" 
 />
    <glyph glyph-name="exclam" unicode="!" horiz-adv-x="757" 
d="M645 1450l-151 -1069h-123l151 1069h123zM293 86q6 41 39 69.5t74 28.5t65 -28.5t18 -69.5t-38.5 -69.5t-73.5 -28.5t-65.5 28.5t-18.5 69.5z" />
    <glyph glyph-name="quotedbl" unicode="&#x22;" horiz-adv-x="1064" 
d="M467 983l68 467h122l-67 -467h-123zM750 983l67 467h123l-68 -467h-122z" />
    <glyph glyph-name="numbersign" unicode="#" horiz-adv-x="1064" 
d="M186 0l127 469h-221l14 98h236l90 320h-221l14 98h236l127 465h106l-129 -465h285l129 465h106l-129 -465h222l-15 -98h-235l-88 -320h221l-14 -98h-236l-127 -469h-106l127 469h-285l-127 -469h-107zM733 567l88 320h-282l-88 -320h282z" />
    <glyph glyph-name="dollar" unicode="$" horiz-adv-x="1064" 
d="M666 643l-78 -557q116 5 205 88t106 205q23 163 -149 231zM592 819l78 545q-106 -18 -188.5 -92.5t-98.5 -186.5q-13 -101 32.5 -159t143.5 -95zM455 -162l18 137q-115 0 -219.5 56.5t-159.5 158.5l129 80q37 -83 107.5 -131t158.5 -53l84 594l-139 53q-46 18 -81.5 44.5
t-55.5 58t-32.5 63.5t-16.5 66t-3.5 60t3.5 52q12 83 56.5 156t106 123t133 81t140.5 38l21 137h98l-21 -137q117 0 206 -39.5t149 -143.5l-125 -82q-36 72 -102.5 113t-141.5 41l-82 -578l137 -49q48 -17 87 -45.5t72.5 -71.5t47 -107t2.5 -142q-24 -168 -159.5 -277.5
t-301.5 -118.5l-18 -137h-98z" />
    <glyph glyph-name="percent" unicode="%" horiz-adv-x="1669" 
d="M236 1122q20 146 137.5 249.5t263.5 103.5t234.5 -103.5t68.5 -249.5t-137.5 -249t-263.5 -103t-234.5 103t-68.5 249zM346 1122q-13 -102 47 -171.5t160 -69.5q101 0 182 69.5t94 171.5t-46.5 172t-159.5 70q-101 0 -182.5 -70t-94.5 -172zM932 328q22 146 139.5 249
t263.5 103t234.5 -103t66.5 -249q-20 -146 -137.5 -249.5t-263.5 -103.5t-234.5 103.5t-68.5 249.5zM1042 328q-13 -102 48 -172t161 -70q101 0 181.5 70t93.5 172q15 102 -45.5 171.5t-161.5 69.5t-181.5 -69.5t-95.5 -171.5zM322 -12l1148 1532l86 -58l-1150 -1532z" />
    <glyph glyph-name="ampersand" unicode="&#x26;" horiz-adv-x="1441" 
d="M758 795l299 -373l262 377h139l-328 -463l281 -346h-182l-185 233q-113 -128 -228 -194t-259 -66q-92 0 -168.5 30t-128.5 84t-75.5 133.5t-10.5 174.5q7 47 23.5 89.5t36 75.5t53 66.5t59 55.5t70.5 51.5t72.5 45t78.5 44.5q-35 51 -53 79.5t-42.5 77t-32 94.5t-1.5 93
q15 101 77 177.5t149.5 114.5t185.5 38q86 0 155.5 -37.5t106 -109t23.5 -160.5q-6 -44 -22 -83t-34 -68.5t-50.5 -60.5t-57 -50t-68.5 -45t-69.5 -39.5t-75.5 -38.5zM823 1364q-92 0 -164 -58t-84 -147q-5 -35 3.5 -73t31 -80t37.5 -64.5t43 -62.5q44 21 65.5 32t63 34.5
t65 43.5t51 48.5t42.5 61.5t20 70q12 86 -37 140.5t-137 54.5zM975 309l-342 418q-57 -32 -86.5 -49.5t-78 -53t-75 -65.5t-51 -75t-31.5 -95q-20 -135 62.5 -219t222.5 -84q199 0 379 223z" />
    <glyph glyph-name="quotesingle" unicode="'" horiz-adv-x="532" 
d="M342 983l68 467h122l-67 -467h-123z" />
    <glyph glyph-name="parenleft" unicode="(" horiz-adv-x="532" 
d="M614 1499l95 -65q-151 -162 -252 -391.5t-133 -452.5q-31 -230 7 -434.5t140 -413.5l-104 -61q-114 195 -156.5 434.5t-9.5 474.5q35 243 143.5 481.5t269.5 427.5z" />
    <glyph glyph-name="parenright" unicode=")" horiz-adv-x="532" 
d="M84 -319l-94 65q151 162 251.5 391.5t131.5 452.5q32 230 -6 434t-140 414l105 61q114 -195 156 -434.5t8 -474.5q-34 -242 -142 -481t-270 -428z" />
    <glyph glyph-name="asterisk" unicode="*" horiz-adv-x="909" 
d="M711 1450l-45 -311l309 98l16 -98l-307 -97l150 -249l-84 -60l-156 256l-219 -256l-74 60l223 249l-284 103l41 92l286 -98l45 311h99z" />
    <glyph glyph-name="plus" unicode="+" horiz-adv-x="1363" 
d="M240 571l14 99h473l66 473h98l-66 -473h473l-14 -99h-473l-66 -473h-98l66 473h-473z" />
    <glyph glyph-name="comma" unicode="," horiz-adv-x="532" 
d="M63 -283l201 467h144l-224 -467h-121z" />
    <glyph glyph-name="hyphen" unicode="-" horiz-adv-x="681" 
d="M150 430l14 111h506l-15 -111h-505z" />
    <glyph glyph-name="period" unicode="." horiz-adv-x="532" 
d="M180 86q6 41 39 69.5t74 28.5t65.5 -28.5t18.5 -69.5t-39 -69.5t-74 -28.5t-65.5 28.5t-18.5 69.5z" />
    <glyph glyph-name="slash" unicode="/" horiz-adv-x="757" 
d="M12 -37l844 1561l100 -37l-839 -1561z" />
    <glyph glyph-name="zero" unicode="0" horiz-adv-x="1064" 
d="M156 725q10 73 24.5 141t39 145t55.5 142t77 126t100.5 103t128 67.5t158.5 25.5t151.5 -25.5t109 -67.5t71.5 -103t42 -126t16.5 -142t-1 -144.5t-14.5 -141.5q-10 -73 -25 -141t-40 -145t-56 -142t-77 -126t-101 -103t-128.5 -67.5t-158.5 -25.5t-151.5 25.5t-109 67.5
t-71 103t-41.5 126t-16 142t2 145t15 141zM291 725q-8 -54 -12.5 -106.5t-5 -118t6.5 -121.5t26 -111.5t48.5 -94.5t78 -63t112.5 -24q63 0 118.5 24t96 62.5t75 94.5t57 111.5t41 122t28.5 117.5t18 107q8 55 12 106.5t4.5 118t-6.5 122t-25.5 111.5t-48 94.5t-78.5 62.5
t-112 24q-64 0 -119 -24t-95.5 -63t-75 -94.5t-57.5 -111t-41 -121.5t-28 -118t-18 -107z" />
    <glyph glyph-name="one" unicode="1" horiz-adv-x="1064" 
d="M535 0l180 1278h-2l-293 -215l-64 94l402 293h104l-205 -1450h-122z" />
    <glyph glyph-name="two" unicode="2" horiz-adv-x="1064" 
d="M84 0l20 143l625 576q42 37 68.5 63t63.5 66.5t59.5 75.5t42 80t26.5 90q18 124 -52.5 197t-197.5 73q-111 0 -198.5 -65.5t-126.5 -172.5l-142 15q59 164 187.5 249t300.5 85q113 0 201 -43.5t134.5 -129t30.5 -198.5q-8 -55 -26 -105.5t-48.5 -99t-59 -86t-75.5 -85
t-78.5 -76t-86.5 -77.5l-516 -464h761l-16 -111h-897z" />
    <glyph glyph-name="three" unicode="3" horiz-adv-x="1064" 
d="M121 260l139 43q26 -108 91 -162.5t184 -54.5q155 0 251.5 89t116.5 226q10 77 -15 136.5t-76.5 94t-115 51.5t-135.5 17h-53l18 123h62q61 0 118.5 15.5t109 47t87 86t45.5 126.5q17 117 -46 191.5t-183 74.5q-88 0 -167 -45.5t-132 -124.5l-109 66q74 109 183 162
t239 53q84 0 153 -23.5t118.5 -69t71.5 -117.5t9 -163q-18 -122 -97.5 -212.5t-207.5 -123.5l-2 -4q134 -25 205.5 -128.5t52.5 -242.5q-26 -181 -159.5 -298.5t-348.5 -117.5q-339 0 -407 285z" />
    <glyph glyph-name="four" unicode="4" horiz-adv-x="1064" 
d="M674 0l49 356h-627l21 146l714 948h170l-139 -983h221l-16 -111h-221l-49 -356h-123zM739 467l119 848h-4l-631 -848h516z" />
    <glyph glyph-name="five" unicode="5" horiz-adv-x="1064" 
d="M1128 1450l-16 -111h-598l-72 -460q87 41 217 41q134 0 229 -66t134 -174.5t20 -239.5q-15 -112 -70 -203.5t-131 -147t-160.5 -85t-166.5 -29.5q-304 0 -399 246l137 64q25 -84 103.5 -141.5t174.5 -57.5q52 0 111 22.5t114.5 63.5t97.5 109.5t54 150.5
q22 158 -67.5 267.5t-243.5 109.5q-146 0 -301 -98l117 739h716z" />
    <glyph glyph-name="six" unicode="6" horiz-adv-x="1064" 
d="M944 1450l-485 -639h4q37 29 101 45t122 16q192 0 299.5 -128.5t81.5 -317.5q-28 -196 -180.5 -323.5t-358.5 -127.5t-322.5 127.5t-88.5 323.5q8 54 27 106t49.5 103t52 82.5t57.5 79.5l485 653h156zM641 766q-141 0 -255 -99.5t-134 -240.5q-22 -151 60 -245.5
t233 -94.5t258 94.5t129 245.5q20 141 -65 240.5t-226 99.5z" />
    <glyph glyph-name="seven" unicode="7" horiz-adv-x="1064" 
d="M1112 1450l-16 -111l-766 -1339h-137l776 1339h-697l17 111h823z" />
    <glyph glyph-name="eight" unicode="8" horiz-adv-x="1064" 
d="M289 1098q24 167 151.5 272t298.5 105t269.5 -105t74.5 -272q-14 -105 -91.5 -198.5t-184.5 -121.5v-2q130 -28 190.5 -132.5t40.5 -240.5q-27 -192 -171 -310t-339 -118t-304.5 118t-82.5 310q20 136 109 240.5t225 132.5v2q-98 28 -149 121.5t-37 198.5zM424 1098
q-15 -111 47.5 -189t177.5 -78t199.5 78t99.5 189q17 119 -46 192.5t-177 73.5t-199 -73.5t-102 -192.5zM276 403q-19 -134 55 -225.5t214 -91.5q139 0 239 91.5t119 225.5q20 140 -58.5 229t-211.5 89t-235 -89t-122 -229z" />
    <glyph glyph-name="nine" unicode="9" horiz-adv-x="1064" 
d="M326 0l485 639h-4q-39 -29 -102.5 -45t-120.5 -16q-192 0 -300.5 128.5t-82.5 317.5q28 196 180 323.5t358 127.5t323 -127.5t89 -323.5q-6 -44 -22 -90t-29.5 -76.5t-44.5 -78.5t-42 -63t-46 -63l-486 -653h-155zM629 684q141 0 254 99.5t133 240.5q22 151 -59 245.5
t-232 94.5t-259 -94.5t-130 -245.5q-20 -141 66 -240.5t227 -99.5z" />
    <glyph glyph-name="colon" unicode=":" horiz-adv-x="532" 
d="M289 860q6 41 38.5 69.5t73.5 28.5t65.5 -28.5t18.5 -69.5t-38.5 -69.5t-73.5 -28.5t-65.5 28.5t-18.5 69.5zM180 86q6 41 39 69.5t74 28.5t65.5 -28.5t18.5 -69.5t-39 -69.5t-74 -28.5t-65.5 28.5t-18.5 69.5z" />
    <glyph glyph-name="semicolon" unicode=";" horiz-adv-x="532" 
d="M63 -283l201 467h144l-224 -467h-121zM289 860q6 41 38.5 69.5t73.5 28.5t65.5 -28.5t18.5 -69.5t-38.5 -69.5t-73.5 -28.5t-65.5 28.5t-18.5 69.5z" />
    <glyph glyph-name="less" unicode="&#x3c;" horiz-adv-x="1363" 
d="M1358 1149l-15 -102l-976 -426l856 -426l-15 -103l-960 479l14 99z" />
    <glyph glyph-name="equal" unicode="=" horiz-adv-x="1363" 
d="M260 719l14 98h1045l-14 -98h-1045zM219 424l14 98h1045l-14 -98h-1045z" />
    <glyph glyph-name="greater" unicode="&#x3e;" horiz-adv-x="1363" 
d="M180 92l15 103l979 426l-859 426l15 102l960 -479l-14 -99z" />
    <glyph glyph-name="question" unicode="?" horiz-adv-x="948" 
d="M471 381l25 172q8 55 32.5 103t57.5 83.5t71.5 69l77 67t71.5 68.5t57.5 82.5t31.5 101.5q15 111 -39.5 179.5t-165.5 68.5q-105 0 -184 -64.5t-117 -172.5l-131 16q50 155 171.5 243.5t275.5 88.5q166 0 258 -93.5t69 -258.5q-10 -70 -36.5 -127.5t-61.5 -97t-75 -74.5
t-80 -67.5t-74 -67t-59.5 -83t-33.5 -106.5l-18 -131h-123zM395 86q6 41 39 69.5t74 28.5t65.5 -28.5t18.5 -69.5t-39 -69.5t-74 -28.5t-65.5 28.5t-18.5 69.5z" />
    <glyph glyph-name="at" unicode="@" horiz-adv-x="1638" 
d="M600 573q-11 -86 28 -140t117 -54q91 0 185 80t154 187t73 198q29 209 -137 209q-74 0 -148 -47.5t-129 -119.5t-93.5 -155.5t-49.5 -157.5zM1432 1124l-283 -594q-31 -67 -35 -98q-4 -20 5.5 -36.5t39.5 -16.5q69 0 157.5 74.5t158.5 191.5t86 227q16 111 -19 209
t-106.5 164.5t-173 105t-215.5 38.5q-181 0 -345 -93t-269.5 -244.5t-129.5 -324.5q-25 -180 41 -333t204 -243t316 -90q151 0 306.5 76t252.5 195h119q-117 -169 -307 -269t-385 -100q-217 0 -378.5 102.5t-234.5 277t-44 384.5q22 157 101 298t194.5 242t264 160.5
t304.5 59.5q147 0 270.5 -47t205 -128.5t119 -196t19.5 -243.5q-17 -123 -75.5 -237t-138 -193t-172.5 -126.5t-179 -47.5q-55 0 -85.5 36t-21.5 102h-4q-55 -57 -132.5 -97.5t-151.5 -40.5q-132 0 -192 85.5t-42 215.5q16 108 65 213.5t121.5 190.5t172.5 137.5t208 52.5
q74 0 127 -41t66 -129h4l68 131h123z" />
    <glyph glyph-name="A" unicode="A" horiz-adv-x="1402" 
d="M10 0l838 1450h139l406 -1450h-152l-104 385h-768l-217 -385h-142zM1106 508l-217 795l-449 -795h666z" />
    <glyph glyph-name="B" unicode="B" horiz-adv-x="1290" 
d="M199 0l204 1450h418q39 0 74 -2.5t73 -8t68.5 -15.5t62.5 -25.5t54.5 -37t43 -49.5t29 -64t13 -81t-5.5 -100q-15 -113 -93.5 -194t-207.5 -107l-2 -4q143 -11 219.5 -108t54.5 -248q-13 -96 -56 -170t-98 -117.5t-126 -71.5t-134 -37.5t-128 -9.5h-463zM520 1327
l-69 -504h280q80 0 144.5 17t103 42.5t65.5 60t38.5 64.5t15.5 60q11 74 -6.5 126t-58.5 80.5t-93.5 41t-120.5 12.5h-299zM432 700l-82 -577h309q91 0 163 19.5t115 48.5t72.5 68.5t42 73t17.5 68.5q10 77 -11.5 136.5t-67 94t-103.5 51.5t-125 17h-330z" />
    <glyph glyph-name="C" unicode="C" horiz-adv-x="1441" 
d="M1325 311l100 -84q-230 -264 -577 -264q-218 0 -375.5 98t-227 271.5t-38.5 392.5q30 219 149 392.5t304 271.5t403 98q324 0 467 -227l-123 -93q-52 97 -149 147t-211 50q-185 0 -338.5 -85t-247.5 -229.5t-119 -324.5q-26 -180 27.5 -324.5t182.5 -229.5t314 -85
q118 0 245 57.5t214 167.5z" />
    <glyph glyph-name="D" unicode="D" horiz-adv-x="1517" 
d="M180 0l205 1450h449q121 0 222 -22t170 -57t122.5 -86t85 -102t52 -112.5t28 -110t8.5 -101.5t-1 -80.5t-5 -53.5q-5 -36 -14 -74.5t-37 -114.5t-67 -142t-109 -141.5t-157 -128.5t-217.5 -88.5t-285.5 -35.5h-449zM502 1327l-170 -1204h278q117 0 222 22.5t198 70
t164.5 117.5t120 170t65.5 222t-3.5 222t-72 170t-130.5 117.5t-178 70t-216 22.5h-278z" />
    <glyph glyph-name="E" unicode="E" horiz-adv-x="1214" 
d="M199 0l204 1450h887l-18 -123h-752l-71 -516h704l-18 -123h-705l-80 -565h785l-17 -123h-919z" />
    <glyph glyph-name="F" unicode="F" horiz-adv-x="1138" 
d="M199 0l204 1450h869l-19 -123h-733l-71 -516h681l-18 -123h-682l-96 -688h-135z" />
    <glyph glyph-name="G" unicode="G" horiz-adv-x="1593" 
d="M1505 782l-98 -688q-246 -131 -559 -131q-218 0 -375.5 98t-227 271.5t-38.5 392.5q30 219 149 392.5t304 271.5t403 98q325 0 493 -201l-112 -102q-54 79 -166 129.5t-231 50.5q-185 0 -338.5 -85t-247.5 -229.5t-119 -324.5q-26 -180 27.5 -324.5t182.5 -229.5t314 -85
q260 0 418 86l68 487h-348l18 123h483z" />
    <glyph glyph-name="H" unicode="H" horiz-adv-x="1478" 
d="M199 0l204 1450h136l-90 -639h811l90 639h135l-205 -1450h-135l96 688h-811l-96 -688h-135z" />
    <glyph glyph-name="I" unicode="I" horiz-adv-x="532" 
d="M199 0l204 1450h136l-205 -1450h-135z" />
    <glyph glyph-name="J" unicode="J" horiz-adv-x="987" 
d="M993 1450l-145 -1024q-7 -45 -14 -81t-23 -86.5t-37.5 -88.5t-57 -79t-80 -67.5t-109 -43.5t-142.5 -17q-153 0 -237.5 79.5t-96.5 217.5l139 25q18 -199 213 -199q137 0 211.5 82.5t94.5 224.5l149 1057h135z" />
    <glyph glyph-name="K" unicode="K" horiz-adv-x="1251" 
d="M199 0l204 1450h136l-90 -639h12l792 639h187l-828 -664l664 -786h-195l-630 750h-13l-104 -750h-135z" />
    <glyph glyph-name="L" unicode="L" horiz-adv-x="1024" 
d="M199 0l204 1450h136l-189 -1327h676l-16 -123h-811z" />
    <glyph glyph-name="M" unicode="M" horiz-adv-x="1820" 
d="M184 0l205 1450h203l356 -1217l701 1217h192l-205 -1450h-135l180 1278h-4l-733 -1278h-59l-381 1278h-4l-181 -1278h-135z" />
    <glyph glyph-name="N" unicode="N" horiz-adv-x="1593" 
d="M199 0l204 1450h175l702 -1270h4l180 1270h135l-204 -1450h-174l-705 1270h-4l-178 -1270h-135z" />
    <glyph glyph-name="O" unicode="O" horiz-adv-x="1708" 
d="M207 725q30 219 149 392.5t304 271.5t403 98t375.5 -98t227.5 -271.5t40 -392.5q-31 -219 -150.5 -392.5t-304.5 -271.5t-403 -98t-375.5 98t-227 271.5t-38.5 392.5zM342 725q-26 -180 27.5 -324.5t182.5 -229.5t314 -85t338 85t247 229.5t120 324.5q18 135 -8.5 252
t-92.5 202.5t-175 135t-248 49.5q-185 0 -338.5 -85t-247.5 -229.5t-119 -324.5z" />
    <glyph glyph-name="P" unicode="P" horiz-adv-x="1175" 
d="M199 0l204 1450h418q66 0 126 -10.5t119.5 -37.5t99.5 -69t59.5 -110.5t7.5 -155.5q-13 -95 -59.5 -169t-114.5 -119t-148.5 -68t-167.5 -23h-313l-96 -688h-135zM520 1327l-71 -516h307q61 0 115.5 13.5t103 42.5t81 80.5t42.5 119.5q10 67 -10 118.5t-61.5 81.5t-94 45
t-113.5 15h-299z" />
    <glyph glyph-name="Q" unicode="Q" horiz-adv-x="1708" 
d="M1681 123l-16 -123h-799q-151 0 -281.5 54t-222 149.5t-134 236t-19.5 303.5q22 157 93.5 293.5t179.5 236t255 157t312 57.5q220 0 374.5 -98.5t219.5 -267t36 -378.5q-18 -128 -77.5 -252.5t-157.5 -223t-213 -140.5l-2 -4h452zM344 743q-23 -169 35.5 -310.5
t190 -225.5t309.5 -84q136 0 254.5 51.5t202 138t137.5 197.5t71 233q18 132 -7 245.5t-89 197t-171 131t-245 47.5t-259 -47.5t-208.5 -131t-145 -197t-75.5 -245.5z" />
    <glyph glyph-name="R" unicode="R" horiz-adv-x="1214" 
d="M520 1327l-71 -516h286q82 0 147 17.5t104.5 44t67 63t39.5 68t17 65.5q6 25 2 54t-11 57.5t-30.5 55t-55.5 47t-85.5 32.5t-122.5 12h-287zM199 0l204 1450h381q39 0 66 -1t84.5 -8t98 -20.5t89.5 -42t77 -67.5t42.5 -101.5t3.5 -140.5q-11 -79 -43.5 -142.5
t-74.5 -102.5t-97 -67t-104 -41t-103 -20l324 -696h-154l-311 688h-252l-96 -688h-135z" />
    <glyph glyph-name="S" unicode="S" horiz-adv-x="1138" 
d="M135 182l139 86q41 -90 120 -136t188 -46q139 0 242.5 78.5t121.5 206.5q9 65 -9.5 113t-57.5 78t-92 53t-112 42t-118 40t-110.5 52.5t-89 74t-53 110.5t-3.5 156q17 124 96 216t189 136.5t235 44.5q255 0 371 -182l-129 -84q-84 143 -262 143q-139 0 -243 -71.5
t-122 -202.5q-10 -70 8.5 -121.5t57.5 -82.5t91.5 -54.5t112 -41.5t118.5 -38t111 -50t89 -70.5t53 -107t4 -153.5q-27 -188 -174 -298t-334 -110q-313 0 -438 219z" />
    <glyph glyph-name="T" unicode="T" horiz-adv-x="1175" 
d="M520 0l187 1327h-496l18 123h1127l-19 -123h-495l-187 -1327h-135z" />
    <glyph glyph-name="U" unicode="U" horiz-adv-x="1400" 
d="M1434 1450l-127 -895q-13 -96 -42 -180.5t-79 -161t-117.5 -131.5t-163.5 -87t-211 -32q-96 0 -173 22.5t-127.5 62.5t-86 95t-49.5 121t-17.5 140t9.5 151l127 895h135l-123 -860q-7 -48 -9 -93t2 -97t16 -95.5t37 -85t61 -70t91.5 -46t125.5 -17.5q97 0 175 33.5
t126 83.5t83.5 121t52 133.5t26.5 132.5l122 860h136z" />
    <glyph glyph-name="V" unicode="V" horiz-adv-x="1214" 
d="M535 0l-336 1450h145l287 -1272l651 1272h143l-755 -1450h-135z" />
    <glyph glyph-name="W" unicode="W" horiz-adv-x="1933" 
d="M432 0l-217 1450h139l178 -1284h5l548 1284h172l185 -1284h4l543 1284h139l-627 -1450h-166l-184 1290h-4l-549 -1290h-166z" />
    <glyph glyph-name="X" unicode="X" horiz-adv-x="1251" 
d="M2 0l651 762l-397 688h160l334 -590l495 590h162l-590 -688l432 -762h-168l-366 655l-551 -655h-162z" />
    <glyph glyph-name="Y" unicode="Y" horiz-adv-x="1175" 
d="M520 0l88 625l-415 825h161l340 -688l547 688h152l-650 -825l-88 -625h-135z" />
    <glyph glyph-name="Z" unicode="Z" horiz-adv-x="1138" 
d="M47 0l14 106l1020 1221h-835l18 123h1010l-17 -111l-1026 -1216h877l-16 -123h-1045z" />
    <glyph glyph-name="bracketleft" unicode="[" horiz-adv-x="532" 
d="M670 1499l-15 -98h-184l-227 -1622h184l-14 -98h-308l256 1818h308z" />
    <glyph glyph-name="backslash" unicode="\" horiz-adv-x="757" 
d="M332 1524l401 -1561l-112 -37l-402 1561z" />
    <glyph glyph-name="bracketright" unicode="]" horiz-adv-x="532" 
d="M29 -319l14 98h184l228 1622h-185l15 98h307l-256 -1818h-307z" />
    <glyph glyph-name="asciicircum" unicode="^" horiz-adv-x="1363" 
d="M242 524l598 926h94l336 -926h-115l-285 815l-512 -815h-116z" />
    <glyph glyph-name="underscore" unicode="_" horiz-adv-x="1024" 
d="M-37 -256l14 102h1024l-14 -102h-1024z" />
    <glyph glyph-name="grave" unicode="`" 
d="M356 1450l170 -295h-102l-231 295h163z" />
    <glyph glyph-name="a" unicode="a" horiz-adv-x="1062" 
d="M987 629l-33 -232q-36 -265 -36 -397h-115q-3 68 10 154h-4q-67 -92 -153 -135.5t-205 -43.5q-63 0 -118.5 16t-99.5 48.5t-64.5 88.5t-10.5 128q43 317 567 317h143l9 58q18 117 -47 173t-187 56q-165 0 -303 -106l-61 84q74 62 179 97.5t201 35.5q179 0 266 -84
t62 -258zM856 475h-135q-82 0 -153 -11t-134.5 -34.5t-104 -66.5t-48.5 -101q-11 -82 47.5 -129t142.5 -47q94 0 165 28t113 77t65 103t32 118z" />
    <glyph glyph-name="b" unicode="b" horiz-adv-x="1251" 
d="M137 0l217 1548h123l-106 -768h4q67 93 179 142t226 49q218 0 337.5 -140.5t88.5 -357.5q-29 -217 -189 -357.5t-378 -140.5q-73 0 -141 20t-126 64t-85 107h-4l-23 -166h-123zM313 473q-22 -161 77 -274t265 -113q169 0 287.5 111.5t140.5 275.5q24 164 -63 275.5
t-256 111.5q-166 0 -297 -113t-154 -274z" />
    <glyph glyph-name="c" unicode="c" horiz-adv-x="985" 
d="M893 217l84 -78q-161 -164 -373 -164q-218 0 -337.5 140.5t-90.5 357.5q31 217 191 357.5t378 140.5q102 0 186 -42.5t142 -121.5l-108 -74q-96 127 -236 127q-169 0 -287.5 -111.5t-142.5 -275.5q-22 -164 65.5 -275.5t256.5 -111.5q148 0 272 131z" />
    <glyph glyph-name="d" unicode="d" horiz-adv-x="1251" 
d="M991 0l23 166h-4q-67 -93 -179.5 -142t-226.5 -49q-218 0 -337.5 140.5t-90.5 357.5q31 217 191 357.5t378 140.5q114 0 213.5 -49t139.5 -142h4l106 768h123l-217 -1548h-123zM1069 473q23 161 -75.5 274t-264.5 113q-169 0 -287.5 -111.5t-142.5 -275.5
q-22 -164 65.5 -275.5t256.5 -111.5q166 0 296 113t152 274z" />
    <glyph glyph-name="e" unicode="e" horiz-adv-x="1138" 
d="M944 254l80 -76q-166 -203 -438 -203q-215 0 -327 139.5t-81 360.5q29 213 183 354.5t360 141.5q71 0 131.5 -17.5t103.5 -48.5t76 -73.5t49.5 -91.5t23.5 -103t-3 -109l-12 -86h-795q-1 -22 -2.5 -51.5t7.5 -63.5t20.5 -68t37 -65t57.5 -55t81 -38.5t108 -14.5
q95 0 189.5 46t150.5 122zM311 553h672q17 126 -66 216.5t-219 90.5q-76 0 -142.5 -27.5t-108.5 -66.5t-74 -84t-46 -78t-16 -51z" />
    <glyph glyph-name="f" unicode="f" horiz-adv-x="606" 
d="M233 0l117 836h-196l16 110h197l43 309q12 87 48 152t84 99.5t97 50.5t98 16q82 0 137 -25l-38 -106q-39 20 -109 20q-84 0 -133 -62t-68 -190l-37 -264h222l-17 -110h-221l-117 -836h-123z" />
    <glyph glyph-name="g" unicode="g" horiz-adv-x="1251" 
d="M1247 946l-125 -885q-19 -135 -68 -238t-109 -161t-136 -94.5t-139 -48t-129 -11.5q-144 0 -263.5 53t-177.5 146l109 90q51 -88 142.5 -133t205.5 -45q77 0 141.5 19.5t107.5 47t77.5 71.5t53 79.5t33.5 85t19.5 73.5t9.5 58l19 131h-4q-68 -87 -167 -135.5t-218 -48.5
q-137 0 -245 65.5t-160 177t-34 242.5q19 131 103 243t210 177.5t263 65.5q119 0 204.5 -49t127.5 -136h4l22 160h123zM1063 485q23 155 -71.5 265t-250.5 110q-155 0 -280 -109.5t-148 -265.5q-22 -155 73.5 -264.5t250.5 -109.5t279.5 109.5t146.5 264.5z" />
    <glyph glyph-name="h" unicode="h" horiz-adv-x="1138" 
d="M164 0l217 1548h123l-107 -768h4q50 82 145 136.5t206 54.5q86 0 148 -22.5t94.5 -61.5t51 -91t17.5 -111t-8 -122l-80 -563h-123l78 557q45 303 -195 303q-144 0 -250 -100t-133 -287l-65 -473h-123z" />
    <glyph glyph-name="i" unicode="i" 
d="M184 0l133 946h123l-133 -946h-123zM340 1321q4 38 35 65t69 27t61.5 -27t18.5 -65q-6 -38 -37 -65t-69 -27t-61 27t-17 65z" />
    <glyph glyph-name="j" unicode="j" 
d="M440 946l-155 -1112q-12 -78 -32 -134t-56 -101.5t-93.5 -68t-136.5 -22.5q-45 0 -94 19l33 108q40 -16 76 -16q48 0 81.5 16t52.5 47.5t28.5 64t15.5 77.5l157 1122h123zM340 1321q4 38 35 65t69 27t61.5 -27t18.5 -65q-6 -38 -37 -65t-69 -27t-61 27t-17 65z" />
    <glyph glyph-name="k" unicode="k" horiz-adv-x="985" 
d="M164 0l217 1548h123l-146 -1032l529 428h180l-549 -432l473 -512h-186l-449 500l-69 -500h-123z" />
    <glyph glyph-name="l" unicode="l" 
d="M184 0l217 1548h123l-217 -1548h-123z" />
    <glyph glyph-name="m" unicode="m" horiz-adv-x="1744" 
d="M164 0l96 680q4 35 14 138t13 128h123q-17 -148 -15 -166h6q50 82 145 136.5t206 54.5q99 0 168 -51t88 -154q56 101 151 153t199 52q86 0 148 -22.5t94.5 -61.5t51 -91t17.5 -111t-8 -122l-80 -563h-123l78 557q45 303 -195 303q-65 0 -119.5 -21.5t-90 -55t-62 -78
t-40 -87t-19.5 -86.5l-76 -532h-123l80 569q19 135 -20 213t-136 78q-144 0 -250 -100t-133 -287l-65 -473h-123z" />
    <glyph glyph-name="n" unicode="n" horiz-adv-x="1138" 
d="M164 0l96 680q4 35 14 138t13 128h123q-17 -148 -15 -166h6q50 82 145 136.5t206 54.5q86 0 148 -22.5t94.5 -61.5t51 -91t17.5 -111t-8 -122l-80 -563h-123l78 557q45 303 -195 303q-144 0 -250 -100t-133 -287l-65 -473h-123z" />
    <glyph glyph-name="o" unicode="o" horiz-adv-x="1216" 
d="M176 473q31 217 191 357.5t378 140.5t337.5 -140.5t88.5 -357.5q-29 -217 -189 -357.5t-378 -140.5t-337.5 140.5t-90.5 357.5zM299 473q-22 -164 65.5 -275.5t256.5 -111.5t287.5 111.5t140.5 275.5q24 164 -63.5 275.5t-256.5 111.5t-287.5 -111.5t-142.5 -275.5z" />
    <glyph glyph-name="p" unicode="p" horiz-adv-x="1251" 
d="M72 -467l198 1413h123l-22 -166h4q67 93 179 142t226 49q218 0 337.5 -140.5t88.5 -357.5q-29 -217 -189 -357.5t-378 -140.5q-73 0 -141 20t-126 64t-85 107h-4l-88 -633h-123zM313 473q-22 -161 77 -274t265 -113q169 0 287.5 111.5t140.5 275.5q24 164 -63 275.5
t-256 111.5q-166 0 -297 -113t-154 -274z" />
    <glyph glyph-name="q" unicode="q" horiz-adv-x="1251" 
d="M926 -467l88 633h-4q-67 -93 -179.5 -142t-226.5 -49q-218 0 -337.5 140.5t-90.5 357.5q31 217 191 357.5t378 140.5q114 0 213.5 -49t139.5 -142h4l22 166h123l-198 -1413h-123zM1069 473q23 161 -75.5 274t-264.5 113q-169 0 -287.5 -111.5t-142.5 -275.5
q-22 -164 65.5 -275.5t256.5 -111.5q166 0 296 113t152 274z" />
    <glyph glyph-name="r" unicode="r" horiz-adv-x="681" 
d="M164 0l96 680q4 35 14 138t13 128h123q-17 -148 -15 -166q131 191 328 191q28 0 70 -10l-31 -121q-24 8 -47 8q-152 0 -243.5 -92.5t-113.5 -239.5l-71 -516h-123z" />
    <glyph glyph-name="s" unicode="s" horiz-adv-x="872" 
d="M82 168l119 74q27 -73 96.5 -114.5t155.5 -41.5q85 0 157.5 48t83.5 126q7 46 -12.5 78.5t-57 49t-85.5 30.5t-99.5 23.5t-99 28.5t-83.5 44t-53.5 72.5t-8.5 111.5q19 129 126.5 201t235.5 72q244 0 307 -178l-119 -66q-27 67 -75 100t-129 33q-74 0 -144 -41.5
t-78 -109.5q-7 -46 13 -77t57 -46t85.5 -28t100 -21.5t99.5 -28t83.5 -46t52.5 -76t7 -118.5q-13 -94 -71 -162t-138.5 -99.5t-173.5 -31.5q-126 0 -219 49t-133 144z" />
    <glyph glyph-name="t" unicode="t" horiz-adv-x="681" 
d="M760 946l-17 -110h-270l-86 -617q-9 -63 21 -98t92 -35q60 0 143 33l-4 -111q-101 -33 -166 -33q-85 0 -136 33.5t-66.5 86.5t-6.5 124l86 617h-205l17 110h205l39 273h122l-39 -273h271z" />
    <glyph glyph-name="u" unicode="u" horiz-adv-x="1138" 
d="M1098 946l-97 -680q-6 -40 -15 -144.5t-11 -121.5h-123q16 144 14 166h-6q-50 -82 -144.5 -136.5t-205.5 -54.5q-86 0 -148 22.5t-94.5 61.5t-51 91t-17.5 111t8 122l80 563h123l-78 -557q-45 -303 194 -303q144 0 250 100t131 287l68 473h123z" />
    <glyph glyph-name="v" unicode="v" horiz-adv-x="948" 
d="M418 0l-254 946h139l201 -813l422 813h125l-506 -946h-127z" />
    <glyph glyph-name="w" unicode="w" horiz-adv-x="1441" 
d="M328 0l-164 946h135l119 -792h4l375 792h116l170 -792h4l334 792h123l-411 -946h-127l-175 774h-4l-372 -774h-127z" />
    <glyph glyph-name="x" unicode="x" horiz-adv-x="985" 
d="M12 0l465 512l-276 434h157l211 -358l312 358h153l-395 -434l334 -512h-160l-270 428l-383 -428h-148z" />
    <glyph glyph-name="y" unicode="y" horiz-adv-x="948" 
d="M1051 946l-662 -1239q-104 -199 -289 -199q-46 0 -116 19l26 115q80 -23 109 -23q32 0 60 13.5t50 39t37 48.5t33 57l117 219l-252 950h137l201 -796l418 796h131z" />
    <glyph glyph-name="z" unicode="z" horiz-adv-x="872" 
d="M55 0l11 74l673 762h-538l16 110h709l-11 -74l-671 -761h590l-17 -111h-762z" />
    <glyph glyph-name="braceleft" unicode="{" horiz-adv-x="681" 
d="M772 1499l-14 -98h-47q-59 0 -94.5 -57.5t-47.5 -143.5l-39 -289q-10 -75 -37 -137.5t-58.5 -99t-54.5 -56.5t-38 -26l-2 -4q10 -6 23 -18.5t32 -39t30 -62t17.5 -87t-4.5 -113.5l-41 -291q-10 -85 9 -141.5t77 -56.5h47l-14 -98h-102q-85 0 -123 66t-23 181l43 299
q45 314 -100 314l14 98q41 0 74.5 26t55 72t35.5 99.5t22 117.5l43 297q15 116 72 182t143 66h102z" />
    <glyph glyph-name="bar" unicode="|" horiz-adv-x="704" 
d="M403 1704h109v-2271h-109v2271z" />
    <glyph glyph-name="braceright" unicode="}" horiz-adv-x="681" 
d="M76 -319l14 98h47q59 0 94.5 57.5t47.5 143.5l38 288q10 75 37 138t58.5 99.5t55 56.5t38.5 26l2 4q-10 6 -23 18.5t-32 38.5t-30 61.5t-18 87t5 113.5l41 291q10 86 -9 142.5t-77 56.5h-48l15 98h102q85 0 123 -66.5t23 -181.5l-43 -299q-45 -313 100 -313l-14 -98
q-144 0 -189 -316l-41 -297q-15 -116 -72 -181.5t-143 -65.5h-102z" />
    <glyph glyph-name="asciitilde" unicode="~" horiz-adv-x="1363" 
d="M1188 745l61 -65q-115 -184 -282 -184q-14 0 -29 2t-27.5 4.5t-30 8t-27.5 9t-29.5 12t-27 12t-29 13.5t-26.5 12q-49 23 -73.5 34t-58.5 21.5t-58 10.5q-56 0 -102.5 -36.5t-98.5 -102.5l-59 65q118 184 280 184q14 0 29 -2t27.5 -4.5t30 -8t27.5 -9t29.5 -12t27 -12
t29 -13.5t26.5 -12q140 -66 192 -66q55 0 100.5 36t98.5 103z" />
    <glyph glyph-name="uni00A0" unicode="&#xa0;" horiz-adv-x="532" 
 />
    <glyph glyph-name="exclamdown" unicode="&#xa1;" horiz-adv-x="757" 
d="M254 -455l149 1069h123l-149 -1069h-123zM604 909q-4 -41 -36.5 -69.5t-73.5 -28.5t-66 28.5t-20 69.5q6 41 38.5 70t73.5 29t65.5 -29t18.5 -70z" />
    <glyph glyph-name="cent" unicode="&#xa2;" horiz-adv-x="1064" 
d="M539 96l106 758q-140 -21 -234 -128.5t-114 -248.5q-19 -137 47 -245.5t195 -135.5zM743 856l-108 -770q138 6 256 131l84 -78q-155 -158 -357 -164l-18 -141h-98l20 148q-184 26 -280 164t-68 331q26 191 161.5 326.5t323.5 161.5l21 147h98l-20 -145q194 -3 313 -160
l-108 -74q-85 112 -220 123z" />
    <glyph glyph-name="sterling" unicode="&#xa3;" horiz-adv-x="1064" 
d="M119 0l16 111h215l82 589h-194l16 111h195l32 240q9 58 31 115t62.5 113.5t94.5 99.5t132.5 69.5t169.5 26.5q164 0 276 -115l-94 -98q-88 102 -203 102q-74 0 -136 -29t-101.5 -75t-63.5 -96t-31 -99l-34 -254h338l-17 -111h-338l-82 -589h502l-16 -111h-852z" />
    <glyph glyph-name="currency" unicode="&#xa4;" horiz-adv-x="1064" 
d="M70 291l133 112q-105 133 -78 322q24 187 168 322l-100 112l79 76l101 -115q156 109 332 109q178 0 303 -109l133 115l59 -76l-133 -112q103 -130 78 -322q-27 -191 -168 -322l100 -112l-80 -76l-100 115q-156 -109 -334 -109q-176 0 -301 109l-133 -115zM248 725
q-23 -162 75 -277.5t257 -115.5t289 115.5t153 277.5q23 163 -75 278t-257 115t-289 -115t-153 -278z" />
    <glyph glyph-name="yen" unicode="&#xa5;" horiz-adv-x="1064" 
d="M465 0l51 369h-348l14 98h348l23 158l-14 32h-330l14 99h275l-293 694h139l293 -705l500 705h133l-490 -694h275l-15 -99h-329l-23 -32l-22 -158h348l-15 -98h-348l-51 -369h-135z" />
    <glyph glyph-name="brokenbar" unicode="&#xa6;" horiz-adv-x="704" 
d="M403 1534h107v-795h-107v795zM403 397h107v-792h-107v792z" />
    <glyph glyph-name="section" unicode="&#xa7;" horiz-adv-x="1064" 
d="M500 465l194 -107q66 33 120.5 85.5t62.5 111.5q9 66 -29 117t-94 84l-142 84q-208 -66 -227 -195q0 -21 -2 -36t4 -30.5t9.5 -26t14.5 -22t18.5 -19t21 -16.5t23.5 -15t26 -15zM125 -49l133 61q22 -90 83 -137t157 -47q100 0 181.5 53t94.5 146q6 44 -9.5 81t-47 64
t-74 51.5t-89.5 47.5t-94.5 47.5t-89 55.5t-71.5 67.5t-43.5 87.5t-5.5 112q25 171 254 264q-152 100 -131 260q14 101 81.5 176t157.5 110.5t187 35.5q111 0 193.5 -48t107.5 -145l-129 -69q-41 139 -195 139q-99 0 -177 -52.5t-91 -146.5q-7 -53 19 -96t74 -73.5
t106.5 -59.5t117 -62t105 -72.5t70.5 -99t14 -133.5q-24 -170 -219 -270q64 -41 96 -107t20 -145q-15 -105 -80.5 -184.5t-156 -118.5t-191.5 -39q-134 0 -231.5 62t-126.5 184z" />
    <glyph glyph-name="dieresis" unicode="&#xa8;" 
d="M141 1335q4 41 37 70t74 29t66 -29t20 -70q-6 -41 -39 -69.5t-74 -28.5t-65.5 28.5t-18.5 69.5zM530 1335q4 41 37 70t74 29t66 -29t20 -70q-6 -41 -39 -69.5t-74 -28.5t-65.5 28.5t-18.5 69.5z" />
    <glyph glyph-name="copyright" unicode="&#xa9;" horiz-adv-x="1638" 
d="M1341 883h-110q-8 89 -69.5 150.5t-168.5 62.5q-151 0 -254.5 -107t-126.5 -264q-15 -102 11.5 -185.5t95.5 -134.5t170 -51q107 0 187.5 61.5t109.5 151.5h110q-40 -147 -156.5 -229t-265.5 -82q-136 0 -228 61t-128 166.5t-16 241.5q28 208 163.5 338.5t340.5 130.5
q149 0 242 -82t93 -229zM160 725q22 155 102 296t196 243t265.5 162.5t304.5 60.5t287.5 -60.5t220 -162.5t128.5 -243t19 -296t-102.5 -296t-197 -243t-266 -162.5t-304.5 -60.5t-287 60.5t-219.5 162.5t-128 243t-18.5 296zM270 725q-25 -177 41 -327t203.5 -237
t314.5 -87t339.5 87t271 237t133.5 327q18 133 -17 253.5t-110 207.5t-188 138.5t-246 51.5q-177 0 -339.5 -87t-270.5 -237t-132 -327z" />
    <glyph glyph-name="ordfeminine" unicode="&#xaa;" horiz-adv-x="690" 
d="M555 1233h131l2 18q6 71 -26 104.5t-125 33.5q-59 0 -104.5 -17t-98.5 -55l-41 78q109 80 278 80q126 0 179 -51.5t36 -172.5l-22 -164q-21 -147 -21 -206h-100q-1 20 -0.5 29.5t3 31t3.5 33.5h-4q-80 -107 -227 -107q-96 0 -155 41t-48 125q8 57 41 98t83.5 62t103 30
t112.5 9zM674 1147h-78q-49 0 -92.5 -4.5t-87 -16t-71.5 -34t-32 -54.5q-4 -36 37.5 -60t98.5 -24q97 0 155.5 57t67.5 122z" />
    <glyph glyph-name="guillemotleft" unicode="&#xab;" horiz-adv-x="985" 
d="M420 70l-223 415l340 416l77 -59l-288 -357l192 -360zM760 70l-223 415l340 416l77 -59l-288 -357l192 -360z" />
    <glyph glyph-name="logicalnot" unicode="&#xac;" horiz-adv-x="1363" 
d="M1145 274l61 445h-946l14 98h1045l-76 -543h-98z" />
    <glyph glyph-name="uni00AD" unicode="&#xad;" horiz-adv-x="681" 
d="M150 430l14 111h506l-15 -111h-505z" />
    <glyph glyph-name="registered" unicode="&#xae;" horiz-adv-x="1638" 
d="M748 674l-54 -385h-110l123 878h337q146 0 203 -60.5t39 -182.5q-30 -213 -256 -250l209 -385h-125l-209 385h-157zM803 1069l-41 -297h141q37 0 61.5 1.5t58 6t55.5 14.5t44.5 26t35.5 42.5t18 61.5q6 40 -7 70t-40.5 45.5t-59.5 22.5t-70 7h-196zM160 725
q22 155 102 296t196 243t265.5 162.5t304.5 60.5t287.5 -60.5t220 -162.5t128.5 -243t19 -296t-102.5 -296t-197 -243t-266 -162.5t-304.5 -60.5t-287 60.5t-219.5 162.5t-128 243t-18.5 296zM270 725q-25 -177 41 -327t203.5 -237t314.5 -87t339.5 87t271 237t133.5 327
q18 133 -17 253.5t-110 207.5t-188 138.5t-246 51.5q-177 0 -339.5 -87t-270.5 -237t-132 -327z" />
    <glyph glyph-name="macron" unicode="&#xaf;" 
d="M705 1339l-15 -98h-540l14 98h541z" />
    <glyph glyph-name="degree" unicode="&#xb0;" horiz-adv-x="819" 
d="M535 885q-123 0 -197 86.5t-57 210.5q17 123 114.5 208t220.5 85t197 -85t57 -208q-17 -124 -114.5 -210.5t-220.5 -86.5zM547 983q82 0 148.5 58t76.5 139q11 82 -38.5 139t-131.5 57t-147.5 -57t-75.5 -139q-11 -82 38 -139.5t130 -57.5z" />
    <glyph glyph-name="plusminus" unicode="&#xb1;" horiz-adv-x="1363" 
d="M254 670l14 98h467l51 375h99l-51 -375h479l-15 -98h-479l-53 -375h-98l53 375h-467zM182 98l13 99h1028l-13 -99h-1028z" />
    <glyph glyph-name="twosuperior" unicode="&#xb2;" horiz-adv-x="692" 
d="M131 592l12 88l400 344q42 36 61 53.5t46.5 48t40.5 59t18 62.5q8 58 -34 93.5t-122 35.5q-135 0 -193 -121l-102 9q28 74 84.5 124t114 68.5t114.5 18.5q122 0 192.5 -60.5t55.5 -163.5q-6 -48 -26 -90t-57.5 -83.5t-66.5 -68.5t-83 -71l-295 -248h450l-12 -98h-598z
" />
    <glyph glyph-name="threesuperior" unicode="&#xb3;" horiz-adv-x="692" 
d="M401 999l13 99h47q76 0 141 37.5t76 115.5q8 53 -31 89t-110 36q-116 0 -195 -102l-72 51q116 150 281 150q115 0 182.5 -61.5t54.5 -160.5q-9 -68 -64 -123t-132 -79v-4q86 -12 129.5 -73.5t32.5 -146.5q-17 -113 -110 -180t-222 -67q-216 0 -260 182l102 37
q29 -121 172 -121q70 0 135 47.5t72 108.5q6 47 -7.5 80t-44.5 51t-69 26t-86 8h-35z" />
    <glyph glyph-name="acute" unicode="&#xb4;" 
d="M289 1155l256 295h164l-318 -295h-102z" />
    <glyph glyph-name="mu" unicode="&#xb5;" horiz-adv-x="1138" 
d="M1098 946l-97 -680q-6 -40 -15 -144.5t-11 -121.5h-123q16 144 14 166h-6q-50 -82 -144.5 -136.5t-205.5 -54.5q-152 0 -227 78l-74 -520h-121l199 1413h123l-78 -557q-45 -303 194 -303q144 0 250 100t131 287l68 473h123z" />
    <glyph glyph-name="paragraph" unicode="&#xb6;" horiz-adv-x="1228" 
d="M510 -258l129 920q-179 0 -285.5 114t-83.5 273q28 192 163 296.5t351 104.5h465l-241 -1708h-123l227 1610h-252l-227 -1610h-123z" />
    <glyph glyph-name="periodcentered" unicode="&#xb7;" horiz-adv-x="532" 
d="M260 651q4 41 37 70t74 29t66 -29t20 -70q-6 -41 -39 -69.5t-74 -28.5t-65.5 28.5t-18.5 69.5z" />
    <glyph glyph-name="cedilla" unicode="&#xb8;" 
d="M350 0l-114 -131l4 -4q25 14 65 14q71 0 115 -38.5t35 -108.5q-9 -58 -50.5 -99t-94 -58t-109.5 -17q-104 0 -189 43l37 65q60 -35 152 -35q47 0 90.5 22.5t50.5 65.5q6 42 -25.5 64t-76.5 22q-50 0 -93 -16l-28 31l153 180h78z" />
    <glyph glyph-name="onesuperior" unicode="&#xb9;" horiz-adv-x="692" 
d="M446 592l107 760l-195 -135l-41 69l250 176h111l-121 -870h-111z" />
    <glyph glyph-name="ordmasculine" unicode="&#xba;" horiz-adv-x="790" 
d="M233 1171q20 135 120.5 219.5t246.5 84.5q143 0 224 -84t61 -220q-19 -133 -123 -218t-246 -85q-147 0 -224.5 84.5t-58.5 218.5zM332 1171q-11 -89 43 -153t151 -64t172.5 63.5t87.5 153.5q14 94 -40.5 156t-157.5 62q-96 0 -170 -65t-86 -153z" />
    <glyph glyph-name="guillemotright" unicode="&#xbb;" horiz-adv-x="985" 
d="M362 901l222 -416l-338 -415l-78 59l287 356l-191 361zM702 901l222 -416l-338 -415l-78 59l287 356l-191 361z" />
    <glyph glyph-name="onequarter" unicode="&#xbc;" horiz-adv-x="1593" 
d="M1278 0l29 209h-389l14 92l459 567h120l-79 -561h131l-15 -98h-131l-28 -209h-111zM1321 307l57 414h-4l-332 -414h279zM383 592l106 760l-194 -135l-41 69l250 176h110l-120 -870h-111zM233 -12l1149 1532l86 -58l-1151 -1532z" />
    <glyph glyph-name="onehalf" unicode="&#xbd;" horiz-adv-x="1593" 
d="M367 592l106 760l-194 -135l-41 69l249 176h111l-121 -870h-110zM215 -12l1149 1532l86 -58l-1151 -1532zM938 0l12 88l402 344q42 36 61 53.5t46 48t40 59t17 62.5q8 58 -33 93.5t-121 35.5q-72 0 -120 -34t-73 -86l-104 8q28 74 85 124t115 68.5t115 18.5
q122 0 191.5 -60.5t54.5 -163.5q-6 -48 -26 -90t-57.5 -84t-65.5 -67.5t-82 -71.5l-295 -248h450l-14 -98h-598z" />
    <glyph glyph-name="threequarters" unicode="&#xbe;" horiz-adv-x="1593" 
d="M1311 0l28 209h-389l15 92l458 567h121l-80 -561h131l-14 -98h-131l-29 -209h-110zM1350 307l57 414h-4l-332 -414h279zM389 999l12 99h48q50 3 92 16t80 48t45 89q8 53 -31.5 89t-110.5 36q-115 0 -194 -102l-72 51q116 150 281 150q115 0 182.5 -61.5t54.5 -160.5
q-9 -68 -64 -123t-132 -79v-4q86 -12 129 -73.5t32 -146.5q-17 -113 -109.5 -180t-221.5 -67q-216 0 -263 182l105 37q29 -121 172 -121q70 0 135 47.5t72 108.5q6 47 -7.5 80t-44.5 51t-69 26t-86 8h-35zM338 -12l1149 1532l86 -58l-1151 -1532z" />
    <glyph glyph-name="questiondown" unicode="&#xbf;" horiz-adv-x="948" 
d="M616 614l-24 -172q-7 -55 -31.5 -103t-57.5 -83.5t-71.5 -69t-77.5 -67t-72 -68.5t-57.5 -82.5t-31.5 -101.5q-15 -111 39 -179.5t165 -68.5q105 0 184 64.5t117 173.5l131 -17q-49 -155 -170.5 -243.5t-275.5 -88.5q-166 0 -258.5 94t-69.5 259q10 70 36.5 127.5
t61.5 97t75 74t80 67t74 67.5t59.5 83t33.5 106l19 131h122zM692 909q-4 -41 -36.5 -69.5t-73.5 -28.5t-66 28.5t-20 69.5q6 41 38.5 70t73.5 29t65.5 -29t18.5 -70z" />
    <glyph glyph-name="Agrave" unicode="&#xc0;" horiz-adv-x="1402" 
d="M10 0l838 1450h139l406 -1450h-152l-104 385h-768l-217 -385h-142zM1106 508l-217 795l-449 -795h666zM1036 1540l-172 295h-164l234 -295h102z" />
    <glyph glyph-name="Aacute" unicode="&#xc1;" horiz-adv-x="1402" 
d="M10 0l838 1450h139l406 -1450h-152l-104 385h-768l-217 -385h-142zM1106 508l-217 795l-449 -795h666zM1053 1835l-254 -295h102l316 295h-164z" />
    <glyph glyph-name="Acircumflex" unicode="&#xc2;" horiz-adv-x="1402" 
d="M10 0l838 1450h139l406 -1450h-152l-104 385h-768l-217 -385h-142zM1106 508l-217 795l-449 -795h666zM887 1835l-262 -295h120l197 221l135 -221h133l-180 295h-143z" />
    <glyph glyph-name="Atilde" unicode="&#xc3;" horiz-adv-x="1402" 
d="M10 0l838 1450h139l406 -1450h-152l-104 385h-768l-217 -385h-142zM1106 508l-217 795l-449 -795h666zM604 1575h74q21 45 47.5 71.5t69.5 26.5q14 0 32.5 -5.5t28 -9.5t36 -17.5t32.5 -16.5q4 -2 19.5 -9.5t21 -10.5t19 -9t22 -8.5t20 -5.5t23 -4.5t22.5 -1.5
q75 0 125.5 60.5t75.5 148.5h-74q-13 -41 -42.5 -69.5t-70.5 -28.5q-14 0 -30.5 5t-26.5 9.5t-33 16.5t-32 16q-88 51 -146 51q-72 0 -139 -70q-46 -46 -74 -139z" />
    <glyph glyph-name="Adieresis" unicode="&#xc4;" horiz-adv-x="1402" 
d="M10 0l838 1450h139l406 -1450h-152l-104 385h-768l-217 -385h-142zM1106 508l-217 795l-449 -795h666zM651 1720q-6 -41 18.5 -69.5t65.5 -28.5t74 28.5t39 69.5q5 41 -20 70t-66 29t-74 -29t-37 -70zM1040 1720q-6 -41 18.5 -69.5t65.5 -28.5t74 28.5t39 69.5
q5 41 -20 70t-66 29t-74 -29t-37 -70z" />
    <glyph glyph-name="Aring" unicode="&#xc5;" horiz-adv-x="1402" 
d="M10 0l838 1450h139l406 -1450h-152l-104 385h-768l-217 -385h-142zM1106 508l-217 795l-449 -795h666zM752 1714q-11 -80 38 -137t128 -57q77 0 140 58t75 134q12 77 -36.5 137t-125.5 60q-81 0 -144 -57t-75 -138zM1059 1714q-8 -52 -45.5 -86.5t-87.5 -34.5t-79 34
t-22 85q8 52 45.5 87.5t87.5 35.5q51 0 80 -35t21 -86z" />
    <glyph glyph-name="AE" unicode="&#xc6;" horiz-adv-x="1896" 
d="M-10 0l1149 1450h825l-18 -123h-600l-72 -516h565l-18 -123h-566l-79 -565h616l-16 -123h-752l53 385h-639l-305 -385h-143zM1096 508l114 819h-24l-649 -819h559z" />
    <glyph glyph-name="Ccedilla" unicode="&#xc7;" horiz-adv-x="1441" 
d="M1325 311l100 -84q-230 -264 -577 -264q-37 0 -53 2l-84 -96l4 -4q25 14 65 14q70 0 114.5 -38.5t35.5 -108.5q-9 -58 -50.5 -99t-94 -58t-109.5 -17q-104 0 -189 43l37 65q60 -35 152 -35q47 0 90.5 22.5t50.5 65.5q6 42 -25.5 64t-76.5 22q-49 0 -92 -16l-29 31
l131 153q-181 25 -308.5 127.5t-182.5 265t-27 359.5q30 219 149 392.5t304 271.5t403 98q324 0 467 -227l-123 -93q-52 97 -149 147t-211 50q-185 0 -338.5 -85t-247.5 -229.5t-119 -324.5q-26 -180 27.5 -324.5t182.5 -229.5t314 -85q118 0 245 57.5t214 167.5z" />
    <glyph glyph-name="Egrave" unicode="&#xc8;" horiz-adv-x="1214" 
d="M199 0l204 1450h887l-18 -123h-752l-71 -516h704l-18 -123h-705l-80 -565h785l-17 -123h-919zM942 1540l-172 295h-164l234 -295h102z" />
    <glyph glyph-name="Eacute" unicode="&#xc9;" horiz-adv-x="1214" 
d="M199 0l204 1450h887l-18 -123h-752l-71 -516h704l-18 -123h-705l-80 -565h785l-17 -123h-919zM958 1835l-253 -295h102l315 295h-164z" />
    <glyph glyph-name="Ecircumflex" unicode="&#xca;" horiz-adv-x="1214" 
d="M199 0l204 1450h887l-18 -123h-752l-71 -516h704l-18 -123h-705l-80 -565h785l-17 -123h-919zM793 1835l-263 -295h121l197 221l135 -221h133l-180 295h-143z" />
    <glyph glyph-name="Edieresis" unicode="&#xcb;" horiz-adv-x="1214" 
d="M199 0l204 1450h887l-18 -123h-752l-71 -516h704l-18 -123h-705l-80 -565h785l-17 -123h-919zM557 1720q-6 -41 18.5 -69.5t65.5 -28.5t74 28.5t39 69.5q5 41 -20 70t-66 29t-74 -29t-37 -70zM946 1720q-6 -41 18.5 -69.5t65.5 -28.5t74 28.5t39 69.5q5 41 -20 70t-66 29
t-74 -29t-37 -70z" />
    <glyph glyph-name="Igrave" unicode="&#xcc;" horiz-adv-x="532" 
d="M199 0l204 1450h136l-205 -1450h-135zM600 1540l-172 295h-164l234 -295h102z" />
    <glyph glyph-name="Iacute" unicode="&#xcd;" horiz-adv-x="532" 
d="M199 0l204 1450h136l-205 -1450h-135zM616 1835l-254 -295h103l315 295h-164z" />
    <glyph glyph-name="Icircumflex" unicode="&#xce;" horiz-adv-x="532" 
d="M199 0l204 1450h136l-205 -1450h-135zM451 1835l-263 -295h121l197 221l135 -221h133l-180 295h-143z" />
    <glyph glyph-name="Idieresis" unicode="&#xcf;" horiz-adv-x="532" 
d="M199 0l204 1450h136l-205 -1450h-135zM215 1720q-6 -41 18.5 -69.5t65.5 -28.5t74 28.5t39 69.5q5 41 -20 70t-66 29t-74 -29t-37 -70zM604 1720q-6 -41 18.5 -69.5t65.5 -28.5t74 28.5t39 69.5q5 41 -20 70t-66 29t-74 -29t-37 -70z" />
    <glyph glyph-name="Eth" unicode="&#xd0;" horiz-adv-x="1517" 
d="M502 1327l-72 -516h528l-16 -111h-528l-82 -577h278q117 0 222 22.5t198 70t164.5 117.5t120 170t65.5 222t-3.5 222t-72 170t-130.5 117.5t-178 70t-216 22.5h-278zM180 0l99 700h-160l16 111h160l90 639h449q121 0 222 -22t170 -57t122.5 -86t85 -102t52 -112.5
t28 -110t8.5 -101.5t-1 -80.5t-5 -53.5q-5 -36 -14 -74.5t-37 -114.5t-67 -142t-109 -141.5t-157 -128.5t-217.5 -88.5t-285.5 -35.5h-449z" />
    <glyph glyph-name="Ntilde" unicode="&#xd1;" horiz-adv-x="1593" 
d="M199 0l204 1450h175l702 -1270h4l180 1270h135l-204 -1450h-174l-705 1270h-4l-178 -1270h-135zM698 1575h74q21 45 47.5 71.5t69.5 26.5q14 0 32.5 -5.5t28 -9.5t36 -17.5t32.5 -16.5q4 -2 19.5 -9.5t21 -10.5t19 -9t22 -8.5t20 -5.5t23 -4.5t22.5 -1.5q75 0 125.5 60.5
t75.5 148.5h-74q-14 -41 -42.5 -69.5t-69.5 -28.5q-14 0 -30.5 5t-26 9t-34.5 16.5t-32 16.5q-88 51 -146 51q-72 0 -139 -70q-46 -46 -74 -139z" />
    <glyph glyph-name="Ograve" unicode="&#xd2;" horiz-adv-x="1708" 
d="M207 725q30 219 149 392.5t304 271.5t403 98t375.5 -98t227.5 -271.5t40 -392.5q-31 -219 -150.5 -392.5t-304.5 -271.5t-403 -98t-375.5 98t-227 271.5t-38.5 392.5zM342 725q-26 -180 27.5 -324.5t182.5 -229.5t314 -85t338 85t247 229.5t120 324.5q18 135 -8.5 252
t-92.5 202.5t-175 135t-248 49.5q-185 0 -338.5 -85t-247.5 -229.5t-119 -324.5zM1188 1540l-172 295h-164l233 -295h103z" />
    <glyph glyph-name="Oacute" unicode="&#xd3;" horiz-adv-x="1708" 
d="M207 725q30 219 149 392.5t304 271.5t403 98t375.5 -98t227.5 -271.5t40 -392.5q-31 -219 -150.5 -392.5t-304.5 -271.5t-403 -98t-375.5 98t-227 271.5t-38.5 392.5zM342 725q-26 -180 27.5 -324.5t182.5 -229.5t314 -85t338 85t247 229.5t120 324.5q18 135 -8.5 252
t-92.5 202.5t-175 135t-248 49.5q-185 0 -338.5 -85t-247.5 -229.5t-119 -324.5zM1204 1835l-254 -295h103l315 295h-164z" />
    <glyph glyph-name="Ocircumflex" unicode="&#xd4;" horiz-adv-x="1708" 
d="M207 725q30 219 149 392.5t304 271.5t403 98t375.5 -98t227.5 -271.5t40 -392.5q-31 -219 -150.5 -392.5t-304.5 -271.5t-403 -98t-375.5 98t-227 271.5t-38.5 392.5zM342 725q-26 -180 27.5 -324.5t182.5 -229.5t314 -85t338 85t247 229.5t120 324.5q18 135 -8.5 252
t-92.5 202.5t-175 135t-248 49.5q-185 0 -338.5 -85t-247.5 -229.5t-119 -324.5zM1038 1835l-262 -295h121l197 221l135 -221h133l-180 295h-144z" />
    <glyph glyph-name="Otilde" unicode="&#xd5;" horiz-adv-x="1708" 
d="M207 725q30 219 149 392.5t304 271.5t403 98t375.5 -98t227.5 -271.5t40 -392.5q-31 -219 -150.5 -392.5t-304.5 -271.5t-403 -98t-375.5 98t-227 271.5t-38.5 392.5zM342 725q-26 -180 27.5 -324.5t182.5 -229.5t314 -85t338 85t247 229.5t120 324.5q18 135 -8.5 252
t-92.5 202.5t-175 135t-248 49.5q-185 0 -338.5 -85t-247.5 -229.5t-119 -324.5zM756 1575h73q21 45 47.5 71.5t69.5 26.5q14 0 32.5 -5.5t28 -9.5t36 -17.5t32.5 -16.5l19 -9.5t21.5 -10.5t19.5 -8.5t22.5 -8.5t20 -6t23.5 -5t22 -1q75 0 124.5 60.5t75.5 148.5h-73
q-13 -41 -42.5 -69.5t-70.5 -28.5q-14 0 -30.5 5t-26 9t-34.5 16.5t-32 16.5q-88 51 -145 51q-73 0 -140 -70q-45 -45 -73 -139z" />
    <glyph glyph-name="Odieresis" unicode="&#xd6;" horiz-adv-x="1708" 
d="M207 725q30 219 149 392.5t304 271.5t403 98t375.5 -98t227.5 -271.5t40 -392.5q-31 -219 -150.5 -392.5t-304.5 -271.5t-403 -98t-375.5 98t-227 271.5t-38.5 392.5zM342 725q-26 -180 27.5 -324.5t182.5 -229.5t314 -85t338 85t247 229.5t120 324.5q18 135 -8.5 252
t-92.5 202.5t-175 135t-248 49.5q-185 0 -338.5 -85t-247.5 -229.5t-119 -324.5zM803 1720q-6 -41 18.5 -69.5t65.5 -28.5t73.5 28.5t38.5 69.5q5 41 -20 70t-66 29t-73.5 -29t-36.5 -70zM1192 1720q-6 -41 18.5 -69.5t65.5 -28.5t74 28.5t39 69.5q5 41 -20 70t-66 29
t-74 -29t-37 -70z" />
    <glyph glyph-name="multiply" unicode="&#xd7;" horiz-adv-x="1363" 
d="M432 1096l348 -406l465 406l58 -70l-463 -405l348 -406l-80 -70l-346 408l-465 -408l-61 70l466 406l-350 405z" />
    <glyph glyph-name="Oslash" unicode="&#xd8;" horiz-adv-x="1708" 
d="M143 31l181 168q-163 213 -117 526q30 219 149 392.5t304 271.5t403 98q280 0 459 -162l174 166l61 -64l-176 -165q81 -102 114.5 -239.5t10.5 -297.5q-31 -219 -150.5 -392.5t-304.5 -271.5t-403 -98q-289 0 -465 170l-176 -166zM426 295l993 936q-143 133 -372 133
q-185 0 -338.5 -85t-247.5 -229.5t-119 -324.5q-38 -257 84 -430zM1479 1165l-996 -938q138 -141 383 -141q185 0 338 85t247 229.5t120 324.5q19 129 -5.5 242.5t-86.5 197.5z" />
    <glyph glyph-name="Ugrave" unicode="&#xd9;" horiz-adv-x="1400" 
d="M1434 1450l-127 -895q-13 -96 -42 -180.5t-79 -161t-117.5 -131.5t-163.5 -87t-211 -32q-96 0 -173 22.5t-127.5 62.5t-86 95t-49.5 121t-17.5 140t9.5 151l127 895h135l-123 -860q-7 -48 -9 -93t2 -97t16 -95.5t37 -85t61 -70t91.5 -46t125.5 -17.5q97 0 175 33.5
t126 83.5t83.5 121t52 133.5t26.5 132.5l122 860h136zM1034 1540l-172 295h-164l234 -295h102z" />
    <glyph glyph-name="Uacute" unicode="&#xda;" horiz-adv-x="1400" 
d="M1434 1450l-127 -895q-13 -96 -42 -180.5t-79 -161t-117.5 -131.5t-163.5 -87t-211 -32q-96 0 -173 22.5t-127.5 62.5t-86 95t-49.5 121t-17.5 140t9.5 151l127 895h135l-123 -860q-7 -48 -9 -93t2 -97t16 -95.5t37 -85t61 -70t91.5 -46t125.5 -17.5q97 0 175 33.5
t126 83.5t83.5 121t52 133.5t26.5 132.5l122 860h136zM1051 1835l-254 -295h102l315 295h-163z" />
    <glyph glyph-name="Ucircumflex" unicode="&#xdb;" horiz-adv-x="1400" 
d="M1434 1450l-127 -895q-13 -96 -42 -180.5t-79 -161t-117.5 -131.5t-163.5 -87t-211 -32q-96 0 -173 22.5t-127.5 62.5t-86 95t-49.5 121t-17.5 140t9.5 151l127 895h135l-123 -860q-7 -48 -9 -93t2 -97t16 -95.5t37 -85t61 -70t91.5 -46t125.5 -17.5q97 0 175 33.5
t126 83.5t83.5 121t52 133.5t26.5 132.5l122 860h136zM885 1835l-262 -295h120l197 221l135 -221h133l-180 295h-143z" />
    <glyph glyph-name="Udieresis" unicode="&#xdc;" horiz-adv-x="1400" 
d="M1434 1450l-127 -895q-13 -96 -42 -180.5t-79 -161t-117.5 -131.5t-163.5 -87t-211 -32q-96 0 -173 22.5t-127.5 62.5t-86 95t-49.5 121t-17.5 140t9.5 151l127 895h135l-123 -860q-7 -48 -9 -93t2 -97t16 -95.5t37 -85t61 -70t91.5 -46t125.5 -17.5q97 0 175 33.5
t126 83.5t83.5 121t52 133.5t26.5 132.5l122 860h136zM649 1720q-6 -41 18.5 -69.5t65.5 -28.5t74 28.5t39 69.5q5 41 -20 70t-66 29t-74 -29t-37 -70zM1038 1720q-6 -41 18.5 -69.5t65.5 -28.5t74 28.5t39 69.5q5 41 -20 70t-66 29t-74 -29t-37 -70z" />
    <glyph glyph-name="Yacute" unicode="&#xdd;" horiz-adv-x="1175" 
d="M520 0l88 625l-415 825h161l340 -688l547 688h152l-650 -825l-88 -625h-135zM938 1835l-254 -295h102l316 295h-164z" />
    <glyph glyph-name="Thorn" unicode="&#xde;" horiz-adv-x="1175" 
d="M199 0l204 1450h134l-45 -320h284q66 0 126 -10.5t119.5 -37.5t99.5 -68.5t59.5 -110t7.5 -155.5q-13 -95 -59.5 -169t-114.5 -119t-148.5 -68t-167.5 -23h-313l-51 -369h-135zM475 1008l-72 -516h308q61 0 115.5 13.5t103 42.5t81 80.5t42.5 119.5q10 67 -10 118.5
t-61.5 81.5t-94 45t-113.5 15h-299z" />
    <glyph glyph-name="germandbls" unicode="&#xdf;" horiz-adv-x="1214" 
d="M662 827l14 111h31q124 0 210 71.5t105 192.5q17 124 -47.5 192t-183.5 68q-81 0 -144.5 -30.5t-105 -85t-67 -122t-36.5 -149.5l-151 -1075h-123l153 1094q30 215 162 347t338 132q165 0 258.5 -97.5t69.5 -269.5q-17 -119 -84 -203t-164 -112v-4q317 -62 264 -434
q-30 -218 -188 -341.5t-383 -123.5q-55 0 -94 10l16 119q45 -19 106 -19q165 0 281 96.5t139 256.5q26 183 -71.5 279.5t-261.5 96.5h-43z" />
    <glyph glyph-name="agrave" unicode="&#xe0;" horiz-adv-x="1062" 
d="M987 629l-33 -232q-36 -265 -36 -397h-115q-3 68 10 154h-4q-67 -92 -153 -135.5t-205 -43.5q-63 0 -118.5 16t-99.5 48.5t-64.5 88.5t-10.5 128q43 317 567 317h143l9 58q18 117 -47 173t-187 56q-165 0 -303 -106l-61 84q74 62 179 97.5t201 35.5q179 0 266 -84
t62 -258zM856 475h-135q-82 0 -153 -11t-134.5 -34.5t-104 -66.5t-48.5 -101q-11 -82 47.5 -129t142.5 -47q94 0 165 28t113 77t65 103t32 118zM643 1450l170 -295h-102l-232 295h164z" />
    <glyph glyph-name="aacute" unicode="&#xe1;" horiz-adv-x="1062" 
d="M987 629l-33 -232q-36 -265 -36 -397h-115q-3 68 10 154h-4q-67 -92 -153 -135.5t-205 -43.5q-63 0 -118.5 16t-99.5 48.5t-64.5 88.5t-10.5 128q43 317 567 317h143l9 58q18 117 -47 173t-187 56q-165 0 -303 -106l-61 84q74 62 179 97.5t201 35.5q179 0 266 -84
t62 -258zM856 475h-135q-82 0 -153 -11t-134.5 -34.5t-104 -66.5t-48.5 -101q-11 -82 47.5 -129t142.5 -47q94 0 165 28t113 77t65 103t32 118zM575 1155l256 295h164l-317 -295h-103z" />
    <glyph glyph-name="acircumflex" unicode="&#xe2;" horiz-adv-x="1062" 
d="M987 629l-33 -232q-36 -265 -36 -397h-115q-3 68 10 154h-4q-67 -92 -153 -135.5t-205 -43.5q-63 0 -118.5 16t-99.5 48.5t-64.5 88.5t-10.5 128q43 317 567 317h143l9 58q18 117 -47 173t-187 56q-165 0 -303 -106l-61 84q74 62 179 97.5t201 35.5q179 0 266 -84
t62 -258zM856 475h-135q-82 0 -153 -11t-134.5 -34.5t-104 -66.5t-48.5 -101q-11 -82 47.5 -129t142.5 -47q94 0 165 28t113 77t65 103t32 118zM401 1155l265 295h143l178 -295h-133l-135 221l-197 -221h-121z" />
    <glyph glyph-name="atilde" unicode="&#xe3;" horiz-adv-x="1062" 
d="M987 629l-33 -232q-36 -265 -36 -397h-115q-3 68 10 154h-4q-67 -92 -153 -135.5t-205 -43.5q-63 0 -118.5 16t-99.5 48.5t-64.5 88.5t-10.5 128q43 317 567 317h143l9 58q18 117 -47 173t-187 56q-165 0 -303 -106l-61 84q74 62 179 97.5t201 35.5q179 0 266 -84
t62 -258zM856 475h-135q-82 0 -153 -11t-134.5 -34.5t-104 -66.5t-48.5 -101q-11 -82 47.5 -129t142.5 -47q94 0 165 28t113 77t65 103t32 118zM455 1190h-74q20 79 74 139q63 70 139 70q57 0 145 -51q4 -2 18 -9.5t19 -10t16.5 -8.5t18.5 -8.5t16.5 -6t18 -4.5t16.5 -1
q41 0 70 29t43 70h74q-23 -87 -74.5 -148t-126.5 -61q-52 0 -148 49q-6 3 -22 11.5t-23 12t-20.5 9.5t-22.5 8.5t-20 5t-21 2.5q-80 0 -116 -98z" />
    <glyph glyph-name="adieresis" unicode="&#xe4;" horiz-adv-x="1062" 
d="M987 629l-33 -232q-36 -265 -36 -397h-115q-3 68 10 154h-4q-67 -92 -153 -135.5t-205 -43.5q-63 0 -118.5 16t-99.5 48.5t-64.5 88.5t-10.5 128q43 317 567 317h143l9 58q18 117 -47 173t-187 56q-165 0 -303 -106l-61 84q74 62 179 97.5t201 35.5q179 0 266 -84
t62 -258zM856 475h-135q-82 0 -153 -11t-134.5 -34.5t-104 -66.5t-48.5 -101q-11 -82 47.5 -129t142.5 -47q94 0 165 28t113 77t65 103t32 118zM428 1335q4 41 37 70t74 29t66 -29t20 -70q-6 -41 -39 -69.5t-74 -28.5t-65.5 28.5t-18.5 69.5zM817 1335q4 41 37 70t74 29
t66 -29t20 -70q-6 -41 -39 -69.5t-74 -28.5t-65.5 28.5t-18.5 69.5z" />
    <glyph glyph-name="aring" unicode="&#xe5;" horiz-adv-x="1062" 
d="M987 629l-33 -232q-36 -265 -36 -397h-115q-3 68 10 154h-4q-67 -92 -153 -135.5t-205 -43.5q-63 0 -118.5 16t-99.5 48.5t-64.5 88.5t-10.5 128q43 317 567 317h143l9 58q18 117 -47 173t-187 56q-165 0 -303 -106l-61 84q74 62 179 97.5t201 35.5q179 0 266 -84
t62 -258zM856 475h-135q-82 0 -153 -11t-134.5 -34.5t-104 -66.5t-48.5 -101q-11 -82 47.5 -129t142.5 -47q94 0 165 28t113 77t65 103t32 118zM528 1329q-12 -79 37 -136.5t127 -57.5t141.5 58t75.5 134q12 77 -36 137t-125 60q-81 0 -144.5 -57.5t-75.5 -137.5zM836 1329
q-8 -51 -46.5 -86t-89.5 -35q-50 0 -78 34t-20 85q6 51 44 87t89 36q50 0 78.5 -34.5t22.5 -86.5z" />
    <glyph glyph-name="ae" unicode="&#xe6;" horiz-adv-x="1744" 
d="M881 553l2 18q42 289 -250 289q-165 0 -303 -106l-62 84q74 62 179.5 97.5t201.5 35.5q136 0 219.5 -44.5t120.5 -152.5q63 93 167.5 145t207.5 52q88 0 159.5 -26.5t124 -80t73.5 -143t5 -207.5l-10 -72h-729q-27 -153 46 -254.5t233 -101.5q86 0 162 40t131 112l88 -70
q-95 -104 -191 -148.5t-227 -44.5q-130 0 -218.5 57.5t-121.5 176.5q-73 -121 -189.5 -177.5t-259.5 -56.5q-63 0 -118.5 16t-99.5 48.5t-64.5 88.5t-10.5 128q5 41 20 78t51 78.5t88.5 71.5t140 49.5t198.5 19.5h236zM864 442h-239q-82 0 -146.5 -13.5t-101.5 -33
t-61.5 -46t-33.5 -47t-12 -40.5q-11 -82 48 -129t143 -47q180 0 280.5 99t122.5 257zM1004 553h606q18 136 -45.5 221.5t-212.5 85.5q-137 0 -233.5 -88.5t-114.5 -218.5z" />
    <glyph glyph-name="ccedilla" unicode="&#xe7;" horiz-adv-x="985" 
d="M893 217l84 -78q-161 -164 -373 -164q-19 0 -29 2l-92 -108l4 -4q25 14 66 14q70 0 114 -38.5t35 -108.5q-9 -58 -50.5 -99t-93.5 -58t-109 -17q-104 0 -189 43l37 65q60 -35 152 -35q47 0 90.5 22.5t50.5 65.5q6 42 -26 64t-77 22q-49 0 -92 -16l-28 31l139 166
q-173 29 -264.5 162.5t-65.5 324.5q31 217 191 357.5t378 140.5q102 0 186 -42.5t142 -121.5l-108 -74q-96 127 -236 127q-169 0 -287.5 -111.5t-142.5 -275.5q-22 -164 65.5 -275.5t256.5 -111.5q148 0 272 131z" />
    <glyph glyph-name="egrave" unicode="&#xe8;" horiz-adv-x="1138" 
d="M944 254l80 -76q-166 -203 -438 -203q-215 0 -327 139.5t-81 360.5q29 213 183 354.5t360 141.5q71 0 131.5 -17.5t103.5 -48.5t76 -73.5t49.5 -91.5t23.5 -103t-3 -109l-12 -86h-795q-1 -22 -2.5 -51.5t7.5 -63.5t20.5 -68t37 -65t57.5 -55t81 -38.5t108 -14.5
q95 0 189.5 46t150.5 122zM311 553h672q17 126 -66 216.5t-219 90.5q-76 0 -142.5 -27.5t-108.5 -66.5t-74 -84t-46 -78t-16 -51zM680 1450l170 -295h-102l-232 295h164z" />
    <glyph glyph-name="eacute" unicode="&#xe9;" horiz-adv-x="1138" 
d="M944 254l80 -76q-166 -203 -438 -203q-215 0 -327 139.5t-81 360.5q29 213 183 354.5t360 141.5q71 0 131.5 -17.5t103.5 -48.5t76 -73.5t49.5 -91.5t23.5 -103t-3 -109l-12 -86h-795q-1 -22 -2.5 -51.5t7.5 -63.5t20.5 -68t37 -65t57.5 -55t81 -38.5t108 -14.5
q95 0 189.5 46t150.5 122zM311 553h672q17 126 -66 216.5t-219 90.5q-76 0 -142.5 -27.5t-108.5 -66.5t-74 -84t-46 -78t-16 -51zM612 1155l256 295h164l-317 -295h-103z" />
    <glyph glyph-name="ecircumflex" unicode="&#xea;" horiz-adv-x="1138" 
d="M944 254l80 -76q-166 -203 -438 -203q-215 0 -327 139.5t-81 360.5q29 213 183 354.5t360 141.5q71 0 131.5 -17.5t103.5 -48.5t76 -73.5t49.5 -91.5t23.5 -103t-3 -109l-12 -86h-795q-1 -22 -2.5 -51.5t7.5 -63.5t20.5 -68t37 -65t57.5 -55t81 -38.5t108 -14.5
q95 0 189.5 46t150.5 122zM311 553h672q17 126 -66 216.5t-219 90.5q-76 0 -142.5 -27.5t-108.5 -66.5t-74 -84t-46 -78t-16 -51zM438 1155l264 295h144l178 -295h-133l-135 221l-197 -221h-121z" />
    <glyph glyph-name="edieresis" unicode="&#xeb;" horiz-adv-x="1138" 
d="M944 254l80 -76q-166 -203 -438 -203q-215 0 -327 139.5t-81 360.5q29 213 183 354.5t360 141.5q71 0 131.5 -17.5t103.5 -48.5t76 -73.5t49.5 -91.5t23.5 -103t-3 -109l-12 -86h-795q-1 -22 -2.5 -51.5t7.5 -63.5t20.5 -68t37 -65t57.5 -55t81 -38.5t108 -14.5
q95 0 189.5 46t150.5 122zM311 553h672q17 126 -66 216.5t-219 90.5q-76 0 -142.5 -27.5t-108.5 -66.5t-74 -84t-46 -78t-16 -51zM465 1335q4 41 36.5 70t73.5 29t66.5 -29t20.5 -70q-6 -41 -39 -69.5t-74 -28.5t-65.5 28.5t-18.5 69.5zM854 1335q4 41 37 70t74 29t66 -29
t20 -70q-6 -41 -39 -69.5t-74 -28.5t-65.5 28.5t-18.5 69.5z" />
    <glyph glyph-name="igrave" unicode="&#xec;" 
d="M184 0l133 946h123l-133 -946h-123zM356 1450l170 -295h-102l-231 295h163z" />
    <glyph glyph-name="iacute" unicode="&#xed;" 
d="M184 0l133 946h123l-133 -946h-123zM289 1155l256 295h164l-318 -295h-102z" />
    <glyph glyph-name="icircumflex" unicode="&#xee;" 
d="M184 0l133 946h123l-133 -946h-123zM115 1155l264 295h143l178 -295h-133l-135 221l-196 -221h-121z" />
    <glyph glyph-name="idieresis" unicode="&#xef;" 
d="M184 0l133 946h123l-133 -946h-123zM141 1335q4 41 37 70t74 29t66 -29t20 -70q-6 -41 -39 -69.5t-74 -28.5t-65.5 28.5t-18.5 69.5zM530 1335q4 41 37 70t74 29t66 -29t20 -70q-6 -41 -39 -69.5t-74 -28.5t-65.5 28.5t-18.5 69.5z" />
    <glyph glyph-name="eth" unicode="&#xf0;" horiz-adv-x="1216" 
d="M479 1237l230 115q-90 93 -170 159l114 62q97 -79 172 -164l230 115l63 -62l-233 -116q357 -374 295 -822q-35 -251 -194.5 -400t-381.5 -149q-218 0 -337.5 140.5t-90.5 357.5q31 217 191 357.5t378 140.5q179 0 289 -113l4 4q-54 129 -126.5 240t-143.5 184l-236 -117z
M299 473q-22 -164 65.5 -275.5t256.5 -111.5t287.5 111.5t140.5 275.5q24 164 -63.5 275.5t-256.5 111.5t-287.5 -111.5t-142.5 -275.5z" />
    <glyph glyph-name="ntilde" unicode="&#xf1;" horiz-adv-x="1138" 
d="M164 0l96 680q4 35 14 138t13 128h123q-17 -148 -15 -166h6q50 82 145 136.5t206 54.5q86 0 148 -22.5t94.5 -61.5t51 -91t17.5 -111t-8 -122l-80 -563h-123l78 557q45 303 -195 303q-144 0 -250 -100t-133 -287l-65 -473h-123zM492 1190h-74q20 79 74 139q63 70 139 70
q57 0 145 -51q4 -2 18 -9.5t19 -10t16.5 -8.5t18.5 -8.5t16.5 -6t18 -4.5t16.5 -1q41 0 70 29t43 70h73q-23 -87 -74 -148t-126 -61q-52 0 -148 49q-6 3 -22 11.5t-23 12t-20.5 9.5t-22.5 8.5t-20 5t-21 2.5q-80 0 -116 -98z" />
    <glyph glyph-name="ograve" unicode="&#xf2;" horiz-adv-x="1216" 
d="M176 473q31 217 191 357.5t378 140.5t337.5 -140.5t88.5 -357.5q-29 -217 -189 -357.5t-378 -140.5t-337.5 140.5t-90.5 357.5zM299 473q-22 -164 65.5 -275.5t256.5 -111.5t287.5 111.5t140.5 275.5q24 164 -63.5 275.5t-256.5 111.5t-287.5 -111.5t-142.5 -275.5z
M719 1450l170 -295h-103l-231 295h164z" />
    <glyph glyph-name="oacute" unicode="&#xf3;" horiz-adv-x="1216" 
d="M176 473q31 217 191 357.5t378 140.5t337.5 -140.5t88.5 -357.5q-29 -217 -189 -357.5t-378 -140.5t-337.5 140.5t-90.5 357.5zM299 473q-22 -164 65.5 -275.5t256.5 -111.5t287.5 111.5t140.5 275.5q24 164 -63.5 275.5t-256.5 111.5t-287.5 -111.5t-142.5 -275.5z
M651 1155l256 295h164l-317 -295h-103z" />
    <glyph glyph-name="ocircumflex" unicode="&#xf4;" horiz-adv-x="1216" 
d="M176 473q31 217 191 357.5t378 140.5t337.5 -140.5t88.5 -357.5q-29 -217 -189 -357.5t-378 -140.5t-337.5 140.5t-90.5 357.5zM299 473q-22 -164 65.5 -275.5t256.5 -111.5t287.5 111.5t140.5 275.5q24 164 -63.5 275.5t-256.5 111.5t-287.5 -111.5t-142.5 -275.5z
M477 1155l264 295h144l178 -295h-133l-135 221l-197 -221h-121z" />
    <glyph glyph-name="otilde" unicode="&#xf5;" horiz-adv-x="1216" 
d="M176 473q31 217 191 357.5t378 140.5t337.5 -140.5t88.5 -357.5q-29 -217 -189 -357.5t-378 -140.5t-337.5 140.5t-90.5 357.5zM299 473q-22 -164 65.5 -275.5t256.5 -111.5t287.5 111.5t140.5 275.5q24 164 -63.5 275.5t-256.5 111.5t-287.5 -111.5t-142.5 -275.5z
M530 1190h-73q21 81 73 139q63 70 140 70q57 0 145 -51q4 -2 18 -9.5t19 -10t16.5 -8.5t18.5 -8.5t16.5 -6t18 -4.5t16.5 -1q41 0 70 29t43 70h73q-23 -87 -74 -148t-126 -61q-52 0 -148 49q-6 3 -22 11.5t-23 12t-20.5 9.5t-22.5 8.5t-20 5t-21 2.5q-81 0 -117 -98z" />
    <glyph glyph-name="odieresis" unicode="&#xf6;" horiz-adv-x="1216" 
d="M176 473q31 217 191 357.5t378 140.5t337.5 -140.5t88.5 -357.5q-29 -217 -189 -357.5t-378 -140.5t-337.5 140.5t-90.5 357.5zM299 473q-22 -164 65.5 -275.5t256.5 -111.5t287.5 111.5t140.5 275.5q24 164 -63.5 275.5t-256.5 111.5t-287.5 -111.5t-142.5 -275.5z
M504 1335q4 41 36.5 70t73.5 29t66 -29t20 -70q-6 -41 -38.5 -69.5t-73.5 -28.5t-65.5 28.5t-18.5 69.5zM893 1335q4 41 37 70t74 29t66 -29t20 -70q-6 -41 -39 -69.5t-74 -28.5t-65.5 28.5t-18.5 69.5z" />
    <glyph glyph-name="divide" unicode="&#xf7;" horiz-adv-x="1363" 
d="M240 571l14 99h1044l-14 -99h-1044zM709 936q6 43 40.5 73.5t77.5 30.5t70 -30.5t21 -73.5t-41 -74t-78 -31t-69.5 31t-20.5 74zM621 305q6 44 40.5 73.5t77.5 31.5q43 0 69.5 -31t20.5 -74t-40.5 -73.5t-77.5 -30.5t-69.5 30.5t-20.5 73.5z" />
    <glyph glyph-name="oslash" unicode="&#xf8;" horiz-adv-x="1216" 
d="M80 4l164 146q-92 130 -68 323q31 217 191 357.5t378 140.5q187 0 306 -109l161 144l58 -60l-166 -145q95 -130 67 -328q-29 -217 -189 -357.5t-378 -140.5q-193 0 -307 111l-160 -141zM340 236l614 542q-85 82 -225 82q-169 0 -287.5 -111.5t-142.5 -275.5
q-19 -141 41 -237zM1008 715l-615 -545q81 -84 228 -84q169 0 287.5 111.5t140.5 275.5q22 148 -41 242z" />
    <glyph glyph-name="ugrave" unicode="&#xf9;" horiz-adv-x="1138" 
d="M1098 946l-97 -680q-6 -40 -15 -144.5t-11 -121.5h-123q16 144 14 166h-6q-50 -82 -144.5 -136.5t-205.5 -54.5q-86 0 -148 22.5t-94.5 61.5t-51 91t-17.5 111t8 122l80 563h123l-78 -557q-45 -303 194 -303q144 0 250 100t131 287l68 473h123zM680 1450l170 -295h-102
l-232 295h164z" />
    <glyph glyph-name="uacute" unicode="&#xfa;" horiz-adv-x="1138" 
d="M1098 946l-97 -680q-6 -40 -15 -144.5t-11 -121.5h-123q16 144 14 166h-6q-50 -82 -144.5 -136.5t-205.5 -54.5q-86 0 -148 22.5t-94.5 61.5t-51 91t-17.5 111t8 122l80 563h123l-78 -557q-45 -303 194 -303q144 0 250 100t131 287l68 473h123zM612 1155l256 295h164
l-317 -295h-103z" />
    <glyph glyph-name="ucircumflex" unicode="&#xfb;" horiz-adv-x="1138" 
d="M1098 946l-97 -680q-6 -40 -15 -144.5t-11 -121.5h-123q16 144 14 166h-6q-50 -82 -144.5 -136.5t-205.5 -54.5q-86 0 -148 22.5t-94.5 61.5t-51 91t-17.5 111t8 122l80 563h123l-78 -557q-45 -303 194 -303q144 0 250 100t131 287l68 473h123zM438 1155l264 295h144
l178 -295h-133l-135 221l-197 -221h-121z" />
    <glyph glyph-name="udieresis" unicode="&#xfc;" horiz-adv-x="1138" 
d="M1098 946l-97 -680q-6 -40 -15 -144.5t-11 -121.5h-123q16 144 14 166h-6q-50 -82 -144.5 -136.5t-205.5 -54.5q-86 0 -148 22.5t-94.5 61.5t-51 91t-17.5 111t8 122l80 563h123l-78 -557q-45 -303 194 -303q144 0 250 100t131 287l68 473h123zM465 1335q4 41 36.5 70
t73.5 29t66.5 -29t20.5 -70q-6 -41 -39 -69.5t-74 -28.5t-65.5 28.5t-18.5 69.5zM854 1335q4 41 37 70t74 29t66 -29t20 -70q-6 -41 -39 -69.5t-74 -28.5t-65.5 28.5t-18.5 69.5z" />
    <glyph glyph-name="yacute" unicode="&#xfd;" horiz-adv-x="948" 
d="M1051 946l-662 -1239q-104 -199 -289 -199q-46 0 -116 19l26 115q80 -23 109 -23q32 0 60 13.5t50 39t37 48.5t33 57l117 219l-252 950h137l201 -796l418 796h131zM518 1155l256 295h164l-317 -295h-103z" />
    <glyph glyph-name="thorn" unicode="&#xfe;" horiz-adv-x="1251" 
d="M72 -467l282 2015h123l-106 -768h4q67 93 179 142t226 49q218 0 337.5 -140.5t88.5 -357.5q-29 -217 -189 -357.5t-378 -140.5q-73 0 -141 20t-126 64t-85 107h-4l-88 -633h-123zM313 473q-22 -161 77 -274t265 -113q169 0 287.5 111.5t140.5 275.5q24 164 -63 275.5
t-256 111.5q-166 0 -297 -113t-154 -274z" />
    <glyph glyph-name="ydieresis" unicode="&#xff;" horiz-adv-x="948" 
d="M1051 946l-662 -1239q-104 -199 -289 -199q-46 0 -116 19l26 115q80 -23 109 -23q32 0 60 13.5t50 39t37 48.5t33 57l117 219l-252 950h137l201 -796l418 796h131zM371 1335q4 41 36.5 70t73.5 29t66 -29t20 -70q-6 -41 -38.5 -69.5t-73.5 -28.5t-65.5 28.5t-18.5 69.5z
M760 1335q4 41 36.5 70t73.5 29t66 -29t20 -70q-6 -41 -38.5 -69.5t-73.5 -28.5t-65.5 28.5t-18.5 69.5z" />
    <glyph glyph-name="Amacron" unicode="&#x100;" horiz-adv-x="1402" 
d="M10 0l838 1450h139l406 -1450h-152l-104 385h-768l-217 -385h-142zM1106 508l-217 795l-449 -795h666zM1206 1636l15 99h-541l-14 -99h540z" />
    <glyph glyph-name="amacron" unicode="&#x101;" horiz-adv-x="1062" 
d="M987 629l-33 -232q-36 -265 -36 -397h-115q-3 68 10 154h-4q-67 -92 -153 -135.5t-205 -43.5q-63 0 -118.5 16t-99.5 48.5t-64.5 88.5t-10.5 128q43 317 567 317h143l9 58q18 117 -47 173t-187 56q-165 0 -303 -106l-61 84q74 62 179 97.5t201 35.5q179 0 266 -84
t62 -258zM856 475h-135q-82 0 -153 -11t-134.5 -34.5t-104 -66.5t-48.5 -101q-11 -82 47.5 -129t142.5 -47q94 0 165 28t113 77t65 103t32 118zM1016 1339l-15 -98h-540l14 98h541z" />
    <glyph glyph-name="Abreve" unicode="&#x102;" horiz-adv-x="1402" 
d="M10 0l838 1450h139l406 -1450h-152l-104 385h-768l-217 -385h-142zM1106 508l-217 795l-449 -795h666zM788 1804h-86q-10 -121 60.5 -189.5t195.5 -68.5q124 0 214 68t120 190h-86q-31 -90 -85.5 -124.5t-149.5 -34.5q-83 0 -132.5 40t-50.5 119z" />
    <glyph glyph-name="abreve" unicode="&#x103;" horiz-adv-x="1062" 
d="M987 629l-33 -232q-36 -265 -36 -397h-115q-3 68 10 154h-4q-67 -92 -153 -135.5t-205 -43.5q-63 0 -118.5 16t-99.5 48.5t-64.5 88.5t-10.5 128q43 317 567 317h143l9 58q18 117 -47 173t-187 56q-165 0 -303 -106l-61 84q74 62 179 97.5t201 35.5q179 0 266 -84
t62 -258zM856 475h-135q-82 0 -153 -11t-134.5 -34.5t-104 -66.5t-48.5 -101q-11 -82 47.5 -129t142.5 -47q94 0 165 28t113 77t65 103t32 118zM551 1450h-86q-10 -121 60 -189.5t194 -68.5q125 0 215.5 68t120.5 190h-86q-31 -89 -86 -124.5t-150 -35.5q-83 0 -132 40.5
t-50 119.5z" />
    <glyph glyph-name="Aogonek" unicode="&#x104;" horiz-adv-x="1402" 
d="M1370 -375l-29 78q-47 -47 -118 -47q-88 0 -76 96q11 69 68.5 139t117.5 109h60l-408 1450h-139l-836 -1450h142l217 385h768l104 -385q-90 -65 -149 -131t-70 -143q-12 -77 34.5 -122.5t129.5 -45.5q100 0 184 67zM889 1303l215 -795h-666z" />
    <glyph glyph-name="aogonek" unicode="&#x105;" horiz-adv-x="1062" 
d="M932 -375l-29 78q-47 -47 -119 -47q-87 0 -75 96q11 69 68.5 139t117.5 109h23q0 149 36 397l33 232q24 174 -63.5 258t-266.5 84q-97 0 -200 -34.5t-178 -98.5l59 -84q135 106 305 106q124 0 187.5 -55.5t46.5 -173.5l-9 -58h-143q-524 0 -569 -317q-10 -73 11 -129
t65 -88t99.5 -48t119.5 -16q122 0 205.5 43t150.5 136h4q-11 -72 -8 -154q-90 -65 -149 -131t-70 -143q-12 -77 34.5 -122.5t129.5 -45.5q100 0 184 67zM719 475h135l-8 -63q-9 -64 -32.5 -118.5t-66 -103t-114 -76.5t-164.5 -28q-85 0 -143 46.5t-47 129.5q8 59 48.5 102
t104 66.5t134.5 34t153 10.5z" />
    <glyph glyph-name="Cacute" unicode="&#x106;" horiz-adv-x="1441" 
d="M1325 311l100 -84q-230 -264 -577 -264q-218 0 -375.5 98t-227 271.5t-38.5 392.5q30 219 149 392.5t304 271.5t403 98q324 0 467 -227l-123 -93q-52 97 -149 147t-211 50q-185 0 -338.5 -85t-247.5 -229.5t-119 -324.5q-26 -180 27.5 -324.5t182.5 -229.5t314 -85
q118 0 245 57.5t214 167.5zM1167 1835l-254 -295h103l315 295h-164z" />
    <glyph glyph-name="cacute" unicode="&#x107;" horiz-adv-x="985" 
d="M893 217l84 -78q-161 -164 -373 -164q-218 0 -337.5 140.5t-90.5 357.5q31 217 191 357.5t378 140.5q102 0 186 -42.5t142 -121.5l-108 -74q-96 127 -236 127q-169 0 -287.5 -111.5t-142.5 -275.5q-22 -164 65.5 -275.5t256.5 -111.5q148 0 272 131zM647 1155l256 295
h164l-317 -295h-103z" />
    <glyph glyph-name="Ccircumflex" unicode="&#x108;" horiz-adv-x="1441" 
d="M1325 311l100 -84q-230 -264 -577 -264q-218 0 -375.5 98t-227 271.5t-38.5 392.5q30 219 149 392.5t304 271.5t403 98q324 0 467 -227l-123 -93q-52 97 -149 147t-211 50q-185 0 -338.5 -85t-247.5 -229.5t-119 -324.5q-26 -180 27.5 -324.5t182.5 -229.5t314 -85
q118 0 245 57.5t214 167.5zM1038 1835l-262 -295h121l197 221l135 -221h133l-180 295h-144z" />
    <glyph glyph-name="ccircumflex" unicode="&#x109;" horiz-adv-x="985" 
d="M893 217l84 -78q-161 -164 -373 -164q-218 0 -337.5 140.5t-90.5 357.5q31 217 191 357.5t378 140.5q102 0 186 -42.5t142 -121.5l-108 -74q-96 127 -236 127q-169 0 -287.5 -111.5t-142.5 -275.5q-22 -164 65.5 -275.5t256.5 -111.5q148 0 272 131zM471 1155l264 295
h144l178 -295h-133l-136 221l-196 -221h-121z" />
    <glyph glyph-name="Cdotaccent" unicode="&#x10a;" horiz-adv-x="1441" 
d="M1325 311l100 -84q-230 -264 -577 -264q-218 0 -375.5 98t-227 271.5t-38.5 392.5q30 219 149 392.5t304 271.5t403 98q324 0 467 -227l-123 -93q-52 97 -149 147t-211 50q-185 0 -338.5 -85t-247.5 -229.5t-119 -324.5q-26 -180 27.5 -324.5t182.5 -229.5t314 -85
q118 0 245 57.5t214 167.5zM1004 1720q-6 -41 18 -69.5t65 -28.5t74 28.5t39 69.5q5 41 -20 70t-66 29t-73.5 -29t-36.5 -70z" />
    <glyph glyph-name="cdotaccent" unicode="&#x10b;" horiz-adv-x="985" 
d="M893 217l84 -78q-161 -164 -373 -164q-218 0 -337.5 140.5t-90.5 357.5q31 217 191 357.5t378 140.5q102 0 186 -42.5t142 -121.5l-108 -74q-96 127 -236 127q-169 0 -287.5 -111.5t-142.5 -275.5q-22 -164 65.5 -275.5t256.5 -111.5q148 0 272 131zM696 1335
q-6 -41 18.5 -69.5t65.5 -28.5t74 28.5t39 69.5t-18.5 70t-65.5 29t-74 -29t-39 -70z" />
    <glyph glyph-name="Ccaron" unicode="&#x10c;" horiz-adv-x="1441" 
d="M1325 311l100 -84q-230 -264 -577 -264q-218 0 -375.5 98t-227 271.5t-38.5 392.5q30 219 149 392.5t304 271.5t403 98q324 0 467 -227l-123 -93q-52 97 -149 147t-211 50q-185 0 -338.5 -85t-247.5 -229.5t-119 -324.5q-26 -180 27.5 -324.5t182.5 -229.5t314 -85
q118 0 245 57.5t214 167.5zM1137 1540l258 295h-111l-209 -233l-137 233h-127l182 -295h144z" />
    <glyph glyph-name="ccaron" unicode="&#x10d;" horiz-adv-x="985" 
d="M893 217l84 -78q-161 -164 -373 -164q-218 0 -337.5 140.5t-90.5 357.5q31 217 191 357.5t378 140.5q102 0 186 -42.5t142 -121.5l-108 -74q-96 127 -236 127q-169 0 -287.5 -111.5t-142.5 -275.5q-22 -164 65.5 -275.5t256.5 -111.5q148 0 272 131zM831 1155l259 295
h-111l-209 -233l-137 233h-127l182 -295h143z" />
    <glyph glyph-name="Dcaron" unicode="&#x10e;" horiz-adv-x="1517" 
d="M180 0l205 1450h449q121 0 222 -22t170 -57t122.5 -86t85 -102t52 -112.5t28 -110t8.5 -101.5t-1 -80.5t-5 -53.5q-5 -36 -14 -74.5t-37 -114.5t-67 -142t-109 -141.5t-157 -128.5t-217.5 -88.5t-285.5 -35.5h-449zM502 1327l-170 -1204h278q117 0 222 22.5t198 70
t164.5 117.5t120 170t65.5 222t-3.5 222t-72 170t-130.5 117.5t-178 70t-216 22.5h-278zM952 1540l258 295h-110l-209 -233l-137 233h-127l182 -295h143z" />
    <glyph glyph-name="dcaron" unicode="&#x10f;" horiz-adv-x="1251" 
d="M991 0l23 166h-4q-67 -93 -179.5 -142t-226.5 -49q-218 0 -337.5 140.5t-90.5 357.5q31 217 191 357.5t378 140.5q114 0 213.5 -49t139.5 -142h4l106 768h123l-217 -1548h-123zM1069 473q23 161 -75.5 274t-264.5 113q-169 0 -287.5 -111.5t-142.5 -275.5
q-22 -164 65.5 -275.5t256.5 -111.5q166 0 296 113t152 274zM1571 1450l-160 -379h109l184 379h-133z" />
    <glyph glyph-name="Dcroat" unicode="&#x110;" horiz-adv-x="1517" 
d="M428 811l74 516h278q147 0 264.5 -36t200.5 -108t119 -189t14 -269t-90.5 -269t-172 -189t-231 -108t-274.5 -36h-278l82 577h528l14 111h-528zM279 700l-99 -700h449q155 0 286 35.5t217.5 88.5t156.5 129t108 141.5t66 141.5t36.5 114.5t13.5 74.5q5 34 7.5 74.5
t-4.5 115t-27 141.5t-69 141.5t-121 128t-192.5 89t-275.5 35.5h-448l-90 -639h-160l-14 -111h160z" />
    <glyph glyph-name="dcroat" unicode="&#x111;" horiz-adv-x="1251" 
d="M1014 166l-23 -166h123l166 1190h147l17 108h-148l35 250h-123l-34 -250h-332l-17 -108h332l-57 -410h-4q-42 93 -140 142t-213 49q-218 0 -378 -140.5t-189 -357.5q-32 -217 89 -357.5t339 -140.5q113 0 227 49t179 142h4zM1069 473q-25 -161 -155.5 -274t-295.5 -113
q-168 0 -256 112t-63 275q26 165 143.5 276t286.5 111q166 0 265.5 -113.5t74.5 -273.5z" />
    <glyph glyph-name="Emacron" unicode="&#x112;" horiz-adv-x="1214" 
d="M199 0l204 1450h887l-18 -123h-752l-71 -516h704l-18 -123h-705l-80 -565h785l-17 -123h-919zM1157 1636l14 99h-540l-15 -99h541z" />
    <glyph glyph-name="emacron" unicode="&#x113;" horiz-adv-x="1138" 
d="M944 254l80 -76q-166 -203 -438 -203q-215 0 -327 139.5t-81 360.5q29 213 183 354.5t360 141.5q71 0 131.5 -17.5t103.5 -48.5t76 -73.5t49.5 -91.5t23.5 -103t-3 -109l-12 -86h-795q-1 -22 -2.5 -51.5t7.5 -63.5t20.5 -68t37 -65t57.5 -55t81 -38.5t108 -14.5
q95 0 189.5 46t150.5 122zM311 553h672q17 126 -66 216.5t-219 90.5q-76 0 -142.5 -27.5t-108.5 -66.5t-74 -84t-46 -78t-16 -51zM1061 1339l-14 -98h-541l14 98h541z" />
    <glyph glyph-name="Ebreve" unicode="&#x114;" horiz-adv-x="1214" 
d="M199 0l204 1450h887l-18 -123h-752l-71 -516h704l-18 -123h-705l-80 -565h785l-17 -123h-919zM700 1804h-86q-10 -121 60.5 -189.5t195.5 -68.5q124 0 214 68t120 190h-86q-31 -90 -85.5 -124.5t-149.5 -34.5q-83 0 -132.5 40t-50.5 119z" />
    <glyph glyph-name="ebreve" unicode="&#x115;" horiz-adv-x="1138" 
d="M944 254l80 -76q-166 -203 -438 -203q-215 0 -327 139.5t-81 360.5q29 213 183 354.5t360 141.5q71 0 131.5 -17.5t103.5 -48.5t76 -73.5t49.5 -91.5t23.5 -103t-3 -109l-12 -86h-795q-1 -22 -2.5 -51.5t7.5 -63.5t20.5 -68t37 -65t57.5 -55t81 -38.5t108 -14.5
q95 0 189.5 46t150.5 122zM311 553h672q17 126 -66 216.5t-219 90.5q-76 0 -142.5 -27.5t-108.5 -66.5t-74 -84t-46 -78t-16 -51zM596 1450h-86q-10 -121 60 -189.5t194 -68.5q125 0 215.5 68t120.5 190h-86q-31 -89 -86 -124.5t-150 -35.5q-83 0 -132 40.5t-50 119.5z" />
    <glyph glyph-name="Edotaccent" unicode="&#x116;" horiz-adv-x="1214" 
d="M199 0l204 1450h887l-18 -123h-752l-71 -516h704l-18 -123h-705l-80 -565h785l-17 -123h-919zM807 1720q-6 -41 18.5 -69.5t65.5 -28.5t74 28.5t39 69.5q5 41 -20 70t-66 29t-74 -29t-37 -70z" />
    <glyph glyph-name="edotaccent" unicode="&#x117;" horiz-adv-x="1138" 
d="M944 254l80 -76q-166 -203 -438 -203q-215 0 -327 139.5t-81 360.5q29 213 183 354.5t360 141.5q71 0 131.5 -17.5t103.5 -48.5t76 -73.5t49.5 -91.5t23.5 -103t-3 -109l-12 -86h-795q-1 -22 -2.5 -51.5t7.5 -63.5t20.5 -68t37 -65t57.5 -55t81 -38.5t108 -14.5
q95 0 189.5 46t150.5 122zM311 553h672q17 126 -66 216.5t-219 90.5q-76 0 -142.5 -27.5t-108.5 -66.5t-74 -84t-46 -78t-16 -51zM696 1335q-6 -41 18.5 -69.5t65.5 -28.5t74 28.5t39 69.5t-18.5 70t-65.5 29t-74 -29t-39 -70z" />
    <glyph glyph-name="Eogonek" unicode="&#x118;" horiz-adv-x="1214" 
d="M401 1450l-202 -1450h721q-91 -65 -150 -131t-70 -143q-12 -77 34.5 -122.5t129.5 -45.5q101 0 185 67l-29 78q-47 -47 -119 -47q-88 0 -76 96q11 69 69 139t118 109h106l17 123h-785l80 565h705l16 123h-705l74 516h752l16 123h-887z" />
    <glyph glyph-name="eogonek" unicode="&#x119;" horiz-adv-x="1138" 
d="M741 -375l-28 78q-47 -47 -119 -47q-88 0 -76 96q11 63 58 126t102 104q208 27 346 196l-80 76q-59 -77 -153 -122.5t-189 -45.5q-59 0 -107.5 14.5t-80.5 38t-57.5 54.5t-37 65t-20.5 68t-7 63.5t3 52.5h795l12 86q13 84 -6 162.5t-65 141.5t-127 101t-185 38
q-205 0 -359.5 -141.5t-183.5 -354.5q-32 -217 79 -356.5t323 -143.5q-167 -119 -185 -249q-12 -77 34.5 -122.5t129.5 -45.5q100 0 184 67zM981 553h-672q2 18 16.5 51t46.5 78t74.5 84t109 66.5t142.5 27.5q137 0 218.5 -90t64.5 -217z" />
    <glyph glyph-name="Ecaron" unicode="&#x11a;" horiz-adv-x="1214" 
d="M199 0l204 1450h887l-18 -123h-752l-71 -516h704l-18 -123h-705l-80 -565h785l-17 -123h-919zM940 1540l258 295h-111l-208 -233l-138 233h-127l183 -295h143z" />
    <glyph glyph-name="ecaron" unicode="&#x11b;" horiz-adv-x="1138" 
d="M944 254l80 -76q-166 -203 -438 -203q-215 0 -327 139.5t-81 360.5q29 213 183 354.5t360 141.5q71 0 131.5 -17.5t103.5 -48.5t76 -73.5t49.5 -91.5t23.5 -103t-3 -109l-12 -86h-795q-1 -22 -2.5 -51.5t7.5 -63.5t20.5 -68t37 -65t57.5 -55t81 -38.5t108 -14.5
q95 0 189.5 46t150.5 122zM311 553h672q17 126 -66 216.5t-219 90.5q-76 0 -142.5 -27.5t-108.5 -66.5t-74 -84t-46 -78t-16 -51zM831 1155l259 295h-111l-209 -233l-137 233h-127l182 -295h143z" />
    <glyph glyph-name="Gcircumflex" unicode="&#x11c;" horiz-adv-x="1593" 
d="M1505 782l-98 -688q-246 -131 -559 -131q-218 0 -375.5 98t-227 271.5t-38.5 392.5q30 219 149 392.5t304 271.5t403 98q325 0 493 -201l-112 -102q-54 79 -166 129.5t-231 50.5q-185 0 -338.5 -85t-247.5 -229.5t-119 -324.5q-26 -180 27.5 -324.5t182.5 -229.5t314 -85
q260 0 418 86l68 487h-348l18 123h483zM1034 1835l-262 -295h121l197 221l135 -221h133l-180 295h-144z" />
    <glyph glyph-name="gcircumflex" unicode="&#x11d;" horiz-adv-x="1251" 
d="M1247 946l-125 -885q-19 -135 -68 -238t-109 -161t-136 -94.5t-139 -48t-129 -11.5q-144 0 -263.5 53t-177.5 146l109 90q51 -88 142.5 -133t205.5 -45q77 0 141.5 19.5t107.5 47t77.5 71.5t53 79.5t33.5 85t19.5 73.5t9.5 58l19 131h-4q-68 -87 -167 -135.5t-218 -48.5
q-137 0 -245 65.5t-160 177t-34 242.5q19 131 103 243t210 177.5t263 65.5q119 0 204.5 -49t127.5 -136h4l22 160h123zM1063 485q23 155 -71.5 265t-250.5 110q-155 0 -280 -109.5t-148 -265.5q-22 -155 73.5 -264.5t250.5 -109.5t279.5 109.5t146.5 264.5zM543 1155
l264 295h143l178 -295h-133l-135 221l-196 -221h-121z" />
    <glyph glyph-name="Gbreve" unicode="&#x11e;" horiz-adv-x="1593" 
d="M1505 782l-98 -688q-246 -131 -559 -131q-218 0 -375.5 98t-227 271.5t-38.5 392.5q30 219 149 392.5t304 271.5t403 98q325 0 493 -201l-112 -102q-54 79 -166 129.5t-231 50.5q-185 0 -338.5 -85t-247.5 -229.5t-119 -324.5q-26 -180 27.5 -324.5t182.5 -229.5t314 -85
q260 0 418 86l68 487h-348l18 123h483zM893 1804h-86q-10 -121 60.5 -189.5t195.5 -68.5q124 0 214 68t120 190h-86q-31 -89 -85.5 -124t-150.5 -35q-83 0 -132 40t-50 119z" />
    <glyph glyph-name="gbreve" unicode="&#x11f;" horiz-adv-x="1251" 
d="M1247 946l-125 -885q-19 -135 -68 -238t-109 -161t-136 -94.5t-139 -48t-129 -11.5q-144 0 -263.5 53t-177.5 146l109 90q51 -88 142.5 -133t205.5 -45q77 0 141.5 19.5t107.5 47t77.5 71.5t53 79.5t33.5 85t19.5 73.5t9.5 58l19 131h-4q-68 -87 -167 -135.5t-218 -48.5
q-137 0 -245 65.5t-160 177t-34 242.5q19 131 103 243t210 177.5t263 65.5q119 0 204.5 -49t127.5 -136h4l22 160h123zM1063 485q23 155 -71.5 265t-250.5 110q-155 0 -280 -109.5t-148 -265.5q-22 -155 73.5 -264.5t250.5 -109.5t279.5 109.5t146.5 264.5zM668 1450h-86
q-10 -121 60 -189.5t194 -68.5t214.5 68t120.5 190h-86q-32 -89 -86 -124.5t-149 -35.5q-83 0 -132 40.5t-50 119.5z" />
    <glyph glyph-name="Gdotaccent" unicode="&#x120;" horiz-adv-x="1593" 
d="M1505 782l-98 -688q-246 -131 -559 -131q-218 0 -375.5 98t-227 271.5t-38.5 392.5q30 219 149 392.5t304 271.5t403 98q325 0 493 -201l-112 -102q-54 79 -166 129.5t-231 50.5q-185 0 -338.5 -85t-247.5 -229.5t-119 -324.5q-26 -180 27.5 -324.5t182.5 -229.5t314 -85
q260 0 418 86l68 487h-348l18 123h483zM999 1720q-6 -41 18.5 -69.5t65.5 -28.5t74 28.5t39 69.5q5 41 -20 70t-66 29t-74 -29t-37 -70z" />
    <glyph glyph-name="gdotaccent" unicode="&#x121;" horiz-adv-x="1251" 
d="M1247 946l-125 -885q-19 -135 -68 -238t-109 -161t-136 -94.5t-139 -48t-129 -11.5q-144 0 -263.5 53t-177.5 146l109 90q51 -88 142.5 -133t205.5 -45q77 0 141.5 19.5t107.5 47t77.5 71.5t53 79.5t33.5 85t19.5 73.5t9.5 58l19 131h-4q-68 -87 -167 -135.5t-218 -48.5
q-137 0 -245 65.5t-160 177t-34 242.5q19 131 103 243t210 177.5t263 65.5q119 0 204.5 -49t127.5 -136h4l22 160h123zM1063 485q23 155 -71.5 265t-250.5 110q-155 0 -280 -109.5t-148 -265.5q-22 -155 73.5 -264.5t250.5 -109.5t279.5 109.5t146.5 264.5zM768 1335
q-6 -41 18.5 -69.5t65.5 -28.5t74 28.5t39 69.5t-18.5 70t-65.5 29t-74 -29t-39 -70z" />
    <glyph glyph-name="Gcommaaccent" unicode="&#x122;" horiz-adv-x="1593" 
d="M1505 782l-98 -688q-246 -131 -559 -131q-218 0 -375.5 98t-227 271.5t-38.5 392.5q30 219 149 392.5t304 271.5t403 98q325 0 493 -201l-112 -102q-54 79 -166 129.5t-231 50.5q-185 0 -338.5 -85t-247.5 -229.5t-119 -324.5q-26 -180 27.5 -324.5t182.5 -229.5t314 -85
q260 0 418 86l68 487h-348l18 123h483zM772 -135l-149 -338h108l174 338h-133z" />
    <glyph glyph-name="gcommaaccent" unicode="&#x123;" horiz-adv-x="1251" 
d="M1247 946l-125 -885q-19 -135 -68 -238t-109 -161t-136 -94.5t-139 -48t-129 -11.5q-144 0 -263.5 53t-177.5 146l109 90q51 -88 142.5 -133t205.5 -45q77 0 141.5 19.5t107.5 47t77.5 71.5t53 79.5t33.5 85t19.5 73.5t9.5 58l19 131h-4q-68 -87 -167 -135.5t-218 -48.5
q-137 0 -245 65.5t-160 177t-34 242.5q19 131 103 243t210 177.5t263 65.5q119 0 204.5 -49t127.5 -136h4l22 160h123zM1063 485q23 155 -71.5 265t-250.5 110q-155 0 -280 -109.5t-148 -265.5q-22 -155 73.5 -264.5t250.5 -109.5t279.5 109.5t146.5 264.5zM887 1217
l151 337h-108l-176 -337h133z" />
    <glyph glyph-name="Hcircumflex" unicode="&#x124;" horiz-adv-x="1478" 
d="M199 0l204 1450h136l-90 -639h811l90 639h135l-205 -1450h-135l96 688h-811l-96 -688h-135zM922 1835l-263 -295h121l197 221l135 -221h133l-180 295h-143z" />
    <glyph glyph-name="hcircumflex" unicode="&#x125;" horiz-adv-x="1138" 
d="M164 0l217 1548h123l-107 -768h4q50 82 145 136.5t206 54.5q86 0 148 -22.5t94.5 -61.5t51 -91t17.5 -111t-8 -122l-80 -563h-123l78 557q45 303 -195 303q-144 0 -250 -100t-133 -287l-65 -473h-123zM698 1917l-262 -295h121l197 221l135 -221h133l-180 295h-144z" />
    <glyph glyph-name="Hbar" unicode="&#x126;" horiz-adv-x="1478" 
d="M401 1450l-202 -1450h135l96 688h811l-96 -688h135l203 1450h-135l-33 -227h-811l33 227h-136zM1257 811h-811l46 313h811z" />
    <glyph glyph-name="hbar" unicode="&#x127;" horiz-adv-x="1138" 
d="M330 1190l-166 -1190h123l65 473q28 189 133.5 288t249.5 99q240 0 195 -303l-78 -557h123l78 563q6 63 7 122.5t-17 111.5t-51 90.5t-94.5 61t-147.5 22.5q-112 0 -205 -54t-146 -137h-4l58 410h331l17 108h-332l35 250h-123l-35 -250h-147l-17 -108h148z" />
    <glyph glyph-name="Itilde" unicode="&#x128;" horiz-adv-x="532" 
d="M199 0l204 1450h136l-205 -1450h-135zM170 1575h74q21 46 47 72t69 26q14 0 32.5 -5.5t28 -9.5t36 -17.5t32.5 -16.5l19 -9.5t21.5 -10.5t19.5 -8.5t22.5 -8.5t20 -6t23.5 -5t22 -1q75 0 125.5 60.5t75.5 148.5h-74q-13 -41 -42.5 -69.5t-70.5 -28.5q-14 0 -30.5 5t-26 9
t-34.5 16.5t-32 16.5q-88 51 -145 51q-72 0 -139 -70q-46 -46 -74 -139z" />
    <glyph glyph-name="itilde" unicode="&#x129;" 
d="M184 0l133 946h123l-133 -946h-123zM172 1190h-74q20 79 74 139q63 70 139 70q58 0 146 -51q4 -2 18 -9.5t19 -10t16.5 -8.5t18.5 -8.5t16.5 -6t18 -4.5t16.5 -1q41 0 69.5 28.5t42.5 70.5h74q-23 -87 -74.5 -148t-126.5 -61q-51 0 -147 49q-6 3 -22 11.5t-23 12
t-20.5 9.5t-22.5 8.5t-20 5t-21 2.5q-81 0 -117 -98z" />
    <glyph glyph-name="Imacron" unicode="&#x12a;" horiz-adv-x="532" 
d="M199 0l204 1450h136l-205 -1450h-135zM764 1636l14 99h-540l-15 -99h541z" />
    <glyph glyph-name="imacron" unicode="&#x12b;" 
d="M184 0l133 946h123l-133 -946h-123zM707 1339l-15 -98h-540l14 98h541z" />
    <glyph glyph-name="Iogonek" unicode="&#x12e;" horiz-adv-x="532" 
d="M401 1450l-202 -1450h16q-88 -63 -147 -129.5t-70 -144.5q-12 -77 33.5 -122.5t128.5 -45.5q100 0 184 67l-29 78q-47 -47 -118 -47q-88 0 -76 96q11 69 68.5 139t117.5 109h27l203 1450h-136z" />
    <glyph glyph-name="iogonek" unicode="&#x12f;" 
d="M315 946l-131 -946h11q-199 -140 -218 -274q-12 -77 33.5 -122.5t128.5 -45.5q101 0 185 67l-29 78q-47 -47 -119 -47q-88 0 -76 96q11 69 69 139t118 109h20l131 946h-123zM338 1321q-5 -38 18.5 -65t61.5 -27t69 27t35 65q6 38 -18 65t-62 27t-68 -27t-36 -65z" />
    <glyph glyph-name="Idotaccent" unicode="&#x130;" horiz-adv-x="532" 
d="M199 0l204 1450h136l-205 -1450h-135zM418 1720q-6 -41 18.5 -69.5t65.5 -28.5t73.5 28.5t38.5 69.5q5 41 -20 70t-66 29t-73.5 -29t-36.5 -70z" />
    <glyph glyph-name="dotlessi" unicode="&#x131;" 
d="M184 0l133 946h123l-133 -946h-123z" />
    <glyph glyph-name="Jcircumflex" unicode="&#x134;" horiz-adv-x="987" 
d="M993 1450l-145 -1024q-7 -45 -14 -81t-23 -86.5t-37.5 -88.5t-57 -79t-80 -67.5t-109 -43.5t-142.5 -17q-153 0 -237.5 79.5t-96.5 217.5l139 25q18 -199 213 -199q137 0 211.5 82.5t94.5 224.5l149 1057h135zM901 1835l-262 -295h121l196 221l136 -221h133l-181 295
h-143z" />
    <glyph glyph-name="jcircumflex" unicode="&#x135;" 
d="M283 -166l155 1112h-123l-157 -1122q-7 -46 -16.5 -77.5t-28 -63.5t-51.5 -48t-80 -16q-26 0 -76 16l-33 -108q49 -19 96 -19q80 0 137 22.5t92.5 68t54.5 101.5t30 134zM115 1155l264 295h143l178 -295h-133l-135 221l-196 -221h-121z" />
    <glyph glyph-name="Kcommaaccent" unicode="&#x136;" horiz-adv-x="1251" 
d="M199 0l204 1450h136l-90 -639h12l792 639h187l-828 -664l664 -786h-195l-630 750h-13l-104 -750h-135zM616 -135l-149 -338h108l175 338h-134z" />
    <glyph glyph-name="kcommaaccent" unicode="&#x137;" horiz-adv-x="985" 
d="M164 0l217 1548h123l-146 -1032l529 428h180l-549 -432l473 -512h-186l-449 500l-69 -500h-123zM412 -135l-150 -338h109l174 338h-133z" />
    <glyph glyph-name="Lacute" unicode="&#x139;" horiz-adv-x="1024" 
d="M199 0l204 1450h136l-189 -1327h676l-16 -123h-811zM616 1835l-254 -295h103l315 295h-164z" />
    <glyph glyph-name="lacute" unicode="&#x13a;" 
d="M184 0l217 1548h123l-217 -1548h-123zM653 1917l-254 -295h103l315 295h-164z" />
    <glyph glyph-name="Lcommaaccent" unicode="&#x13b;" horiz-adv-x="1024" 
d="M199 0l204 1450h136l-189 -1327h676l-16 -123h-811zM532 -135l-149 -338h109l174 338h-134z" />
    <glyph glyph-name="lcommaaccent" unicode="&#x13c;" 
d="M184 0l217 1548h123l-217 -1548h-123zM211 -135l-150 -338h109l174 338h-133z" />
    <glyph glyph-name="Lcaron" unicode="&#x13d;" horiz-adv-x="1024" 
d="M199 0l204 1450h136l-189 -1327h676l-16 -123h-811zM782 1450l-159 -379h108l184 379h-133z" />
    <glyph glyph-name="lcaron" unicode="&#x13e;" 
d="M184 0l217 1548h123l-217 -1548h-123zM756 1450l-160 -379h109l184 379h-133z" />
    <glyph glyph-name="Ldot" unicode="&#x13f;" horiz-adv-x="1024" 
d="M199 0l204 1450h136l-189 -1327h676l-16 -123h-811zM754 750q-6 -41 18.5 -70t65.5 -29t73.5 29t38.5 70t-18.5 69.5t-65.5 28.5t-73.5 -28.5t-38.5 -69.5z" />
    <glyph glyph-name="ldot" unicode="&#x140;" horiz-adv-x="688" 
d="M184 0l217 1548h123l-217 -1548h-123zM575 784q-6 -41 18.5 -69.5t65.5 -28.5t74 28.5t39 69.5t-18.5 70t-65.5 29t-74 -29t-39 -70z" />
    <glyph glyph-name="Lslash" unicode="&#x141;" horiz-adv-x="1024" 
d="M199 0l65 473l-166 -131l21 133l164 129l120 846h136l-105 -733l498 387l-19 -127l-497 -387l-66 -467h676l-16 -123h-811z" />
    <glyph glyph-name="lslash" unicode="&#x142;" 
d="M184 0l95 664l-197 -175l18 138l197 174l104 747h123l-88 -624l197 176l-19 -137l-196 -175l-111 -788h-123z" />
    <glyph glyph-name="Nacute" unicode="&#x143;" horiz-adv-x="1593" 
d="M199 0l204 1450h175l702 -1270h4l180 1270h135l-204 -1450h-174l-705 1270h-4l-178 -1270h-135zM1169 1835l-254 -295h103l315 295h-164z" />
    <glyph glyph-name="nacute" unicode="&#x144;" horiz-adv-x="1138" 
d="M164 0l96 680q4 35 14 138t13 128h123q-17 -148 -15 -166h6q50 82 145 136.5t206 54.5q86 0 148 -22.5t94.5 -61.5t51 -91t17.5 -111t-8 -122l-80 -563h-123l78 557q45 303 -195 303q-144 0 -250 -100t-133 -287l-65 -473h-123zM588 1155l256 295h164l-318 -295h-102z
" />
    <glyph glyph-name="Ncommaaccent" unicode="&#x145;" horiz-adv-x="1593" 
d="M199 0l204 1450h175l702 -1270h4l180 1270h135l-204 -1450h-174l-705 1270h-4l-178 -1270h-135zM723 -135l-150 -338h109l174 338h-133z" />
    <glyph glyph-name="ncommaaccent" unicode="&#x146;" horiz-adv-x="1138" 
d="M164 0l96 680q4 35 14 138t13 128h123q-17 -148 -15 -166h6q50 82 145 136.5t206 54.5q86 0 148 -22.5t94.5 -61.5t51 -91t17.5 -111t-8 -122l-80 -563h-123l78 557q45 303 -195 303q-144 0 -250 -100t-133 -287l-65 -473h-123zM502 -135l-150 -338h109l174 338h-133z
" />
    <glyph glyph-name="Ncaron" unicode="&#x147;" horiz-adv-x="1593" 
d="M199 0l204 1450h175l702 -1270h4l180 1270h135l-204 -1450h-174l-705 1270h-4l-178 -1270h-135zM1085 1540l258 295h-110l-209 -233l-137 233h-127l182 -295h143z" />
    <glyph glyph-name="ncaron" unicode="&#x148;" horiz-adv-x="1138" 
d="M164 0l96 680q4 35 14 138t13 128h123q-17 -148 -15 -166h6q50 82 145 136.5t206 54.5q86 0 148 -22.5t94.5 -61.5t51 -91t17.5 -111t-8 -122l-80 -563h-123l78 557q45 303 -195 303q-144 0 -250 -100t-133 -287l-65 -473h-123zM813 1155l258 295h-110l-209 -233
l-138 233h-127l183 -295h143z" />
    <glyph glyph-name="Omacron" unicode="&#x14c;" horiz-adv-x="1708" 
d="M207 725q30 219 149 392.5t304 271.5t403 98t375.5 -98t227.5 -271.5t40 -392.5q-31 -219 -150.5 -392.5t-304.5 -271.5t-403 -98t-375.5 98t-227 271.5t-38.5 392.5zM342 725q-26 -180 27.5 -324.5t182.5 -229.5t314 -85t338 85t247 229.5t120 324.5q18 135 -8.5 252
t-92.5 202.5t-175 135t-248 49.5q-185 0 -338.5 -85t-247.5 -229.5t-119 -324.5zM1356 1636l14 99h-541l-14 -99h541z" />
    <glyph glyph-name="omacron" unicode="&#x14d;" horiz-adv-x="1216" 
d="M176 473q31 217 191 357.5t378 140.5t337.5 -140.5t88.5 -357.5q-29 -217 -189 -357.5t-378 -140.5t-337.5 140.5t-90.5 357.5zM299 473q-22 -164 65.5 -275.5t256.5 -111.5t287.5 111.5t140.5 275.5q24 164 -63.5 275.5t-256.5 111.5t-287.5 -111.5t-142.5 -275.5z
M1069 1339l-14 -98h-541l14 98h541z" />
    <glyph glyph-name="Obreve" unicode="&#x14e;" horiz-adv-x="1708" 
d="M207 725q30 219 149 392.5t304 271.5t403 98t375.5 -98t227.5 -271.5t40 -392.5q-31 -219 -150.5 -392.5t-304.5 -271.5t-403 -98t-375.5 98t-227 271.5t-38.5 392.5zM342 725q-26 -180 27.5 -324.5t182.5 -229.5t314 -85t338 85t247 229.5t120 324.5q18 135 -8.5 252
t-92.5 202.5t-175 135t-248 49.5q-185 0 -338.5 -85t-247.5 -229.5t-119 -324.5zM899 1804h-86q-10 -121 60.5 -189.5t195.5 -68.5q124 0 214 68t120 190h-86q-31 -89 -85.5 -124t-150.5 -35q-83 0 -132 40t-50 119z" />
    <glyph glyph-name="obreve" unicode="&#x14f;" horiz-adv-x="1216" 
d="M176 473q31 217 191 357.5t378 140.5t337.5 -140.5t88.5 -357.5q-29 -217 -189 -357.5t-378 -140.5t-337.5 140.5t-90.5 357.5zM299 473q-22 -164 65.5 -275.5t256.5 -111.5t287.5 111.5t140.5 275.5q24 164 -63.5 275.5t-256.5 111.5t-287.5 -111.5t-142.5 -275.5z
M604 1450h-86q-10 -121 60 -189.5t194 -68.5q125 0 215.5 68t120.5 190h-86q-31 -89 -86 -124.5t-150 -35.5q-83 0 -132 40.5t-50 119.5z" />
    <glyph glyph-name="Ohungarumlaut" unicode="&#x150;" horiz-adv-x="1708" 
d="M207 725q30 219 149 392.5t304 271.5t403 98t375.5 -98t227.5 -271.5t40 -392.5q-31 -219 -150.5 -392.5t-304.5 -271.5t-403 -98t-375.5 98t-227 271.5t-38.5 392.5zM342 725q-26 -180 27.5 -324.5t182.5 -229.5t314 -85t338 85t247 229.5t120 324.5q18 135 -8.5 252
t-92.5 202.5t-175 135t-248 49.5q-185 0 -338.5 -85t-247.5 -229.5t-119 -324.5zM1100 1835l-254 -295h102l316 295h-164zM1399 1835l-254 -295h102l316 295h-164z" />
    <glyph glyph-name="ohungarumlaut" unicode="&#x151;" horiz-adv-x="1216" 
d="M176 473q31 217 191 357.5t378 140.5t337.5 -140.5t88.5 -357.5q-29 -217 -189 -357.5t-378 -140.5t-337.5 140.5t-90.5 357.5zM299 473q-22 -164 65.5 -275.5t256.5 -111.5t287.5 111.5t140.5 275.5q24 164 -63.5 275.5t-256.5 111.5t-287.5 -111.5t-142.5 -275.5z
M807 1450l-254 -295h102l316 295h-164zM1106 1450l-254 -295h102l316 295h-164z" />
    <glyph glyph-name="OE" unicode="&#x152;" horiz-adv-x="1933" 
d="M1286 688l-80 -565h623l-17 -123h-966q-145 0 -269.5 52.5t-211 145t-125.5 230t-17 297.5q20 140 80 259t147 203.5t196 144.5t228 89t242 29h885l-19 -123h-606l-71 -516h571l-18 -123h-572zM1071 123l170 1204h-160q-89 0 -180 -21.5t-181.5 -69.5t-164 -116.5
t-127 -170.5t-70.5 -224q-15 -109 1.5 -201t58 -156t98 -113t124 -77t132.5 -41.5t127 -13.5h172z" />
    <glyph glyph-name="oe" unicode="&#x153;" horiz-adv-x="1857" 
d="M1116 553h606q18 136 -45.5 221.5t-212.5 85.5q-137 0 -233.5 -88.5t-114.5 -218.5zM1829 442h-729q-27 -153 45.5 -254.5t232.5 -101.5q86 0 162 40t131 112l88 -70q-95 -104 -191 -148.5t-227 -44.5q-130 0 -218.5 57.5t-121.5 176.5h-4q-73 -113 -188.5 -173.5
t-251.5 -60.5q-203 0 -316.5 141t-84.5 357q31 216 185 357t357 141q284 0 373 -236q35 61 86 111t136.5 87.5t183.5 37.5q88 0 159.5 -26.5t124 -80t73.5 -143t5 -207.5zM279 473q-14 -103 16 -190.5t104 -142t179 -54.5q159 0 270 111t133 276q24 164 -56 275.5
t-239 111.5q-157 0 -270.5 -114t-136.5 -273z" />
    <glyph glyph-name="Racute" unicode="&#x154;" horiz-adv-x="1214" 
d="M520 1327l-71 -516h286q82 0 147 17.5t104.5 44t67 63t39.5 68t17 65.5q6 25 2 54t-11 57.5t-30.5 55t-55.5 47t-85.5 32.5t-122.5 12h-287zM199 0l204 1450h381q39 0 66 -1t84.5 -8t98 -20.5t89.5 -42t77 -67.5t42.5 -101.5t3.5 -140.5q-11 -79 -43.5 -142.5
t-74.5 -102.5t-97 -67t-104 -41t-103 -20l324 -696h-154l-311 688h-252l-96 -688h-135zM936 1835l-254 -295h102l316 295h-164z" />
    <glyph glyph-name="racute" unicode="&#x155;" horiz-adv-x="681" 
d="M164 0l96 680q4 35 14 138t13 128h123q-17 -148 -15 -166q131 191 328 191q28 0 70 -10l-31 -121q-24 8 -47 8q-152 0 -243.5 -92.5t-113.5 -239.5l-71 -516h-123zM426 1155l256 295h164l-318 -295h-102z" />
    <glyph glyph-name="Rcommaaccent" unicode="&#x156;" horiz-adv-x="1214" 
d="M520 1327l-71 -516h286q82 0 147 17.5t104.5 44t67 63t39.5 68t17 65.5q6 25 2 54t-11 57.5t-30.5 55t-55.5 47t-85.5 32.5t-122.5 12h-287zM199 0l204 1450h381q39 0 66 -1t84.5 -8t98 -20.5t89.5 -42t77 -67.5t42.5 -101.5t3.5 -140.5q-11 -79 -43.5 -142.5
t-74.5 -102.5t-97 -67t-104 -41t-103 -20l324 -696h-154l-311 688h-252l-96 -688h-135zM530 -135l-149 -338h108l175 338h-134z" />
    <glyph glyph-name="rcommaaccent" unicode="&#x157;" horiz-adv-x="681" 
d="M164 0l96 680q4 35 14 138t13 128h123q-17 -148 -15 -166q131 191 328 191q28 0 70 -10l-31 -121q-24 8 -47 8q-152 0 -243.5 -92.5t-113.5 -239.5l-71 -516h-123zM242 -135l-150 -338h109l174 338h-133z" />
    <glyph glyph-name="Rcaron" unicode="&#x158;" horiz-adv-x="1214" 
d="M520 1327l-71 -516h286q82 0 147 17.5t104.5 44t67 63t39.5 68t17 65.5q6 25 2 54t-11 57.5t-30.5 55t-55.5 47t-85.5 32.5t-122.5 12h-287zM199 0l204 1450h381q39 0 66 -1t84.5 -8t98 -20.5t89.5 -42t77 -67.5t42.5 -101.5t3.5 -140.5q-11 -79 -43.5 -142.5
t-74.5 -102.5t-97 -67t-104 -41t-103 -20l324 -696h-154l-311 688h-252l-96 -688h-135zM889 1540l258 295h-111l-209 -233l-137 233h-127l182 -295h144z" />
    <glyph glyph-name="rcaron" unicode="&#x159;" horiz-adv-x="681" 
d="M164 0l96 680q4 35 14 138t13 128h123q-17 -148 -15 -166q131 191 328 191q28 0 70 -10l-31 -121q-24 8 -47 8q-152 0 -243.5 -92.5t-113.5 -239.5l-71 -516h-123zM616 1155l258 295h-110l-209 -233l-137 233h-127l182 -295h143z" />
    <glyph glyph-name="Sacute" unicode="&#x15a;" horiz-adv-x="1138" 
d="M135 182l139 86q41 -90 120 -136t188 -46q139 0 242.5 78.5t121.5 206.5q9 65 -9.5 113t-57.5 78t-92 53t-112 42t-118 40t-110.5 52.5t-89 74t-53 110.5t-3.5 156q17 124 96 216t189 136.5t235 44.5q255 0 371 -182l-129 -84q-84 143 -262 143q-139 0 -243 -71.5
t-122 -202.5q-10 -70 8.5 -121.5t57.5 -82.5t91.5 -54.5t112 -41.5t118.5 -38t111 -50t89 -70.5t53 -107t4 -153.5q-27 -188 -174 -298t-334 -110q-313 0 -438 219zM956 1835l-254 -295h103l315 295h-164z" />
    <glyph glyph-name="sacute" unicode="&#x15b;" horiz-adv-x="872" 
d="M82 168l119 74q27 -73 96.5 -114.5t155.5 -41.5q85 0 157.5 48t83.5 126q7 46 -12.5 78.5t-57 49t-85.5 30.5t-99.5 23.5t-99 28.5t-83.5 44t-53.5 72.5t-8.5 111.5q19 129 126.5 201t235.5 72q244 0 307 -178l-119 -66q-27 67 -75 100t-129 33q-74 0 -144 -41.5
t-78 -109.5q-7 -46 13 -77t57 -46t85.5 -28t100 -21.5t99.5 -28t83.5 -46t52.5 -76t7 -118.5q-13 -94 -71 -162t-138.5 -99.5t-173.5 -31.5q-126 0 -219 49t-133 144zM494 1155l256 295h163l-317 -295h-102z" />
    <glyph glyph-name="Scircumflex" unicode="&#x15c;" horiz-adv-x="1138" 
d="M135 182l139 86q41 -90 120 -136t188 -46q139 0 242.5 78.5t121.5 206.5q9 65 -9.5 113t-57.5 78t-92 53t-112 42t-118 40t-110.5 52.5t-89 74t-53 110.5t-3.5 156q17 124 96 216t189 136.5t235 44.5q255 0 371 -182l-129 -84q-84 143 -262 143q-139 0 -243 -71.5
t-122 -202.5q-10 -70 8.5 -121.5t57.5 -82.5t91.5 -54.5t112 -41.5t118.5 -38t111 -50t89 -70.5t53 -107t4 -153.5q-27 -188 -174 -298t-334 -110q-313 0 -438 219zM795 1835l-263 -295h121l197 221l135 -221h133l-180 295h-143z" />
    <glyph glyph-name="scircumflex" unicode="&#x15d;" horiz-adv-x="872" 
d="M82 168l119 74q27 -73 96.5 -114.5t155.5 -41.5q85 0 157.5 48t83.5 126q7 46 -12.5 78.5t-57 49t-85.5 30.5t-99.5 23.5t-99 28.5t-83.5 44t-53.5 72.5t-8.5 111.5q19 129 126.5 201t235.5 72q244 0 307 -178l-119 -66q-27 67 -75 100t-129 33q-74 0 -144 -41.5
t-78 -109.5q-7 -46 13 -77t57 -46t85.5 -28t100 -21.5t99.5 -28t83.5 -46t52.5 -76t7 -118.5q-13 -94 -71 -162t-138.5 -99.5t-173.5 -31.5q-126 0 -219 49t-133 144zM313 1155l265 295h143l178 -295h-133l-135 221l-197 -221h-121z" />
    <glyph glyph-name="Scedilla" unicode="&#x15e;" horiz-adv-x="1138" 
d="M274 268l-141 -86q115 -201 391 -217l-123 -145l29 -31q53 16 92 16q47 0 78.5 -21t24.5 -65q-7 -43 -50.5 -65.5t-91.5 -22.5q-84 0 -149 35l-39 -65q85 -43 188 -43q57 0 109.5 17t94.5 58t50 99q11 70 -33.5 108.5t-115.5 38.5q-41 0 -66 -14l-2 4l82 96
q113 5 214.5 52.5t175 140t89.5 213.5q12 87 -4.5 154t-54 107.5t-90 70.5t-112 49.5t-119 38t-112.5 41.5t-91.5 54t-56.5 82.5t-7 121.5q13 89 68 152t131 92.5t166 29.5q183 0 262 -143l129 84q-111 182 -369 182q-126 0 -236.5 -44.5t-188.5 -136t-97 -216.5
q-12 -88 3.5 -156t53 -110.5t89 -74t110.5 -52.5t118 -40t112 -42t92.5 -53t58.5 -78t10 -113q-20 -127 -123.5 -206t-242.5 -79q-225 0 -306 182z" />
    <glyph glyph-name="scedilla" unicode="&#x15f;" horiz-adv-x="872" 
d="M199 242l-119 -74q74 -178 313 -191l-135 -157l29 -31q53 16 92 16q47 0 78 -21t24 -65q-7 -43 -50 -65.5t-91 -22.5q-85 0 -150 35l-38 -65q85 -43 188 -43q57 0 109.5 17t94.5 58t50 99q11 70 -34 108.5t-116 38.5q-40 0 -65 -14l-2 4l94 108q85 5 157.5 39t124 99.5
t64.5 152.5q8 62 -5 108t-42 73.5t-68 46.5t-84 30t-90 20t-85 20.5t-70.5 28t-45.5 45t-10 69.5q8 46 45 82t84.5 52.5t94.5 16.5q83 0 129 -32t73 -101l121 66q-68 178 -309 178q-82 0 -157.5 -28.5t-133.5 -92.5t-71 -152q-9 -64 9 -111.5t53.5 -72.5t83.5 -44t99 -28.5
t99.5 -23.5t85.5 -30.5t56.5 -49t12.5 -78.5q-11 -76 -84 -125t-157 -49q-88 0 -155.5 41t-96.5 115z" />
    <glyph glyph-name="Scaron" unicode="&#x160;" horiz-adv-x="1138" 
d="M135 182l139 86q41 -90 120 -136t188 -46q139 0 242.5 78.5t121.5 206.5q9 65 -9.5 113t-57.5 78t-92 53t-112 42t-118 40t-110.5 52.5t-89 74t-53 110.5t-3.5 156q17 124 96 216t189 136.5t235 44.5q255 0 371 -182l-129 -84q-84 143 -262 143q-139 0 -243 -71.5
t-122 -202.5q-10 -70 8.5 -121.5t57.5 -82.5t91.5 -54.5t112 -41.5t118.5 -38t111 -50t89 -70.5t53 -107t4 -153.5q-27 -188 -174 -298t-334 -110q-313 0 -438 219zM1112 1835l-258 -295h-143l-183 295h127l138 -233l208 233h111z" />
    <glyph glyph-name="scaron" unicode="&#x161;" horiz-adv-x="872" 
d="M82 168l119 74q27 -73 96.5 -114.5t155.5 -41.5q85 0 157.5 48t83.5 126q7 46 -12.5 78.5t-57 49t-85.5 30.5t-99.5 23.5t-99 28.5t-83.5 44t-53.5 72.5t-8.5 111.5q19 129 126.5 201t235.5 72q244 0 307 -178l-119 -66q-27 67 -75 100t-129 33q-74 0 -144 -41.5
t-78 -109.5q-7 -46 13 -77t57 -46t85.5 -28t100 -21.5t99.5 -28t83.5 -46t52.5 -76t7 -118.5q-13 -94 -71 -162t-138.5 -99.5t-173.5 -31.5q-126 0 -219 49t-133 144zM666 1155l258 295h-111l-209 -233l-137 233h-127l182 -295h144z" />
    <glyph glyph-name="Tcommaaccent" unicode="&#x162;" horiz-adv-x="1175" 
d="M520 0l187 1327h-496l18 123h1127l-19 -123h-495l-187 -1327h-135zM510 -135l-150 -338h109l174 338h-133z" />
    <glyph glyph-name="tcommaaccent" unicode="&#x163;" horiz-adv-x="681" 
d="M760 946l-17 -110h-270l-86 -617q-9 -63 21 -98t92 -35q60 0 143 33l-4 -111q-101 -33 -166 -33q-85 0 -136 33.5t-66.5 86.5t-6.5 124l86 617h-205l17 110h205l39 273h122l-39 -273h271zM303 -135l-149 -338h108l174 338h-133z" />
    <glyph glyph-name="Tcaron" unicode="&#x164;" horiz-adv-x="1175" 
d="M520 0l187 1327h-496l18 123h1127l-19 -123h-495l-187 -1327h-135zM879 1540l258 295h-111l-209 -233l-137 233h-127l182 -295h144z" />
    <glyph glyph-name="tcaron" unicode="&#x165;" horiz-adv-x="681" 
d="M760 946l-17 -110h-270l-86 -617q-9 -63 21 -98t92 -35q60 0 143 33l-4 -111q-101 -33 -166 -33q-85 0 -136 33.5t-66.5 86.5t-6.5 124l86 617h-205l17 110h205l39 273h122l-39 -273h271zM772 1450l-160 -379h109l184 379h-133z" />
    <glyph glyph-name="Tbar" unicode="&#x166;" horiz-adv-x="1175" 
d="M1081 848l13 98h-308l56 381h495l17 123h-1127l-16 -123h496l-56 -381h-303l-12 -98h303l-119 -848h135l119 848h307z" />
    <glyph glyph-name="tbar" unicode="&#x167;" horiz-adv-x="681" 
d="M674 567l14 99h-239l24 170h270l15 110h-271l39 273h-123l-38 -273h-205l-15 -110h205l-24 -170h-179l-14 -99h178l-47 -348q-18 -108 32.5 -176t176.5 -68q63 0 164 33l6 111q-86 -33 -145 -33q-62 0 -91.5 35t-19.5 98l47 348h240z" />
    <glyph glyph-name="Utilde" unicode="&#x168;" horiz-adv-x="1400" 
d="M1434 1450l-127 -895q-13 -96 -42 -180.5t-79 -161t-117.5 -131.5t-163.5 -87t-211 -32q-96 0 -173 22.5t-127.5 62.5t-86 95t-49.5 121t-17.5 140t9.5 151l127 895h135l-123 -860q-7 -48 -9 -93t2 -97t16 -95.5t37 -85t61 -70t91.5 -46t125.5 -17.5q97 0 175 33.5
t126 83.5t83.5 121t52 133.5t26.5 132.5l122 860h136zM604 1575h74q21 45 47.5 71.5t69.5 26.5q14 0 32.5 -5.5t28 -9.5t36 -17.5t32.5 -16.5q4 -2 19.5 -9.5t21 -10.5t19 -9t22 -8.5t20 -5.5t23 -4.5t22.5 -1.5q75 0 125.5 60.5t75.5 148.5h-74q-13 -41 -42.5 -69.5
t-70.5 -28.5q-14 0 -30.5 5t-26.5 9.5t-33 16.5t-32 16q-88 51 -146 51q-72 0 -139 -70q-46 -46 -74 -139z" />
    <glyph glyph-name="utilde" unicode="&#x169;" horiz-adv-x="1138" 
d="M1098 946l-97 -680q-6 -40 -15 -144.5t-11 -121.5h-123q16 144 14 166h-6q-50 -82 -144.5 -136.5t-205.5 -54.5q-86 0 -148 22.5t-94.5 61.5t-51 91t-17.5 111t8 122l80 563h123l-78 -557q-45 -303 194 -303q144 0 250 100t131 287l68 473h123zM489 1190h-73
q21 81 73 139q63 70 140 70q57 0 145 -51q4 -2 18 -9.5t19 -10t16.5 -8.5t18.5 -8.5t16.5 -6t18 -4.5t16.5 -1q41 0 70 29t43 70h73q-23 -87 -74 -148t-126 -61q-52 0 -148 49q-6 3 -22 11.5t-23 12t-20.5 9.5t-22.5 8.5t-20 5t-21 2.5q-81 0 -117 -98z" />
    <glyph glyph-name="Umacron" unicode="&#x16a;" horiz-adv-x="1400" 
d="M1434 1450l-127 -895q-13 -96 -42 -180.5t-79 -161t-117.5 -131.5t-163.5 -87t-211 -32q-96 0 -173 22.5t-127.5 62.5t-86 95t-49.5 121t-17.5 140t9.5 151l127 895h135l-123 -860q-7 -48 -9 -93t2 -97t16 -95.5t37 -85t61 -70t91.5 -46t125.5 -17.5q97 0 175 33.5
t126 83.5t83.5 121t52 133.5t26.5 132.5l122 860h136zM1202 1636l15 99h-541l-14 -99h540z" />
    <glyph glyph-name="umacron" unicode="&#x16b;" horiz-adv-x="1138" 
d="M1098 946l-97 -680q-6 -40 -15 -144.5t-11 -121.5h-123q16 144 14 166h-6q-50 -82 -144.5 -136.5t-205.5 -54.5q-86 0 -148 22.5t-94.5 61.5t-51 91t-17.5 111t8 122l80 563h123l-78 -557q-45 -303 194 -303q144 0 250 100t131 287l68 473h123zM1026 1339l-14 -98h-541
l14 98h541z" />
    <glyph glyph-name="Ubreve" unicode="&#x16c;" horiz-adv-x="1400" 
d="M1434 1450l-127 -895q-13 -96 -42 -180.5t-79 -161t-117.5 -131.5t-163.5 -87t-211 -32q-96 0 -173 22.5t-127.5 62.5t-86 95t-49.5 121t-17.5 140t9.5 151l127 895h135l-123 -860q-7 -48 -9 -93t2 -97t16 -95.5t37 -85t61 -70t91.5 -46t125.5 -17.5q97 0 175 33.5
t126 83.5t83.5 121t52 133.5t26.5 132.5l122 860h136zM745 1804h-86q-10 -121 60.5 -189.5t195.5 -68.5q124 0 214 68t120 190h-86q-31 -90 -85.5 -124.5t-149.5 -34.5q-83 0 -132.5 40t-50.5 119z" />
    <glyph glyph-name="ubreve" unicode="&#x16d;" horiz-adv-x="1138" 
d="M1098 946l-97 -680q-6 -40 -15 -144.5t-11 -121.5h-123q16 144 14 166h-6q-50 -82 -144.5 -136.5t-205.5 -54.5q-86 0 -148 22.5t-94.5 61.5t-51 91t-17.5 111t8 122l80 563h123l-78 -557q-45 -303 194 -303q144 0 250 100t131 287l68 473h123zM561 1450h-86
q-10 -121 60 -189.5t194 -68.5q125 0 215.5 68t120.5 190h-86q-31 -89 -86 -124.5t-150 -35.5q-83 0 -132 40.5t-50 119.5z" />
    <glyph glyph-name="Uring" unicode="&#x16e;" horiz-adv-x="1400" 
d="M1434 1450l-127 -895q-13 -96 -42 -180.5t-79 -161t-117.5 -131.5t-163.5 -87t-211 -32q-96 0 -173 22.5t-127.5 62.5t-86 95t-49.5 121t-17.5 140t9.5 151l127 895h135l-123 -860q-7 -48 -9 -93t2 -97t16 -95.5t37 -85t61 -70t91.5 -46t125.5 -17.5q97 0 175 33.5
t126 83.5t83.5 121t52 133.5t26.5 132.5l122 860h136zM752 1714q-11 -80 38 -137t128 -57q77 0 140 58t75 134q12 77 -36.5 137t-125.5 60q-81 0 -144 -57t-75 -138zM1059 1714q-8 -52 -45.5 -86.5t-87.5 -34.5t-79 34t-22 85q8 52 45.5 87.5t87.5 35.5q51 0 80 -35t21 -86z
" />
    <glyph glyph-name="uring" unicode="&#x16f;" horiz-adv-x="1138" 
d="M1098 946l-97 -680q-6 -40 -15 -144.5t-11 -121.5h-123q16 144 14 166h-6q-50 -82 -144.5 -136.5t-205.5 -54.5q-86 0 -148 22.5t-94.5 61.5t-51 91t-17.5 111t8 122l80 563h123l-78 -557q-45 -303 194 -303q144 0 250 100t131 287l68 473h123zM563 1329
q-12 -79 37 -136.5t127 -57.5t141.5 58t75.5 134q12 77 -36.5 137t-125.5 60q-81 0 -144 -57t-75 -138zM870 1329q-8 -51 -46 -86t-89 -35q-49 0 -77.5 34t-20.5 85q6 51 44 87t89 36q50 0 78 -34.5t22 -86.5z" />
    <glyph glyph-name="Uhungarumlaut" unicode="&#x170;" horiz-adv-x="1400" 
d="M1434 1450l-127 -895q-13 -96 -42 -180.5t-79 -161t-117.5 -131.5t-163.5 -87t-211 -32q-96 0 -173 22.5t-127.5 62.5t-86 95t-49.5 121t-17.5 140t9.5 151l127 895h135l-123 -860q-7 -48 -9 -93t2 -97t16 -95.5t37 -85t61 -70t91.5 -46t125.5 -17.5q97 0 175 33.5
t126 83.5t83.5 121t52 133.5t26.5 132.5l122 860h136zM924 1835l-254 -295h102l315 295h-163zM1223 1835l-254 -295h102l315 295h-163z" />
    <glyph glyph-name="uhungarumlaut" unicode="&#x171;" horiz-adv-x="1138" 
d="M1098 946l-97 -680q-6 -40 -15 -144.5t-11 -121.5h-123q16 144 14 166h-6q-50 -82 -144.5 -136.5t-205.5 -54.5q-86 0 -148 22.5t-94.5 61.5t-51 91t-17.5 111t8 122l80 563h123l-78 -557q-45 -303 194 -303q144 0 250 100t131 287l68 473h123zM735 1450l-254 -295h103
l315 295h-164zM1034 1450l-254 -295h103l315 295h-164z" />
    <glyph glyph-name="Uogonek" unicode="&#x172;" horiz-adv-x="1400" 
d="M852 -375l-29 78q-47 -47 -118 -47q-88 0 -76 96q10 59 49.5 116t91.5 99q101 10 184.5 47t142 91.5t102.5 128.5t69.5 152.5t38.5 168.5l125 895h-136l-120 -860q-9 -69 -26 -132.5t-53 -133.5t-85 -120.5t-127 -84t-174 -33.5q-70 0 -125.5 17.5t-91 46t-60 70
t-36.5 85t-16 95.5t-1.5 96.5t8.5 93.5l121 860h-135l-125 -895q-13 -76 -9.5 -148.5t16.5 -137t47 -119.5t82.5 -95t121.5 -64t164 -26q-150 -118 -168 -239q-12 -77 34.5 -122.5t129.5 -45.5q100 0 184 67z" />
    <glyph glyph-name="uogonek" unicode="&#x173;" horiz-adv-x="1138" 
d="M981 -375l-29 78q-47 -47 -118 -47q-88 0 -76 96q11 69 68.5 139t117.5 109h31q2 17 11 121.5t15 144.5l95 680h-123l-66 -473q-28 -189 -133.5 -288t-249.5 -99q-239 0 -194 303l78 557h-123l-78 -563q-6 -63 -7.5 -122t17 -111t51 -91t94.5 -61.5t148 -22.5
q112 0 204.5 54t145.5 137h6q2 -20 0.5 -35t-7 -60t-7.5 -71q-90 -65 -149 -131t-70 -143q-12 -77 34.5 -122.5t129.5 -45.5q100 0 184 67z" />
    <glyph glyph-name="Wcircumflex" unicode="&#x174;" horiz-adv-x="1933" 
d="M432 0l-217 1450h139l178 -1284h5l548 1284h172l185 -1284h4l543 1284h139l-627 -1450h-166l-184 1290h-4l-549 -1290h-166zM1151 1835l-262 -295h121l196 221l135 -221h134l-181 295h-143z" />
    <glyph glyph-name="wcircumflex" unicode="&#x175;" horiz-adv-x="1441" 
d="M328 0l-164 946h135l119 -792h4l375 792h116l170 -792h4l334 792h123l-411 -946h-127l-175 774h-4l-372 -774h-127zM592 1155l264 295h143l179 -295h-134l-135 221l-196 -221h-121z" />
    <glyph glyph-name="Ycircumflex" unicode="&#x176;" horiz-adv-x="1175" 
d="M520 0l88 625l-415 825h161l340 -688l547 688h152l-650 -825l-88 -625h-135zM772 1835l-262 -295h121l196 221l136 -221h133l-181 295h-143z" />
    <glyph glyph-name="ycircumflex" unicode="&#x177;" horiz-adv-x="948" 
d="M1051 946l-662 -1239q-104 -199 -289 -199q-46 0 -116 19l26 115q80 -23 109 -23q32 0 60 13.5t50 39t37 48.5t33 57l117 219l-252 950h137l201 -796l418 796h131zM354 1155l264 295h144l178 -295h-133l-135 221l-197 -221h-121z" />
    <glyph glyph-name="Ydieresis" unicode="&#x178;" horiz-adv-x="1175" 
d="M520 0l88 625l-415 825h161l340 -688l547 688h152l-650 -825l-88 -625h-135zM537 1720q-6 -41 18.5 -69.5t65.5 -28.5t73.5 28.5t38.5 69.5q5 41 -20 70t-66 29t-73.5 -29t-36.5 -70zM926 1720q-6 -41 18.5 -69.5t65.5 -28.5t73.5 28.5t38.5 69.5q5 41 -20 70t-66 29
t-73.5 -29t-36.5 -70z" />
    <glyph glyph-name="Zacute" unicode="&#x179;" horiz-adv-x="1138" 
d="M47 0l14 106l1020 1221h-835l18 123h1010l-17 -111l-1026 -1216h877l-16 -123h-1045zM930 1835l-254 -295h102l316 295h-164z" />
    <glyph glyph-name="zacute" unicode="&#x17a;" horiz-adv-x="872" 
d="M55 0l11 74l673 762h-538l16 110h709l-11 -74l-671 -761h590l-17 -111h-762zM494 1155l256 295h163l-317 -295h-102z" />
    <glyph glyph-name="Zdotaccent" unicode="&#x17b;" horiz-adv-x="1138" 
d="M47 0l14 106l1020 1221h-835l18 123h1010l-17 -111l-1026 -1216h877l-16 -123h-1045zM745 1720q-6 -41 18.5 -69.5t65.5 -28.5t74 28.5t39 69.5q5 41 -20 70t-66 29t-74 -29t-37 -70z" />
    <glyph glyph-name="zdotaccent" unicode="&#x17c;" horiz-adv-x="872" 
d="M55 0l11 74l673 762h-538l16 110h709l-11 -74l-671 -761h590l-17 -111h-762zM563 1335q-6 -41 18.5 -69.5t65.5 -28.5t74 28.5t39 69.5t-18.5 70t-65.5 29t-74 -29t-39 -70z" />
    <glyph glyph-name="Zcaron" unicode="&#x17d;" horiz-adv-x="1138" 
d="M47 0l14 106l1020 1221h-835l18 123h1010l-17 -111l-1026 -1216h877l-16 -123h-1045zM852 1540l258 295h-111l-208 -233l-138 233h-127l183 -295h143z" />
    <glyph glyph-name="zcaron" unicode="&#x17e;" horiz-adv-x="872" 
d="M55 0l11 74l673 762h-538l16 110h709l-11 -74l-671 -761h590l-17 -111h-762zM666 1155l258 295h-111l-209 -233l-137 233h-127l182 -295h144z" />
    <glyph glyph-name="florin" unicode="&#x192;" horiz-adv-x="1064" 
d="M930 858l-15 -98h-239l-260 -801q-85 -254 -328 -254q-102 0 -156 49l76 96q37 -34 103 -34q78 0 126 55t85 172l231 717h-221l14 98h240l104 316q18 59 44.5 108.5t66 95t97 71.5t126.5 26q101 0 176 -62l-78 -92q-57 43 -112 43q-136 0 -197 -184l-104 -322h221z" />
    <glyph glyph-name="Scommaaccent" unicode="&#x218;" horiz-adv-x="1138" 
d="M135 182l139 86q41 -90 120 -136t188 -46q139 0 242.5 78.5t121.5 206.5q9 65 -9.5 113t-57.5 78t-92 53t-112 42t-118 40t-110.5 52.5t-89 74t-53 110.5t-3.5 156q17 124 96 216t189 136.5t235 44.5q255 0 371 -182l-129 -84q-84 143 -262 143q-139 0 -243 -71.5
t-122 -202.5q-10 -70 8.5 -121.5t57.5 -82.5t91.5 -54.5t112 -41.5t118.5 -38t111 -50t89 -70.5t53 -107t4 -153.5q-27 -188 -174 -298t-334 -110q-313 0 -438 219zM500 -135l-150 -338h109l174 338h-133z" />
    <glyph glyph-name="scommaaccent" unicode="&#x219;" horiz-adv-x="872" 
d="M82 168l119 74q27 -73 96.5 -114.5t155.5 -41.5q85 0 157.5 48t83.5 126q7 46 -12.5 78.5t-57 49t-85.5 30.5t-99.5 23.5t-99 28.5t-83.5 44t-53.5 72.5t-8.5 111.5q19 129 126.5 201t235.5 72q244 0 307 -178l-119 -66q-27 67 -75 100t-129 33q-74 0 -144 -41.5
t-78 -109.5q-7 -46 13 -77t57 -46t85.5 -28t100 -21.5t99.5 -28t83.5 -46t52.5 -76t7 -118.5q-13 -94 -71 -162t-138.5 -99.5t-173.5 -31.5q-126 0 -219 49t-133 144zM373 -135l-150 -338h109l174 338h-133z" />
    <glyph glyph-name="uni021A" unicode="&#x21a;" horiz-adv-x="1175" 
d="M520 0l187 1327h-496l18 123h1127l-19 -123h-495l-187 -1327h-135zM510 -135l-150 -338h109l174 338h-133z" />
    <glyph glyph-name="uni021B" unicode="&#x21b;" horiz-adv-x="681" 
d="M760 946l-17 -110h-270l-86 -617q-9 -63 21 -98t92 -35q60 0 143 33l-4 -111q-101 -33 -166 -33q-85 0 -136 33.5t-66.5 86.5t-6.5 124l86 617h-205l17 110h205l39 273h122l-39 -273h271zM303 -135l-149 -338h108l174 338h-133z" />
    <glyph glyph-name="dotlessj" unicode="&#x237;" 
d="M283 -166l155 1112h-123l-157 -1122q-7 -46 -16.5 -77.5t-28 -63.5t-51.5 -48t-80 -16q-26 0 -76 16l-33 -108q49 -19 96 -19q80 0 137 22.5t92.5 68t54.5 101.5t30 134z" />
    <glyph glyph-name="circumflex" unicode="&#x2c6;" 
d="M115 1155l264 295h143l178 -295h-133l-135 221l-196 -221h-121z" />
    <glyph glyph-name="caron" unicode="&#x2c7;" 
d="M475 1155l258 295h-110l-209 -233l-138 233h-126l182 -295h143z" />
    <glyph glyph-name="uni02C9" unicode="&#x2c9;" 
d="M690 1241l12 98h-540l-12 -98h540z" />
    <glyph glyph-name="breve" unicode="&#x2d8;" 
d="M240 1450h-86q-10 -121 60 -189.5t194 -68.5t214.5 68t120.5 190h-86q-32 -89 -86 -124.5t-149 -35.5q-83 0 -132 40.5t-50 119.5z" />
    <glyph glyph-name="dotaccent" unicode="&#x2d9;" 
d="M340 1335q-6 -41 18.5 -69.5t65.5 -28.5t74 28.5t39 69.5t-18.5 70t-65.5 29t-74 -29t-39 -70z" />
    <glyph glyph-name="ring" unicode="&#x2da;" 
d="M242 1329q-12 -79 37 -136.5t127 -57.5t141.5 58t75.5 134q12 77 -36.5 137t-125.5 60q-81 0 -144 -57t-75 -138zM549 1329q-8 -51 -46 -86t-89 -35q-50 0 -78 34t-21 85q6 51 44.5 87t89.5 36q50 0 78 -34.5t22 -86.5z" />
    <glyph glyph-name="ogonek" unicode="&#x2db;" 
d="M330 -375l-29 78q-47 -47 -119 -47q-88 0 -76 96q11 71 68 139t119 109h-92q-90 -63 -148 -129t-69 -145q-12 -77 33 -122.5t128 -45.5q101 0 185 67z" />
    <glyph glyph-name="tilde" unicode="&#x2dc;" 
d="M168 1190h-74q20 79 74 139q63 70 139 70q58 0 146 -51q4 -2 20.5 -11l22 -12t19 -9.5t21.5 -8.5t19 -4.5t20 -2.5q41 0 70 29t43 70h74q-23 -87 -74.5 -148t-126.5 -61q-51 0 -147 49q-6 3 -22 11.5t-23 12t-20.5 9.5t-22.5 8.5t-20 5t-21 2.5q-81 0 -117 -98z" />
    <glyph glyph-name="hungarumlaut" unicode="&#x2dd;" 
d="M393 1450l-254 -295h103l315 295h-164zM692 1450l-254 -295h103l315 295h-164z" />
    <glyph glyph-name="uni0394" unicode="&#x394;" horiz-adv-x="1372" 
d="M31 0h1315l-383 1458h-152zM864 1321l301 -1194h-932z" />
    <glyph glyph-name="uni03A9" unicode="&#x3a9;" horiz-adv-x="1523" 
d="M889 0h514l16 119h-403l22 168q199 53 326.5 208t157.5 359q18 133 -18 249.5t-112.5 198t-189.5 128.5t-244 47q-177 0 -337.5 -78.5t-271 -223t-134.5 -323.5q-30 -199 56.5 -355.5t267.5 -209.5l-23 -168h-403l-17 -119h514l52 371q-118 19 -194.5 87.5t-104.5 168.5
t-11 223q19 142 104 257.5t212.5 180t269.5 64.5q220 0 347.5 -141t98.5 -361q-25 -188 -142 -317.5t-302 -161.5z" />
    <glyph glyph-name="uni03BC" unicode="&#x3bc;" horiz-adv-x="1138" 
d="M1001 266l95 680h-123l-66 -473q-28 -189 -133.5 -288t-249.5 -99q-239 0 -194 303l78 557h-123l-199 -1413h121l74 520q78 -78 229 -78q112 0 204.5 54t145.5 137h6q1 -8 -1 -32t-6.5 -66t-6.5 -68h123q2 17 11 121.5t15 144.5z" />
    <glyph glyph-name="pi" unicode="&#x3c0;" horiz-adv-x="1153" 
d="M1075 18l10 74q-47 -14 -75 -14q-40 0 -59 17t-19 44.5t4 61.5l92 649h156l12 96h-987l-12 -96h143l-119 -850h107l118 850h476l-91 -635q-6 -45 -8 -71t1.5 -60t16.5 -52t40.5 -31t70.5 -13q51 0 123 30z" />
    <glyph glyph-name="endash" unicode="&#x2013;" horiz-adv-x="1024" 
d="M61 430l15 111h1024l-15 -111h-1024z" />
    <glyph glyph-name="emdash" unicode="&#x2014;" horiz-adv-x="2048" 
d="M61 430l15 111h2048l-15 -111h-2048z" />
    <glyph glyph-name="quoteleft" unicode="&#x2018;" horiz-adv-x="532" 
d="M610 1450l-198 -467h-148l223 467h123z" />
    <glyph glyph-name="quoteright" unicode="&#x2019;" horiz-adv-x="532" 
d="M264 983l197 467h149l-225 -467h-121z" />
    <glyph glyph-name="quotesinglbase" unicode="&#x201a;" horiz-adv-x="532" 
d="M88 -283l195 467h149l-223 -467h-121z" />
    <glyph glyph-name="quotedblleft" unicode="&#x201c;" horiz-adv-x="1064" 
d="M698 1450l-196 -467h-150l226 467h120zM1055 1450l-197 -467h-149l225 467h121z" />
    <glyph glyph-name="quotedblright" unicode="&#x201d;" horiz-adv-x="1064" 
d="M709 983l196 467h150l-226 -467h-120zM352 983l197 467h149l-225 -467h-121z" />
    <glyph glyph-name="quotedblbase" unicode="&#x201e;" horiz-adv-x="1064" 
d="M532 -283l195 467h150l-224 -467h-121zM176 -283l195 467h149l-223 -467h-121z" />
    <glyph glyph-name="dagger" unicode="&#x2020;" horiz-adv-x="1064" 
d="M434 -258l170 1202h-393l14 98h393l58 408h123l-58 -408h394l-15 -98h-393l-170 -1202h-123z" />
    <glyph glyph-name="daggerdbl" unicode="&#x2021;" horiz-adv-x="1064" 
d="M434 -258l58 408h-394l15 98h393l98 696h-393l14 98h393l58 408h123l-58 -408h394l-15 -98h-393l-98 -696h393l-14 -98h-394l-57 -408h-123z" />
    <glyph glyph-name="bullet" unicode="&#x2022;" horiz-adv-x="1024" 
d="M252 725q22 151 142.5 256.5t271.5 105.5t242 -105.5t69 -256.5t-142.5 -257t-271.5 -106t-242 106t-69 257z" />
    <glyph glyph-name="ellipsis" unicode="&#x2026;" horiz-adv-x="2048" 
d="M256 86q6 41 39 69.5t74 28.5t65.5 -28.5t18.5 -69.5t-39 -69.5t-74 -28.5t-65.5 28.5t-18.5 69.5zM938 86q6 41 39 69.5t74 28.5t65.5 -28.5t18.5 -69.5t-39 -69.5t-74 -28.5t-65.5 28.5t-18.5 69.5zM1620 86q6 41 39 69.5t74 28.5t65.5 -28.5t18.5 -69.5t-39 -69.5
t-74 -28.5t-65.5 28.5t-18.5 69.5z" />
    <glyph glyph-name="perthousand" unicode="&#x2030;" horiz-adv-x="2009" 
d="M668 289q19 129 123 221t233 92t209 -92t61 -221t-124 -221.5t-234 -92.5t-208 92.5t-60 221.5zM766 289q-12 -89 41.5 -152t142.5 -63t161.5 63t84.5 152t-41.5 152t-142.5 63t-161.5 -63t-84.5 -152zM1370 289q19 129 123 221t233 92t209.5 -92t61.5 -221
t-124.5 -221.5t-234.5 -92.5t-208 92.5t-60 221.5zM1468 289q-12 -89 42 -152t143 -63t161 63t84 152t-41.5 152t-142.5 63t-161.5 -63t-84.5 -152zM217 1161q17 129 122 221.5t234 92.5t208.5 -92.5t62.5 -221.5q-19 -129 -124.5 -221t-234.5 -92t-208 92t-60 221z
M315 1161q-12 -89 42 -152t143 -63t161 63t84 152t-42.5 152t-143.5 63t-160.5 -63t-83.5 -152zM133 -12l1149 1532l86 -58l-1151 -1532z" />
    <glyph glyph-name="guilsinglleft" unicode="&#x2039;" horiz-adv-x="645" 
d="M420 70l-223 415l340 416l77 -59l-288 -357l192 -360z" />
    <glyph glyph-name="guilsinglright" unicode="&#x203a;" horiz-adv-x="645" 
d="M362 901l222 -416l-338 -415l-78 59l287 356l-191 361z" />
    <glyph glyph-name="fraction" unicode="&#x2044;" horiz-adv-x="344" 
d="M805 1520l-1147 -1532l84 -58l1149 1532z" />
    <glyph glyph-name="Euro" unicode="&#x20ac;" horiz-adv-x="962" 
d="M1057 1329l47 113q-77 41 -207 41q-200 0 -348 -134t-234 -405h-106l-35 -98h121q-13 -35 -27 -129q-13 -66 -10 -109h-98l-39 -98h129q0 -247 103.5 -395t303.5 -148q149 0 248 60l-8 116q-98 -55 -207 -55q-142 0 -223.5 113t-77.5 309h375l37 98h-410q5 70 12 109
q14 97 27 129h447l38 98h-456q66 208 175 315t251 107q104 0 172 -37z" />
    <glyph glyph-name="afii61289" unicode="&#x2113;" horiz-adv-x="1024" 
d="M844 86l-31 49q-101 -69 -188 -69q-31 0 -57 8.5t-49 28.5t-32.5 59t-1.5 94l43 311q202 182 311 339.5t132 307.5q17 115 -33 182.5t-145 67.5q-109 0 -193 -92.5t-108 -253.5l-74 -534l-197 -168l35 -58l150 140l-37 -265q-18 -124 39.5 -186.5t171.5 -62.5
q137 0 264 102zM877 1204q-17 -123 -103 -265t-233 -288l69 490q18 122 66 186t106 64q54 0 80.5 -50.5t14.5 -136.5z" />
    <glyph glyph-name="trademark" unicode="&#x2122;" horiz-adv-x="2027" 
d="M530 606l105 746h-273l15 98h655l-14 -98h-273l-104 -746h-111zM1065 606l119 844h176l170 -672l360 672h170l-118 -844h-111l102 740h-4l-393 -740h-66l-188 740h-4l-102 -740h-111z" />
    <glyph glyph-name="Omega" unicode="&#x2126;" horiz-adv-x="1523" 
d="M889 0h514l16 119h-403l22 168q199 53 326.5 208t157.5 359q18 133 -18 249.5t-112.5 198t-189.5 128.5t-244 47q-177 0 -337.5 -78.5t-271 -223t-134.5 -323.5q-30 -199 56.5 -355.5t267.5 -209.5l-23 -168h-403l-17 -119h514l52 371q-118 19 -194.5 87.5t-104.5 168.5
t-11 223q19 142 104 257.5t212.5 180t269.5 64.5q220 0 347.5 -141t98.5 -361q-25 -188 -142 -317.5t-302 -161.5z" />
    <glyph glyph-name="estimated" unicode="&#x212e;" horiz-adv-x="1024" 
d="M322 530h827q0 250 -147.5 408t-383.5 158q-157 0 -278.5 -75.5t-185.5 -203.5t-64 -287q0 -158 64 -286t185.5 -203.5t278.5 -75.5q160 0 266 64t201 213l-71 43q-78 -129 -172.5 -187.5t-223.5 -58.5q-175 0 -296 121v370zM918 604h-596v297q123 123 294 123
q173 0 302 -123v-297z" />
    <glyph glyph-name="partialdiff" unicode="&#x2202;" horiz-adv-x="1015" 
d="M1036 743q10 72 12.5 141.5t-4 143.5t-23.5 138t-49 122t-76.5 99.5t-110.5 65.5t-148 24q-160 0 -313 -119l61 -88q70 48 123 71t119 23q68 0 121.5 -25.5t86.5 -69.5t54.5 -99t28.5 -119.5t6.5 -125t-9.5 -120.5l-9 -54t-9 -53q-52 80 -134.5 126t-180.5 46
q-183 0 -308 -125.5t-151 -310.5q-12 -90 4.5 -173t58.5 -146.5t115 -101.5t166 -38q82 0 153 27t124.5 72t98.5 109t76 131t55 145.5t38 146t24 137.5zM870 569q-12 -62 -31.5 -123t-53 -128.5t-74.5 -117.5t-100.5 -83t-127.5 -33q-67 0 -117.5 30.5t-77 81t-36 111
t-0.5 123.5q18 136 106 231t220 95q91 0 165 -52t127 -135z" />
    <glyph glyph-name="Delta" unicode="&#x2206;" horiz-adv-x="1372" 
d="M31 0h1315l-383 1458h-152zM864 1321l301 -1194h-932z" />
    <glyph glyph-name="product" unicode="&#x220f;" horiz-adv-x="1456" 
d="M1178 -438h135v2048h-1168v-2048h136v1921h897v-1921z" />
    <glyph glyph-name="summation" unicode="&#x2211;" horiz-adv-x="1236" 
d="M51 -438h1133v125h-969l672 905l-633 891h905v127h-1079v-115l645 -903l-674 -918v-112z" />
    <glyph glyph-name="minus" unicode="&#x2212;" horiz-adv-x="1363" 
d="M252 670l-12 -99h1044l12 99h-1044z" />
    <glyph glyph-name="uni2215" unicode="&#x2215;" horiz-adv-x="344" 
d="M592 1520l-934 -1532l92 -58l936 1532z" />
    <glyph glyph-name="uni2219" unicode="&#x2219;" horiz-adv-x="532" 
d="M258 651q-6 -41 18.5 -69.5t65.5 -28.5t74 28.5t39 69.5t-18.5 70t-65.5 29t-74 -29t-39 -70z" />
    <glyph glyph-name="radical" unicode="&#x221a;" horiz-adv-x="1009" 
d="M598 -438l430 2048h-129l-387 -1876l-324 680l-204 -99l49 -102l94 45l336 -696h135z" />
    <glyph glyph-name="infinity" unicode="&#x221e;" horiz-adv-x="1517" 
d="M1434 516q0 130 -81 214.5t-210 84.5q-34 0 -66 -6t-64 -22.5t-54 -28.5t-55.5 -41t-47 -41t-50.5 -48t-46 -44q-110 103 -153 136q-125 93 -240 93q-127 0 -205 -87.5t-78 -215.5q0 -129 79.5 -213t207.5 -84q48 0 91 12t85 38.5t69.5 47.5t74.5 62t69 59
q48 -48 84 -79.5t87 -67.5t105.5 -54t110.5 -18q128 0 207.5 86.5t79.5 216.5zM1317 510q0 -77 -44 -127.5t-120 -50.5q-20 0 -39.5 3t-40.5 11t-36 14t-37.5 21t-33.5 21.5t-35 26.5t-31 25.5t-33 28t-29 25.5q8 7 42.5 38t50 44.5t49 38.5t56.5 37t53.5 22t57.5 10
q83 0 126.5 -53t43.5 -135zM682 510q-37 -35 -67 -60.5t-72.5 -55.5t-86 -46t-83.5 -16q-80 0 -126 50t-46 130q0 76 44.5 130t119.5 54q37 0 77.5 -15t85 -46.5t70 -52t68.5 -58.5q11 -10 16 -14z" />
    <glyph glyph-name="integral" unicode="&#x222b;" horiz-adv-x="1112" 
d="M831 1507q0 52 -44 77.5t-99 25.5q-47 0 -84.5 -13t-63 -39t-44 -55.5t-29 -73t-17 -79.5t-7.5 -86.5t-1 -83.5t1 -81t1 -69v-1014l-2 -43v-10q4 -315 -65 -315q-11 0 -21 12t-17.5 27t-24 27t-40.5 12q-29 0 -48 -18.5t-19 -47.5q0 -47 37 -71.5t86 -24.5q41 0 75 12.5
t58 30.5t43.5 50.5t31.5 59t20.5 71.5t12.5 73t6.5 77t2.5 70v66v22v1032q0 4 -1.5 34t-2 62t0 75t5 80t12 70t21.5 52t34 19q13 0 23 -13t16.5 -28t24 -28t43.5 -13q34 0 54.5 17.5t20.5 51.5z" />
    <glyph glyph-name="approxequal" unicode="&#x2248;" horiz-adv-x="1363" 
d="M1319 813h-66q-59 -160 -192 -160q-91 0 -270 76q-186 74 -281 74q-107 0 -174 -73t-100 -189h67q25 71 76 117.5t119 46.5q38 0 85.5 -11.5t84 -25t96.5 -37.5q187 -76 280 -76q55 0 101 21t79 58.5t56.5 81.5t38.5 97zM1270 463h-66q-59 -160 -192 -160q-92 0 -271 76
q-186 74 -280 74q-107 0 -174.5 -73.5t-100.5 -189.5h68q25 71 76 117.5t119 46.5q86 0 266 -73q187 -76 280 -76q55 0 101 21t79 58.5t56.5 81.5t38.5 97z" />
    <glyph glyph-name="notequal" unicode="&#x2260;" horiz-adv-x="1363" 
d="M637 258h582l14 98h-531l197 291h375l14 98h-323l168 252l-78 45l-199 -297h-571l-15 -98h518l-194 -291h-365l-14 -98h313l-166 -248l80 -43z" />
    <glyph glyph-name="lessequal" unicode="&#x2264;" horiz-adv-x="1363" 
d="M182 25h1004l14 96h-1003zM266 616l951 -376l14 104l-836 328l928 329l16 107l-1056 -377z" />
    <glyph glyph-name="greaterequal" unicode="&#x2265;" horiz-adv-x="1363" 
d="M213 240l1057 376l16 115l-950 377l-17 -107l838 -329l-930 -328zM182 25h1004l14 96h-1003z" />
    <glyph glyph-name="lozenge" unicode="&#x25ca;" horiz-adv-x="1214" 
d="M670 -72l350 801l-350 801h-129l-346 -801l346 -801h129zM606 1395l281 -666l-281 -666l-278 666z" />
    <glyph glyph-name="grave.cap" unicode="&#xe300;" 
d="M580 1540l-172 295h-164l233 -295h103z" />
    <glyph glyph-name="acute.cap" unicode="&#xe301;" 
d="M596 1835l-254 -295h102l316 295h-164z" />
    <glyph glyph-name="circumflex.cap" unicode="&#xe302;" 
d="M430 1835l-262 -295h121l196 221l136 -221h133l-181 295h-143z" />
    <glyph glyph-name="caron.cap" unicode="&#xe303;" 
d="M528 1540l258 295h-110l-209 -233l-137 233h-127l182 -295h143z" />
    <glyph glyph-name="tilde.cap" unicode="&#xe304;" 
d="M147 1575h74q21 45 47.5 71.5t69.5 26.5q14 0 32.5 -5.5t28 -9.5t36 -17.5t32.5 -16.5q4 -2 19.5 -9.5t21 -10.5t19 -9t22 -8.5t20 -5.5t23 -4.5t22.5 -1.5q75 0 125.5 60.5t75.5 148.5h-74q-14 -41 -42.5 -69.5t-69.5 -28.5q-14 0 -30.5 5t-26 9t-34.5 16.5t-32 16.5
q-88 51 -146 51q-72 0 -139 -70q-46 -46 -74 -139z" />
    <glyph glyph-name="dieresis.cap" unicode="&#xe305;" 
d="M195 1720q-6 -41 18.5 -69.5t65.5 -28.5t73.5 28.5t38.5 69.5q5 41 -20 70t-66 29t-73.5 -29t-36.5 -70zM584 1720q-6 -41 18.5 -69.5t65.5 -28.5t73.5 28.5t38.5 69.5q5 41 -20 70t-66 29t-73.5 -29t-36.5 -70z" />
    <glyph glyph-name="macron.cap" unicode="&#xe306;" 
d="M745 1636l15 99h-541l-14 -99h540z" />
    <glyph glyph-name="breve.cap" unicode="&#xe307;" 
d="M289 1804h-86q-10 -121 60.5 -189.5t195.5 -68.5q124 0 214 68t120 190h-86q-31 -89 -85.5 -124t-150.5 -35q-83 0 -132 40t-50 119z" />
    <glyph glyph-name="ring.cap" unicode="&#xe308;" 
d="M295 1714q-11 -80 38 -137t128 -57q77 0 140 58t75 134q12 77 -36.5 137t-125.5 60q-81 0 -144 -57t-75 -138zM602 1714q-8 -52 -45.5 -86.5t-87.5 -34.5t-78.5 34t-21.5 85q8 52 45.5 87.5t87.5 35.5q51 0 79.5 -35t20.5 -86z" />
    <glyph glyph-name="hungarumlaut.cap" unicode="&#xe309;" 
d="M446 1835l-253 -295h102l315 295h-164zM745 1835l-253 -295h102l315 295h-164z" />
    <glyph glyph-name="dotaccent.cap" unicode="&#xe30a;" 
d="M395 1720q-6 -41 18.5 -69.5t65.5 -28.5t74 28.5t39 69.5q5 41 -20 70t-66 29t-74 -29t-37 -70z" />
    <glyph glyph-name="caron.alt" unicode="&#xe30b;" 
d="M391 1450l-160 -379h109l184 379h-133z" />
    <glyph glyph-name="commaaccent" unicode="&#xe30c;" 
d="M168 -135l-150 -338h109l174 338h-133z" />
    <glyph glyph-name="commaaccent.alt" unicode="&#xe30d;" 
d="M446 1217l152 337h-109l-176 -337h133z" />
    <glyph glyph-name="uniF8FF" unicode="&#xf8ff;" horiz-adv-x="1048" 
d="M455 240h114v137h-114v-137zM461 479h94q0 107 12 148q11 38 88 106q75 69 102 123t27 123q0 121 -71 194.5t-183 73.5q-116 0 -189.5 -69t-86.5 -211l102 -17q11 100 56 147.5t112 47.5q64 0 110 -50.5t46 -123.5q0 -40 -20 -76t-82 -94q-67 -67 -95 -121
q-26 -51 -26 -166zM946 102h-844v1264h844v-1264zM1049 1470h-1049v-1470h1049v1470z" />
    </font>
</defs>
</svg>
