<svg xmlns="http://www.w3.org/2000/svg">
<defs>
<font id="AvenirLTPro-Light" horiz-adv-x="491" >
  <font-face 
    font-family="Avenir LT Pro 35 Light"
    font-weight="300"
    font-stretch="normal"
    units-per-em="2048"
    panose-1="2 11 4 2 2 2 3 2 2 4"
    ascent="1548"
    descent="-500"
    x-height="946"
    cap-height="1450"
    bbox="-342 -512 2048 1917"
    underline-thickness="102"
    underline-position="-307"
    unicode-range="U+000D-FB02"
  />
<missing-glyph horiz-adv-x="1048" 
d="M569 240h-114v137h114v-137zM555 479h-94l-4 35q0 115 26 166q28 54 95 121q62 58 82 94t20 76q0 73 -46 123.5t-110 50.5q-67 0 -112 -47.5t-56 -147.5l-102 17q13 142 86.5 211t189.5 69q112 0 183 -73.5t71 -194.5q0 -69 -27 -123t-102 -123q-77 -68 -88 -106
q-12 -41 -12 -148zM102 102h844v1264h-844v-1264zM0 1470h1049v-1470h-1049v1470z" />
    <glyph glyph-name="IJ" unicode="IJ" horiz-adv-x="1449" 
d="M199 0v1450h135v-1450h-135zM1251 1450v-1024q0 -45 -2 -81t-11 -86.5t-25 -88.5t-45.5 -79t-70.5 -67.5t-103 -43.5t-140 -17q-154 0 -249.5 79.5t-127.5 217.5l135 25q49 -199 242 -199q137 0 199.5 82.5t62.5 224.5v1057h135z" />
    <glyph glyph-name="ij" unicode="ij" horiz-adv-x="931" 
d="M184 0v946h123v-946h-123zM154 1321q0 38 27 65t65 27t65 -27t27 -65t-27 -65t-65 -27t-65 27t-27 65zM748 946v-1112q0 -78 -12 -134t-41.5 -101t-84 -68t-133.5 -23q-46 0 -98 19l18 108q43 -16 78 -16q39 0 67 11.5t43.5 29.5t25 46.5t12 55t2.5 62.5v1122h123z
M594 1321q0 38 27 65t65 27t65 -27t27 -65t-27 -65t-65 -27t-65 27t-27 65z" />
    <glyph glyph-name="napostrophe" unicode="&#x22;n" horiz-adv-x="1138" 
d="M164 0v680q0 38 -5 141t-5 125h122q4 -144 9 -166h6q39 82 125.5 136.5t197.5 54.5q361 0 361 -408v-563h-123v557q0 303 -238 303q-144 0 -235.5 -100t-91.5 -287v-473h-123zM27 1071l104 379h133l-129 -379h-108z" />
    <glyph glyph-name="fi" unicode="fi" horiz-adv-x="1062" 
d="M756 0v946h123v-946h-123zM725 1321q0 38 27 65t65 27t65 -27t27 -65t-27 -65t-65 -27t-65 27t-27 65zM233 0v836h-196v110h196v309q0 70 18 126.5t46.5 91.5t66.5 58t75.5 32.5t76.5 9.5q83 0 141 -25l-24 -106q-41 20 -111 20q-85 0 -125.5 -62t-40.5 -190v-264h222
v-110h-222v-836h-123z" />
    <glyph glyph-name="fl" unicode="fl" horiz-adv-x="1062" 
d="M233 0v836h-196v110h196v309q0 70 18 126.5t46.5 91.5t66.5 58t75.5 32.5t76.5 9.5q83 0 141 -25l-24 -106q-41 20 -111 20q-85 0 -125.5 -62t-40.5 -190v-264h222v-110h-222v-836h-123zM756 0v1548h123v-1548h-123z" />
    <glyph glyph-name=".notdef" horiz-adv-x="1048" 
d="M569 240h-114v137h114v-137zM555 479h-94l-4 35q0 115 26 166q28 54 95 121q62 58 82 94t20 76q0 73 -46 123.5t-110 50.5q-67 0 -112 -47.5t-56 -147.5l-102 17q13 142 86.5 211t189.5 69q112 0 183 -73.5t71 -194.5q0 -69 -27 -123t-102 -123q-77 -68 -88 -106
q-12 -41 -12 -148zM102 102h844v1264h-844v-1264zM0 1470h1049v-1470h-1049v1470z" />
    <glyph glyph-name=".null" horiz-adv-x="409" 
 />
    <glyph glyph-name="nonmarkingreturn" horiz-adv-x="682" 
 />
    <glyph glyph-name="CR" unicode="&#xd;" horiz-adv-x="0" 
 />
    <glyph glyph-name="space" unicode=" " horiz-adv-x="532" 
 />
    <glyph glyph-name="exclam" unicode="!" horiz-adv-x="757" 
d="M440 1450v-1069h-123v1069h123zM281 86q0 41 28.5 69.5t69.5 28.5t69.5 -28.5t28.5 -69.5t-28.5 -69.5t-69.5 -28.5t-69.5 28.5t-28.5 69.5z" />
    <glyph glyph-name="quotedbl" unicode="&#x22;" horiz-adv-x="1064" 
d="M330 983v467h123v-467h-123zM612 983v467h123v-467h-123z" />
    <glyph glyph-name="numbersign" unicode="#" horiz-adv-x="1064" 
d="M186 0l62 469h-221v98h235l45 320h-221v98h236l61 465h106l-63 -465h285l63 465h107l-64 -465h221v-98h-235l-43 -320h221v-98h-236l-61 -469h-106l61 469h-285l-61 -469h-107zM653 567l43 320h-282l-43 -320h282z" />
    <glyph glyph-name="dollar" unicode="$" horiz-adv-x="1064" 
d="M575 643v-557q116 5 193.5 88t77.5 205q0 163 -182 231zM477 819v545q-103 -18 -174.5 -93t-71.5 -186q0 -101 53.5 -159t157.5 -95zM477 -162v137q-115 0 -227 56.5t-182 158.5l116 80q49 -83 127 -131t166 -53v594l-145 53q-72 26 -122 71t-73 96.5t-32 93.5t-9 83
q0 83 34 156t89 123t122 81t136 38v137h98v-137q117 0 211.5 -39.5t167.5 -143.5l-112 -82q-46 72 -119 113t-148 41v-578l144 -49q50 -18 93.5 -46t83 -71t62.5 -107t23 -142q0 -112 -58.5 -202t-150 -139t-197.5 -55v-137h-98z" />
    <glyph glyph-name="percent" unicode="%" horiz-adv-x="1669" 
d="M78 1122q0 146 103 249.5t249 103.5t249 -103.5t103 -249.5t-103 -249t-249 -103t-249 103t-103 249zM188 1122q0 -102 70.5 -171.5t171.5 -69.5t171.5 69.5t70.5 171.5t-71 172t-171 70t-171 -70t-71 -172zM887 328q0 146 103 249t249 103t249 -103t103 -249
t-103 -249.5t-249 -103.5t-249 103.5t-103 249.5zM997 328q0 -102 71 -172t171 -70t171 70t71 172t-70.5 171.5t-171.5 69.5t-171.5 -69.5t-70.5 -171.5zM324 -12l933 1532l95 -58l-936 -1532z" />
    <glyph glyph-name="ampersand" unicode="&#x26;" horiz-adv-x="1441" 
d="M645 795l352 -373l209 377h140l-263 -463l330 -346h-182l-217 233q-95 -128 -201 -194t-250 -66q-189 0 -315.5 116.5t-126.5 305.5q0 47 10.5 89.5t25 75.5t43 66.5t51.5 55.5t64 51.5t66 45t72 44.5q-42 50 -64 79t-53.5 77.5t-45.5 94.5t-14 93q0 101 51.5 177.5
t133.5 114.5t180 38q133 0 230.5 -86.5t97.5 -220.5q0 -44 -10.5 -83t-24.5 -68.5t-42.5 -60.5t-50 -50t-62 -45t-64.5 -39.5t-70 -38.5zM631 1364q-92 0 -155.5 -58t-63.5 -147q0 -35 13.5 -73t43 -80.5t46.5 -64t52 -62.5q34 18 51.5 27t51 29t52 35t43 38.5t37.5 46
t22.5 52.5t9.5 62q0 86 -57.5 140.5t-145.5 54.5zM932 309l-402 418q-52 -31 -79.5 -49t-71 -53t-66 -66t-40 -75.5t-17.5 -94.5q0 -135 94 -219t234 -84q198 0 348 223z" />
    <glyph glyph-name="quotesingle" unicode="'" horiz-adv-x="532" 
d="M205 983v467h123v-467h-123z" />
    <glyph glyph-name="parenleft" unicode="(" horiz-adv-x="532" 
d="M403 1499l105 -65q-128 -162 -197 -391.5t-69 -452.5q0 -230 67 -434.5t199 -413.5l-96 -61q-141 196 -217 435t-76 474q0 243 74.5 481.5t209.5 427.5z" />
    <glyph glyph-name="parenright" unicode=")" horiz-adv-x="532" 
d="M129 -319l-104 65q128 162 197 391.5t69 452.5q0 230 -67 434.5t-199 413.5l96 61q141 -196 217 -435t76 -474q0 -243 -75 -481.5t-210 -427.5z" />
    <glyph glyph-name="asterisk" unicode="*" horiz-adv-x="909" 
d="M506 1450v-311l295 98l30 -98l-294 -97l186 -249l-76 -60l-192 256l-183 -256l-82 60l187 249l-299 103l28 92l302 -98v311h98z" />
    <glyph glyph-name="plus" unicode="+" horiz-adv-x="1363" 
d="M160 571v99h473v473h98v-473h473v-99h-473v-473h-98v473h-473z" />
    <glyph glyph-name="comma" unicode="," horiz-adv-x="532" 
d="M102 -283l136 467h143l-158 -467h-121z" />
    <glyph glyph-name="hyphen" unicode="-" horiz-adv-x="681" 
d="M88 430v111h506v-111h-506z" />
    <glyph glyph-name="period" unicode="." horiz-adv-x="532" 
d="M168 86q0 41 28.5 69.5t69.5 28.5t70 -28.5t29 -69.5t-29 -69.5t-70 -28.5t-69.5 28.5t-28.5 69.5z" />
    <glyph glyph-name="slash" unicode="/" horiz-adv-x="757" 
d="M18 -37l623 1561l107 -37l-621 -1561z" />
    <glyph glyph-name="zero" unicode="0" horiz-adv-x="1064" 
d="M53 725q0 73 5 141t19 145t36 142t59.5 126t86 103t118.5 67.5t155 25.5t155 -25.5t119 -67.5t86 -103t59.5 -126t36.5 -142t19 -145t5 -141t-5 -141t-19 -145t-36.5 -142t-59.5 -126t-86 -103t-119 -67.5t-155 -25.5t-155 25.5t-118.5 67.5t-86 103t-59.5 126t-36 142
t-19 145t-5 141zM188 725q0 -55 3 -106.5t12 -118t23.5 -122t41 -111.5t61.5 -94.5t87 -62.5t116 -24t116 24t87 63t61.5 94.5t41.5 111t24 121.5t12 118t3 107t-3 107t-12 118t-24 121.5t-41.5 111t-61.5 94.5t-87 63t-116 24t-116 -24t-87 -62.5t-61.5 -94.5t-41 -111.5
t-23.5 -122t-12 -118t-3 -106.5z" />
    <glyph glyph-name="one" unicode="1" horiz-adv-x="1064" 
d="M535 0v1278h-3l-262 -215l-75 94l358 293h104v-1450h-122z" />
    <glyph glyph-name="two" unicode="2" horiz-adv-x="1064" 
d="M84 0v143l545 576q47 49 74.5 81t63 83t52.5 103.5t17 107.5q0 124 -81 197t-208 73q-111 0 -189 -65.5t-102 -172.5l-143 15q34 163 151 248.5t289 85.5q113 0 207 -43.5t152.5 -129t58.5 -198.5q0 -47 -9.5 -93t-22.5 -83t-39 -79.5t-46.5 -71.5t-57.5 -71t-59.5 -65
t-64.5 -66l-453 -464h762v-111h-897z" />
    <glyph glyph-name="three" unicode="3" horiz-adv-x="1064" 
d="M84 260l133 43q41 -108 113.5 -162.5t191.5 -54.5q155 0 239.5 89t84.5 226q0 77 -33.5 136.5t-89.5 94t-122 51.5t-138 17h-53v123h61q61 0 117 15.5t103.5 47t75.5 86t28 126.5q0 117 -74.5 191.5t-194.5 74.5q-88 0 -160 -45.5t-114 -124.5l-117 66q58 109 159.5 162
t231.5 53q113 0 203 -40t145.5 -126t55.5 -207t-67.5 -212t-190.5 -124v-4q137 -25 223 -128.5t86 -242.5q0 -181 -117 -298.5t-332 -117.5q-338 0 -448 285z" />
    <glyph glyph-name="four" unicode="4" horiz-adv-x="1064" 
d="M674 0v356h-627v146l580 948h170v-983h221v-111h-221v-356h-123zM674 467v848h-4l-512 -848h516z" />
    <glyph glyph-name="five" unicode="5" horiz-adv-x="1064" 
d="M924 1450v-111h-598l-7 -460q78 41 211 41q134 0 238 -66t158.5 -174.5t54.5 -239.5q0 -112 -42 -203.5t-110 -147t-148.5 -85t-162.5 -29.5q-305 0 -434 246l127 64q38 -84 124.5 -141.5t182.5 -57.5q52 0 107.5 22.5t106 63.5t82.5 109.5t32 150.5q0 158 -105.5 267.5
t-259.5 109.5q-145 0 -286 -98l12 739h717z" />
    <glyph glyph-name="six" unicode="6" horiz-adv-x="1064" 
d="M739 1450l-395 -639h4q35 29 96.5 45t118.5 16q192 0 318.5 -128.5t126.5 -317.5q0 -196 -135 -323.5t-341 -127.5t-340.5 127.5t-134.5 323.5q0 54 11 105t36 105t39.5 80.5t46.5 80.5l394 653h155zM532 766q-141 0 -240 -99.5t-99 -240.5q0 -151 94 -245.5t245 -94.5
t245.5 94.5t94.5 245.5q0 141 -99.5 240.5t-240.5 99.5z" />
    <glyph glyph-name="seven" unicode="7" horiz-adv-x="1064" 
d="M907 1450v-111l-577 -1339h-137l587 1339h-696v111h823z" />
    <glyph glyph-name="eight" unicode="8" horiz-adv-x="1064" 
d="M135 1098q0 167 113 272t284 105t284.5 -105t113.5 -272q0 -105 -64.5 -198.5t-167.5 -121.5v-2q133 -28 208 -132.5t75 -240.5q0 -192 -127 -310t-322 -118t-321.5 118t-126.5 310q0 136 75 240.5t208 132.5v2q-103 28 -167.5 121.5t-64.5 198.5zM270 1098
q0 -111 73.5 -189t188.5 -78t189 78t74 189q0 119 -74.5 192.5t-188.5 73.5t-188 -73.5t-74 -192.5zM219 403q0 -134 87 -225.5t226 -91.5t226.5 91.5t87.5 225.5q0 140 -90.5 229t-223.5 89t-223 -89t-90 -229z" />
    <glyph glyph-name="nine" unicode="9" horiz-adv-x="1064" 
d="M326 0l395 639h-4q-35 -29 -96.5 -45t-118.5 -16q-192 0 -318.5 128.5t-126.5 317.5q0 196 134.5 323.5t340.5 127.5t341 -127.5t135 -323.5q0 -54 -11 -105t-36.5 -105.5t-39.5 -79.5t-47 -81l-393 -653h-155zM532 684q141 0 240.5 99.5t99.5 240.5q0 151 -94.5 245.5
t-245.5 94.5t-245 -94.5t-94 -245.5q0 -141 99 -240.5t240 -99.5z" />
    <glyph glyph-name="colon" unicode=":" horiz-adv-x="532" 
d="M168 860q0 41 28.5 69.5t69.5 28.5t70 -28.5t29 -69.5t-29 -69.5t-70 -28.5t-69.5 28.5t-28.5 69.5zM168 86q0 41 28.5 69.5t69.5 28.5t70 -28.5t29 -69.5t-29 -69.5t-70 -28.5t-69.5 28.5t-28.5 69.5z" />
    <glyph glyph-name="semicolon" unicode=";" horiz-adv-x="532" 
d="M102 -283l136 467h143l-158 -467h-121zM168 860q0 41 28.5 69.5t69.5 28.5t70 -28.5t29 -69.5t-29 -69.5t-70 -28.5t-69.5 28.5t-28.5 69.5z" />
    <glyph glyph-name="less" unicode="&#x3c;" horiz-adv-x="1363" 
d="M1196 1149v-102l-917 -426l917 -426v-103l-1028 479v99z" />
    <glyph glyph-name="equal" unicode="=" horiz-adv-x="1363" 
d="M160 719v98h1044v-98h-1044zM160 424v98h1044v-98h-1044z" />
    <glyph glyph-name="greater" unicode="&#x3e;" horiz-adv-x="1363" 
d="M168 92v103l917 426l-917 426v102l1028 -479v-99z" />
    <glyph glyph-name="question" unicode="?" horiz-adv-x="948" 
d="M418 381v172q0 55 17.5 103t45.5 83.5t62.5 69t68.5 67t62 68.5t45.5 82.5t17.5 101.5q0 111 -64 179.5t-175 68.5q-105 0 -176 -64.5t-93 -172.5l-133 16q27 155 136.5 243.5t263.5 88.5q166 0 271 -93.5t105 -258.5q0 -70 -18.5 -127.5t-47.5 -97t-64 -74.5
t-70.5 -67.5t-64.5 -67t-47.5 -83t-18.5 -106.5v-131h-123zM383 86q0 41 28.5 69.5t69.5 28.5t70 -28.5t29 -69.5t-29 -69.5t-70 -28.5t-69.5 28.5t-28.5 69.5z" />
    <glyph glyph-name="at" unicode="@" horiz-adv-x="1638" 
d="M520 573q0 -86 47 -140t125 -54q91 0 173.5 80t127.5 187t45 198q0 209 -166 209q-74 0 -141.5 -47.5t-112.5 -119.5t-71.5 -155.5t-26.5 -157.5zM1274 1124l-199 -594q-22 -68 -22 -98q0 -53 53 -53q69 0 147 74.5t131.5 191.5t53.5 227q0 111 -48.5 209t-129.5 164.5
t-187.5 105t-220.5 38.5q-181 0 -332 -93t-235 -244.5t-84 -324.5q0 -180 87.5 -333t238.5 -243t329 -90q151 0 295.5 76t224.5 195h119q-93 -169 -268.5 -269t-370.5 -100q-163 0 -306.5 60t-243.5 162.5t-158 243.5t-58 298q0 210 101 384.5t275 275t382 100.5
q147 0 277 -47t223 -128.5t146.5 -196t53.5 -243.5q0 -123 -42.5 -237t-110.5 -193.5t-154 -126.5t-172 -47q-55 0 -91 36t-36 102h-4q-46 -56 -118 -97t-146 -41q-132 0 -204.5 85.5t-72.5 215.5q0 108 34.5 213.5t95 190.5t153.5 137.5t201 52.5q74 0 132.5 -41t84.5 -129
h4l49 131h123z" />
    <glyph glyph-name="A" unicode="A" horiz-adv-x="1402" 
d="M10 0l633 1450h139l611 -1450h-152l-158 385h-768l-163 -385h-142zM1034 508l-327 795l-338 -795h665z" />
    <glyph glyph-name="B" unicode="B" horiz-adv-x="1290" 
d="M199 0v1450h417q74 0 134.5 -8t124.5 -32.5t108 -65.5t72 -111.5t28 -165.5q0 -113 -67 -194t-193 -107v-4q144 -11 234 -108t90 -248q0 -96 -32 -170t-81.5 -117.5t-116.5 -71.5t-128.5 -37.5t-126.5 -9.5h-463zM334 1327v-504h280q80 0 142 17t97.5 42.5t57.5 60
t29.5 64t7.5 60.5q0 260 -315 260h-299zM334 700v-577h309q91 0 160 19.5t107.5 48.5t62.5 68.5t31.5 73t7.5 68.5q0 77 -29.5 136.5t-80 94t-111 51.5t-127.5 17h-330z" />
    <glyph glyph-name="C" unicode="C" horiz-adv-x="1441" 
d="M1282 311l111 -84q-192 -264 -539 -264q-218 0 -389.5 98t-266 271.5t-94.5 392.5t94.5 392.5t266 271.5t389.5 98q322 0 500 -227l-111 -93q-65 97 -169.5 147t-219.5 50q-185 0 -326 -85t-214.5 -229.5t-73.5 -324.5t73.5 -324.5t214.5 -229.5t326 -85q118 0 237 57.5
t191 167.5z" />
    <glyph glyph-name="D" unicode="D" horiz-adv-x="1517" 
d="M180 0v1450h449q121 0 225 -22t178 -57t135 -85.5t99.5 -102.5t67.5 -112.5t43.5 -110t23 -102t10.5 -80.5t2 -53t-2 -53t-10.5 -80.5t-23 -102t-43.5 -110t-67.5 -112.5t-99.5 -102.5t-135 -85.5t-178 -57t-225 -22h-449zM315 1327v-1204h279q147 0 269.5 36t216 108
t146 189t52.5 269t-52.5 269t-146 189t-216 108t-269.5 36h-279z" />
    <glyph glyph-name="E" unicode="E" horiz-adv-x="1214" 
d="M199 0v1450h886v-123h-751v-516h704v-123h-704v-565h784v-123h-919z" />
    <glyph glyph-name="F" unicode="F" horiz-adv-x="1138" 
d="M199 0v1450h868v-123h-733v-516h682v-123h-682v-688h-135z" />
    <glyph glyph-name="G" unicode="G" horiz-adv-x="1593" 
d="M1395 782v-688q-229 -131 -541 -131q-218 0 -389.5 98t-266 271.5t-94.5 392.5t94.5 392.5t266 271.5t389.5 98q324 0 522 -201l-98 -102q-66 79 -185.5 129.5t-238.5 50.5q-185 0 -326 -85t-214.5 -229.5t-73.5 -324.5t73.5 -324.5t214.5 -229.5t326 -85q261 0 406 86
v487h-349v123h484z" />
    <glyph glyph-name="H" unicode="H" horiz-adv-x="1478" 
d="M199 0v1450h135v-639h811v639h135v-1450h-135v688h-811v-688h-135z" />
    <glyph glyph-name="I" unicode="I" horiz-adv-x="532" 
d="M199 0v1450h135v-1450h-135z" />
    <glyph glyph-name="J" unicode="J" horiz-adv-x="987" 
d="M788 1450v-1024q0 -45 -2 -81t-11 -86.5t-25 -88.5t-45.5 -79t-70.5 -67.5t-103 -43.5t-140 -17q-154 0 -249.5 79.5t-127.5 217.5l136 25q49 -199 241 -199q137 0 199.5 82.5t62.5 224.5v1057h135z" />
    <glyph glyph-name="K" unicode="K" horiz-adv-x="1251" 
d="M199 0v1450h135v-639h12l703 639h186l-733 -664l774 -786h-195l-735 750h-12v-750h-135z" />
    <glyph glyph-name="L" unicode="L" horiz-adv-x="1024" 
d="M199 0v1450h135v-1327h676v-123h-811z" />
    <glyph glyph-name="M" unicode="M" horiz-adv-x="1820" 
d="M184 0v1450h203l528 -1217l529 1217h192v-1450h-135v1278h-4l-553 -1278h-59l-561 1278h-5v-1278h-135z" />
    <glyph glyph-name="N" unicode="N" horiz-adv-x="1593" 
d="M199 0v1450h174l882 -1270h5v1270h135v-1450h-174l-883 1270h-4v-1270h-135z" />
    <glyph glyph-name="O" unicode="O" horiz-adv-x="1708" 
d="M104 725q0 219 94.5 392.5t266 271.5t389.5 98t389.5 -98t266 -271.5t94.5 -392.5t-94.5 -392.5t-266 -271.5t-389.5 -98t-389.5 98t-266 271.5t-94.5 392.5zM240 725q0 -180 73.5 -324.5t214.5 -229.5t326 -85t326 85t214.5 229.5t73.5 324.5t-73.5 324.5t-214.5 229.5
t-326 85t-326 -85t-214.5 -229.5t-73.5 -324.5z" />
    <glyph glyph-name="P" unicode="P" horiz-adv-x="1175" 
d="M199 0v1450h417q66 0 127.5 -10.5t125 -37.5t109.5 -69t75.5 -110.5t29.5 -155.5q0 -95 -36 -169t-97.5 -119t-138.5 -68t-164 -23h-313v-688h-135zM334 1327v-516h307q61 0 113.5 13.5t97 42.5t70.5 80.5t26 119.5q0 67 -27 118.5t-72.5 81.5t-100 45t-115.5 15h-299z
" />
    <glyph glyph-name="Q" unicode="Q" horiz-adv-x="1708" 
d="M1665 123v-123h-799q-151 0 -289 54t-243 149.5t-167.5 236t-62.5 303.5q0 157 52.5 293.5t146.5 236t233 157t304 57.5t303.5 -57.5t232.5 -157t146.5 -236t52.5 -293.5q0 -128 -43 -252.5t-127 -223t-193 -140.5v-4h453zM240 743q0 -169 78.5 -310.5t222 -225.5
t321.5 -84q136 0 247 51.5t182.5 138t110 197.5t38.5 233q0 177 -70.5 317t-208 222t-321.5 82t-321.5 -82t-208 -222t-70.5 -317z" />
    <glyph glyph-name="R" unicode="R" horiz-adv-x="1214" 
d="M334 1327v-516h287q82 0 144.5 17.5t98.5 44t59 62.5t30.5 68t7.5 66t-7.5 66t-30.5 68t-59 62.5t-98.5 44t-144.5 17.5h-287zM199 0v1450h381q39 0 66 -1t85.5 -8t101 -20.5t95.5 -42t87 -67.5t57.5 -101.5t23.5 -140.5q0 -79 -24 -142.5t-60 -102.5t-87.5 -67t-99 -41
t-100.5 -20l422 -696h-154l-407 688h-252v-688h-135z" />
    <glyph glyph-name="S" unicode="S" horiz-adv-x="1138" 
d="M109 182l129 86q108 -182 331 -182q140 0 233 78.5t93 206.5q0 65 -25.5 113t-69 78t-99.5 53t-118 42t-124 40t-118 52.5t-99.5 74t-69 110.5t-25.5 156q0 124 66 216t170 136.5t229 44.5q258 0 396 -182l-117 -84q-103 143 -283 143q-90 0 -162 -29.5t-117.5 -92.5
t-45.5 -152q0 -70 25.5 -121.5t69 -82.5t99.5 -54.5t118 -41.5t123.5 -38t117.5 -50t99.5 -70.5t69 -107t25.5 -153.5q0 -95 -37 -173.5t-99.5 -129t-143.5 -78t-170 -27.5q-314 0 -471 219z" />
    <glyph glyph-name="T" unicode="T" horiz-adv-x="1175" 
d="M520 0v1327h-495v123h1126v-123h-496v-1327h-135z" />
    <glyph glyph-name="U" unicode="U" horiz-adv-x="1400" 
d="M1229 1450v-895q0 -96 -16.5 -180.5t-56 -161t-99 -131.5t-151 -87t-206.5 -32t-206 32t-150.5 87t-99 131.5t-56 161t-16.5 180.5v895h135v-860q0 -70 8 -132.5t33.5 -133.5t67 -121t114.5 -83.5t170 -33.5q70 0 128 17.5t98 46t70.5 70t49 85t29.5 95.5t15 96.5t4 93.5
v860h135z" />
    <glyph glyph-name="V" unicode="V" horiz-adv-x="1214" 
d="M535 0l-541 1450h145l467 -1272l471 1272h144l-551 -1450h-135z" />
    <glyph glyph-name="W" unicode="W" horiz-adv-x="1933" 
d="M432 0l-422 1450h140l360 -1284h4l367 1284h172l366 -1284h4l361 1284h139l-422 -1450h-166l-366 1290h-4l-367 -1290h-166z" />
    <glyph glyph-name="X" unicode="X" horiz-adv-x="1251" 
d="M2 0l545 762l-496 688h160l418 -590l411 590h162l-491 -688l538 -762h-168l-458 655l-459 -655h-162z" />
    <glyph glyph-name="Y" unicode="Y" horiz-adv-x="1175" 
d="M520 0v625l-532 825h162l438 -688l448 688h152l-533 -825v-625h-135z" />
    <glyph glyph-name="Z" unicode="Z" horiz-adv-x="1138" 
d="M47 0v106l848 1221h-836v123h1010v-111l-854 -1216h877v-123h-1045z" />
    <glyph glyph-name="bracketleft" unicode="[" horiz-adv-x="532" 
d="M459 1499v-98h-185v-1622h185v-98h-307v1818h307z" />
    <glyph glyph-name="backslash" unicode="\" horiz-adv-x="757" 
d="M117 1524l622 -1561l-108 -37l-621 1561z" />
    <glyph glyph-name="bracketright" unicode="]" horiz-adv-x="532" 
d="M74 -319v98h184v1622h-184v98h307v-1818h-307z" />
    <glyph glyph-name="asciicircum" unicode="^" horiz-adv-x="1363" 
d="M168 524l467 926h94l467 -926h-115l-399 815l-397 -815h-117z" />
    <glyph glyph-name="underscore" unicode="_" horiz-adv-x="1024" 
d="M0 -256v102h1024v-102h-1024z" />
    <glyph glyph-name="grave" unicode="`" 
d="M152 1450l213 -295h-103l-274 295h164z" />
    <glyph glyph-name="a" unicode="a" horiz-adv-x="1062" 
d="M899 629v-232q0 -249 19 -397h-115q-12 70 -12 154h-5q-53 -92 -132.5 -135.5t-198.5 -43.5q-63 0 -121 16t-106.5 48.5t-77.5 88.5t-29 128q0 60 20 108.5t51 81t77 56.5t91 37.5t100 21.5t97 10t88 2h143v58q0 117 -72.5 173t-193.5 56q-165 0 -289 -106l-71 84
q65 62 164.5 97.5t195.5 35.5q179 0 278 -84t99 -258zM788 475h-135q-82 0 -151.5 -11t-129 -34.5t-94 -66.5t-34.5 -101q0 -82 65.5 -129t149.5 -47q94 0 161 28t102 76.5t50.5 103t15.5 118.5v63z" />
    <glyph glyph-name="b" unicode="b" horiz-adv-x="1251" 
d="M137 0v1548h123v-768h4q54 93 159.5 142t219.5 49q218 0 358 -140.5t140 -357.5t-140 -357.5t-358 -140.5q-114 0 -219.5 49t-159.5 142h-4v-166h-123zM248 473q0 -161 114.5 -274t280.5 -113q169 0 272 111.5t103 275.5t-103 275.5t-272 111.5q-166 0 -280.5 -113
t-114.5 -274z" />
    <glyph glyph-name="c" unicode="c" horiz-adv-x="985" 
d="M862 217l94 -78q-136 -164 -348 -164q-218 0 -357.5 140.5t-139.5 357.5t139.5 357.5t357.5 140.5q208 0 353 -164l-99 -74q-117 127 -254 127q-169 0 -272 -111.5t-103 -275.5t103 -275.5t272 -111.5q148 0 254 131z" />
    <glyph glyph-name="d" unicode="d" horiz-adv-x="1251" 
d="M991 0v166h-4q-54 -93 -159.5 -142t-219.5 -49q-218 0 -357.5 140.5t-139.5 357.5t139.5 357.5t357.5 140.5q114 0 219.5 -49t159.5 -142h4v768h123v-1548h-123zM1004 473q0 161 -115 274t-281 113q-169 0 -272 -111.5t-103 -275.5t103 -275.5t272 -111.5q166 0 281 113
t115 274z" />
    <glyph glyph-name="e" unicode="e" horiz-adv-x="1138" 
d="M909 254l90 -76q-136 -203 -409 -203q-215 0 -347 139.5t-132 360.5q0 213 133.5 354.5t339.5 141.5q85 0 157.5 -25t124.5 -68t89 -99.5t55 -120.5t18 -130v-86h-795q0 -35 9.5 -76.5t35 -92.5t63.5 -91.5t103.5 -68t147.5 -27.5q95 0 183.5 46t133.5 122zM233 553h672
q0 126 -95.5 216.5t-231.5 90.5q-76 0 -138.5 -27.5t-99.5 -66.5t-62.5 -84t-35 -78t-9.5 -51z" />
    <glyph glyph-name="f" unicode="f" horiz-adv-x="606" 
d="M233 0v836h-196v110h196v309q0 70 18 126.5t46.5 91.5t66.5 58t75.5 32.5t76.5 9.5q83 0 141 -25l-24 -106q-41 20 -111 20q-85 0 -125.5 -62t-40.5 -190v-264h222v-110h-222v-836h-123z" />
    <glyph glyph-name="g" unicode="g" horiz-adv-x="1251" 
d="M1114 946v-885q0 -98 -18 -179t-48 -137t-72 -99t-86.5 -68.5t-95.5 -42t-95 -22t-89 -5.5q-144 0 -271 53t-198 146l97 90q63 -88 160.5 -133t211.5 -45q61 0 112 12t87.5 30.5t66 47t48 56t32 64t20 64.5t10.5 63t4.5 54t0.5 43v131h-4q-55 -87 -147 -135.5t-211 -48.5
q-137 0 -253.5 65.5t-184.5 177t-68 242.5t68 243t184.5 177.5t253.5 65.5q119 0 211 -49t147 -136h4v160h123zM995 485q0 155 -109.5 265t-264.5 110t-265 -110t-110 -265t110 -264.5t265 -109.5t264.5 109.5t109.5 264.5z" />
    <glyph glyph-name="h" unicode="h" horiz-adv-x="1138" 
d="M164 0v1548h123v-768h4q39 82 125.5 136.5t197.5 54.5q361 0 361 -408v-563h-123v557q0 303 -238 303q-144 0 -235.5 -100t-91.5 -287v-473h-123z" />
    <glyph glyph-name="i" unicode="i" 
d="M184 0v946h123v-946h-123zM154 1321q0 38 27 65t65 27t65 -27t27 -65t-27 -65t-65 -27t-65 27t-27 65z" />
    <glyph glyph-name="j" unicode="j" 
d="M307 946v-1112q0 -78 -12 -134t-41.5 -101.5t-83.5 -68t-133 -22.5q-46 0 -98 19l18 108q43 -16 78 -16q39 0 66.5 11.5t43.5 29.5t25 46.5t11.5 55t2.5 62.5v1122h123zM154 1321q0 38 27 65t65 27t65 -27t27 -65t-27 -65t-65 -27t-65 27t-27 65z" />
    <glyph glyph-name="k" unicode="k" horiz-adv-x="985" 
d="M164 0v1548h123v-1032l467 428h180l-488 -432l545 -512h-186l-518 500v-500h-123z" />
    <glyph glyph-name="l" unicode="l" 
d="M184 0v1548h123v-1548h-123z" />
    <glyph glyph-name="m" unicode="m" horiz-adv-x="1744" 
d="M164 0v680q0 38 -5 141t-5 125h122q4 -144 9 -166h6q39 82 125.5 136.5t197.5 54.5q99 0 176 -51t109 -154q42 101 130 153t192 52q86 0 150.5 -23t104 -60.5t63.5 -92t33 -110t9 -122.5v-563h-123v557q0 303 -237 303q-65 0 -116.5 -21.5t-83 -55t-52 -78t-28 -87
t-7.5 -86.5v-532h-123v569q0 135 -50 213t-147 78q-144 0 -235.5 -100t-91.5 -287v-473h-123z" />
    <glyph glyph-name="n" unicode="n" horiz-adv-x="1138" 
d="M164 0v680q0 38 -5 141t-5 125h122q4 -144 9 -166h6q39 82 125.5 136.5t197.5 54.5q361 0 361 -408v-563h-123v557q0 303 -238 303q-144 0 -235.5 -100t-91.5 -287v-473h-123z" />
    <glyph glyph-name="o" unicode="o" horiz-adv-x="1216" 
d="M111 473q0 217 139.5 357.5t357.5 140.5t358 -140.5t140 -357.5t-140 -357.5t-358 -140.5t-357.5 140.5t-139.5 357.5zM233 473q0 -164 103 -275.5t272 -111.5t272 111.5t103 275.5t-103 275.5t-272 111.5t-272 -111.5t-103 -275.5z" />
    <glyph glyph-name="p" unicode="p" horiz-adv-x="1251" 
d="M137 -467v1413h123v-166h4q54 93 159.5 142t219.5 49q218 0 358 -140.5t140 -357.5t-140 -357.5t-358 -140.5q-114 0 -219.5 49t-159.5 142h-4v-633h-123zM248 473q0 -161 114.5 -274t280.5 -113q169 0 272 111.5t103 275.5t-103 275.5t-272 111.5q-166 0 -280.5 -113
t-114.5 -274z" />
    <glyph glyph-name="q" unicode="q" horiz-adv-x="1251" 
d="M991 -467v633h-4q-54 -93 -159.5 -142t-219.5 -49q-218 0 -357.5 140.5t-139.5 357.5t139.5 357.5t357.5 140.5q114 0 219.5 -49t159.5 -142h4v166h123v-1413h-123zM1004 473q0 161 -115 274t-281 113q-169 0 -272 -111.5t-103 -275.5t103 -275.5t272 -111.5
q166 0 281 113t115 274z" />
    <glyph glyph-name="r" unicode="r" horiz-adv-x="681" 
d="M164 0v680q0 38 -5 141t-5 125h122q4 -144 9 -166q105 191 301 191q29 0 71 -10l-14 -121q-24 8 -47 8q-103 0 -174 -45.5t-103 -118.5t-32 -168v-516h-123z" />
    <glyph glyph-name="s" unicode="s" horiz-adv-x="872" 
d="M57 168l109 74q37 -73 112.5 -114.5t161.5 -41.5q85 0 151 48t66 126q0 52 -31 86.5t-80.5 51.5t-109.5 29.5t-119.5 29t-109 42t-80.5 76t-31 123.5q0 66 28.5 119.5t75.5 86.5t103.5 50t116.5 17q244 0 334 -178l-111 -66q-37 67 -89.5 100t-133.5 33
q-74 0 -137.5 -41.5t-63.5 -109.5q0 -52 31 -84.5t80.5 -48.5t109.5 -27t119.5 -27.5t109 -43t80.5 -79.5t31 -131q0 -139 -99 -216t-243 -77q-126 0 -226.5 49t-154.5 144z" />
    <glyph glyph-name="t" unicode="t" horiz-adv-x="681" 
d="M627 946v-110h-271v-617q0 -63 34.5 -98t96.5 -35q61 0 140 33l10 -111q-93 -33 -160 -33q-125 0 -184.5 67.5t-59.5 176.5v617h-204v110h204v273h123v-273h271z" />
    <glyph glyph-name="u" unicode="u" horiz-adv-x="1138" 
d="M965 946v-680q0 -38 5 -141t5 -125h-123q-4 149 -8 166h-6q-39 -82 -126 -136.5t-198 -54.5q-86 0 -150.5 23t-104 60.5t-63.5 92t-33 110t-9 122.5v563h122v-557q0 -303 238 -303q144 0 236 100t92 287v473h123z" />
    <glyph glyph-name="v" unicode="v" horiz-adv-x="948" 
d="M418 0l-387 946h139l315 -813l308 813h125l-373 -946h-127z" />
    <glyph glyph-name="w" unicode="w" horiz-adv-x="1441" 
d="M328 0l-297 946h135l229 -792h4l265 792h116l281 -792h4l223 792h123l-278 -946h-127l-283 774h-4l-264 -774h-127z" />
    <glyph glyph-name="x" unicode="x" horiz-adv-x="985" 
d="M12 0l394 512l-338 434h157l262 -358l261 358h153l-334 -434l406 -512h-160l-330 428l-323 -428h-148z" />
    <glyph glyph-name="y" unicode="y" horiz-adv-x="948" 
d="M918 946l-488 -1239q-77 -199 -260 -199q-47 0 -121 19l12 115q81 -23 111 -23q32 0 58 13t44.5 39t30.5 49t25 57l86 219l-385 950h137l313 -796l305 796h132z" />
    <glyph glyph-name="z" unicode="z" horiz-adv-x="872" 
d="M55 0v74l568 762h-539v110h709v-74l-566 -761h590v-111h-762z" />
    <glyph glyph-name="braceleft" unicode="{" horiz-adv-x="681" 
d="M561 1499v-98h-47q-40 0 -66.5 -30t-36.5 -73t-10 -98v-289q1 -61 -11.5 -114.5t-30 -87.5t-39 -61t-37 -39t-25.5 -17v-4q15 -8 35 -27.5t46.5 -56.5t44.5 -99.5t17 -136.5v-291q0 -84 27.5 -141t85.5 -57h47v-98h-102q-85 0 -132.5 66t-47.5 181v299q0 314 -144 314v98
q144 0 144 315v297q0 116 47 182t133 66h102z" />
    <glyph glyph-name="bar" unicode="|" horiz-adv-x="454" 
d="M178 1536h98v-2048h-98v2048z" />
    <glyph glyph-name="braceright" unicode="}" horiz-adv-x="681" 
d="M121 -319v98h47q40 0 66.5 30t36.5 73t10 98v288q-1 75 17 138t44.5 99.5t47 56.5t34.5 26v4q-15 8 -35 27.5t-46.5 56t-44.5 99t-17 136.5v291q0 85 -27.5 142t-85.5 57h-47v98h102q85 0 132.5 -66.5t47.5 -181.5v-299q0 -313 144 -313v-98q-144 0 -144 -316v-297
q0 -116 -47 -181.5t-133 -65.5h-102z" />
    <glyph glyph-name="asciitilde" unicode="~" horiz-adv-x="1363" 
d="M1083 745l70 -65q-88 -184 -256 -184q-14 0 -29.5 2t-28 4.5t-31 8t-28.5 9t-31 12t-28.5 12t-30.5 13.5t-28 12q-147 66 -201 66q-55 0 -95.5 -36t-84.5 -103l-70 65q96 184 256 184q14 0 29.5 -2t28 -4.5t31 -8t28.5 -9t31 -12t28.5 -12t30.5 -13.5t28 -12
q147 -66 201 -66q55 0 95.5 36t84.5 103z" />
    <glyph glyph-name="uni00A0" unicode="&#xa0;" horiz-adv-x="532" 
 />
    <glyph glyph-name="exclamdown" unicode="&#xa1;" horiz-adv-x="757" 
d="M317 -455v1069h123v-1069h-123zM477 909q0 -41 -28.5 -69.5t-69.5 -28.5t-69.5 28.5t-28.5 69.5t28.5 70t69.5 29t69.5 -29t28.5 -70z" />
    <glyph glyph-name="cent" unicode="&#xa2;" horiz-adv-x="1064" 
d="M524 96v758q-136 -21 -215.5 -128.5t-79.5 -248.5q0 -137 81.5 -245.5t213.5 -135.5zM623 856v-770q137 6 237 131l94 -78q-131 -158 -331 -164v-141h-99v148q-187 26 -302.5 164t-115.5 331q0 191 116.5 326.5t301.5 161.5v147h99v-145q194 -3 335 -160l-98 -74
q-101 112 -237 123z" />
    <glyph glyph-name="sterling" unicode="&#xa3;" horiz-adv-x="1064" 
d="M119 0v111h215v589h-195v111h195v240q0 58 14 115t46.5 113.5t80.5 99.5t123 69.5t166 26.5q163 0 293 -115l-82 -98q-102 102 -217 102q-74 0 -132 -29t-91 -75t-49.5 -96t-16.5 -99v-254h338v-111h-338v-589h502v-111h-852z" />
    <glyph glyph-name="currency" unicode="&#xa4;" horiz-adv-x="1064" 
d="M29 291l116 112q-122 131 -122 322t122 322l-116 112l69 76l117 -115q140 109 317 109q178 0 318 -109l117 115l69 -76l-116 -112q122 -131 122 -322t-122 -322l116 -112l-69 -76l-117 115q-140 -109 -318 -109q-177 0 -317 109l-117 -115zM145 725q0 -162 114 -277.5
t273 -115.5t273.5 115.5t114.5 277.5q0 163 -114.5 278t-273.5 115t-273 -115t-114 -278z" />
    <glyph glyph-name="yen" unicode="&#xa5;" horiz-adv-x="1064" 
d="M465 0v369h-348v98h348v158l-19 32h-329v99h274l-391 694h139l393 -705l400 705h133l-391 -694h274v-99h-330l-18 -32v-158h348v-98h-348v-369h-135z" />
    <glyph glyph-name="brokenbar" unicode="&#xa6;" horiz-adv-x="454" 
d="M178 1382h98v-716h-98v716zM178 358h98v-716h-98v716z" />
    <glyph glyph-name="section" unicode="&#xa7;" horiz-adv-x="1064" 
d="M434 465l209 -107q62 33 109 85.5t47 111.5q0 66 -45 117t-107 84l-153 84q-199 -66 -199 -195q0 -37 10 -65.5t32 -49.5t42 -34t55 -31zM131 -49l125 61q34 -90 102 -137t164 -47q100 0 174 53t74 146q0 49 -26 90t-69 69t-98 56.5t-112 52t-112 57.5t-98 71t-69 93.5
t-26 124.5q0 172 217 264q-168 101 -168 260q0 101 57 176t142 110.5t182 35.5q111 0 200.5 -48t127.5 -145l-119 -69q-29 68 -85 103.5t-130 35.5q-99 0 -169.5 -52t-70.5 -147q0 -53 32.5 -96t84.5 -73.5t115 -59.5t126 -62t115 -72.5t84.5 -99t32.5 -133.5
q0 -170 -182 -270q70 -41 111.5 -107t41.5 -145q0 -157 -112.5 -249.5t-268.5 -92.5q-134 0 -239.5 62t-153.5 184z" />
    <glyph glyph-name="dieresis" unicode="&#xa8;" 
d="M-47 1335q0 41 28.5 70t69.5 29t70 -29t29 -70t-29 -69.5t-70 -28.5t-69.5 28.5t-28.5 69.5zM342 1335q0 41 28.5 70t69.5 29t70 -29t29 -70t-29 -69.5t-70 -28.5t-69.5 28.5t-28.5 69.5z" />
    <glyph glyph-name="copyright" unicode="&#xa9;" horiz-adv-x="1638" 
d="M1217 883h-111q-20 90 -89.5 151t-176.5 62q-152 0 -241 -107t-89 -264t89 -264t241 -107q108 0 179 61.5t87 151.5h111q-20 -147 -125 -229t-254 -82q-205 0 -322 130.5t-117 338.5t117 338.5t322 130.5q149 0 254 -82t125 -229zM57 725q0 155 60.5 296t162.5 243
t243 162.5t296 60.5t296 -60.5t243 -162.5t162.5 -243t60.5 -296t-60.5 -296t-162.5 -243t-243 -162.5t-296 -60.5t-296 60.5t-243 162.5t-162.5 243t-60.5 296zM168 725q0 -133 51.5 -253.5t138.5 -207.5t207.5 -138.5t253.5 -51.5t253.5 51.5t207.5 138.5t138.5 207.5
t51.5 253.5t-51.5 253.5t-138.5 207.5t-207.5 138.5t-253.5 51.5t-253.5 -51.5t-207.5 -138.5t-138.5 -207.5t-51.5 -253.5z" />
    <glyph glyph-name="ordfeminine" unicode="&#xaa;" horiz-adv-x="690" 
d="M381 1233h131v18q-3 71 -40 104.5t-130 33.5q-59 0 -103 -17.5t-89 -54.5l-54 78q100 80 269 80q125 0 185 -51.5t60 -172.5v-164q0 -133 11 -206h-101q-4 13 -5 27t-1.5 36t-1.5 31h-4q-66 -107 -213 -107q-96 0 -160.5 41t-64.5 125q0 57 27 98t74 62t98.5 30t111.5 9z
M512 1147h-78q-49 0 -91.5 -4.5t-84.5 -16t-66 -34t-24 -54.5q0 -36 44.5 -60t102.5 -24q97 0 147 57t50 122v14z" />
    <glyph glyph-name="guillemotleft" unicode="&#xab;" horiz-adv-x="985" 
d="M410 70l-281 415l281 416l86 -59l-238 -357l242 -360zM750 70l-281 415l281 416l86 -59l-238 -357l242 -360z" />
    <glyph glyph-name="logicalnot" unicode="&#xac;" horiz-adv-x="1363" 
d="M1106 274v445h-946v98h1044v-543h-98z" />
    <glyph glyph-name="uni00AD" unicode="&#xad;" horiz-adv-x="681" 
d="M88 430v111h506v-111h-506z" />
    <glyph glyph-name="registered" unicode="&#xae;" horiz-adv-x="1638" 
d="M653 674v-385h-110v878h338q146 0 211 -60.5t65 -182.5q0 -113 -61 -173t-160 -77l262 -385h-125l-262 385h-158zM653 1069v-297h142q45 0 74 1.5t66 10t59 24t37.5 45t15.5 71.5q0 41 -17 70.5t-46.5 45t-62.5 22.5t-71 7h-197zM57 725q0 155 60.5 296t162.5 243
t243 162.5t296 60.5t296 -60.5t243 -162.5t162.5 -243t60.5 -296t-60.5 -296t-162.5 -243t-243 -162.5t-296 -60.5t-296 60.5t-243 162.5t-162.5 243t-60.5 296zM168 725q0 -133 51.5 -253.5t138.5 -207.5t207.5 -138.5t253.5 -51.5t253.5 51.5t207.5 138.5t138.5 207.5
t51.5 253.5t-51.5 253.5t-138.5 207.5t-207.5 138.5t-253.5 51.5t-253.5 -51.5t-207.5 -138.5t-138.5 -207.5t-51.5 -253.5z" />
    <glyph glyph-name="macron" unicode="&#xaf;" 
d="M516 1339v-98h-541v98h541z" />
    <glyph glyph-name="degree" unicode="&#xb0;" horiz-adv-x="819" 
d="M410 885q-123 0 -209 86.5t-86 210.5q0 123 86 208t209 85t209 -85t86 -208q0 -124 -86 -210.5t-209 -86.5zM410 983q82 0 139 57.5t57 139.5t-57 139t-139 57t-139.5 -57t-57.5 -139t57.5 -139.5t139.5 -57.5z" />
    <glyph glyph-name="plusminus" unicode="&#xb1;" horiz-adv-x="1363" 
d="M160 670v98h467v375h98v-375h479v-98h-479v-375h-98v375h-467zM168 98v99h1028v-99h-1028z" />
    <glyph glyph-name="twosuperior" unicode="&#xb2;" horiz-adv-x="692" 
d="M47 592v88l352 344q36 35 53.5 53.5t39.5 48t31 58.5t9 63q0 58 -46 93.5t-126 35.5q-72 0 -115.5 -34.5t-60.5 -86.5l-104 9q17 74 67.5 124t105.5 68.5t112 18.5q122 0 200 -60.5t78 -163.5q0 -48 -14 -90t-46 -84t-56 -67.5t-72 -71.5l-260 -248h450v-98h-598z" />
    <glyph glyph-name="threesuperior" unicode="&#xb3;" horiz-adv-x="692" 
d="M260 999v99h47q34 0 66.5 8t62 25t48 48t18.5 72q0 54 -43.5 89.5t-114.5 35.5q-57 0 -104.5 -27.5t-75.5 -74.5l-80 51q94 150 260 150q115 0 191.5 -61.5t76.5 -160.5q0 -68 -47.5 -123t-120.5 -79v-4q88 -12 140.5 -73.5t52.5 -146.5q0 -113 -84 -180t-213 -67
q-216 0 -285 182l97 37q47 -121 188 -121q70 0 128 47.5t58 108.5q0 165 -231 165h-35z" />
    <glyph glyph-name="acute" unicode="&#xb4;" 
d="M127 1155l213 295h164l-275 -295h-102z" />
    <glyph glyph-name="mu" unicode="&#xb5;" horiz-adv-x="1138" 
d="M965 946v-680q0 -38 5 -141t5 -125h-123q-4 149 -8 166h-6q-39 -82 -126 -136.5t-198 -54.5q-152 0 -240 78v-520h-120v1413h122v-557q0 -303 238 -303q144 0 236 100t92 287v473h123z" />
    <glyph glyph-name="paragraph" unicode="&#xb6;" horiz-adv-x="1228" 
d="M547 -258v920q-178 0 -301 113.5t-123 273.5q0 192 120 296.5t337 104.5h464v-1708h-122v1610h-252v-1610h-123z" />
    <glyph glyph-name="periodcentered" unicode="&#xb7;" horiz-adv-x="532" 
d="M168 651q0 41 28.5 70t69.5 29t70 -29t29 -70t-29 -69.5t-70 -28.5t-69.5 28.5t-28.5 69.5z" />
    <glyph glyph-name="cedilla" unicode="&#xb8;" 
d="M350 0l-96 -131l4 -4q25 14 64 14q71 0 120.5 -38.5t49.5 -108.5q0 -85 -70 -129.5t-160 -44.5q-104 0 -194 43l28 65q66 -35 156 -35q47 0 88 22.5t41 65.5q0 42 -35 64t-80 22q-47 0 -90 -16l-33 31l129 180h78z" />
    <glyph glyph-name="onesuperior" unicode="&#xb9;" horiz-adv-x="692" 
d="M362 592v760l-174 -135l-51 69l225 176h111v-870h-111z" />
    <glyph glyph-name="ordmasculine" unicode="&#xba;" horiz-adv-x="790" 
d="M70 1171q0 135 88.5 219.5t234.5 84.5q143 0 235.5 -84t92.5 -220q0 -133 -93 -218t-235 -85q-146 0 -234.5 84t-88.5 219zM168 1171q0 -89 64 -153t161 -64t163.5 63.5t66.5 153.5q0 94 -63.5 156t-166.5 62q-96 0 -160.5 -65t-64.5 -153z" />
    <glyph glyph-name="guillemotright" unicode="&#xbb;" horiz-adv-x="985" 
d="M236 901l280 -416l-280 -415l-86 59l237 356l-242 361zM575 901l281 -416l-281 -415l-86 59l238 356l-242 361z" />
    <glyph glyph-name="onequarter" unicode="&#xbc;" horiz-adv-x="1593" 
d="M1278 0v209h-389v92l379 567h121v-561h131v-98h-131v-209h-111zM1278 307v414h-4l-275 -414h279zM299 592v760l-174 -135l-51 69l225 176h111v-870h-111zM236 -12l933 1532l95 -58l-936 -1532z" />
    <glyph glyph-name="onehalf" unicode="&#xbd;" horiz-adv-x="1593" 
d="M283 592v760l-174 -135l-52 69l226 176h110v-870h-110zM217 -12l934 1532l94 -58l-936 -1532zM938 0v88l352 344q36 35 53.5 53.5t39.5 48t31 58.5t9 63q0 58 -46 93.5t-126 35.5q-72 0 -115.5 -34t-60.5 -86l-104 8q17 74 67 124t105 68.5t112 18.5q122 0 200.5 -60.5
t78.5 -163.5q0 -48 -14 -90t-46 -84t-56 -67.5t-72 -71.5l-261 -248h451v-98h-598z" />
    <glyph glyph-name="threequarters" unicode="&#xbe;" horiz-adv-x="1593" 
d="M1311 0v209h-389v92l378 567h121v-561h131v-98h-131v-209h-110zM1307 307v414h-4l-275 -414h279zM248 999v99h47q35 3 66 11t61.5 24.5t48.5 46.5t18 71q0 54 -43 89.5t-114 35.5q-57 0 -104.5 -27.5t-75.5 -74.5l-80 51q94 150 260 150q115 0 191.5 -61.5t76.5 -160.5
q0 -68 -47.5 -123t-120.5 -79v-4q88 -12 140.5 -73.5t52.5 -146.5q0 -113 -84 -180t-213 -67q-215 0 -287 182l98 37q47 -121 189 -121q70 0 128 47.5t58 108.5q0 165 -231 165h-35zM340 -12l934 1532l94 -58l-936 -1532z" />
    <glyph glyph-name="questiondown" unicode="&#xbf;" horiz-adv-x="948" 
d="M530 614v-172q0 -55 -17.5 -103t-45.5 -83.5t-62.5 -69t-68.5 -67t-62 -68.5t-45.5 -82.5t-17.5 -101.5q0 -111 64.5 -179.5t175.5 -68.5q105 0 175.5 65t92.5 173l133 -17q-27 -155 -136 -243.5t-263 -88.5q-166 0 -271.5 94t-105.5 259q0 70 18.5 127.5t47.5 97
t64.5 74t71 67t64.5 67.5t47.5 83t18.5 106v131h122zM565 909q0 -41 -28.5 -69.5t-69.5 -28.5t-69.5 28.5t-28.5 69.5t28.5 70t69.5 29t69.5 -29t28.5 -70z" />
    <glyph glyph-name="Agrave" unicode="&#xc0;" horiz-adv-x="1402" 
d="M10 0l633 1450h139l611 -1450h-152l-158 385h-768l-163 -385h-142zM1034 508l-327 795l-338 -795h665zM608 1835l213 -295h-102l-275 295h164z" />
    <glyph glyph-name="Aacute" unicode="&#xc1;" horiz-adv-x="1402" 
d="M10 0l633 1450h139l611 -1450h-152l-158 385h-768l-163 -385h-142zM1034 508l-327 795l-338 -795h665zM584 1540l213 295h164l-275 -295h-102z" />
    <glyph glyph-name="Acircumflex" unicode="&#xc2;" horiz-adv-x="1402" 
d="M10 0l633 1450h139l611 -1450h-152l-158 385h-768l-163 -385h-142zM1034 508l-327 795l-338 -795h665zM410 1540l221 295h143l221 -295h-133l-166 221l-166 -221h-120z" />
    <glyph glyph-name="Atilde" unicode="&#xc3;" horiz-adv-x="1402" 
d="M10 0l633 1450h139l611 -1450h-152l-158 385h-768l-163 -385h-142zM1034 508l-327 795l-338 -795h665zM457 1575h-74q11 83 55 139q53 70 129 70q58 0 154 -51q5 -2 19.5 -9.5t20.5 -10t18 -8.5t19 -8t17 -5.5t18.5 -4.5t16.5 -1q41 0 65 28t33 70h74q-8 -84 -53 -146.5
t-119 -62.5q-9 0 -18 1t-18.5 3t-16.5 3.5t-18 5.5l-16.5 6t-17.5 7.5t-15.5 7t-17.5 8t-16 7.5q-8 4 -28 13.5t-29.5 14t-25 10.5t-28 8.5t-24.5 2.5q-76 0 -104 -98z" />
    <glyph glyph-name="Adieresis" unicode="&#xc4;" horiz-adv-x="1402" 
d="M10 0l633 1450h139l611 -1450h-152l-158 385h-768l-163 -385h-142zM1034 508l-327 795l-338 -795h665zM410 1720q0 41 28.5 70t69.5 29t69.5 -29t28.5 -70t-28.5 -69.5t-69.5 -28.5t-69.5 28.5t-28.5 69.5zM799 1720q0 41 28.5 70t69.5 29t69.5 -29t28.5 -70t-28.5 -69.5
t-69.5 -28.5t-69.5 28.5t-28.5 69.5z" />
    <glyph glyph-name="Aring" unicode="&#xc5;" horiz-adv-x="1402" 
d="M10 0l633 1450h139l611 -1450h-152l-158 385h-768l-163 -385h-142zM1034 508l-327 795l-338 -795h665zM512 1714q0 80 57 137.5t136 57.5q78 0 133 -59.5t55 -137.5q0 -75 -55 -133.5t-133 -58.5q-79 0 -136 57t-57 137zM819 1714q0 51 -33 86t-84 35q-50 0 -83 -35.5
t-33 -87.5q0 -51 33 -85t83 -34q51 0 84 35t33 86z" />
    <glyph glyph-name="AE" unicode="&#xc6;" horiz-adv-x="1896" 
d="M-10 0l944 1450h825v-123h-600v-516h565v-123h-565v-565h617v-123h-752v385h-639l-252 -385h-143zM1024 508v819h-25l-534 -819h559z" />
    <glyph glyph-name="Ccedilla" unicode="&#xc7;" horiz-adv-x="1441" 
d="M1282 311l111 -84q-192 -264 -539 -264q-37 0 -55 2l-70 -96l4 -4q25 14 64 14q71 0 120.5 -38.5t49.5 -108.5q0 -85 -70 -129.5t-160 -44.5q-104 0 -194 43l28 65q66 -35 156 -35q47 0 88 22.5t41 65.5q0 42 -35 64t-80 22q-47 0 -90 -16l-33 31l111 153
q-185 25 -327 127.5t-220 265t-78 359.5q0 219 94.5 392.5t266 271.5t389.5 98q322 0 500 -227l-111 -93q-65 97 -169.5 147t-219.5 50q-185 0 -326 -85t-214.5 -229.5t-73.5 -324.5t73.5 -324.5t214.5 -229.5t326 -85q118 0 237 57.5t191 167.5z" />
    <glyph glyph-name="Egrave" unicode="&#xc8;" horiz-adv-x="1214" 
d="M199 0v1450h886v-123h-751v-516h704v-123h-704v-565h784v-123h-919zM514 1835l213 -295h-102l-275 295h164z" />
    <glyph glyph-name="Eacute" unicode="&#xc9;" horiz-adv-x="1214" 
d="M199 0v1450h886v-123h-751v-516h704v-123h-704v-565h784v-123h-919zM489 1540l213 295h164l-274 -295h-103z" />
    <glyph glyph-name="Ecircumflex" unicode="&#xca;" horiz-adv-x="1214" 
d="M199 0v1450h886v-123h-751v-516h704v-123h-704v-565h784v-123h-919zM315 1540l222 295h143l221 -295h-133l-166 221l-166 -221h-121z" />
    <glyph glyph-name="Edieresis" unicode="&#xcb;" horiz-adv-x="1214" 
d="M199 0v1450h886v-123h-751v-516h704v-123h-704v-565h784v-123h-919zM315 1720q0 41 29 70t70 29t69.5 -29t28.5 -70t-28.5 -69.5t-69.5 -28.5t-70 28.5t-29 69.5zM705 1720q0 41 28.5 70t69.5 29t69.5 -29t28.5 -70t-28.5 -69.5t-69.5 -28.5t-69.5 28.5t-28.5 69.5z" />
    <glyph glyph-name="Igrave" unicode="&#xcc;" horiz-adv-x="532" 
d="M199 0v1450h135v-1450h-135zM172 1835l213 -295h-102l-275 295h164z" />
    <glyph glyph-name="Iacute" unicode="&#xcd;" horiz-adv-x="532" 
d="M199 0v1450h135v-1450h-135zM147 1540l213 295h164l-274 -295h-103z" />
    <glyph glyph-name="Icircumflex" unicode="&#xce;" horiz-adv-x="532" 
d="M199 0v1450h135v-1450h-135zM-27 1540l222 295h143l221 -295h-133l-166 221l-166 -221h-121z" />
    <glyph glyph-name="Idieresis" unicode="&#xcf;" horiz-adv-x="532" 
d="M199 0v1450h135v-1450h-135zM-27 1720q0 41 29 70t70 29t69.5 -29t28.5 -70t-28.5 -69.5t-69.5 -28.5t-70 28.5t-29 69.5zM362 1720q0 41 29 70t70 29t69.5 -29t28.5 -70t-28.5 -69.5t-69.5 -28.5t-70 28.5t-29 69.5z" />
    <glyph glyph-name="Eth" unicode="&#xd0;" horiz-adv-x="1517" 
d="M315 1327v-516h529v-111h-529v-577h279q147 0 269.5 36t216 108t146 189t52.5 269t-52.5 269t-146 189t-216 108t-269.5 36h-279zM180 0v700h-160v111h160v639h449q121 0 225 -22t178 -57t135 -85.5t99.5 -102.5t67.5 -112.5t43.5 -110t23 -102t10.5 -80.5t2 -53t-2 -53
t-10.5 -80.5t-23 -102t-43.5 -110t-67.5 -112.5t-99.5 -102.5t-135 -85.5t-178 -57t-225 -22h-449z" />
    <glyph glyph-name="Ntilde" unicode="&#xd1;" horiz-adv-x="1593" 
d="M199 0v1450h174l882 -1270h5v1270h135v-1450h-174l-883 1270h-4v-1270h-135zM551 1575h-74q11 83 55 139q53 70 130 70q57 0 153 -51q5 -2 19.5 -9.5t20.5 -10t18 -8.5t19 -8t17 -5.5t18.5 -4.5t16.5 -1q41 0 65 28t33 70h74q-8 -84 -53 -146.5t-119 -62.5
q-10 0 -20.5 1.5t-19 3t-20.5 5.5t-18.5 6t-19.5 7.5t-17.5 7.5t-19.5 9.5t-18 8.5q-6 3 -27.5 13.5t-30.5 14.5t-25.5 10t-28.5 8.5t-24 2.5q-76 0 -104 -98z" />
    <glyph glyph-name="Ograve" unicode="&#xd2;" horiz-adv-x="1708" 
d="M104 725q0 219 94.5 392.5t266 271.5t389.5 98t389.5 -98t266 -271.5t94.5 -392.5t-94.5 -392.5t-266 -271.5t-389.5 -98t-389.5 98t-266 271.5t-94.5 392.5zM240 725q0 -180 73.5 -324.5t214.5 -229.5t326 -85t326 85t214.5 229.5t73.5 324.5t-73.5 324.5t-214.5 229.5
t-326 85t-326 -85t-214.5 -229.5t-73.5 -324.5zM760 1835l213 -295h-103l-274 295h164z" />
    <glyph glyph-name="Oacute" unicode="&#xd3;" horiz-adv-x="1708" 
d="M104 725q0 219 94.5 392.5t266 271.5t389.5 98t389.5 -98t266 -271.5t94.5 -392.5t-94.5 -392.5t-266 -271.5t-389.5 -98t-389.5 98t-266 271.5t-94.5 392.5zM240 725q0 -180 73.5 -324.5t214.5 -229.5t326 -85t326 85t214.5 229.5t73.5 324.5t-73.5 324.5t-214.5 229.5
t-326 85t-326 -85t-214.5 -229.5t-73.5 -324.5zM735 1540l213 295h164l-274 -295h-103z" />
    <glyph glyph-name="Ocircumflex" unicode="&#xd4;" horiz-adv-x="1708" 
d="M104 725q0 219 94.5 392.5t266 271.5t389.5 98t389.5 -98t266 -271.5t94.5 -392.5t-94.5 -392.5t-266 -271.5t-389.5 -98t-389.5 98t-266 271.5t-94.5 392.5zM240 725q0 -180 73.5 -324.5t214.5 -229.5t326 -85t326 85t214.5 229.5t73.5 324.5t-73.5 324.5t-214.5 229.5
t-326 85t-326 -85t-214.5 -229.5t-73.5 -324.5zM561 1540l221 295h144l221 -295h-133l-166 221l-166 -221h-121z" />
    <glyph glyph-name="Otilde" unicode="&#xd5;" horiz-adv-x="1708" 
d="M104 725q0 219 94.5 392.5t266 271.5t389.5 98t389.5 -98t266 -271.5t94.5 -392.5t-94.5 -392.5t-266 -271.5t-389.5 -98t-389.5 98t-266 271.5t-94.5 392.5zM240 725q0 -180 73.5 -324.5t214.5 -229.5t326 -85t326 85t214.5 229.5t73.5 324.5t-73.5 324.5t-214.5 229.5
t-326 85t-326 -85t-214.5 -229.5t-73.5 -324.5zM608 1575h-73q11 83 55 139q53 70 129 70q57 0 153 -51q5 -2 19.5 -9.5t20.5 -10t18 -8.5t19 -8t17 -5.5t18.5 -4.5t16.5 -1q41 0 66 28t33 70h74q-8 -84 -53.5 -146.5t-119.5 -62.5q-10 0 -20.5 1.5t-19 3t-20.5 5.5t-18.5 6
t-19.5 7.5t-17.5 7.5t-19.5 9.5t-18 8.5q-8 4 -28 13.5t-29.5 14t-25 10.5t-28 8.5t-24.5 2.5q-77 0 -105 -98z" />
    <glyph glyph-name="Odieresis" unicode="&#xd6;" horiz-adv-x="1708" 
d="M104 725q0 219 94.5 392.5t266 271.5t389.5 98t389.5 -98t266 -271.5t94.5 -392.5t-94.5 -392.5t-266 -271.5t-389.5 -98t-389.5 98t-266 271.5t-94.5 392.5zM240 725q0 -180 73.5 -324.5t214.5 -229.5t326 -85t326 85t214.5 229.5t73.5 324.5t-73.5 324.5t-214.5 229.5
t-326 85t-326 -85t-214.5 -229.5t-73.5 -324.5zM561 1720q0 41 28.5 70t69.5 29t70 -29t29 -70t-29 -69.5t-70 -28.5t-69.5 28.5t-28.5 69.5zM950 1720q0 41 29 70t70 29t69.5 -29t28.5 -70t-28.5 -69.5t-69.5 -28.5t-70 28.5t-29 69.5z" />
    <glyph glyph-name="multiply" unicode="&#xd7;" horiz-adv-x="1363" 
d="M279 1096l405 -406l408 406l67 -70l-407 -405l405 -406l-70 -70l-403 408l-408 -408l-71 70l409 406l-405 405z" />
    <glyph glyph-name="Oslash" unicode="&#xd8;" horiz-adv-x="1708" 
d="M139 31l156 168q-191 210 -191 526q0 219 94.5 392.5t266 271.5t389.5 98q279 0 481 -162l152 166l69 -64l-153 -165q96 -101 148.5 -238.5t52.5 -298.5q0 -219 -94.5 -392.5t-266 -271.5t-389.5 -98q-291 0 -489 170l-154 -166zM385 295l862 936q-161 133 -393 133
q-185 0 -326 -85t-214.5 -229.5t-73.5 -324.5q0 -259 145 -430zM1315 1165l-864 -938q160 -141 403 -141q185 0 326 85t214.5 229.5t73.5 324.5q0 267 -153 440z" />
    <glyph glyph-name="Ugrave" unicode="&#xd9;" horiz-adv-x="1400" 
d="M1229 1450v-895q0 -96 -16.5 -180.5t-56 -161t-99 -131.5t-151 -87t-206.5 -32t-206 32t-150.5 87t-99 131.5t-56 161t-16.5 180.5v895h135v-860q0 -70 8 -132.5t33.5 -133.5t67 -121t114.5 -83.5t170 -33.5q70 0 128 17.5t98 46t70.5 70t49 85t29.5 95.5t15 96.5t4 93.5
v860h135zM606 1835l213 -295h-102l-275 295h164z" />
    <glyph glyph-name="Uacute" unicode="&#xda;" horiz-adv-x="1400" 
d="M1229 1450v-895q0 -96 -16.5 -180.5t-56 -161t-99 -131.5t-151 -87t-206.5 -32t-206 32t-150.5 87t-99 131.5t-56 161t-16.5 180.5v895h135v-860q0 -70 8 -132.5t33.5 -133.5t67 -121t114.5 -83.5t170 -33.5q70 0 128 17.5t98 46t70.5 70t49 85t29.5 95.5t15 96.5t4 93.5
v860h135zM582 1540l213 295h163l-274 -295h-102z" />
    <glyph glyph-name="Ucircumflex" unicode="&#xdb;" horiz-adv-x="1400" 
d="M1229 1450v-895q0 -96 -16.5 -180.5t-56 -161t-99 -131.5t-151 -87t-206.5 -32t-206 32t-150.5 87t-99 131.5t-56 161t-16.5 180.5v895h135v-860q0 -70 8 -132.5t33.5 -133.5t67 -121t114.5 -83.5t170 -33.5q70 0 128 17.5t98 46t70.5 70t49 85t29.5 95.5t15 96.5t4 93.5
v860h135zM408 1540l221 295h143l221 -295h-133l-166 221l-166 -221h-120z" />
    <glyph glyph-name="Udieresis" unicode="&#xdc;" horiz-adv-x="1400" 
d="M1229 1450v-895q0 -96 -16.5 -180.5t-56 -161t-99 -131.5t-151 -87t-206.5 -32t-206 32t-150.5 87t-99 131.5t-56 161t-16.5 180.5v895h135v-860q0 -70 8 -132.5t33.5 -133.5t67 -121t114.5 -83.5t170 -33.5q70 0 128 17.5t98 46t70.5 70t49 85t29.5 95.5t15 96.5t4 93.5
v860h135zM408 1720q0 41 28.5 70t69.5 29t69.5 -29t28.5 -70t-28.5 -69.5t-69.5 -28.5t-69.5 28.5t-28.5 69.5zM797 1720q0 41 28.5 70t69.5 29t69.5 -29t28.5 -70t-28.5 -69.5t-69.5 -28.5t-69.5 28.5t-28.5 69.5z" />
    <glyph glyph-name="Yacute" unicode="&#xdd;" horiz-adv-x="1175" 
d="M520 0v625l-532 825h162l438 -688l448 688h152l-533 -825v-625h-135zM469 1540l213 295h164l-275 -295h-102z" />
    <glyph glyph-name="Thorn" unicode="&#xde;" horiz-adv-x="1175" 
d="M199 0v1450h133v-320h284q66 0 127.5 -10.5t125 -37.5t109.5 -68.5t75.5 -110t29.5 -155.5q0 -95 -36 -169t-97.5 -119t-138.5 -68t-164 -23h-313v-369h-135zM334 1008v-516h307q61 0 113.5 13.5t97 42.5t70.5 80.5t26 119.5q0 67 -27 118.5t-72.5 81.5t-100 45
t-115.5 15h-299z" />
    <glyph glyph-name="germandbls" unicode="&#xdf;" horiz-adv-x="1214" 
d="M545 827v111h30q124 0 200.5 72t76.5 192q0 124 -73.5 192t-192.5 68q-81 0 -140.5 -30.5t-93 -85t-49.5 -122t-16 -149.5v-1075h-123v1094q0 215 113 347t319 132q165 0 272 -97.5t107 -269.5q0 -119 -55 -203t-148 -112v-4q51 -10 93 -26t87 -48.5t75.5 -78t50.5 -118
t20 -163.5q0 -218 -140.5 -341.5t-365.5 -123.5q-55 0 -96 10v119q47 -19 108 -19q166 0 268.5 96.5t102.5 256.5q0 94 -31.5 167.5t-86 118t-123 67.5t-146.5 23h-43z" />
    <glyph glyph-name="agrave" unicode="&#xe0;" horiz-adv-x="1062" 
d="M899 629v-232q0 -249 19 -397h-115q-12 70 -12 154h-5q-53 -92 -132.5 -135.5t-198.5 -43.5q-63 0 -121 16t-106.5 48.5t-77.5 88.5t-29 128q0 60 20 108.5t51 81t77 56.5t91 37.5t100 21.5t97 10t88 2h143v58q0 117 -72.5 173t-193.5 56q-165 0 -289 -106l-71 84
q65 62 164.5 97.5t195.5 35.5q179 0 278 -84t99 -258zM788 475h-135q-82 0 -151.5 -11t-129 -34.5t-94 -66.5t-34.5 -101q0 -82 65.5 -129t149.5 -47q94 0 161 28t102 76.5t50.5 103t15.5 118.5v63zM438 1450l213 -295h-102l-275 295h164z" />
    <glyph glyph-name="aacute" unicode="&#xe1;" horiz-adv-x="1062" 
d="M899 629v-232q0 -249 19 -397h-115q-12 70 -12 154h-5q-53 -92 -132.5 -135.5t-198.5 -43.5q-63 0 -121 16t-106.5 48.5t-77.5 88.5t-29 128q0 60 20 108.5t51 81t77 56.5t91 37.5t100 21.5t97 10t88 2h143v58q0 117 -72.5 173t-193.5 56q-165 0 -289 -106l-71 84
q65 62 164.5 97.5t195.5 35.5q179 0 278 -84t99 -258zM788 475h-135q-82 0 -151.5 -11t-129 -34.5t-94 -66.5t-34.5 -101q0 -82 65.5 -129t149.5 -47q94 0 161 28t102 76.5t50.5 103t15.5 118.5v63zM414 1155l213 295h164l-275 -295h-102z" />
    <glyph glyph-name="acircumflex" unicode="&#xe2;" horiz-adv-x="1062" 
d="M899 629v-232q0 -249 19 -397h-115q-12 70 -12 154h-5q-53 -92 -132.5 -135.5t-198.5 -43.5q-63 0 -121 16t-106.5 48.5t-77.5 88.5t-29 128q0 60 20 108.5t51 81t77 56.5t91 37.5t100 21.5t97 10t88 2h143v58q0 117 -72.5 173t-193.5 56q-165 0 -289 -106l-71 84
q65 62 164.5 97.5t195.5 35.5q179 0 278 -84t99 -258zM788 475h-135q-82 0 -151.5 -11t-129 -34.5t-94 -66.5t-34.5 -101q0 -82 65.5 -129t149.5 -47q94 0 161 28t102 76.5t50.5 103t15.5 118.5v63zM240 1155l221 295h143l221 -295h-133l-166 221l-166 -221h-120z" />
    <glyph glyph-name="atilde" unicode="&#xe3;" horiz-adv-x="1062" 
d="M899 629v-232q0 -249 19 -397h-115q-12 70 -12 154h-5q-53 -92 -132.5 -135.5t-198.5 -43.5q-63 0 -121 16t-106.5 48.5t-77.5 88.5t-29 128q0 60 20 108.5t51 81t77 56.5t91 37.5t100 21.5t97 10t88 2h143v58q0 117 -72.5 173t-193.5 56q-165 0 -289 -106l-71 84
q65 62 164.5 97.5t195.5 35.5q179 0 278 -84t99 -258zM788 475h-135q-82 0 -151.5 -11t-129 -34.5t-94 -66.5t-34.5 -101q0 -82 65.5 -129t149.5 -47q94 0 161 28t102 76.5t50.5 103t15.5 118.5v63zM287 1190h-74q11 83 55 139q53 70 129 70q58 0 154 -51q3 -1 15 -7.5
t15.5 -8t14 -7t15 -7t14 -5.5t15 -5.5t13.5 -4t14.5 -3t12.5 -0.5q41 0 65 28.5t33 70.5h74q-10 -86 -53.5 -147.5t-118.5 -61.5q-50 0 -154 49q-8 4 -28 13.5t-29.5 14t-25 10.5t-28 8.5t-24.5 2.5q-80 0 -104 -98z" />
    <glyph glyph-name="adieresis" unicode="&#xe4;" horiz-adv-x="1062" 
d="M899 629v-232q0 -249 19 -397h-115q-12 70 -12 154h-5q-53 -92 -132.5 -135.5t-198.5 -43.5q-63 0 -121 16t-106.5 48.5t-77.5 88.5t-29 128q0 60 20 108.5t51 81t77 56.5t91 37.5t100 21.5t97 10t88 2h143v58q0 117 -72.5 173t-193.5 56q-165 0 -289 -106l-71 84
q65 62 164.5 97.5t195.5 35.5q179 0 278 -84t99 -258zM788 475h-135q-82 0 -151.5 -11t-129 -34.5t-94 -66.5t-34.5 -101q0 -82 65.5 -129t149.5 -47q94 0 161 28t102 76.5t50.5 103t15.5 118.5v63zM240 1335q0 41 28.5 70t69.5 29t69.5 -29t28.5 -70t-28.5 -69.5
t-69.5 -28.5t-69.5 28.5t-28.5 69.5zM629 1335q0 41 28.5 70t69.5 29t69.5 -29t28.5 -70t-28.5 -69.5t-69.5 -28.5t-69.5 28.5t-28.5 69.5z" />
    <glyph glyph-name="aring" unicode="&#xe5;" horiz-adv-x="1062" 
d="M899 629v-232q0 -249 19 -397h-115q-12 70 -12 154h-5q-53 -92 -132.5 -135.5t-198.5 -43.5q-63 0 -121 16t-106.5 48.5t-77.5 88.5t-29 128q0 60 20 108.5t51 81t77 56.5t91 37.5t100 21.5t97 10t88 2h143v58q0 117 -72.5 173t-193.5 56q-165 0 -289 -106l-71 84
q65 62 164.5 97.5t195.5 35.5q179 0 278 -84t99 -258zM788 475h-135q-82 0 -151.5 -11t-129 -34.5t-94 -66.5t-34.5 -101q0 -82 65.5 -129t149.5 -47q94 0 161 28t102 76.5t50.5 103t15.5 118.5v63zM342 1329q0 80 57 137.5t136 57.5q78 0 133 -59.5t55 -137.5
q0 -75 -55 -133.5t-133 -58.5q-79 0 -136 57t-57 137zM649 1329q0 51 -33 86t-84 35q-50 0 -83 -35.5t-33 -87.5q0 -51 33 -85t83 -34q51 0 84 35t33 86z" />
    <glyph glyph-name="ae" unicode="&#xe6;" horiz-adv-x="1744" 
d="M803 553v18q0 289 -291 289q-165 0 -289 -106l-71 84q65 62 164.5 97.5t195.5 35.5q136 0 226.5 -44.5t142.5 -152.5q51 93 147 145t199 52q89 0 164 -26.5t135.5 -80t94.5 -143t34 -207.5v-72h-729q-6 -153 80.5 -254.5t246.5 -101.5q86 0 157 40t116 112l96 -70
q-79 -104 -168.5 -148.5t-220.5 -44.5q-130 0 -227 57.5t-146 176.5q-39 -82 -103.5 -135t-142 -76t-170.5 -23q-63 0 -120.5 16t-106 48.5t-77.5 88.5t-29 128q0 28 5 54.5t18 57t34.5 56.5t57 50t81.5 41t113 27.5t147 10.5h236zM803 442h-240q-82 0 -144.5 -13.5
t-96.5 -33t-55.5 -46t-27.5 -47t-6 -40.5q0 -82 66 -129t150 -47q92 0 162 28t111 77.5t61 112.5t20 138zM926 553h606q-2 136 -77 221.5t-224 85.5q-137 0 -221 -88.5t-84 -218.5z" />
    <glyph glyph-name="ccedilla" unicode="&#xe7;" horiz-adv-x="985" 
d="M862 217l94 -78q-136 -164 -348 -164q-18 0 -28 2l-78 -108l4 -4q25 14 63 14q71 0 120.5 -38.5t49.5 -108.5q0 -85 -69.5 -129.5t-159.5 -44.5q-105 0 -195 43l29 65q66 -35 156 -35q47 0 88 22.5t41 65.5q0 42 -35 64t-80 22q-47 0 -90 -16l-33 31l117 166
q-178 29 -287.5 162.5t-109.5 324.5q0 217 139.5 357.5t357.5 140.5q208 0 353 -164l-99 -74q-117 127 -254 127q-169 0 -272 -111.5t-103 -275.5t103 -275.5t272 -111.5q148 0 254 131z" />
    <glyph glyph-name="egrave" unicode="&#xe8;" horiz-adv-x="1138" 
d="M909 254l90 -76q-136 -203 -409 -203q-215 0 -347 139.5t-132 360.5q0 213 133.5 354.5t339.5 141.5q85 0 157.5 -25t124.5 -68t89 -99.5t55 -120.5t18 -130v-86h-795q0 -35 9.5 -76.5t35 -92.5t63.5 -91.5t103.5 -68t147.5 -27.5q95 0 183.5 46t133.5 122zM233 553h672
q0 126 -95.5 216.5t-231.5 90.5q-76 0 -138.5 -27.5t-99.5 -66.5t-62.5 -84t-35 -78t-9.5 -51zM475 1450l213 -295h-102l-275 295h164z" />
    <glyph glyph-name="eacute" unicode="&#xe9;" horiz-adv-x="1138" 
d="M909 254l90 -76q-136 -203 -409 -203q-215 0 -347 139.5t-132 360.5q0 213 133.5 354.5t339.5 141.5q85 0 157.5 -25t124.5 -68t89 -99.5t55 -120.5t18 -130v-86h-795q0 -35 9.5 -76.5t35 -92.5t63.5 -91.5t103.5 -68t147.5 -27.5q95 0 183.5 46t133.5 122zM233 553h672
q0 126 -95.5 216.5t-231.5 90.5q-76 0 -138.5 -27.5t-99.5 -66.5t-62.5 -84t-35 -78t-9.5 -51zM451 1155l213 295h163l-274 -295h-102z" />
    <glyph glyph-name="ecircumflex" unicode="&#xea;" horiz-adv-x="1138" 
d="M909 254l90 -76q-136 -203 -409 -203q-215 0 -347 139.5t-132 360.5q0 213 133.5 354.5t339.5 141.5q85 0 157.5 -25t124.5 -68t89 -99.5t55 -120.5t18 -130v-86h-795q0 -35 9.5 -76.5t35 -92.5t63.5 -91.5t103.5 -68t147.5 -27.5q95 0 183.5 46t133.5 122zM233 553h672
q0 126 -95.5 216.5t-231.5 90.5q-76 0 -138.5 -27.5t-99.5 -66.5t-62.5 -84t-35 -78t-9.5 -51zM276 1155l222 295h143l221 -295h-133l-166 221l-166 -221h-121z" />
    <glyph glyph-name="edieresis" unicode="&#xeb;" horiz-adv-x="1138" 
d="M909 254l90 -76q-136 -203 -409 -203q-215 0 -347 139.5t-132 360.5q0 213 133.5 354.5t339.5 141.5q85 0 157.5 -25t124.5 -68t89 -99.5t55 -120.5t18 -130v-86h-795q0 -35 9.5 -76.5t35 -92.5t63.5 -91.5t103.5 -68t147.5 -27.5q95 0 183.5 46t133.5 122zM233 553h672
q0 126 -95.5 216.5t-231.5 90.5q-76 0 -138.5 -27.5t-99.5 -66.5t-62.5 -84t-35 -78t-9.5 -51zM276 1335q0 41 29 70t70 29t69.5 -29t28.5 -70t-28.5 -69.5t-69.5 -28.5t-70 28.5t-29 69.5zM666 1335q0 41 28.5 70t69.5 29t69.5 -29t28.5 -70t-28.5 -69.5t-69.5 -28.5
t-69.5 28.5t-28.5 69.5z" />
    <glyph glyph-name="igrave" unicode="&#xec;" 
d="M184 0v946h123v-946h-123zM152 1450l213 -295h-103l-274 295h164z" />
    <glyph glyph-name="iacute" unicode="&#xed;" 
d="M184 0v946h123v-946h-123zM127 1155l213 295h164l-275 -295h-102z" />
    <glyph glyph-name="icircumflex" unicode="&#xee;" 
d="M184 0v946h123v-946h-123zM-47 1155l221 295h143l222 -295h-133l-166 221l-166 -221h-121z" />
    <glyph glyph-name="idieresis" unicode="&#xef;" 
d="M184 0v946h123v-946h-123zM-47 1335q0 41 28.5 70t69.5 29t70 -29t29 -70t-29 -69.5t-70 -28.5t-69.5 28.5t-28.5 69.5zM342 1335q0 41 28.5 70t69.5 29t70 -29t29 -70t-29 -69.5t-70 -28.5t-69.5 28.5t-28.5 69.5z" />
    <glyph glyph-name="eth" unicode="&#xf0;" horiz-adv-x="1216" 
d="M305 1237l213 115q-110 99 -192 159l106 62q118 -87 195 -164l213 115l73 -62l-217 -116q410 -376 410 -822q0 -252 -138.5 -400.5t-359.5 -148.5q-218 0 -357.5 140.5t-139.5 357.5t139.5 357.5t357.5 140.5q181 0 305 -113l5 4q-144 256 -330 424l-219 -117zM233 473
q0 -164 103 -275.5t272 -111.5t272 111.5t103 275.5t-103 275.5t-272 111.5t-272 -111.5t-103 -275.5z" />
    <glyph glyph-name="ntilde" unicode="&#xf1;" horiz-adv-x="1138" 
d="M164 0v680q0 38 -5 141t-5 125h122q4 -144 9 -166h6q39 82 125.5 136.5t197.5 54.5q361 0 361 -408v-563h-123v557q0 303 -238 303q-144 0 -235.5 -100t-91.5 -287v-473h-123zM324 1190h-74q11 83 55 139q53 70 129 70q58 0 154 -51q3 -1 15 -7.5t15.5 -8t14 -7t15 -7
t14 -5.5t15 -5.5t13.5 -4t14.5 -3t12.5 -0.5q41 0 65 28.5t33 70.5h74q-10 -86 -53.5 -147.5t-118.5 -61.5q-50 0 -154 49q-8 4 -28 13.5t-29.5 14t-25 10.5t-28 8.5t-24.5 2.5q-80 0 -104 -98z" />
    <glyph glyph-name="ograve" unicode="&#xf2;" horiz-adv-x="1216" 
d="M111 473q0 217 139.5 357.5t357.5 140.5t358 -140.5t140 -357.5t-140 -357.5t-358 -140.5t-357.5 140.5t-139.5 357.5zM233 473q0 -164 103 -275.5t272 -111.5t272 111.5t103 275.5t-103 275.5t-272 111.5t-272 -111.5t-103 -275.5zM514 1450l213 -295h-102l-275 295h164
z" />
    <glyph glyph-name="oacute" unicode="&#xf3;" horiz-adv-x="1216" 
d="M111 473q0 217 139.5 357.5t357.5 140.5t358 -140.5t140 -357.5t-140 -357.5t-358 -140.5t-357.5 140.5t-139.5 357.5zM233 473q0 -164 103 -275.5t272 -111.5t272 111.5t103 275.5t-103 275.5t-272 111.5t-272 -111.5t-103 -275.5zM489 1155l213 295h164l-274 -295h-103
z" />
    <glyph glyph-name="ocircumflex" unicode="&#xf4;" horiz-adv-x="1216" 
d="M111 473q0 217 139.5 357.5t357.5 140.5t358 -140.5t140 -357.5t-140 -357.5t-358 -140.5t-357.5 140.5t-139.5 357.5zM233 473q0 -164 103 -275.5t272 -111.5t272 111.5t103 275.5t-103 275.5t-272 111.5t-272 -111.5t-103 -275.5zM315 1155l222 295h143l221 -295h-133
l-166 221l-166 -221h-121z" />
    <glyph glyph-name="otilde" unicode="&#xf5;" horiz-adv-x="1216" 
d="M111 473q0 217 139.5 357.5t357.5 140.5t358 -140.5t140 -357.5t-140 -357.5t-358 -140.5t-357.5 140.5t-139.5 357.5zM233 473q0 -164 103 -275.5t272 -111.5t272 111.5t103 275.5t-103 275.5t-272 111.5t-272 -111.5t-103 -275.5zM362 1190h-73q11 83 55 139
q53 70 129 70q58 0 154 -51q3 -1 15 -7.5t15.5 -8t14 -7t15 -7t14 -5.5t15 -5.5t13.5 -4t14.5 -3t12.5 -0.5q41 0 65 28.5t33 70.5h74q-10 -86 -53.5 -147.5t-118.5 -61.5q-50 0 -154 49q-8 4 -28 13.5t-29.5 14t-25 10.5t-28 8.5t-24.5 2.5q-81 0 -105 -98z" />
    <glyph glyph-name="odieresis" unicode="&#xf6;" horiz-adv-x="1216" 
d="M111 473q0 217 139.5 357.5t357.5 140.5t358 -140.5t140 -357.5t-140 -357.5t-358 -140.5t-357.5 140.5t-139.5 357.5zM233 473q0 -164 103 -275.5t272 -111.5t272 111.5t103 275.5t-103 275.5t-272 111.5t-272 -111.5t-103 -275.5zM315 1335q0 41 29 70t70 29t69.5 -29
t28.5 -70t-28.5 -69.5t-69.5 -28.5t-70 28.5t-29 69.5zM705 1335q0 41 28.5 70t69.5 29t69.5 -29t28.5 -70t-28.5 -69.5t-69.5 -28.5t-69.5 28.5t-28.5 69.5z" />
    <glyph glyph-name="divide" unicode="&#xf7;" horiz-adv-x="1363" 
d="M160 571v99h1044v-99h-1044zM578 936q0 43 30.5 73.5t73.5 30.5t73.5 -30.5t30.5 -73.5t-30.5 -74t-73.5 -31t-73.5 31t-30.5 74zM578 305q0 44 30.5 73.5t73.5 31.5q43 0 73.5 -31t30.5 -74t-30.5 -73.5t-73.5 -30.5t-73.5 30.5t-30.5 73.5z" />
    <glyph glyph-name="oslash" unicode="&#xf8;" horiz-adv-x="1216" 
d="M80 4l143 146q-112 130 -112 323q0 217 139.5 357.5t357.5 140.5q187 0 322 -109l141 144l66 -60l-146 -145q115 -131 115 -328q0 -217 -140 -357.5t-358 -140.5q-193 0 -323 111l-140 -141zM307 236l539 542q-98 82 -238 82q-169 0 -272 -111.5t-103 -275.5
q0 -142 74 -237zM907 715l-538 -545q94 -84 239 -84q169 0 272 111.5t103 275.5q0 147 -76 242z" />
    <glyph glyph-name="ugrave" unicode="&#xf9;" horiz-adv-x="1138" 
d="M965 946v-680q0 -38 5 -141t5 -125h-123q-4 149 -8 166h-6q-39 -82 -126 -136.5t-198 -54.5q-86 0 -150.5 23t-104 60.5t-63.5 92t-33 110t-9 122.5v563h122v-557q0 -303 238 -303q144 0 236 100t92 287v473h123zM475 1450l213 -295h-102l-275 295h164z" />
    <glyph glyph-name="uacute" unicode="&#xfa;" horiz-adv-x="1138" 
d="M965 946v-680q0 -38 5 -141t5 -125h-123q-4 149 -8 166h-6q-39 -82 -126 -136.5t-198 -54.5q-86 0 -150.5 23t-104 60.5t-63.5 92t-33 110t-9 122.5v563h122v-557q0 -303 238 -303q144 0 236 100t92 287v473h123zM451 1155l213 295h163l-274 -295h-102z" />
    <glyph glyph-name="ucircumflex" unicode="&#xfb;" horiz-adv-x="1138" 
d="M965 946v-680q0 -38 5 -141t5 -125h-123q-4 149 -8 166h-6q-39 -82 -126 -136.5t-198 -54.5q-86 0 -150.5 23t-104 60.5t-63.5 92t-33 110t-9 122.5v563h122v-557q0 -303 238 -303q144 0 236 100t92 287v473h123zM276 1155l222 295h143l221 -295h-133l-166 221l-166 -221
h-121z" />
    <glyph glyph-name="udieresis" unicode="&#xfc;" horiz-adv-x="1138" 
d="M965 946v-680q0 -38 5 -141t5 -125h-123q-4 149 -8 166h-6q-39 -82 -126 -136.5t-198 -54.5q-86 0 -150.5 23t-104 60.5t-63.5 92t-33 110t-9 122.5v563h122v-557q0 -303 238 -303q144 0 236 100t92 287v473h123zM276 1335q0 41 29 70t70 29t69.5 -29t28.5 -70
t-28.5 -69.5t-69.5 -28.5t-70 28.5t-29 69.5zM666 1335q0 41 28.5 70t69.5 29t69.5 -29t28.5 -70t-28.5 -69.5t-69.5 -28.5t-69.5 28.5t-28.5 69.5z" />
    <glyph glyph-name="yacute" unicode="&#xfd;" horiz-adv-x="948" 
d="M918 946l-488 -1239q-77 -199 -260 -199q-47 0 -121 19l12 115q81 -23 111 -23q32 0 58 13t44.5 39t30.5 49t25 57l86 219l-385 950h137l313 -796l305 796h132zM356 1155l213 295h164l-274 -295h-103z" />
    <glyph glyph-name="thorn" unicode="&#xfe;" horiz-adv-x="1251" 
d="M137 -467v2015h123v-768h4q54 93 159.5 142t219.5 49q218 0 358 -140.5t140 -357.5t-140 -357.5t-358 -140.5q-114 0 -219.5 49t-159.5 142h-4v-633h-123zM248 473q0 -161 114.5 -274t280.5 -113q169 0 272 111.5t103 275.5t-103 275.5t-272 111.5q-166 0 -280.5 -113
t-114.5 -274z" />
    <glyph glyph-name="ydieresis" unicode="&#xff;" horiz-adv-x="948" 
d="M918 946l-488 -1239q-77 -199 -260 -199q-47 0 -121 19l12 115q81 -23 111 -23q32 0 58 13t44.5 39t30.5 49t25 57l86 219l-385 950h137l313 -796l305 796h132zM182 1335q0 41 29 70t70 29t69.5 -29t28.5 -70t-28.5 -69.5t-69.5 -28.5t-70 28.5t-29 69.5zM571 1335
q0 41 29 70t70 29t69.5 -29t28.5 -70t-28.5 -69.5t-69.5 -28.5t-70 28.5t-29 69.5z" />
    <glyph glyph-name="Amacron" unicode="&#x100;" horiz-adv-x="1402" 
d="M10 0l633 1450h139l611 -1450h-152l-158 385h-768l-163 -385h-142zM1034 508l-327 795l-338 -795h665zM977 1735v-99h-541v99h541z" />
    <glyph glyph-name="amacron" unicode="&#x101;" horiz-adv-x="1062" 
d="M899 629v-232q0 -249 19 -397h-115q-12 70 -12 154h-5q-53 -92 -132.5 -135.5t-198.5 -43.5q-63 0 -121 16t-106.5 48.5t-77.5 88.5t-29 128q0 60 20 108.5t51 81t77 56.5t91 37.5t100 21.5t97 10t88 2h143v58q0 117 -72.5 173t-193.5 56q-165 0 -289 -106l-71 84
q65 62 164.5 97.5t195.5 35.5q179 0 278 -84t99 -258zM788 475h-135q-82 0 -151.5 -11t-129 -34.5t-94 -66.5t-34.5 -101q0 -82 65.5 -129t149.5 -47q94 0 161 28t102 76.5t50.5 103t15.5 118.5v63zM827 1339v-98h-540v98h540z" />
    <glyph glyph-name="Abreve" unicode="&#x102;" horiz-adv-x="1402" 
d="M10 0l633 1450h139l611 -1450h-152l-158 385h-768l-163 -385h-142zM1034 508l-327 795l-338 -795h665zM451 1804h86q12 -79 66.5 -119t137.5 -40q95 0 144 34.5t69 124.5h86q-13 -122 -94 -190t-205 -68q-125 0 -204.5 68.5t-85.5 189.5z" />
    <glyph glyph-name="abreve" unicode="&#x103;" horiz-adv-x="1062" 
d="M899 629v-232q0 -249 19 -397h-115q-12 70 -12 154h-5q-53 -92 -132.5 -135.5t-198.5 -43.5q-63 0 -121 16t-106.5 48.5t-77.5 88.5t-29 128q0 60 20 108.5t51 81t77 56.5t91 37.5t100 21.5t97 10t88 2h143v58q0 117 -72.5 173t-193.5 56q-165 0 -289 -106l-71 84
q65 62 164.5 97.5t195.5 35.5q179 0 278 -84t99 -258zM788 475h-135q-82 0 -151.5 -11t-129 -34.5t-94 -66.5t-34.5 -101q0 -82 65.5 -129t149.5 -47q94 0 161 28t102 76.5t50.5 103t15.5 118.5v63zM262 1450h86q12 -79 67 -119.5t138 -40.5q94 0 143.5 35.5t69.5 124.5h86
q-13 -122 -94 -190t-205 -68t-204.5 68.5t-86.5 189.5z" />
    <glyph glyph-name="Aogonek" unicode="&#x104;" horiz-adv-x="1402" 
d="M1384 -297l39 -78q-74 -67 -174 -67q-83 0 -135.5 45.5t-52.5 122.5t49.5 143t130.5 131l-158 385h-768l-163 -385h-142l633 1450h139l611 -1450h-60q-54 -39 -101.5 -109.5t-47.5 -138.5q0 -96 88 -96q75 0 112 47zM1034 508l-327 795l-338 -795h665z" />
    <glyph glyph-name="aogonek" unicode="&#x105;" horiz-adv-x="1062" 
d="M946 -297l39 -78q-74 -67 -174 -67q-83 0 -135.5 45.5t-52.5 122.5t49.5 143t130.5 131q-12 70 -12 154h-5q-55 -94 -132.5 -136.5t-198.5 -42.5q-64 0 -121 16t-106 48t-78 88t-29 129q0 317 524 317h143v58q0 118 -71 173.5t-195 55.5q-165 0 -289 -106l-71 84
q65 63 164 98t196 35q179 0 278 -84t99 -258v-232q0 -268 19 -397h-23q-54 -39 -102 -109.5t-48 -138.5q0 -96 89 -96q75 0 112 47zM788 475h-135q-82 0 -151.5 -10.5t-129.5 -34t-94 -66.5t-34 -102q0 -82 65.5 -129t149.5 -47q94 0 161 28t102 76.5t50.5 103t15.5 118.5
v63z" />
    <glyph glyph-name="Cacute" unicode="&#x106;" horiz-adv-x="1441" 
d="M1282 311l111 -84q-192 -264 -539 -264q-218 0 -389.5 98t-266 271.5t-94.5 392.5t94.5 392.5t266 271.5t389.5 98q322 0 500 -227l-111 -93q-65 97 -169.5 147t-219.5 50q-185 0 -326 -85t-214.5 -229.5t-73.5 -324.5t73.5 -324.5t214.5 -229.5t326 -85q118 0 237 57.5
t191 167.5zM698 1540l213 295h164l-274 -295h-103z" />
    <glyph glyph-name="cacute" unicode="&#x107;" horiz-adv-x="985" 
d="M862 217l94 -78q-136 -164 -348 -164q-218 0 -357.5 140.5t-139.5 357.5t139.5 357.5t357.5 140.5q208 0 353 -164l-99 -74q-117 127 -254 127q-169 0 -272 -111.5t-103 -275.5t103 -275.5t272 -111.5q148 0 254 131zM485 1155l213 295h164l-274 -295h-103z" />
    <glyph glyph-name="Ccircumflex" unicode="&#x108;" horiz-adv-x="1441" 
d="M1282 311l111 -84q-192 -264 -539 -264q-218 0 -389.5 98t-266 271.5t-94.5 392.5t94.5 392.5t266 271.5t389.5 98q322 0 500 -227l-111 -93q-65 97 -169.5 147t-219.5 50q-185 0 -326 -85t-214.5 -229.5t-73.5 -324.5t73.5 -324.5t214.5 -229.5t326 -85q118 0 237 57.5
t191 167.5zM561 1540l221 295h144l221 -295h-133l-166 221l-166 -221h-121z" />
    <glyph glyph-name="ccircumflex" unicode="&#x109;" horiz-adv-x="985" 
d="M862 217l94 -78q-136 -164 -348 -164q-218 0 -357.5 140.5t-139.5 357.5t139.5 357.5t357.5 140.5q208 0 353 -164l-99 -74q-117 127 -254 127q-169 0 -272 -111.5t-103 -275.5t103 -275.5t272 -111.5q148 0 254 131zM309 1155l221 295h144l221 -295h-133l-166 221
l-166 -221h-121z" />
    <glyph glyph-name="Cdotaccent" unicode="&#x10a;" horiz-adv-x="1441" 
d="M1282 311l111 -84q-192 -264 -539 -264q-218 0 -389.5 98t-266 271.5t-94.5 392.5t94.5 392.5t266 271.5t389.5 98q322 0 500 -227l-111 -93q-65 97 -169.5 147t-219.5 50q-185 0 -326 -85t-214.5 -229.5t-73.5 -324.5t73.5 -324.5t214.5 -229.5t326 -85q118 0 237 57.5
t191 167.5zM762 1720q0 41 28.5 70t69.5 29t69.5 -29t28.5 -70t-28.5 -69.5t-69.5 -28.5t-69.5 28.5t-28.5 69.5z" />
    <glyph glyph-name="cdotaccent" unicode="&#x10b;" horiz-adv-x="985" 
d="M862 217l94 -78q-136 -164 -348 -164q-218 0 -357.5 140.5t-139.5 357.5t139.5 357.5t357.5 140.5q208 0 353 -164l-99 -74q-117 127 -254 127q-169 0 -272 -111.5t-103 -275.5t103 -275.5t272 -111.5q148 0 254 131zM510 1335q0 41 28.5 70t69.5 29t70 -29t29 -70
t-29 -69.5t-70 -28.5t-69.5 28.5t-28.5 69.5z" />
    <glyph glyph-name="Ccaron" unicode="&#x10c;" horiz-adv-x="1441" 
d="M1282 311l111 -84q-192 -264 -539 -264q-218 0 -389.5 98t-266 271.5t-94.5 392.5t94.5 392.5t266 271.5t389.5 98q322 0 500 -227l-111 -93q-65 97 -169.5 147t-219.5 50q-185 0 -326 -85t-214.5 -229.5t-73.5 -324.5t73.5 -324.5t214.5 -229.5t326 -85q118 0 237 57.5
t191 167.5zM1139 1835l-217 -295h-144l-223 295h127l170 -233l176 233h111z" />
    <glyph glyph-name="ccaron" unicode="&#x10d;" horiz-adv-x="985" 
d="M862 217l94 -78q-136 -164 -348 -164q-218 0 -357.5 140.5t-139.5 357.5t139.5 357.5t357.5 140.5q208 0 353 -164l-99 -74q-117 127 -254 127q-169 0 -272 -111.5t-103 -275.5t103 -275.5t272 -111.5q148 0 254 131zM887 1450l-217 -295h-144l-223 295h127l170 -233
l176 233h111z" />
    <glyph glyph-name="Dcaron" unicode="&#x10e;" horiz-adv-x="1517" 
d="M180 0v1450h449q121 0 225 -22t178 -57t135 -85.5t99.5 -102.5t67.5 -112.5t43.5 -110t23 -102t10.5 -80.5t2 -53t-2 -53t-10.5 -80.5t-23 -102t-43.5 -110t-67.5 -112.5t-99.5 -102.5t-135 -85.5t-178 -57t-225 -22h-449zM315 1327v-1204h279q147 0 269.5 36t216 108
t146 189t52.5 269t-52.5 269t-146 189t-216 108t-269.5 36h-279zM954 1835l-217 -295h-143l-223 295h127l170 -233l176 233h110z" />
    <glyph glyph-name="dcaron" unicode="&#x10f;" horiz-adv-x="1251" 
d="M991 0v166h-4q-54 -93 -159.5 -142t-219.5 -49q-218 0 -357.5 140.5t-139.5 357.5t139.5 357.5t357.5 140.5q114 0 219.5 -49t159.5 -142h4v768h123v-1548h-123zM1004 473q0 161 -115 274t-281 113q-169 0 -272 -111.5t-103 -275.5t103 -275.5t272 -111.5q166 0 281 113
t115 274zM1264 1071l104 379h133l-129 -379h-108z" />
    <glyph glyph-name="Dcroat" unicode="&#x110;" horiz-adv-x="1517" 
d="M315 1327v-516h529v-111h-529v-577h279q147 0 269 36.5t216 108t146.5 188.5t52.5 269t-52.5 269t-146.5 188.5t-216 108t-269 36.5h-279zM180 0v700h-160v111h160v639h449q121 0 225 -22t178 -57t135 -85.5t99.5 -102.5t67.5 -112.5t43.5 -110t23 -102t10.5 -80.5t2 -53
t-2 -53t-10.5 -80.5t-23 -102t-43.5 -110t-67.5 -112.5t-99.5 -102.5t-135 -85.5t-178 -57t-225 -22h-449z" />
    <glyph glyph-name="dcroat" unicode="&#x111;" horiz-adv-x="1251" 
d="M991 0v166h-4q-54 -93 -159.5 -142t-219.5 -49q-218 0 -357.5 140.5t-139.5 357.5t139.5 357.5t357.5 140.5q114 0 219.5 -49t159.5 -142h4v410h-332v108h332v250h123v-250h148v-108h-148v-1190h-123zM1004 473q0 160 -115.5 273.5t-280.5 113.5q-169 0 -272 -111.5
t-103 -275.5t103 -275.5t272 -111.5q165 0 280.5 113.5t115.5 273.5z" />
    <glyph glyph-name="Emacron" unicode="&#x112;" horiz-adv-x="1214" 
d="M199 0v1450h886v-123h-751v-516h704v-123h-704v-565h784v-123h-919zM928 1735v-99h-541v99h541z" />
    <glyph glyph-name="emacron" unicode="&#x113;" horiz-adv-x="1138" 
d="M909 254l90 -76q-136 -203 -409 -203q-215 0 -347 139.5t-132 360.5q0 213 133.5 354.5t339.5 141.5q85 0 157.5 -25t124.5 -68t89 -99.5t55 -120.5t18 -130v-86h-795q0 -35 9.5 -76.5t35 -92.5t63.5 -91.5t103.5 -68t147.5 -27.5q95 0 183.5 46t133.5 122zM233 553h672
q0 126 -95.5 216.5t-231.5 90.5q-76 0 -138.5 -27.5t-99.5 -66.5t-62.5 -84t-35 -78t-9.5 -51zM872 1339v-98h-540v98h540z" />
    <glyph glyph-name="Ebreve" unicode="&#x114;" horiz-adv-x="1214" 
d="M199 0v1450h886v-123h-751v-516h704v-123h-704v-565h784v-123h-919zM362 1804h87q12 -79 66.5 -119t137.5 -40q95 0 144 34.5t69 124.5h86q-13 -122 -94 -190t-205 -68q-125 0 -205 68.5t-86 189.5z" />
    <glyph glyph-name="ebreve" unicode="&#x115;" horiz-adv-x="1138" 
d="M909 254l90 -76q-136 -203 -409 -203q-215 0 -347 139.5t-132 360.5q0 213 133.5 354.5t339.5 141.5q85 0 157.5 -25t124.5 -68t89 -99.5t55 -120.5t18 -130v-86h-795q0 -35 9.5 -76.5t35 -92.5t63.5 -91.5t103.5 -68t147.5 -27.5q95 0 183.5 46t133.5 122zM233 553h672
q0 126 -95.5 216.5t-231.5 90.5q-76 0 -138.5 -27.5t-99.5 -66.5t-62.5 -84t-35 -78t-9.5 -51zM307 1450h86q12 -79 67 -119.5t138 -40.5q94 0 143.5 35.5t69.5 124.5h86q-13 -122 -94 -190t-205 -68t-204.5 68.5t-86.5 189.5z" />
    <glyph glyph-name="Edotaccent" unicode="&#x116;" horiz-adv-x="1214" 
d="M199 0v1450h886v-123h-751v-516h704v-123h-704v-565h784v-123h-919zM565 1720q0 41 29 70t70 29t69.5 -29t28.5 -70t-28.5 -69.5t-69.5 -28.5t-70 28.5t-29 69.5z" />
    <glyph glyph-name="edotaccent" unicode="&#x117;" horiz-adv-x="1138" 
d="M909 254l90 -76q-136 -203 -409 -203q-215 0 -347 139.5t-132 360.5q0 213 133.5 354.5t339.5 141.5q85 0 157.5 -25t124.5 -68t89 -99.5t55 -120.5t18 -130v-86h-795q0 -35 9.5 -76.5t35 -92.5t63.5 -91.5t103.5 -68t147.5 -27.5q95 0 183.5 46t133.5 122zM233 553h672
q0 126 -95.5 216.5t-231.5 90.5q-76 0 -138.5 -27.5t-99.5 -66.5t-62.5 -84t-35 -78t-9.5 -51zM510 1335q0 41 28.5 70t69.5 29t70 -29t29 -70t-29 -69.5t-70 -28.5t-69.5 28.5t-28.5 69.5z" />
    <glyph glyph-name="Eogonek" unicode="&#x118;" horiz-adv-x="1214" 
d="M199 0v1450h886v-123h-751v-516h704v-123h-704v-565h784v-123h-106q-54 -39 -102 -109.5t-48 -138.5q0 -96 88 -96q76 0 113 47l39 -78q-74 -67 -174 -67q-83 0 -136 45.5t-53 122.5t50 142.5t131 131.5h-721z" />
    <glyph glyph-name="eogonek" unicode="&#x119;" horiz-adv-x="1138" 
d="M756 -297l39 -78q-74 -67 -174 -67q-83 0 -136 45.5t-53 122.5q0 125 150 249q-212 4 -341.5 143t-129.5 357q0 213 133.5 354.5t339.5 141.5q105 0 191 -38t140 -101t83.5 -141.5t29.5 -162.5v-86h-795q0 -35 9.5 -77t35 -93t64 -91t103.5 -67.5t147 -27.5
q95 0 180.5 45t136.5 123l90 -76q-115 -168 -317 -196q-51 -44 -89 -105.5t-38 -124.5q0 -96 88 -96q76 0 113 47zM233 553h672q0 126 -95.5 216.5t-231.5 90.5q-76 0 -138.5 -27.5t-99.5 -66.5t-62.5 -84t-35 -78t-9.5 -51z" />
    <glyph glyph-name="Ecaron" unicode="&#x11a;" horiz-adv-x="1214" 
d="M199 0v1450h886v-123h-751v-516h704v-123h-704v-565h784v-123h-919zM942 1835l-217 -295h-143l-224 295h127l170 -233l176 233h111z" />
    <glyph glyph-name="ecaron" unicode="&#x11b;" horiz-adv-x="1138" 
d="M909 254l90 -76q-136 -203 -409 -203q-215 0 -347 139.5t-132 360.5q0 213 133.5 354.5t339.5 141.5q85 0 157.5 -25t124.5 -68t89 -99.5t55 -120.5t18 -130v-86h-795q0 -35 9.5 -76.5t35 -92.5t63.5 -91.5t103.5 -68t147.5 -27.5q95 0 183.5 46t133.5 122zM233 553h672
q0 126 -95.5 216.5t-231.5 90.5q-76 0 -138.5 -27.5t-99.5 -66.5t-62.5 -84t-35 -78t-9.5 -51zM887 1450l-217 -295h-144l-223 295h127l170 -233l176 233h111z" />
    <glyph glyph-name="Gcircumflex" unicode="&#x11c;" horiz-adv-x="1593" 
d="M1395 782v-688q-229 -131 -541 -131q-218 0 -389.5 98t-266 271.5t-94.5 392.5t94.5 392.5t266 271.5t389.5 98q324 0 522 -201l-98 -102q-66 79 -185.5 129.5t-238.5 50.5q-185 0 -326 -85t-214.5 -229.5t-73.5 -324.5t73.5 -324.5t214.5 -229.5t326 -85q261 0 406 86
v487h-349v123h484zM557 1540l221 295h144l221 -295h-133l-166 221l-166 -221h-121z" />
    <glyph glyph-name="gcircumflex" unicode="&#x11d;" horiz-adv-x="1251" 
d="M1114 946v-885q0 -98 -18 -179t-48 -137t-72 -99t-86.5 -68.5t-95.5 -42t-95 -22t-89 -5.5q-144 0 -271 53t-198 146l97 90q63 -88 160.5 -133t211.5 -45q61 0 112 12t87.5 30.5t66 47t48 56t32 64t20 64.5t10.5 63t4.5 54t0.5 43v131h-4q-55 -87 -147 -135.5t-211 -48.5
q-137 0 -253.5 65.5t-184.5 177t-68 242.5t68 243t184.5 177.5t253.5 65.5q119 0 211 -49t147 -136h4v160h123zM995 485q0 155 -109.5 265t-264.5 110t-265 -110t-110 -265t110 -264.5t265 -109.5t264.5 109.5t109.5 264.5zM381 1155l221 295h143l222 -295h-133l-166 221
l-166 -221h-121z" />
    <glyph glyph-name="Gbreve" unicode="&#x11e;" horiz-adv-x="1593" 
d="M1395 782v-688q-229 -131 -541 -131q-218 0 -389.5 98t-266 271.5t-94.5 392.5t94.5 392.5t266 271.5t389.5 98q324 0 522 -201l-98 -102q-66 79 -185.5 129.5t-238.5 50.5q-185 0 -326 -85t-214.5 -229.5t-73.5 -324.5t73.5 -324.5t214.5 -229.5t326 -85q261 0 406 86
v487h-349v123h484zM555 1804h86q12 -79 67 -119t138 -40q95 0 144 34.5t69 124.5h86q-13 -122 -94 -190t-205 -68q-125 0 -205 68.5t-86 189.5z" />
    <glyph glyph-name="gbreve" unicode="&#x11f;" horiz-adv-x="1251" 
d="M1114 946v-885q0 -98 -18 -179t-48 -137t-72 -99t-86.5 -68.5t-95.5 -42t-95 -22t-89 -5.5q-144 0 -271 53t-198 146l97 90q63 -88 160.5 -133t211.5 -45q61 0 112 12t87.5 30.5t66 47t48 56t32 64t20 64.5t10.5 63t4.5 54t0.5 43v131h-4q-55 -87 -147 -135.5t-211 -48.5
q-137 0 -253.5 65.5t-184.5 177t-68 242.5t68 243t184.5 177.5t253.5 65.5q119 0 211 -49t147 -136h4v160h123zM995 485q0 155 -109.5 265t-264.5 110t-265 -110t-110 -265t110 -264.5t265 -109.5t264.5 109.5t109.5 264.5zM379 1450h86q12 -79 67 -119.5t138 -40.5
q94 0 143.5 35.5t69.5 124.5h86q-13 -122 -94 -190t-205 -68t-204.5 68.5t-86.5 189.5z" />
    <glyph glyph-name="Gdotaccent" unicode="&#x120;" horiz-adv-x="1593" 
d="M1395 782v-688q-229 -131 -541 -131q-218 0 -389.5 98t-266 271.5t-94.5 392.5t94.5 392.5t266 271.5t389.5 98q324 0 522 -201l-98 -102q-66 79 -185.5 129.5t-238.5 50.5q-185 0 -326 -85t-214.5 -229.5t-73.5 -324.5t73.5 -324.5t214.5 -229.5t326 -85q261 0 406 86
v487h-349v123h484zM758 1720q0 41 28.5 70t69.5 29t69.5 -29t28.5 -70t-28.5 -69.5t-69.5 -28.5t-69.5 28.5t-28.5 69.5z" />
    <glyph glyph-name="gdotaccent" unicode="&#x121;" horiz-adv-x="1251" 
d="M1114 946v-885q0 -98 -18 -179t-48 -137t-72 -99t-86.5 -68.5t-95.5 -42t-95 -22t-89 -5.5q-144 0 -271 53t-198 146l97 90q63 -88 160.5 -133t211.5 -45q61 0 112 12t87.5 30.5t66 47t48 56t32 64t20 64.5t10.5 63t4.5 54t0.5 43v131h-4q-55 -87 -147 -135.5t-211 -48.5
q-137 0 -253.5 65.5t-184.5 177t-68 242.5t68 243t184.5 177.5t253.5 65.5q119 0 211 -49t147 -136h4v160h123zM995 485q0 155 -109.5 265t-264.5 110t-265 -110t-110 -265t110 -264.5t265 -109.5t264.5 109.5t109.5 264.5zM582 1335q0 41 28.5 70t69.5 29t69.5 -29
t28.5 -70t-28.5 -69.5t-69.5 -28.5t-69.5 28.5t-28.5 69.5z" />
    <glyph glyph-name="Gcommaaccent" unicode="&#x122;" horiz-adv-x="1593" 
d="M1395 782v-688q-229 -131 -541 -131q-218 0 -389.5 98t-266 271.5t-94.5 392.5t94.5 392.5t266 271.5t389.5 98q324 0 522 -201l-98 -102q-66 79 -185.5 129.5t-238.5 50.5q-185 0 -326 -85t-214.5 -229.5t-73.5 -324.5t73.5 -324.5t214.5 -229.5t326 -85q261 0 406 86
v487h-349v123h484zM690 -473l103 338h133l-127 -338h-109z" />
    <glyph glyph-name="gcommaaccent" unicode="&#x123;" horiz-adv-x="1251" 
d="M1114 946v-885q0 -98 -18 -179t-48 -137t-72 -99t-86.5 -68.5t-95.5 -42t-95 -22t-89 -5.5q-144 0 -271 53t-198 146l97 90q63 -88 160.5 -133t211.5 -45q61 0 112 12t87.5 30.5t66 47t48 56t32 64t20 64.5t10.5 63t4.5 54t0.5 43v131h-4q-55 -87 -147 -135.5t-211 -48.5
q-137 0 -253.5 65.5t-184.5 177t-68 242.5t68 243t184.5 177.5t253.5 65.5q119 0 211 -49t147 -136h4v160h123zM995 485q0 155 -109.5 265t-264.5 110t-265 -110t-110 -265t110 -264.5t265 -109.5t264.5 109.5t109.5 264.5zM821 1554l-104 -337h-133l129 337h108z" />
    <glyph glyph-name="Hcircumflex" unicode="&#x124;" horiz-adv-x="1478" 
d="M199 0v1450h135v-639h811v639h135v-1450h-135v688h-811v-688h-135zM444 1540l222 295h143l221 -295h-133l-166 221l-166 -221h-121z" />
    <glyph glyph-name="hcircumflex" unicode="&#x125;" horiz-adv-x="1138" 
d="M164 0v1548h123v-768h4q39 82 125.5 136.5t197.5 54.5q361 0 361 -408v-563h-123v557q0 303 -238 303q-144 0 -235.5 -100t-91.5 -287v-473h-123zM221 1622l221 295h144l221 -295h-133l-166 221l-166 -221h-121z" />
    <glyph glyph-name="Hbar" unicode="&#x126;" horiz-adv-x="1478" 
d="M199 0v1450h135v-227h811v227h135v-1450h-135v688h-811v-688h-135zM334 811h811v313h-811v-313z" />
    <glyph glyph-name="hbar" unicode="&#x127;" horiz-adv-x="1138" 
d="M164 0v1190h-148v108h148v250h123v-250h331v-108h-331v-410h4q39 82 125.5 136.5t197.5 54.5q361 0 361 -408v-563h-123v557q0 303 -238 303q-144 0 -235.5 -99.5t-91.5 -287.5v-473h-123z" />
    <glyph glyph-name="Itilde" unicode="&#x128;" horiz-adv-x="532" 
d="M199 0v1450h135v-1450h-135zM23 1575h-74q11 83 55 139q53 70 129 70q58 0 154 -51q5 -2 19.5 -9.5t20.5 -10t18 -8.5t19 -8t17 -5.5t18.5 -4.5t16.5 -1q41 0 65 28t33 70h74q-8 -84 -53 -146.5t-119 -62.5q-9 0 -18 1t-18.5 3t-16.5 3.5t-18 5.5l-16.5 6t-17.5 7.5
t-15.5 7t-17.5 8t-16 7.5q-8 4 -28 13.5t-29.5 14t-25 10.5t-28 8.5t-24.5 2.5q-76 0 -104 -98z" />
    <glyph glyph-name="itilde" unicode="&#x129;" 
d="M184 0v946h123v-946h-123zM4 1190h-74q10 82 56 139q53 70 129 70q57 0 153 -51q3 -1 15 -7.5t15.5 -8t14 -7t15 -7t14 -5.5t15 -5.5t13.5 -4t14.5 -3t12.5 -0.5q41 0 65.5 28.5t33.5 70.5h73q-10 -86 -53.5 -147.5t-118.5 -61.5q-8 0 -16.5 1t-15 2t-16 3.5t-15 4
t-16 5.5t-14.5 5.5t-15.5 7t-14.5 6.5t-16 7t-14 7q-8 4 -28 13.5t-29.5 14t-25 10.5t-28 8.5t-24.5 2.5q-81 0 -105 -98z" />
    <glyph glyph-name="Imacron" unicode="&#x12a;" horiz-adv-x="532" 
d="M199 0v1450h135v-1450h-135zM535 1735v-99h-541v99h541z" />
    <glyph glyph-name="imacron" unicode="&#x12b;" 
d="M184 0v946h123v-946h-123zM518 1339v-98h-541v98h541z" />
    <glyph glyph-name="Iogonek" unicode="&#x12e;" horiz-adv-x="532" 
d="M199 0v1450h135v-1450h-27q-54 -39 -101.5 -109.5t-47.5 -138.5q0 -96 88 -96q75 0 112 47l39 -78q-74 -67 -174 -67q-83 0 -135.5 45.5t-52.5 122.5t49.5 143t130.5 131h-16z" />
    <glyph glyph-name="iogonek" unicode="&#x12f;" 
d="M184 0v946h123v-946h-20q-54 -39 -102 -109.5t-48 -138.5q0 -96 88 -96q76 0 113 47l39 -78q-74 -67 -174 -67q-83 0 -136 45.5t-53 122.5t50 142.5t131 131.5h-11zM154 1321q0 38 27 65t65 27t65 -27t27 -65t-27 -65t-65 -27t-65 27t-27 65z" />
    <glyph glyph-name="Idotaccent" unicode="&#x130;" horiz-adv-x="532" 
d="M199 0v1450h135v-1450h-135zM176 1720q0 41 28.5 70t69.5 29t70 -29t29 -70t-29 -69.5t-70 -28.5t-69.5 28.5t-28.5 69.5z" />
    <glyph glyph-name="dotlessi" unicode="&#x131;" 
d="M184 0v946h123v-946h-123z" />
    <glyph glyph-name="Jcircumflex" unicode="&#x134;" horiz-adv-x="987" 
d="M788 1450v-1024q0 -45 -2 -81t-11 -86.5t-25 -88.5t-45.5 -79t-70.5 -67.5t-103 -43.5t-140 -17q-154 0 -249.5 79.5t-127.5 217.5l136 25q49 -199 241 -199q137 0 199.5 82.5t62.5 224.5v1057h135zM424 1540l221 295h143l222 -295h-133l-166 221l-166 -221h-121z" />
    <glyph glyph-name="jcircumflex" unicode="&#x135;" 
d="M307 946v-1112q0 -78 -11.5 -134t-41 -101.5t-83.5 -68t-134 -22.5q-46 0 -98 19l18 108q50 -16 78 -16q38 0 65.5 11.5t43.5 29.5t25 46.5t12 55t3 62.5v1122h123zM-47 1155l221 295h143l222 -295h-133l-166 221l-166 -221h-121z" />
    <glyph glyph-name="Kcommaaccent" unicode="&#x136;" horiz-adv-x="1251" 
d="M199 0v1450h135v-639h12l703 639h186l-733 -664l774 -786h-195l-735 750h-12v-750h-135zM535 -473l102 338h133l-127 -338h-108z" />
    <glyph glyph-name="kcommaaccent" unicode="&#x137;" horiz-adv-x="985" 
d="M164 0v1548h123v-1032l467 428h180l-488 -432l545 -512h-186l-518 500v-500h-123zM330 -473l102 338h133l-127 -338h-108z" />
    <glyph glyph-name="Lacute" unicode="&#x139;" horiz-adv-x="1024" 
d="M199 0v1450h135v-1327h676v-123h-811zM147 1540l213 295h164l-274 -295h-103z" />
    <glyph glyph-name="lacute" unicode="&#x13a;" 
d="M184 0v1548h123v-1548h-123zM143 1622l213 295h164l-274 -295h-103z" />
    <glyph glyph-name="Lcommaaccent" unicode="&#x13b;" horiz-adv-x="1024" 
d="M199 0v1450h135v-1327h676v-123h-811zM451 -473l102 338h133l-127 -338h-108z" />
    <glyph glyph-name="lcommaaccent" unicode="&#x13c;" 
d="M184 0v1548h123v-1548h-123zM129 -473l102 338h134l-127 -338h-109z" />
    <glyph glyph-name="Lcaron" unicode="&#x13d;" horiz-adv-x="1024" 
d="M199 0v1450h135v-1327h676v-123h-811zM475 1071l105 379h133l-129 -379h-109z" />
    <glyph glyph-name="lcaron" unicode="&#x13e;" 
d="M184 0v1548h123v-1548h-123zM449 1071l104 379h133l-129 -379h-108z" />
    <glyph glyph-name="Ldot" unicode="&#x13f;" horiz-adv-x="1024" 
d="M199 0v1450h135v-1327h676v-123h-811zM692 705q0 41 29 69.5t70 28.5t69.5 -28.5t28.5 -69.5t-28.5 -70t-69.5 -29t-70 29t-29 70z" />
    <glyph glyph-name="ldot" unicode="&#x140;" horiz-adv-x="688" 
d="M184 0v1548h123v-1548h-123zM479 766q0 41 29 69.5t70 28.5t69.5 -28.5t28.5 -69.5t-28.5 -69.5t-69.5 -28.5t-70 28.5t-29 69.5z" />
    <glyph glyph-name="Lslash" unicode="&#x141;" horiz-adv-x="1024" 
d="M199 0v473l-148 -131v133l148 129v846h135v-733l442 387v-127l-442 -387v-467h676v-123h-811z" />
    <glyph glyph-name="lslash" unicode="&#x142;" 
d="M184 0v664l-172 -175v138l172 174v747h123v-624l172 176v-137l-172 -175v-788h-123z" />
    <glyph glyph-name="Nacute" unicode="&#x143;" horiz-adv-x="1593" 
d="M199 0v1450h174l882 -1270h5v1270h135v-1450h-174l-883 1270h-4v-1270h-135zM700 1540l213 295h164l-274 -295h-103z" />
    <glyph glyph-name="nacute" unicode="&#x144;" horiz-adv-x="1138" 
d="M164 0v680q0 38 -5 141t-5 125h122q4 -144 9 -166h6q39 82 125.5 136.5t197.5 54.5q361 0 361 -408v-563h-123v557q0 303 -238 303q-144 0 -235.5 -100t-91.5 -287v-473h-123zM426 1155l213 295h164l-275 -295h-102z" />
    <glyph glyph-name="Ncommaaccent" unicode="&#x145;" horiz-adv-x="1593" 
d="M199 0v1450h174l882 -1270h5v1270h135v-1450h-174l-883 1270h-4v-1270h-135zM641 -473l102 338h134l-127 -338h-109z" />
    <glyph glyph-name="ncommaaccent" unicode="&#x146;" horiz-adv-x="1138" 
d="M164 0v680q0 38 -5 141t-5 125h122q4 -144 9 -166h6q39 82 125.5 136.5t197.5 54.5q361 0 361 -408v-563h-123v557q0 303 -238 303q-144 0 -235.5 -100t-91.5 -287v-473h-123zM420 -473l102 338h133l-127 -338h-108z" />
    <glyph glyph-name="Ncaron" unicode="&#x147;" horiz-adv-x="1593" 
d="M199 0v1450h174l882 -1270h5v1270h135v-1450h-174l-883 1270h-4v-1270h-135zM1087 1835l-217 -295h-143l-223 295h127l170 -233l176 233h110z" />
    <glyph glyph-name="ncaron" unicode="&#x148;" horiz-adv-x="1138" 
d="M164 0v680q0 38 -5 141t-5 125h122q4 -144 9 -166h6q39 82 125.5 136.5t197.5 54.5q361 0 361 -408v-563h-123v557q0 303 -238 303q-144 0 -235.5 -100t-91.5 -287v-473h-123zM868 1450l-217 -295h-143l-223 295h127l170 -233l176 233h110z" />
    <glyph glyph-name="Omacron" unicode="&#x14c;" horiz-adv-x="1708" 
d="M104 725q0 219 94.5 392.5t266 271.5t389.5 98t389.5 -98t266 -271.5t94.5 -392.5t-94.5 -392.5t-266 -271.5t-389.5 -98t-389.5 98t-266 271.5t-94.5 392.5zM240 725q0 -180 73.5 -324.5t214.5 -229.5t326 -85t326 85t214.5 229.5t73.5 324.5t-73.5 324.5t-214.5 229.5
t-326 85t-326 -85t-214.5 -229.5t-73.5 -324.5zM1126 1735v-99h-540v99h540z" />
    <glyph glyph-name="omacron" unicode="&#x14d;" horiz-adv-x="1216" 
d="M111 473q0 217 139.5 357.5t357.5 140.5t358 -140.5t140 -357.5t-140 -357.5t-358 -140.5t-357.5 140.5t-139.5 357.5zM233 473q0 -164 103 -275.5t272 -111.5t272 111.5t103 275.5t-103 275.5t-272 111.5t-272 -111.5t-103 -275.5zM881 1339v-98h-541v98h541z" />
    <glyph glyph-name="Obreve" unicode="&#x14e;" horiz-adv-x="1708" 
d="M104 725q0 219 94.5 392.5t266 271.5t389.5 98t389.5 -98t266 -271.5t94.5 -392.5t-94.5 -392.5t-266 -271.5t-389.5 -98t-389.5 98t-266 271.5t-94.5 392.5zM240 725q0 -180 73.5 -324.5t214.5 -229.5t326 -85t326 85t214.5 229.5t73.5 324.5t-73.5 324.5t-214.5 229.5
t-326 85t-326 -85t-214.5 -229.5t-73.5 -324.5zM561 1804h86q12 -79 67 -119t138 -40q95 0 144 34.5t69 124.5h86q-13 -122 -94 -190t-205 -68q-125 0 -205 68.5t-86 189.5z" />
    <glyph glyph-name="obreve" unicode="&#x14f;" horiz-adv-x="1216" 
d="M111 473q0 217 139.5 357.5t357.5 140.5t358 -140.5t140 -357.5t-140 -357.5t-358 -140.5t-357.5 140.5t-139.5 357.5zM233 473q0 -164 103 -275.5t272 -111.5t272 111.5t103 275.5t-103 275.5t-272 111.5t-272 -111.5t-103 -275.5zM315 1450h86q12 -79 67 -119.5
t138 -40.5q94 0 143.5 35.5t69.5 124.5h86q-13 -122 -94 -190t-205 -68t-204.5 68.5t-86.5 189.5z" />
    <glyph glyph-name="Ohungarumlaut" unicode="&#x150;" horiz-adv-x="1708" 
d="M104 725q0 219 94.5 392.5t266 271.5t389.5 98t389.5 -98t266 -271.5t94.5 -392.5t-94.5 -392.5t-266 -271.5t-389.5 -98t-389.5 98t-266 271.5t-94.5 392.5zM240 725q0 -180 73.5 -324.5t214.5 -229.5t326 -85t326 85t214.5 229.5t73.5 324.5t-73.5 324.5t-214.5 229.5
t-326 85t-326 -85t-214.5 -229.5t-73.5 -324.5zM631 1540l213 295h164l-275 -295h-102zM930 1540l213 295h164l-275 -295h-102z" />
    <glyph glyph-name="ohungarumlaut" unicode="&#x151;" horiz-adv-x="1216" 
d="M111 473q0 217 139.5 357.5t357.5 140.5t358 -140.5t140 -357.5t-140 -357.5t-358 -140.5t-357.5 140.5t-139.5 357.5zM233 473q0 -164 103 -275.5t272 -111.5t272 111.5t103 275.5t-103 275.5t-272 111.5t-272 -111.5t-103 -275.5zM391 1155l213 295h164l-274 -295h-103
zM690 1155l213 295h164l-274 -295h-103z" />
    <glyph glyph-name="OE" unicode="&#x152;" horiz-adv-x="1933" 
d="M1190 688v-565h622v-123h-966q-145 0 -277 52.5t-231.5 145t-158 230t-58.5 297.5q0 140 43 259t118 203.5t175.5 144.5t215.5 89t238 29h885v-123h-606v-516h571v-123h-571zM1055 123v1204h-160q-89 0 -177 -21.5t-172 -69.5t-148 -116.5t-103 -170.5t-39 -224
q0 -94 22.5 -175.5t60 -141.5t89 -109t108.5 -81t119 -54t118.5 -31.5t109.5 -9.5h172z" />
    <glyph glyph-name="oe" unicode="&#x153;" horiz-adv-x="1857" 
d="M1038 553h607q-2 136 -77.5 221.5t-224.5 85.5q-137 0 -221 -88.5t-84 -218.5zM1767 442h-729q-6 -153 81 -254.5t247 -101.5q86 0 156.5 40t115.5 112l97 -70q-79 -104 -168.5 -148.5t-220.5 -44.5q-130 0 -227 57.5t-146 176.5h-4q-58 -113 -165 -173.5t-243 -60.5
q-203 0 -337 141t-134 357t134 357t337 141q283 0 408 -236q19 45 49 84.5t74.5 75t108 56t138.5 20.5q89 0 164 -26.5t135.5 -80t94.5 -143t34 -207.5v-72zM213 473q0 -159 97.5 -273t254.5 -114q159 0 254.5 111t95.5 276t-95.5 276t-254.5 111q-157 0 -254.5 -114
t-97.5 -273z" />
    <glyph glyph-name="Racute" unicode="&#x154;" horiz-adv-x="1214" 
d="M334 1327v-516h287q82 0 144.5 17.5t98.5 44t59 62.5t30.5 68t7.5 66t-7.5 66t-30.5 68t-59 62.5t-98.5 44t-144.5 17.5h-287zM199 0v1450h381q39 0 66 -1t85.5 -8t101 -20.5t95.5 -42t87 -67.5t57.5 -101.5t23.5 -140.5q0 -79 -24 -142.5t-60 -102.5t-87.5 -67t-99 -41
t-100.5 -20l422 -696h-154l-407 688h-252v-688h-135zM467 1540l213 295h164l-275 -295h-102z" />
    <glyph glyph-name="racute" unicode="&#x155;" horiz-adv-x="681" 
d="M164 0v680q0 38 -5 141t-5 125h122q4 -144 9 -166q105 191 301 191q29 0 71 -10l-14 -121q-24 8 -47 8q-103 0 -174 -45.5t-103 -118.5t-32 -168v-516h-123zM264 1155l213 295h164l-274 -295h-103z" />
    <glyph glyph-name="Rcommaaccent" unicode="&#x156;" horiz-adv-x="1214" 
d="M334 1327v-516h287q82 0 144.5 17.5t98.5 44t59 62.5t30.5 68t7.5 66t-7.5 66t-30.5 68t-59 62.5t-98.5 44t-144.5 17.5h-287zM199 0v1450h381q39 0 66 -1t85.5 -8t101 -20.5t95.5 -42t87 -67.5t57.5 -101.5t23.5 -140.5q0 -79 -24 -142.5t-60 -102.5t-87.5 -67t-99 -41
t-100.5 -20l422 -696h-154l-407 688h-252v-688h-135zM449 -473l102 338h133l-127 -338h-108z" />
    <glyph glyph-name="rcommaaccent" unicode="&#x157;" horiz-adv-x="681" 
d="M164 0v680q0 38 -5 141t-5 125h122q4 -144 9 -166q105 191 301 191q29 0 71 -10l-14 -121q-24 8 -47 8q-103 0 -174 -45.5t-103 -118.5t-32 -168v-516h-123zM160 -473l102 338h133l-127 -338h-108z" />
    <glyph glyph-name="Rcaron" unicode="&#x158;" horiz-adv-x="1214" 
d="M334 1327v-516h287q82 0 144.5 17.5t98.5 44t59 62.5t30.5 68t7.5 66t-7.5 66t-30.5 68t-59 62.5t-98.5 44t-144.5 17.5h-287zM199 0v1450h381q39 0 66 -1t85.5 -8t101 -20.5t95.5 -42t87 -67.5t57.5 -101.5t23.5 -140.5q0 -79 -24 -142.5t-60 -102.5t-87.5 -67t-99 -41
t-100.5 -20l422 -696h-154l-407 688h-252v-688h-135zM891 1835l-217 -295h-144l-223 295h127l170 -233l176 233h111z" />
    <glyph glyph-name="rcaron" unicode="&#x159;" horiz-adv-x="681" 
d="M164 0v680q0 38 -5 141t-5 125h122q4 -144 9 -166q105 191 301 191q29 0 71 -10l-14 -121q-24 8 -47 8q-103 0 -174 -45.5t-103 -118.5t-32 -168v-516h-123zM672 1450l-217 -295h-144l-223 295h127l170 -233l176 233h111z" />
    <glyph glyph-name="Sacute" unicode="&#x15a;" horiz-adv-x="1138" 
d="M109 182l129 86q108 -182 331 -182q140 0 233 78.5t93 206.5q0 65 -25.5 113t-69 78t-99.5 53t-118 42t-124 40t-118 52.5t-99.5 74t-69 110.5t-25.5 156q0 124 66 216t170 136.5t229 44.5q258 0 396 -182l-117 -84q-103 143 -283 143q-90 0 -162 -29.5t-117.5 -92.5
t-45.5 -152q0 -70 25.5 -121.5t69 -82.5t99.5 -54.5t118 -41.5t123.5 -38t117.5 -50t99.5 -70.5t69 -107t25.5 -153.5q0 -95 -37 -173.5t-99.5 -129t-143.5 -78t-170 -27.5q-314 0 -471 219zM487 1540l213 295h164l-274 -295h-103z" />
    <glyph glyph-name="sacute" unicode="&#x15b;" horiz-adv-x="872" 
d="M57 168l109 74q37 -73 112.5 -114.5t161.5 -41.5q85 0 151 48t66 126q0 52 -31 86.5t-80.5 51.5t-109.5 29.5t-119.5 29t-109 42t-80.5 76t-31 123.5q0 66 28.5 119.5t75.5 86.5t103.5 50t116.5 17q244 0 334 -178l-111 -66q-37 67 -89.5 100t-133.5 33
q-74 0 -137.5 -41.5t-63.5 -109.5q0 -52 31 -84.5t80.5 -48.5t109.5 -27t119.5 -27.5t109 -43t80.5 -79.5t31 -131q0 -139 -99 -216t-243 -77q-126 0 -226.5 49t-154.5 144zM332 1155l213 295h164l-275 -295h-102z" />
    <glyph glyph-name="Scircumflex" unicode="&#x15c;" horiz-adv-x="1138" 
d="M109 182l129 86q108 -182 331 -182q140 0 233 78.5t93 206.5q0 65 -25.5 113t-69 78t-99.5 53t-118 42t-124 40t-118 52.5t-99.5 74t-69 110.5t-25.5 156q0 124 66 216t170 136.5t229 44.5q258 0 396 -182l-117 -84q-103 143 -283 143q-90 0 -162 -29.5t-117.5 -92.5
t-45.5 -152q0 -70 25.5 -121.5t69 -82.5t99.5 -54.5t118 -41.5t123.5 -38t117.5 -50t99.5 -70.5t69 -107t25.5 -153.5q0 -95 -37 -173.5t-99.5 -129t-143.5 -78t-170 -27.5q-314 0 -471 219zM317 1540l222 295h143l221 -295h-133l-166 221l-166 -221h-121z" />
    <glyph glyph-name="scircumflex" unicode="&#x15d;" horiz-adv-x="872" 
d="M57 168l109 74q37 -73 112.5 -114.5t161.5 -41.5q85 0 151 48t66 126q0 52 -31 86.5t-80.5 51.5t-109.5 29.5t-119.5 29t-109 42t-80.5 76t-31 123.5q0 66 28.5 119.5t75.5 86.5t103.5 50t116.5 17q244 0 334 -178l-111 -66q-37 67 -89.5 100t-133.5 33
q-74 0 -137.5 -41.5t-63.5 -109.5q0 -52 31 -84.5t80.5 -48.5t109.5 -27t119.5 -27.5t109 -43t80.5 -79.5t31 -131q0 -139 -99 -216t-243 -77q-126 0 -226.5 49t-154.5 144zM152 1155l221 295h143l221 -295h-133l-166 221l-166 -221h-120z" />
    <glyph glyph-name="Scedilla" unicode="&#x15e;" horiz-adv-x="1138" 
d="M109 182l129 86q107 -182 331 -182q138 0 232 79.5t94 205.5q0 65 -25.5 113t-69 78t-99.5 53t-118 42t-124 40t-118 52.5t-99.5 74t-69 110.5t-25.5 156q0 124 65.5 216t169.5 136.5t230 44.5q260 0 396 -182l-117 -84q-101 143 -283 143q-90 0 -162 -29.5t-117.5 -92.5
t-45.5 -152q0 -70 25.5 -121.5t69 -82.5t99.5 -54.5t118 -41.5t123.5 -38t117.5 -50t99.5 -70.5t69 -107t25.5 -153.5q0 -121 -60 -213.5t-154.5 -140t-207.5 -52.5l-69 -96l4 -4q25 14 63 14q71 0 120.5 -38.5t49.5 -108.5q0 -85 -69.5 -129.5t-159.5 -44.5q-105 0 -195 43
l29 65q72 -35 156 -35q49 0 89 22.5t40 65.5q0 44 -34 65t-81 21q-40 0 -90 -16l-33 31l102 145q-279 16 -421 217z" />
    <glyph glyph-name="scedilla" unicode="&#x15f;" horiz-adv-x="872" 
d="M57 168l109 74q38 -74 112 -115t162 -41q83 0 150 49t67 125q0 52 -31 86.5t-80.5 51.5t-109.5 29.5t-119.5 29t-109 42t-80.5 76t-31 123.5q0 67 28.5 120.5t75.5 86t103.5 49.5t116.5 17q243 0 334 -178l-111 -66q-37 69 -88 101t-135 32q-74 0 -137.5 -41.5
t-63.5 -109.5q0 -52 31 -84.5t80.5 -48t109.5 -27t119.5 -27.5t109 -42.5t80.5 -80t31 -131.5q0 -129 -87.5 -206t-217.5 -85l-80 -108l4 -4q25 14 64 14q71 0 120.5 -38.5t49.5 -108.5q0 -85 -70 -129.5t-160 -44.5q-104 0 -194 43l29 65q72 -35 155 -35q49 0 89 22.5
t40 65.5q0 44 -33.5 65t-80.5 21q-41 0 -91 -16l-32 31l112 157q-114 6 -202 53.5t-138 137.5z" />
    <glyph glyph-name="Scaron" unicode="&#x160;" horiz-adv-x="1138" 
d="M109 182l129 86q108 -182 331 -182q140 0 233 78.5t93 206.5q0 65 -25.5 113t-69 78t-99.5 53t-118 42t-124 40t-118 52.5t-99.5 74t-69 110.5t-25.5 156q0 124 66 216t170 136.5t229 44.5q258 0 396 -182l-117 -84q-103 143 -283 143q-90 0 -162 -29.5t-117.5 -92.5
t-45.5 -152q0 -70 25.5 -121.5t69 -82.5t99.5 -54.5t118 -41.5t123.5 -38t117.5 -50t99.5 -70.5t69 -107t25.5 -153.5q0 -95 -37 -173.5t-99.5 -129t-143.5 -78t-170 -27.5q-314 0 -471 219zM854 1835l-217 -295h-143l-224 295h127l170 -233l176 233h111z" />
    <glyph glyph-name="scaron" unicode="&#x161;" horiz-adv-x="872" 
d="M57 168l109 74q37 -73 112.5 -114.5t161.5 -41.5q85 0 151 48t66 126q0 52 -31 86.5t-80.5 51.5t-109.5 29.5t-119.5 29t-109 42t-80.5 76t-31 123.5q0 66 28.5 119.5t75.5 86.5t103.5 50t116.5 17q244 0 334 -178l-111 -66q-37 67 -89.5 100t-133.5 33
q-74 0 -137.5 -41.5t-63.5 -109.5q0 -52 31 -84.5t80.5 -48.5t109.5 -27t119.5 -27.5t109 -43t80.5 -79.5t31 -131q0 -139 -99 -216t-243 -77q-126 0 -226.5 49t-154.5 144zM721 1450l-217 -295h-144l-223 295h127l170 -233l176 233h111z" />
    <glyph glyph-name="Tcommaaccent" unicode="&#x162;" horiz-adv-x="1175" 
d="M520 0v1327h-495v123h1126v-123h-496v-1327h-135zM428 -473l102 338h134l-127 -338h-109z" />
    <glyph glyph-name="tcommaaccent" unicode="&#x163;" horiz-adv-x="681" 
d="M627 946v-110h-271v-617q0 -63 34.5 -98t96.5 -35q61 0 140 33l10 -111q-93 -33 -160 -33q-125 0 -184.5 67.5t-59.5 176.5v617h-204v110h204v273h123v-273h271zM221 -473l103 338h133l-127 -338h-109z" />
    <glyph glyph-name="Tcaron" unicode="&#x164;" horiz-adv-x="1175" 
d="M520 0v1327h-495v123h1126v-123h-496v-1327h-135zM881 1835l-217 -295h-144l-223 295h127l170 -233l176 233h111z" />
    <glyph glyph-name="tcaron" unicode="&#x165;" horiz-adv-x="681" 
d="M627 946v-110h-271v-617q0 -63 34.5 -98t96.5 -35q61 0 140 33l10 -111q-93 -33 -160 -33q-125 0 -184.5 67.5t-59.5 176.5v617h-204v110h204v273h123v-273h271zM465 1071l104 379h133l-129 -379h-108z" />
    <glyph glyph-name="Tbar" unicode="&#x166;" horiz-adv-x="1175" 
d="M963 946v-98h-308v-848h-135v848h-303v98h303v381h-495v123h1126v-123h-496v-381h308z" />
    <glyph glyph-name="tbar" unicode="&#x167;" horiz-adv-x="681" 
d="M596 666v-99h-240v-348q0 -63 34.5 -98t96.5 -35q61 0 140 33l10 -111q-97 -33 -160 -33q-125 0 -184.5 67.5t-59.5 176.5v348h-178v99h178v170h-204v110h204v273h123v-273h271v-110h-271v-170h240z" />
    <glyph glyph-name="Utilde" unicode="&#x168;" horiz-adv-x="1400" 
d="M1229 1450v-895q0 -96 -16.5 -180.5t-56 -161t-99 -131.5t-151 -87t-206.5 -32t-206 32t-150.5 87t-99 131.5t-56 161t-16.5 180.5v895h135v-860q0 -70 8 -132.5t33.5 -133.5t67 -121t114.5 -83.5t170 -33.5q70 0 128 17.5t98 46t70.5 70t49 85t29.5 95.5t15 96.5t4 93.5
v860h135zM457 1575h-74q11 83 55 139q53 70 129 70q58 0 154 -51q5 -2 19.5 -9.5t20.5 -10t18 -8.5t19 -8t17 -5.5t18.5 -4.5t16.5 -1q41 0 65 28t33 70h74q-8 -84 -53 -146.5t-119 -62.5q-9 0 -18 1t-18.5 3t-16.5 3.5t-18 5.5l-16.5 6t-17.5 7.5t-15.5 7t-17.5 8t-16 7.5
q-8 4 -28 13.5t-29.5 14t-25 10.5t-28 8.5t-24.5 2.5q-76 0 -104 -98z" />
    <glyph glyph-name="utilde" unicode="&#x169;" horiz-adv-x="1138" 
d="M965 946v-680q0 -38 5 -141t5 -125h-123q-4 149 -8 166h-6q-39 -82 -126 -136.5t-198 -54.5q-86 0 -150.5 23t-104 60.5t-63.5 92t-33 110t-9 122.5v563h122v-557q0 -303 238 -303q144 0 236 100t92 287v473h123zM322 1190h-74q11 83 55 139q53 70 129 70q58 0 154 -51
q3 -1 15 -7.5t15.5 -8t14 -7t15 -7t14 -5.5t15 -5.5t13.5 -4t14.5 -3t12.5 -0.5q41 0 65 28.5t33 70.5h74q-10 -86 -53.5 -147.5t-118.5 -61.5q-50 0 -154 49q-8 4 -28 13.5t-29.5 14t-25 10.5t-28 8.5t-24.5 2.5q-80 0 -104 -98z" />
    <glyph glyph-name="Umacron" unicode="&#x16a;" horiz-adv-x="1400" 
d="M1229 1450v-895q0 -96 -16.5 -180.5t-56 -161t-99 -131.5t-151 -87t-206.5 -32t-206 32t-150.5 87t-99 131.5t-56 161t-16.5 180.5v895h135v-860q0 -70 8 -132.5t33.5 -133.5t67 -121t114.5 -83.5t170 -33.5q70 0 128 17.5t98 46t70.5 70t49 85t29.5 95.5t15 96.5t4 93.5
v860h135zM973 1735v-99h-541v99h541z" />
    <glyph glyph-name="umacron" unicode="&#x16b;" horiz-adv-x="1138" 
d="M965 946v-680q0 -38 5 -141t5 -125h-123q-4 149 -8 166h-6q-39 -82 -126 -136.5t-198 -54.5q-86 0 -150.5 23t-104 60.5t-63.5 92t-33 110t-9 122.5v563h122v-557q0 -303 238 -303q144 0 236 100t92 287v473h123zM838 1339v-98h-541v98h541z" />
    <glyph glyph-name="Ubreve" unicode="&#x16c;" horiz-adv-x="1400" 
d="M1229 1450v-895q0 -96 -16.5 -180.5t-56 -161t-99 -131.5t-151 -87t-206.5 -32t-206 32t-150.5 87t-99 131.5t-56 161t-16.5 180.5v895h135v-860q0 -70 8 -132.5t33.5 -133.5t67 -121t114.5 -83.5t170 -33.5q70 0 128 17.5t98 46t70.5 70t49 85t29.5 95.5t15 96.5t4 93.5
v860h135zM408 1804h86q12 -79 66.5 -119t137.5 -40q95 0 144 34.5t69 124.5h86q-13 -122 -94 -190t-205 -68q-125 0 -204.5 68.5t-85.5 189.5z" />
    <glyph glyph-name="ubreve" unicode="&#x16d;" horiz-adv-x="1138" 
d="M965 946v-680q0 -38 5 -141t5 -125h-123q-4 149 -8 166h-6q-39 -82 -126 -136.5t-198 -54.5q-86 0 -150.5 23t-104 60.5t-63.5 92t-33 110t-9 122.5v563h122v-557q0 -303 238 -303q144 0 236 100t92 287v473h123zM272 1450h86q12 -79 67 -119.5t138 -40.5
q94 0 143.5 35.5t69.5 124.5h86q-13 -122 -94 -190t-205 -68t-204.5 68.5t-86.5 189.5z" />
    <glyph glyph-name="Uring" unicode="&#x16e;" horiz-adv-x="1400" 
d="M1229 1450v-895q0 -96 -16.5 -180.5t-56 -161t-99 -131.5t-151 -87t-206.5 -32t-206 32t-150.5 87t-99 131.5t-56 161t-16.5 180.5v895h135v-860q0 -70 8 -132.5t33.5 -133.5t67 -121t114.5 -83.5t170 -33.5q70 0 128 17.5t98 46t70.5 70t49 85t29.5 95.5t15 96.5t4 93.5
v860h135zM512 1714q0 80 57 137.5t136 57.5q78 0 133 -59.5t55 -137.5q0 -75 -55 -133.5t-133 -58.5q-79 0 -136 57t-57 137zM819 1714q0 51 -33 86t-84 35q-50 0 -83 -35.5t-33 -87.5q0 -51 33 -85t83 -34q51 0 84 35t33 86z" />
    <glyph glyph-name="uring" unicode="&#x16f;" horiz-adv-x="1138" 
d="M965 946v-680q0 -38 5 -141t5 -125h-123q-4 149 -8 166h-6q-39 -82 -126 -136.5t-198 -54.5q-86 0 -150.5 23t-104 60.5t-63.5 92t-33 110t-9 122.5v563h122v-557q0 -303 238 -303q144 0 236 100t92 287v473h123zM377 1329q0 80 56.5 137.5t135.5 57.5q78 0 133.5 -59.5
t55.5 -137.5q0 -75 -55.5 -133.5t-133.5 -58.5q-79 0 -135.5 57t-56.5 137zM684 1329q0 51 -33 86t-84 35q-50 0 -83 -35.5t-33 -87.5q0 -51 33 -85t83 -34q51 0 84 35t33 86z" />
    <glyph glyph-name="Uhungarumlaut" unicode="&#x170;" horiz-adv-x="1400" 
d="M1229 1450v-895q0 -96 -16.5 -180.5t-56 -161t-99 -131.5t-151 -87t-206.5 -32t-206 32t-150.5 87t-99 131.5t-56 161t-16.5 180.5v895h135v-860q0 -70 8 -132.5t33.5 -133.5t67 -121t114.5 -83.5t170 -33.5q70 0 128 17.5t98 46t70.5 70t49 85t29.5 95.5t15 96.5t4 93.5
v860h135zM455 1540l213 295h163l-274 -295h-102zM754 1540l213 295h163l-274 -295h-102z" />
    <glyph glyph-name="uhungarumlaut" unicode="&#x171;" horiz-adv-x="1138" 
d="M965 946v-680q0 -38 5 -141t5 -125h-123q-4 149 -8 166h-6q-39 -82 -126 -136.5t-198 -54.5q-86 0 -150.5 23t-104 60.5t-63.5 92t-33 110t-9 122.5v563h122v-557q0 -303 238 -303q144 0 236 100t92 287v473h123zM319 1155l213 295h164l-274 -295h-103zM618 1155l213 295
h164l-274 -295h-103z" />
    <glyph glyph-name="Uogonek" unicode="&#x172;" horiz-adv-x="1400" 
d="M866 -297l39 -78q-74 -67 -174 -67q-83 0 -135.5 45.5t-52.5 122.5q0 121 135 239q-110 3 -197 36.5t-144 88t-95 130t-54 158.5t-16 177v895h135v-860q0 -70 8 -132.5t34 -133.5t67 -121t114.5 -83.5t169.5 -33.5q70 0 127.5 17.5t97.5 46t71 70t49 85t29.5 95.5
t15.5 97t4 93v860h135v-895q0 -89 -14.5 -168.5t-48.5 -153t-85 -128.5t-129 -91.5t-176 -46.5q-47 -43 -78.5 -100t-31.5 -115q0 -96 88 -96q75 0 112 47z" />
    <glyph glyph-name="uogonek" unicode="&#x173;" horiz-adv-x="1138" 
d="M995 -297l39 -78q-74 -67 -174 -67q-83 0 -135.5 45.5t-52.5 122.5t49.5 143t130.5 131q-4 155 -8 166h-6q-39 -82 -126 -136.5t-198 -54.5q-86 0 -151 23t-104 60.5t-63.5 92t-33 110t-8.5 122.5v563h122v-557q0 -303 238 -303q144 0 236 99.5t92 287.5v473h123v-680
q0 -38 5 -141t5 -125h-31q-54 -39 -101.5 -109.5t-47.5 -138.5q0 -96 88 -96q75 0 112 47z" />
    <glyph glyph-name="Wcircumflex" unicode="&#x174;" horiz-adv-x="1933" 
d="M432 0l-422 1450h140l360 -1284h4l367 1284h172l366 -1284h4l361 1284h139l-422 -1450h-166l-366 1290h-4l-367 -1290h-166zM674 1540l221 295h143l222 -295h-134l-165 221l-166 -221h-121z" />
    <glyph glyph-name="wcircumflex" unicode="&#x175;" horiz-adv-x="1441" 
d="M328 0l-297 946h135l229 -792h4l265 792h116l281 -792h4l223 792h123l-278 -946h-127l-283 774h-4l-264 -774h-127zM430 1155l221 295h144l221 -295h-133l-166 221l-166 -221h-121z" />
    <glyph glyph-name="Ycircumflex" unicode="&#x176;" horiz-adv-x="1175" 
d="M520 0v625l-532 825h162l438 -688l448 688h152l-533 -825v-625h-135zM295 1540l221 295h143l222 -295h-133l-166 221l-166 -221h-121z" />
    <glyph glyph-name="ycircumflex" unicode="&#x177;" horiz-adv-x="948" 
d="M918 946l-488 -1239q-77 -199 -260 -199q-47 0 -121 19l12 115q81 -23 111 -23q32 0 58 13t44.5 39t30.5 49t25 57l86 219l-385 950h137l313 -796l305 796h132zM193 1155l221 295h143l221 -295h-133l-166 221l-166 -221h-120z" />
    <glyph glyph-name="Ydieresis" unicode="&#x178;" horiz-adv-x="1175" 
d="M520 0v625l-532 825h162l438 -688l448 688h152l-533 -825v-625h-135zM295 1720q0 41 28.5 70t69.5 29t70 -29t29 -70t-29 -69.5t-70 -28.5t-69.5 28.5t-28.5 69.5zM684 1720q0 41 28.5 70t69.5 29t70 -29t29 -70t-29 -69.5t-70 -28.5t-69.5 28.5t-28.5 69.5z" />
    <glyph glyph-name="Zacute" unicode="&#x179;" horiz-adv-x="1138" 
d="M47 0v106l848 1221h-836v123h1010v-111l-854 -1216h877v-123h-1045zM461 1540l213 295h164l-275 -295h-102z" />
    <glyph glyph-name="zacute" unicode="&#x17a;" horiz-adv-x="872" 
d="M55 0v74l568 762h-539v110h709v-74l-566 -761h590v-111h-762zM332 1155l213 295h164l-275 -295h-102z" />
    <glyph glyph-name="Zdotaccent" unicode="&#x17b;" horiz-adv-x="1138" 
d="M47 0v106l848 1221h-836v123h1010v-111l-854 -1216h877v-123h-1045zM504 1720q0 41 28.5 70t69.5 29t69.5 -29t28.5 -70t-28.5 -69.5t-69.5 -28.5t-69.5 28.5t-28.5 69.5z" />
    <glyph glyph-name="zdotaccent" unicode="&#x17c;" horiz-adv-x="872" 
d="M55 0v74l568 762h-539v110h709v-74l-566 -761h590v-111h-762zM377 1335q0 41 28.5 70t69.5 29t69.5 -29t28.5 -70t-28.5 -69.5t-69.5 -28.5t-69.5 28.5t-28.5 69.5z" />
    <glyph glyph-name="Zcaron" unicode="&#x17d;" horiz-adv-x="1138" 
d="M47 0v106l848 1221h-836v123h1010v-111l-854 -1216h877v-123h-1045zM854 1835l-217 -295h-143l-224 295h127l170 -233l176 233h111z" />
    <glyph glyph-name="zcaron" unicode="&#x17e;" horiz-adv-x="872" 
d="M55 0v74l568 762h-539v110h709v-74l-566 -761h590v-111h-762zM721 1450l-217 -295h-144l-223 295h127l170 -233l176 233h111z" />
    <glyph glyph-name="florin" unicode="&#x192;" horiz-adv-x="1064" 
d="M809 858v-98h-240l-147 -801q-50 -254 -293 -254q-102 0 -162 49l62 96q42 -34 108 -34q78 0 117 55t61 172l131 717h-221v98h240l59 316q11 59 30.5 108t53 95t87 72t122.5 26q100 0 184 -62l-65 -92q-60 43 -119 43q-137 0 -170 -184l-59 -322h221z" />
    <glyph glyph-name="Scommaaccent" unicode="&#x218;" horiz-adv-x="1138" 
d="M109 182l129 86q108 -182 331 -182q140 0 233 78.5t93 206.5q0 65 -25.5 113t-69 78t-99.5 53t-118 42t-124 40t-118 52.5t-99.5 74t-69 110.5t-25.5 156q0 124 66 216t170 136.5t229 44.5q258 0 396 -182l-117 -84q-103 143 -283 143q-90 0 -162 -29.5t-117.5 -92.5
t-45.5 -152q0 -70 25.5 -121.5t69 -82.5t99.5 -54.5t118 -41.5t123.5 -38t117.5 -50t99.5 -70.5t69 -107t25.5 -153.5q0 -95 -37 -173.5t-99.5 -129t-143.5 -78t-170 -27.5q-314 0 -471 219zM418 -473l102 338h133l-127 -338h-108z" />
    <glyph glyph-name="scommaaccent" unicode="&#x219;" horiz-adv-x="872" 
d="M57 168l109 74q37 -73 112.5 -114.5t161.5 -41.5q85 0 151 48t66 126q0 52 -31 86.5t-80.5 51.5t-109.5 29.5t-119.5 29t-109 42t-80.5 76t-31 123.5q0 66 28.5 119.5t75.5 86.5t103.5 50t116.5 17q244 0 334 -178l-111 -66q-37 67 -89.5 100t-133.5 33
q-74 0 -137.5 -41.5t-63.5 -109.5q0 -52 31 -84.5t80.5 -48.5t109.5 -27t119.5 -27.5t109 -43t80.5 -79.5t31 -131q0 -139 -99 -216t-243 -77q-126 0 -226.5 49t-154.5 144zM291 -473l102 338h133l-127 -338h-108z" />
    <glyph glyph-name="uni021A" unicode="&#x21a;" horiz-adv-x="1175" 
d="M520 0v1327h-495v123h1126v-123h-496v-1327h-135zM428 -473l102 338h134l-127 -338h-109z" />
    <glyph glyph-name="uni021B" unicode="&#x21b;" horiz-adv-x="681" 
d="M627 946v-110h-271v-617q0 -63 34.5 -98t96.5 -35q61 0 140 33l10 -111q-93 -33 -160 -33q-125 0 -184.5 67.5t-59.5 176.5v617h-204v110h204v273h123v-273h271zM221 -473l103 338h133l-127 -338h-109z" />
    <glyph glyph-name="dotlessj" unicode="&#x237;" 
d="M307 946v-1112q0 -78 -11.5 -134t-41 -101.5t-83.5 -68t-134 -22.5q-46 0 -98 19l18 108q50 -16 78 -16q38 0 65.5 11.5t43.5 29.5t25 46.5t12 55t3 62.5v1122h123z" />
    <glyph glyph-name="circumflex" unicode="&#x2c6;" 
d="M-47 1155l221 295h143l222 -295h-133l-166 221l-166 -221h-121z" />
    <glyph glyph-name="caron" unicode="&#x2c7;" 
d="M530 1450l-217 -295h-143l-223 295h127l170 -233l176 233h110z" />
    <glyph glyph-name="uni02C9" unicode="&#x2c9;" 
d="M516 1339v-98h-541v98h541z" />
    <glyph glyph-name="breve" unicode="&#x2d8;" 
d="M-49 1450h86q12 -79 67 -119.5t138 -40.5q94 0 143.5 35.5t69.5 124.5h86q-13 -122 -94 -190t-205 -68t-204.5 68.5t-86.5 189.5z" />
    <glyph glyph-name="dotaccent" unicode="&#x2d9;" 
d="M154 1335q0 41 28.5 70t69.5 29t69.5 -29t28.5 -70t-28.5 -69.5t-69.5 -28.5t-69.5 28.5t-28.5 69.5z" />
    <glyph glyph-name="ring" unicode="&#x2da;" 
d="M55 1329q0 80 57 137.5t136 57.5q78 0 133 -59.5t55 -137.5q0 -75 -55 -133.5t-133 -58.5q-79 0 -136 57t-57 137zM362 1329q0 52 -32.5 86.5t-83.5 34.5q-50 0 -83.5 -35.5t-33.5 -87.5q0 -51 33.5 -85t83.5 -34q51 0 83.5 34.5t32.5 86.5z" />
    <glyph glyph-name="ogonek" unicode="&#x2db;" 
d="M344 -297l39 -78q-74 -67 -174 -67q-83 0 -136 45.5t-53 122.5t50 142.5t131 131.5h92q-54 -40 -102 -109.5t-48 -138.5q0 -96 88 -96q76 0 113 47z" />
    <glyph glyph-name="tilde" unicode="&#x2dc;" 
d="M0 1190h-74q10 82 56 139q53 70 129 70q57 0 153 -51q3 -1 15 -7.5t15.5 -8t14 -7t15 -7t14 -5.5t15 -5.5t13.5 -4t14.5 -3t12.5 -0.5q41 0 65.5 28.5t33.5 70.5h73q-10 -86 -53.5 -147.5t-118.5 -61.5q-8 0 -16.5 1t-15 2t-16 3.5t-15 4t-16 5.5t-14.5 5.5t-15.5 7
t-14.5 6.5t-16 7t-14 7q-6 3 -27.5 13.5t-30.5 14.5t-25.5 10t-28.5 8.5t-24 2.5q-80 0 -104 -98z" />
    <glyph glyph-name="hungarumlaut" unicode="&#x2dd;" 
d="M-23 1155l213 295h164l-274 -295h-103zM276 1155l213 295h164l-274 -295h-103z" />
    <glyph glyph-name="uni0394" unicode="&#x394;" horiz-adv-x="1372" 
d="M1346 0h-1315l575 1458h152zM1149 127l-469 1194l-463 -1194h932z" />
    <glyph glyph-name="uni03A9" unicode="&#x3a9;" horiz-adv-x="1523" 
d="M1403 0h-514v371q182 32 279.5 161t97.5 318q0 145 -68.5 260t-186 178.5t-261.5 63.5q-218 0 -367.5 -143.5t-149.5 -358.5q0 -187 98.5 -319t278.5 -160v-371h-514v119h404v168q-188 53 -296 209t-108 356q0 134 53 251.5t142 199t209 128t252 46.5q131 0 250 -47
t207.5 -128.5t141 -198t52.5 -249.5q0 -204 -107 -360t-297 -207v-168h404v-119z" />
    <glyph glyph-name="uni03BC" unicode="&#x3bc;" horiz-adv-x="1138" 
d="M965 946v-680q0 -38 5 -141t5 -125h-123q-4 155 -8 166h-6q-39 -82 -126 -136.5t-198 -54.5q-152 0 -240 78v-520h-120v1413h122v-557q0 -303 238 -303q144 0 236 99.5t92 287.5v473h123z" />
    <glyph glyph-name="pi" unicode="&#x3c0;" horiz-adv-x="1153" 
d="M1073 92v-74q-68 -30 -119 -30q-43 0 -72 13t-44.5 31t-23.5 52t-9.5 60t-1.5 71v635h-475v-850h-107v850h-143v96h987v-96h-156v-649q0 -30 2 -48t10.5 -37.5t27.5 -28.5t50 -9q30 0 74 14z" />
    <glyph glyph-name="endash" unicode="&#x2013;" horiz-adv-x="1024" 
d="M0 430v111h1024v-111h-1024z" />
    <glyph glyph-name="emdash" unicode="&#x2014;" horiz-adv-x="2048" 
d="M0 430v111h2048v-111h-2048z" />
    <glyph glyph-name="quoteleft" unicode="&#x2018;" horiz-adv-x="532" 
d="M406 1450l-132 -467h-147l156 467h123z" />
    <glyph glyph-name="quoteright" unicode="&#x2019;" horiz-adv-x="532" 
d="M127 983l129 467h150l-158 -467h-121z" />
    <glyph glyph-name="quotesinglbase" unicode="&#x201a;" horiz-adv-x="532" 
d="M127 -283l129 467h150l-158 -467h-121z" />
    <glyph glyph-name="quotedblleft" unicode="&#x201c;" horiz-adv-x="1064" 
d="M494 1450l-129 -467h-150l158 467h121zM850 1450l-129 -467h-150l158 467h121z" />
    <glyph glyph-name="quotedblright" unicode="&#x201d;" horiz-adv-x="1064" 
d="M571 983l129 467h150l-158 -467h-121zM215 983l129 467h150l-158 -467h-121z" />
    <glyph glyph-name="quotedblbase" unicode="&#x201e;" horiz-adv-x="1064" 
d="M571 -283l129 467h150l-158 -467h-121zM215 -283l129 467h150l-158 -467h-121z" />
    <glyph glyph-name="dagger" unicode="&#x2020;" horiz-adv-x="1064" 
d="M471 -258v1202h-393v98h393v408h123v-408h393v-98h-393v-1202h-123z" />
    <glyph glyph-name="daggerdbl" unicode="&#x2021;" horiz-adv-x="1064" 
d="M471 -258v408h-393v98h393v696h-393v98h393v408h123v-408h393v-98h-393v-696h393v-98h-393v-408h-123z" />
    <glyph glyph-name="bullet" unicode="&#x2022;" horiz-adv-x="1024" 
d="M150 725q0 151 105.5 256.5t256.5 105.5t256.5 -105.5t105.5 -256.5t-105.5 -257t-256.5 -106t-256.5 106t-105.5 257z" />
    <glyph glyph-name="ellipsis" unicode="&#x2026;" horiz-adv-x="2048" 
d="M244 86q0 41 28.5 69.5t69.5 28.5t69.5 -28.5t28.5 -69.5t-28.5 -69.5t-69.5 -28.5t-69.5 28.5t-28.5 69.5zM926 86q0 41 28.5 69.5t69.5 28.5t69.5 -28.5t28.5 -69.5t-28.5 -69.5t-69.5 -28.5t-69.5 28.5t-28.5 69.5zM1608 86q0 41 28.5 69.5t69.5 28.5t69.5 -28.5
t28.5 -69.5t-28.5 -69.5t-69.5 -28.5t-69.5 28.5t-28.5 69.5z" />
    <glyph glyph-name="perthousand" unicode="&#x2030;" horiz-adv-x="2009" 
d="M627 289q0 129 92 221t221 92t221 -92t92 -221t-92 -221.5t-221 -92.5t-221 92.5t-92 221.5zM725 289q0 -89 63 -152t152 -63t152 63t63 152t-63 152t-152 63t-152 -63t-63 -152zM1329 289q0 129 92 221t221 92t221.5 -92t92.5 -221t-92.5 -221.5t-221.5 -92.5t-221 92.5
t-92 221.5zM1427 289q0 -89 63 -152t152 -63t152.5 63t63.5 152t-63.5 152t-152.5 63t-152 -63t-63 -152zM53 1161q0 129 92.5 221.5t221.5 92.5t221 -92.5t92 -221.5t-92 -221t-221 -92t-221.5 92t-92.5 221zM152 1161q0 -89 63 -152t152 -63t152 63t63 152t-63 152
t-152 63t-152 -63t-63 -152zM135 -12l934 1532l94 -58l-936 -1532z" />
    <glyph glyph-name="guilsinglleft" unicode="&#x2039;" horiz-adv-x="645" 
d="M410 70l-281 415l281 416l86 -59l-238 -357l242 -360z" />
    <glyph glyph-name="guilsinglright" unicode="&#x203a;" horiz-adv-x="645" 
d="M236 901l280 -416l-280 -415l-86 59l237 356l-242 361z" />
    <glyph glyph-name="fraction" unicode="&#x2044;" horiz-adv-x="344" 
d="M-342 -12l934 1532l94 -58l-936 -1532z" />
    <glyph glyph-name="Euro" unicode="&#x20ac;" horiz-adv-x="962" 
d="M903 1442l-33 -113q-72 37 -176 37q-142 0 -236.5 -107.5t-129.5 -314.5h456l-26 -98h-447q-8 -47 -8 -129q0 -47 4 -109h410l-23 -98h-375q25 -197 121 -309.5t238 -112.5q111 0 201 55l24 -116q-91 -60 -239 -60q-135 0 -238 70.5t-163.5 191t-82.5 281.5h-129l25 98
h98q-6 31 -6 109q0 77 8 129h-121l23 98h106q49 271 177.5 405t328.5 134q129 0 213 -41z" />
    <glyph glyph-name="afii61289" unicode="&#x2113;" horiz-adv-x="1024" 
d="M795 135l39 -49q-114 -102 -250 -102q-114 0 -181 62.5t-67 186.5v265l-129 -140l-43 58l172 168v534q0 161 71.5 253.5t180.5 92.5q95 0 154 -67.5t59 -182.5q0 -150 -86.5 -307.5t-263.5 -339.5v-311q0 -55 14.5 -94t40 -59t52.5 -28.5t58 -8.5q90 0 179 69zM709 1204
q0 86 -33.5 136.5t-87.5 50.5q-58 0 -97.5 -64t-39.5 -186v-490q127 146 192.5 288t65.5 265z" />
    <glyph glyph-name="trademark" unicode="&#x2122;" horiz-adv-x="2027" 
d="M444 606v746h-272v98h655v-98h-272v-746h-111zM979 606v844h176l266 -672l265 672h169v-844h-110v740h-4l-291 -740h-66l-290 740h-4v-740h-111z" />
    <glyph glyph-name="Omega" unicode="&#x2126;" horiz-adv-x="1523" 
d="M1403 0h-514v371q182 32 279.5 161t97.5 318q0 145 -68.5 260t-186 178.5t-261.5 63.5q-218 0 -367.5 -143.5t-149.5 -358.5q0 -187 98.5 -319t278.5 -160v-371h-514v119h404v168q-188 53 -296 209t-108 356q0 134 53 251.5t142 199t209 128t252 46.5q131 0 250 -47
t207.5 -128.5t141 -198t52.5 -249.5q0 -204 -107 -360t-297 -207v-168h404v-119z" />
    <glyph glyph-name="estimated" unicode="&#x212e;" horiz-adv-x="1024" 
d="M1149 530h-827v-370q121 -121 296 -121q129 0 223.5 58.5t172.5 187.5l71 -43q-95 -149 -201 -213t-266 -64q-157 0 -278.5 75.5t-185.5 203.5t-64 286q0 159 64 287t185.5 203.5t278.5 75.5q236 0 383.5 -158t147.5 -408zM322 604h596v297q-129 123 -302 123
q-171 0 -294 -123v-297z" />
    <glyph glyph-name="partialdiff" unicode="&#x2202;" horiz-adv-x="1015" 
d="M932 743q0 -71 -4.5 -138t-18 -145.5t-34.5 -145.5t-57 -131t-82.5 -109t-114.5 -72t-150 -27q-93 0 -171 38t-129.5 101.5t-79.5 146.5t-28 173q0 185 107.5 310.5t290.5 125.5q98 0 187 -46t153 -126q0 18 1 54t1 53q0 60 -7.5 120.5t-24 125t-45.5 119.5t-68 99
t-96 69.5t-126 25.5q-66 0 -116 -23t-113 -71l-74 88q138 119 297 119q113 0 202.5 -46.5t144.5 -119.5t91 -172.5t50 -196.5t14 -199zM791 569q-62 82 -144 134.5t-174 52.5q-133 0 -206.5 -94.5t-73.5 -231.5q0 -50 11 -99t34 -93.5t55.5 -79t79 -54.5t100.5 -20
q68 0 123 33t89 83t58 117.5t34.5 128.5t13.5 123z" />
    <glyph glyph-name="Delta" unicode="&#x2206;" horiz-adv-x="1372" 
d="M1346 0h-1315l575 1458h152zM1149 127l-469 1194l-463 -1194h932z" />
    <glyph glyph-name="product" unicode="&#x220f;" horiz-adv-x="1456" 
d="M1313 -438h-135v1921h-897v-1921h-136v2048h1168v-2048z" />
    <glyph glyph-name="summation" unicode="&#x2211;" horiz-adv-x="1236" 
d="M1184 -438h-1133v112l674 918l-645 903v115h1079v-127h-905l633 -891l-672 -905h969v-125z" />
    <glyph glyph-name="minus" unicode="&#x2212;" horiz-adv-x="1363" 
d="M160 571v99h1044v-99h-1044z" />
    <glyph glyph-name="uni2215" unicode="&#x2215;" horiz-adv-x="344" 
d="M-342 -12l934 1532l94 -58l-936 -1532z" />
    <glyph glyph-name="uni2219" unicode="&#x2219;" horiz-adv-x="532" 
d="M168 651q0 41 28.5 70t69.5 29t70 -29t29 -70t-29 -69.5t-70 -28.5t-69.5 28.5t-28.5 69.5z" />
    <glyph glyph-name="radical" unicode="&#x221a;" horiz-adv-x="1009" 
d="M1028 1610l-430 -2048h-135l-336 696l-94 -45l-49 102l204 99l324 -680l387 1876h129z" />
    <glyph glyph-name="infinity" unicode="&#x221e;" horiz-adv-x="1517" 
d="M1434 516q0 -130 -79.5 -216.5t-207.5 -86.5q-56 0 -110.5 18t-105.5 54t-87 67.5t-84 79.5q-22 -18 -69 -59t-74.5 -62t-69.5 -47.5t-85 -38.5t-91 -12q-128 0 -207.5 84t-79.5 213q0 128 78 215.5t205 87.5q43 0 86.5 -13t78.5 -32t75 -49t67.5 -55t64.5 -60
q14 -14 21 -20q9 8 46 44t50.5 48t47 41t55.5 41t54 28.5t64 22.5t66 6q129 0 210 -84.5t81 -214.5zM1317 510q0 82 -43.5 135t-126.5 53q-27 0 -57.5 -10t-53.5 -22t-56.5 -37t-49 -38.5t-50 -44.5t-42.5 -38q3 -3 29 -25.5t33 -28t31 -25.5t35 -26.5t33.5 -21.5t37.5 -21
t36 -14t40.5 -11t39.5 -3q76 0 120 50.5t44 127.5zM682 510q-108 94 -157 127q-91 59 -160 59q-75 0 -119.5 -54t-44.5 -130q0 -80 46 -130t126 -50q40 0 83.5 16t86 46t72.5 55.5t67 60.5z" />
    <glyph glyph-name="integral" unicode="&#x222b;" horiz-adv-x="1112" 
d="M831 1507q0 -34 -20.5 -51.5t-54.5 -17.5q-26 0 -43.5 13t-24 28t-16.5 28t-23 13q-20 0 -34 -19t-21.5 -52t-12 -70t-5 -80t0 -75t2 -62t1.5 -34v-1032q0 -184 -13 -267q-43 -265 -237 -265q-49 0 -86 24.5t-37 71.5q0 29 19 47.5t48 18.5q24 0 40.5 -12t24 -27
t17.5 -27t21 -12q69 0 65 315v10l2 43v1014q0 21 -1 69t-1 81t1 83.5t7.5 86.5t17 79.5t29 73t44 55.5t63 39t84.5 13q55 0 99 -25.5t44 -77.5z" />
    <glyph glyph-name="approxequal" unicode="&#x2248;" horiz-adv-x="1363" 
d="M1141 813h65q-13 -111 -73 -184.5t-166 -73.5q-96 0 -291 76q-190 74 -277 74q-68 0 -112.5 -46.5t-59.5 -117.5h-67q44 262 237 262q94 0 291 -74q191 -76 283 -76q129 0 170 160zM1141 463h65q-13 -111 -73 -184.5t-166 -73.5q-96 0 -291 76q-187 73 -277 73
q-68 0 -112.5 -46.5t-59.5 -117.5h-67q44 263 237 263q94 0 291 -74q191 -76 283 -76q129 0 170 160z" />
    <glyph glyph-name="notequal" unicode="&#x2260;" horiz-adv-x="1363" 
d="M1184 258h-582l-153 -291l-87 43l132 248h-314v98h365l153 291h-518v98h572l157 297l84 -45l-133 -252h324v-98h-375l-156 -291h531v-98z" />
    <glyph glyph-name="lessequal" unicode="&#x2264;" horiz-adv-x="1363" 
d="M1184 25h-1004v96h1004v-96zM1184 240l-1004 376v115l1004 377v-107l-883 -329l883 -328v-104z" />
    <glyph glyph-name="greaterequal" unicode="&#x2265;" horiz-adv-x="1363" 
d="M1184 616l-1004 -376v104l883 328l-883 329v107l1004 -377v-115zM1184 25h-1004v96h1004v-96z" />
    <glyph glyph-name="lozenge" unicode="&#x25ca;" horiz-adv-x="1214" 
d="M1020 729l-350 -801h-129l-346 801l346 801h129zM887 729l-281 666l-278 -666l278 -666z" />
    <glyph glyph-name="grave.cap" unicode="&#xe300;" 
d="M152 1835l213 -295h-103l-274 295h164z" />
    <glyph glyph-name="acute.cap" unicode="&#xe301;" 
d="M127 1540l213 295h164l-275 -295h-102z" />
    <glyph glyph-name="circumflex.cap" unicode="&#xe302;" 
d="M-47 1540l221 295h143l222 -295h-133l-166 221l-166 -221h-121z" />
    <glyph glyph-name="caron.cap" unicode="&#xe303;" 
d="M530 1835l-217 -295h-143l-223 295h127l170 -233l176 233h110z" />
    <glyph glyph-name="tilde.cap" unicode="&#xe304;" 
d="M0 1575h-74q10 82 56 139q53 70 129 70q57 0 153 -51q5 -2 19.5 -9.5t20.5 -10t18 -8.5t19 -8t17 -5.5t18.5 -4.5t16.5 -1q41 0 66 28t33 70h73q-8 -84 -53 -146.5t-119 -62.5q-10 0 -20.5 1.5t-19 3t-20.5 5.5t-18.5 6t-19.5 7.5t-17.5 7.5t-19.5 9.5t-18 8.5
q-6 3 -27.5 13.5t-30.5 14.5t-25.5 10t-28.5 8.5t-24 2.5q-76 0 -104 -98z" />
    <glyph glyph-name="dieresis.cap" unicode="&#xe305;" 
d="M-47 1720q0 41 28.5 70t69.5 29t70 -29t29 -70t-29 -69.5t-70 -28.5t-69.5 28.5t-28.5 69.5zM342 1720q0 41 28.5 70t69.5 29t70 -29t29 -70t-29 -69.5t-70 -28.5t-69.5 28.5t-28.5 69.5z" />
    <glyph glyph-name="macron.cap" unicode="&#xe306;" 
d="M516 1735v-99h-541v99h541z" />
    <glyph glyph-name="breve.cap" unicode="&#xe307;" 
d="M-49 1804h86q12 -79 67 -119t138 -40q95 0 144 34.5t69 124.5h86q-13 -122 -94 -190t-205 -68q-125 0 -205 68.5t-86 189.5z" />
    <glyph glyph-name="ring.cap" unicode="&#xe308;" 
d="M55 1714q0 80 57 137.5t136 57.5q78 0 133 -59.5t55 -137.5q0 -75 -55 -133.5t-133 -58.5q-79 0 -136 57t-57 137zM362 1714q0 52 -32.5 86.5t-83.5 34.5q-50 0 -83.5 -35.5t-33.5 -87.5q0 -51 33.5 -85t83.5 -34q51 0 83.5 34.5t32.5 86.5z" />
    <glyph glyph-name="hungarumlaut.cap" unicode="&#xe309;" 
d="M-23 1540l213 295h164l-274 -295h-103zM276 1540l213 295h164l-274 -295h-103z" />
    <glyph glyph-name="dotaccent.cap" unicode="&#xe30a;" 
d="M154 1720q0 41 28.5 70t69.5 29t69.5 -29t28.5 -70t-28.5 -69.5t-69.5 -28.5t-69.5 28.5t-28.5 69.5z" />
    <glyph glyph-name="caron.alt" unicode="&#xe30b;" 
d="M84 1071l104 379h134l-129 -379h-109z" />
    <glyph glyph-name="commaaccent" unicode="&#xe30c;" 
d="M86 -473l102 338h134l-127 -338h-109z" />
    <glyph glyph-name="commaaccent.alt" unicode="&#xe30d;" 
d="M381 1554l-105 -337h-133l129 337h109z" />
    <glyph glyph-name="uniF8FF" unicode="&#xf8ff;" horiz-adv-x="1048" 
d="M569 240h-114v137h114v-137zM555 479h-94l-4 35q0 115 26 166q28 54 95 121q62 58 82 94t20 76q0 73 -46 123.5t-110 50.5q-67 0 -112 -47.5t-56 -147.5l-102 17q13 142 86.5 211t189.5 69q112 0 183 -73.5t71 -194.5q0 -69 -27 -123t-102 -123q-77 -68 -88 -106
q-12 -41 -12 -148zM102 102h844v1264h-844v-1264zM0 1470h1049v-1470h-1049v1470z" />
    </font>
</defs>
</svg>
