<svg xmlns="http://www.w3.org/2000/svg">
<defs>
<font id="AvenirLTPro-Heavy" horiz-adv-x="532" >
  <font-face 
    font-family="Avenir LT Pro 55 Roman"
    font-weight="700"
    font-stretch="normal"
    units-per-em="2048"
    panose-1="2 11 7 3 2 2 3 2 2 4"
    ascent="1548"
    descent="-500"
    x-height="983"
    cap-height="1450"
    bbox="-340 -528 2376 1925"
    underline-thickness="102"
    underline-position="-307"
    unicode-range="U+000D-FB02"
  />
<missing-glyph horiz-adv-x="1048" 
d="M569 240h-114v137h114v-137zM555 479h-94l-4 35q0 115 26 166q28 54 95 121q62 58 82 94t20 76q0 73 -46 123.5t-110 50.5q-67 0 -112 -47.5t-56 -147.5l-102 17q13 142 86.5 211t189.5 69q112 0 183 -73.5t71 -194.5q0 -69 -27 -123t-102 -123q-77 -68 -88 -106
q-12 -41 -12 -148zM102 102h844v1264h-844v-1264zM0 1470h1049v-1470h-1049v1470z" />
    <glyph glyph-name="IJ" unicode="IJ" horiz-adv-x="1570" 
d="M156 0v1450h258v-1450h-258zM1419 1450v-1049q0 -88 -28 -166t-80.5 -139.5t-137 -97t-190.5 -35.5q-174 0 -283.5 83t-142.5 251l242 57q12 -71 58.5 -114t113.5 -43q105 0 147.5 70.5t42.5 209.5v973h258z" />
    <glyph glyph-name="ij" unicode="ij" horiz-adv-x="991" 
d="M143 0v983h246v-983h-246zM109 1317q0 60 44.5 103.5t110.5 43.5q68 0 114 -42t46 -105t-46 -105.5t-114 -42.5q-66 0 -110.5 44t-44.5 104zM602 983h246v-1042q0 -80 -7.5 -140t-28.5 -118t-57.5 -94.5t-96.5 -58.5t-142 -22q-75 0 -133 19l18 213q45 -10 78 -10
q30 0 52 8.5t35 26.5t20.5 35t11 46t4 45.5t0.5 47.5v1044zM567 1317q0 60 45 103.5t111 43.5q68 0 114 -42t46 -105t-46 -105.5t-114 -42.5q-66 0 -111 44t-45 104z" />
    <glyph glyph-name="napostrophe" unicode="&#x22;n" horiz-adv-x="1175" 
d="M139 0v983h234v-158h4q37 82 111.5 132.5t189.5 50.5q95 0 166.5 -31.5t112 -87t60 -122.5t19.5 -146v-621h-245v498q0 42 -2 73t-12.5 74.5t-28.5 71.5t-53.5 48.5t-84.5 20.5q-114 0 -169.5 -70.5t-55.5 -178.5v-537h-246zM-131 1044l123 406h250l-174 -406h-199z" />
    <glyph glyph-name="fi" unicode="fi" horiz-adv-x="1214" 
d="M227 0v774h-202v209h202v139q0 87 9 152t32.5 123.5t64 95.5t106 58.5t155.5 21.5q85 0 156 -14l-17 -209q-61 14 -102 14q-49 0 -82 -15.5t-48.5 -46t-21.5 -63t-6 -78.5v-178h227v-209h-227v-774h-246zM860 0v983h246v-983h-246zM827 1317q0 60 45 103.5t111 43.5
q68 0 114 -42t46 -105t-46 -105.5t-114 -42.5q-66 0 -111 44t-45 104z" />
    <glyph glyph-name="fl" unicode="fl" horiz-adv-x="1214" 
d="M227 0v774h-202v209h202v139q0 87 9 152t32.5 123.5t64 95.5t106 58.5t155.5 21.5q85 0 156 -14l-17 -209q-61 14 -102 14q-49 0 -82 -15.5t-48.5 -46t-21.5 -63t-6 -78.5v-178h227v-209h-227v-774h-246zM860 0v1548h246v-1548h-246z" />
    <glyph glyph-name=".notdef" horiz-adv-x="1048" 
d="M569 240h-114v137h114v-137zM555 479h-94l-4 35q0 115 26 166q28 54 95 121q62 58 82 94t20 76q0 73 -46 123.5t-110 50.5q-67 0 -112 -47.5t-56 -147.5l-102 17q13 142 86.5 211t189.5 69q112 0 183 -73.5t71 -194.5q0 -69 -27 -123t-102 -123q-77 -68 -88 -106
q-12 -41 -12 -148zM102 102h844v1264h-844v-1264zM0 1470h1049v-1470h-1049v1470z" />
    <glyph glyph-name=".null" horiz-adv-x="409" 
 />
    <glyph glyph-name="nonmarkingreturn" horiz-adv-x="682" 
 />
    <glyph glyph-name="CR" unicode="&#xd;" horiz-adv-x="0" 
 />
    <glyph glyph-name="space" unicode=" " horiz-adv-x="606" 
 />
    <glyph glyph-name="exclam" unicode="!" horiz-adv-x="606" 
d="M426 1450v-995h-246v995h246zM139 143q0 66 48 113t116 47q67 0 115.5 -45.5t48.5 -110.5q0 -66 -48 -112.5t-116 -46.5q-66 0 -115 45t-49 110z" />
    <glyph glyph-name="quotedbl" unicode="&#x22;" horiz-adv-x="1062" 
d="M246 909v541h209v-541h-209zM608 909v541h209v-541h-209z" />
    <glyph glyph-name="numbersign" unicode="#" horiz-adv-x="1212" 
d="M219 0l62 428h-185v172h207l37 250h-184v172h206l62 428h180l-61 -428h211l61 428h178l-61 -428h184v-172h-209l-35 -250h185v-172h-205l-64 -428h-178l62 428h-213l-62 -428h-178zM729 850h-211l-35 -250h211z" />
    <glyph glyph-name="dollar" unicode="$" horiz-adv-x="1212" 
d="M651 1610v-135h19q107 0 216 -37.5t185 -104.5l-170 -190q-48 51 -114 80.5t-136 29.5v-409l8 -2q59 -16 98.5 -28t92.5 -32t87.5 -41t72.5 -52.5t59.5 -68t36 -86t14.5 -108.5q0 -131 -64 -229.5t-168 -152t-237 -67.5v-147h-110v145q-300 -3 -478 183l187 190
q48 -66 125 -104.5t166 -46.5v432l-11 2q-78 21 -134 42t-116 55.5t-97 76.5t-61 105t-24 141q0 89 37 165.5t99 129t141 85.5t166 42v137h110zM541 874v375q-77 -13 -131 -62.5t-54 -123.5q0 -23 4.5 -42.5t10 -33.5t18.5 -27.5t22 -21.5t29 -18.5t30 -15t35.5 -15
t35.5 -15.5zM651 596v-399q92 19 151.5 72.5t59.5 138.5q0 33 -12.5 60.5t-29.5 45t-47.5 33.5t-52 24.5t-57.5 20.5q-8 3 -12 4z" />
    <glyph glyph-name="percent" unicode="%" horiz-adv-x="1857" 
d="M1034 356q0 158 111.5 269.5t269.5 111.5t269.5 -111.5t111.5 -269.5t-111.5 -269.5t-269.5 -111.5t-269.5 111.5t-111.5 269.5zM1599 356q0 77 -54 131t-130 54t-130 -54t-54 -131q0 -76 53.5 -130t130.5 -54t130.5 54t53.5 130zM61 1094q0 158 111.5 269.5t269.5 111.5
t269.5 -111.5t111.5 -269.5t-111.5 -269.5t-269.5 -111.5t-269.5 111.5t-111.5 269.5zM627 1094q0 76 -54 130t-131 54q-76 0 -130 -54t-54 -130q0 -77 54 -131t130 -54t130.5 54.5t54.5 130.5zM420 12l852 1504l170 -78l-852 -1504z" />
    <glyph glyph-name="ampersand" unicode="&#x26;" horiz-adv-x="1517" 
d="M1466 762l-290 -420l313 -342h-318l-153 166q-89 -105 -190.5 -154t-237.5 -49q-97 0 -185 28.5t-157 80.5t-109.5 134.5t-40.5 182.5q0 140 88 247t226 161q-85 94 -125.5 165t-40.5 168q0 86 34 155.5t92 112.5t132.5 66t157.5 23t155.5 -21t130 -61.5t90.5 -108
t33 -153.5q0 -122 -82 -216t-207 -159l234 -252l162 246h288zM666 1266q-72 0 -123 -41.5t-51 -104.5q0 -51 37.5 -102t99.5 -109q38 21 67 40t61.5 47t50 62t17.5 72q0 58 -46 97t-113 39zM864 328l-297 323q-45 -27 -73 -46.5t-60.5 -50.5t-48.5 -68.5t-16 -82.5
q0 -94 67.5 -156.5t161.5 -62.5q40 0 77 11.5t72 35t58.5 43.5t58.5 54z" />
    <glyph glyph-name="quotesingle" unicode="'" horiz-adv-x="606" 
d="M199 909v541h209v-541h-209z" />
    <glyph glyph-name="parenleft" unicode="(" horiz-adv-x="606" 
d="M397 1499l174 -106l-2 -9q-124 -172 -193 -378.5t-69 -415.5q0 -210 69 -417.5t193 -379.5l-172 -112q-143 198 -221 430.5t-78 478.5q0 245 78.5 478.5t220.5 430.5z" />
    <glyph glyph-name="parenright" unicode=")" horiz-adv-x="606" 
d="M209 -319l-174 106l2 8q124 172 193 379t69 416q0 210 -69 416t-193 378l172 115q143 -198 221 -430.5t78 -478.5q0 -245 -78.5 -478.5t-220.5 -430.5z" />
    <glyph glyph-name="asterisk" unicode="*" horiz-adv-x="948" 
d="M561 1450v-291l277 90l53 -164l-279 -90l176 -239l-141 -103l-176 242l-172 -236l-137 105l176 231l-281 97l54 163l278 -96v291h172z" />
    <glyph glyph-name="plus" unicode="+" horiz-adv-x="1363" 
d="M127 725h451v451h208v-451h451v-209h-451v-450h-208v450h-451v209z" />
    <glyph glyph-name="comma" unicode="," horiz-adv-x="606" 
d="M78 -258l143 541h250l-174 -541h-219z" />
    <glyph glyph-name="hyphen" unicode="-" horiz-adv-x="645" 
d="M575 608v-209h-505v209h505z" />
    <glyph glyph-name="period" unicode="." horiz-adv-x="606" 
d="M139 143q0 66 48 113t116 47q67 0 115.5 -45.5t48.5 -110.5q0 -66 -48 -112.5t-116 -46.5q-66 0 -115 45t-49 110z" />
    <glyph glyph-name="slash" unicode="/" horiz-adv-x="796" 
d="M791 1487l-639 -1585l-170 61l639 1589z" />
    <glyph glyph-name="zero" unicode="0" horiz-adv-x="1212" 
d="M82 725q0 142 21 257.5t54 191.5t80.5 133.5t93.5 88.5t100.5 50t94 24t80.5 5t80.5 -5t94 -24t100.5 -50t93.5 -88.5t80.5 -133.5t54 -191.5t21 -257.5t-21 -257.5t-54 -191.5t-80.5 -133.5t-93.5 -88.5t-100.5 -50t-94 -24t-80.5 -5t-80.5 5t-94 24t-100.5 50
t-93.5 88.5t-80.5 133.5t-54 191.5t-21 257.5zM328 725q0 -44 2.5 -86t10 -95t19.5 -98t33.5 -90t49.5 -76.5t70 -51t93 -19.5q59 0 106 25t76 69.5t49.5 95.5t30 113t13.5 111.5t4 101.5t-4 101.5t-13.5 111.5t-30 113t-49.5 95.5t-76 69.5t-106 25q-51 0 -93 -19.5
t-70 -51t-49.5 -76.5t-33.5 -90t-19.5 -98t-10 -95t-2.5 -86z" />
    <glyph glyph-name="one" unicode="1" horiz-adv-x="1212" 
d="M549 0v1167l-273 -252l-143 170l438 365h224v-1450h-246z" />
    <glyph glyph-name="two" unicode="2" horiz-adv-x="1212" 
d="M121 0v260l563 545q35 34 54 54t45 54t38.5 68t12.5 70q0 86 -61.5 138t-149.5 52q-90 0 -151 -53.5t-73 -143.5l-258 21q18 196 149 303t333 107q133 0 237 -43.5t168 -138.5t64 -230q0 -127 -57.5 -226.5t-166.5 -199.5l-448 -416h672v-221h-971z" />
    <glyph glyph-name="three" unicode="3" horiz-adv-x="1212" 
d="M455 645v221h63q48 0 84 3.5t75.5 15.5t65 32.5t42 57.5t16.5 88q0 83 -58 136.5t-149 53.5q-74 0 -132.5 -42.5t-84.5 -116.5l-260 69q31 104 101.5 175.5t162.5 104t201 32.5q128 0 231.5 -42.5t168.5 -132.5t65 -213q0 -118 -67 -208t-181 -119v-4q134 -20 208 -117.5
t74 -235.5q0 -133 -69 -232t-178.5 -147.5t-241.5 -48.5q-91 0 -169.5 19.5t-144.5 59.5t-113.5 106t-70.5 155l262 70q49 -188 236 -188q101 0 172.5 64t71.5 163q0 221 -322 221h-59z" />
    <glyph glyph-name="four" unicode="4" horiz-adv-x="1212" 
d="M686 0v295h-616v244l583 911h279v-934h211v-221h-211v-295h-246zM686 516v586h-4l-363 -586h367z" />
    <glyph glyph-name="five" unicode="5" horiz-adv-x="1212" 
d="M1034 1450v-221h-583l-7 -289q59 18 156 18q215 0 349 -131.5t134 -349.5q0 -152 -69 -267t-187.5 -175t-267.5 -60q-175 0 -297 84t-172 248l258 70q25 -80 85.5 -124t152.5 -44q110 0 181 71t71 177q0 74 -27.5 129t-75.5 87.5t-107.5 48t-129.5 15.5q-165 0 -303 -69
l14 782h825z" />
    <glyph glyph-name="six" unicode="6" horiz-adv-x="1212" 
d="M596 1450h299l-348 -537l4 -4q45 25 135 25q125 0 225.5 -63t155.5 -169t55 -231q0 -223 -145 -359.5t-371 -136.5q-230 0 -373 133.5t-143 360.5q0 106 34 198.5t101 198.5zM348 473q0 -109 77.5 -186.5t186.5 -77.5t187 77.5t78 186.5t-78 186.5t-187 77.5
t-186.5 -77.5t-77.5 -186.5z" />
    <glyph glyph-name="seven" unicode="7" horiz-adv-x="1212" 
d="M86 1217v233h985v-225l-579 -1225h-289l592 1217h-709z" />
    <glyph glyph-name="eight" unicode="8" horiz-adv-x="1212" 
d="M606 1475q192 0 318.5 -102t126.5 -279q0 -119 -57 -207t-163 -119v-4q108 -22 186.5 -122t78.5 -230q0 -139 -67 -239.5t-176 -149t-247 -48.5t-247 48.5t-175.5 149t-66.5 239.5q0 129 78.5 229t185.5 123v4q-106 31 -162.5 119t-56.5 207q0 177 126 279t318 102z
M606 1266q-91 0 -144.5 -56t-53.5 -141q0 -88 54.5 -145.5t143.5 -57.5q82 0 140.5 58.5t58.5 144.5q0 82 -57.5 139.5t-141.5 57.5zM606 670q-101 0 -172.5 -65t-71.5 -163q0 -102 69 -167.5t175 -65.5t175 65.5t69 167.5q0 98 -71.5 163t-172.5 65z" />
    <glyph glyph-name="nine" unicode="9" horiz-adv-x="1212" 
d="M616 0h-299l349 537l-4 4q-45 -25 -136 -25q-125 0 -225.5 63t-155.5 169t-55 231q0 223 145 359.5t371 136.5q230 0 373 -133.5t143 -360.5q0 -106 -34 -198.5t-101 -198.5zM864 977q0 109 -77.5 186.5t-186.5 77.5t-186.5 -77.5t-77.5 -186.5t77.5 -186.5t186.5 -77.5
t186.5 77.5t77.5 186.5z" />
    <glyph glyph-name="colon" unicode=":" horiz-adv-x="606" 
d="M139 143q0 66 48 113t116 47q67 0 115.5 -45.5t48.5 -110.5q0 -66 -48 -112.5t-116 -46.5q-66 0 -115 45t-49 110zM139 838q0 66 48 112.5t116 46.5q67 0 115.5 -45t48.5 -110q0 -66 -48 -113t-116 -47q-66 0 -115 45.5t-49 110.5z" />
    <glyph glyph-name="semicolon" unicode=";" horiz-adv-x="606" 
d="M78 -258l143 541h250l-174 -541h-219zM139 838q0 66 48 112.5t116 46.5q67 0 115.5 -45t48.5 -110q0 -66 -48 -113t-116 -47q-66 0 -115 45.5t-49 110.5z" />
    <glyph glyph-name="less" unicode="&#x3c;" horiz-adv-x="1363" 
d="M1200 86l-1036 461v147l1036 461v-225l-692 -309l692 -310v-225z" />
    <glyph glyph-name="equal" unicode="=" horiz-adv-x="1363" 
d="M127 909h1110v-209h-1110v209zM127 541h1110v-209h-1110v209z" />
    <glyph glyph-name="greater" unicode="&#x3e;" horiz-adv-x="1363" 
d="M164 1155l1036 -461v-147l-1036 -461v225l692 310l-692 309v225z" />
    <glyph glyph-name="question" unicode="?" horiz-adv-x="1062" 
d="M676 428h-246v113q0 61 12 100t31 64t68 75l157 160q52 52 52 133q0 79 -52.5 129.5t-132.5 50.5q-84 0 -140.5 -57.5t-64.5 -142.5l-262 20q23 194 151.5 304t325.5 110q190 0 311.5 -106t121.5 -294q0 -78 -31.5 -146t-63.5 -103t-104 -103l-8 -8t-8 -7.5t-9 -8.5
q-31 -29 -41.5 -39.5t-28.5 -32t-23 -37t-10 -40t-5 -56.5v-78zM389 143q0 66 48 113t116 47q67 0 115.5 -45.5t48.5 -110.5q0 -66 -48 -112.5t-116 -46.5q-66 0 -115 45t-49 110z" />
    <glyph glyph-name="at" unicode="@" horiz-adv-x="1638" 
d="M821 934q-100 0 -158.5 -71.5t-58.5 -176.5q0 -188 170 -188q56 0 96.5 22t62 59.5t31 78.5t9.5 87q0 85 -39 137t-113 52zM1264 272h225q-107 -149 -273 -229t-356 -80q-217 0 -398 96.5t-288.5 271.5t-107.5 392q0 160 62 302.5t167 243.5t249 159.5t304 58.5
q109 0 213.5 -28t197 -85t162.5 -136t111 -189t41 -236q0 -90 -19 -165t-49.5 -125.5t-72 -89.5t-83.5 -61t-87.5 -36t-79.5 -18.5t-64 -4.5q-80 0 -120 33t-42 78h-4q-107 -111 -262 -111q-132 0 -213.5 95.5t-81.5 248.5q0 121 48.5 225.5t143.5 170t218 65.5
q83 0 137 -27.5t84 -89.5h4l17 93h192l-76 -404q-18 -88 -18 -117q0 -39 12 -57t43 -18q72 0 124 78t52 227q0 160 -69 274.5t-188.5 170t-276.5 55.5q-253 0 -410.5 -163t-157.5 -417q0 -175 78.5 -307t215 -200.5t309.5 -68.5q231 0 387 125z" />
    <glyph glyph-name="A" unicode="A" horiz-adv-x="1478" 
d="M0 0l631 1450h223l625 -1450h-295l-135 332h-629l-131 -332h-289zM508 553h450l-223 590z" />
    <glyph glyph-name="B" unicode="B" horiz-adv-x="1327" 
d="M162 0v1450h565q86 0 162.5 -20.5t141 -62.5t102.5 -114.5t38 -167.5q0 -120 -67.5 -201t-183.5 -116v-4q137 -15 225 -113t88 -237q0 -91 -31 -163.5t-83 -118.5t-124 -76.5t-148.5 -43t-162.5 -12.5h-522zM420 1229v-369h235q126 0 192 49t66 133q0 95 -67.5 141
t-212.5 46h-213zM420 639v-418h237q318 0 318 213q0 112 -73.5 158.5t-233.5 46.5h-248z" />
    <glyph glyph-name="C" unicode="C" horiz-adv-x="1402" 
d="M1358 1257l-201 -147q-134 143 -305 143q-146 0 -260.5 -69t-176 -187t-61.5 -262q0 -234 138 -386t360 -152q189 0 326 176l213 -152q-95 -131 -235 -194.5t-306 -63.5q-221 0 -395.5 94t-272.5 266.5t-98 395.5q0 229 98.5 404.5t272 269.5t395.5 94q310 0 508 -230z
" />
    <glyph glyph-name="D" unicode="D" horiz-adv-x="1554" 
d="M162 0v1450h571q116 0 223 -27.5t201 -86.5t163.5 -143t109.5 -204t40 -264q0 -143 -46.5 -265t-123.5 -205t-177.5 -142t-207 -86t-213.5 -27h-540zM420 233h192q125 0 229 28t186 85.5t127.5 154t45.5 224.5q0 129 -40.5 225t-114.5 153.5t-171.5 85.5t-218.5 28h-235
v-984z" />
    <glyph glyph-name="E" unicode="E" horiz-adv-x="1251" 
d="M162 0v1450h960v-233h-702v-357h665v-233h-665v-394h739v-233h-997z" />
    <glyph glyph-name="F" unicode="F" horiz-adv-x="1175" 
d="M162 0v1450h936v-233h-678v-381h639v-234h-639v-602h-258z" />
    <glyph glyph-name="G" unicode="G" horiz-adv-x="1593" 
d="M1450 848v-742q-268 -143 -600 -143q-221 0 -395.5 94t-272.5 266.5t-98 395.5q0 229 98.5 404.5t272 269.5t395.5 94q366 0 571 -182l-190 -193q-68 67 -168.5 104t-210.5 37q-146 0 -260.5 -69t-176 -187t-61.5 -262q0 -234 138 -386t360 -152q208 0 340 75v342h-297
v234h555z" />
    <glyph glyph-name="H" unicode="H" horiz-adv-x="1517" 
d="M162 0v1450h258v-578h678v578h258v-1450h-258v639h-678v-639h-258z" />
    <glyph glyph-name="I" unicode="I" horiz-adv-x="569" 
d="M156 0v1450h258v-1450h-258z" />
    <glyph glyph-name="J" unicode="J" horiz-adv-x="1024" 
d="M872 1450v-1049q0 -88 -28 -166t-80.5 -139.5t-137 -97t-190.5 -35.5q-174 0 -283.5 83t-142.5 251l242 57q12 -71 58.5 -114t113.5 -43q105 0 147.5 70.5t42.5 209.5v973h258z" />
    <glyph glyph-name="K" unicode="K" horiz-adv-x="1402" 
d="M162 0v1450h258v-614h12l600 614h348l-678 -670l723 -780h-362l-629 713h-14v-713h-258z" />
    <glyph glyph-name="L" unicode="L" horiz-adv-x="1062" 
d="M162 0v1450h258v-1217h616v-233h-874z" />
    <glyph glyph-name="M" unicode="M" horiz-adv-x="1896" 
d="M168 0v1450h393l387 -1016l391 1016h390v-1450h-246v1204h-4l-441 -1204h-180l-440 1204h-4v-1204h-246z" />
    <glyph glyph-name="N" unicode="N" horiz-adv-x="1630" 
d="M162 0v1450h342l702 -1077h4v1077h258v-1450h-327l-717 1112h-4v-1112h-258z" />
    <glyph glyph-name="O" unicode="O" horiz-adv-x="1705" 
d="M84 719q0 229 98.5 404.5t272 269.5t395.5 94q168 3 311.5 -50.5t245 -152t158.5 -242t57 -315.5q0 -223 -98 -396t-273.5 -268.5t-400.5 -99.5q-221 0 -395.5 94t-272.5 266.5t-98 395.5zM354 735q0 -234 138 -386t360 -152q223 0 361.5 152t138.5 386q0 144 -61.5 262
t-176.5 187t-262 69q-146 0 -260.5 -69t-176 -187t-61.5 -262z" />
    <glyph glyph-name="P" unicode="P" horiz-adv-x="1251" 
d="M162 0v1450h487q88 0 164 -12.5t145.5 -43t118.5 -77.5t78 -120t29 -167q0 -89 -21 -158.5t-61.5 -115.5t-91.5 -77.5t-120 -48.5t-136 -23.5t-150 -6.5h-184v-600h-258zM420 821h155q39 0 65.5 1t65 5.5t65 12t55.5 23t46.5 36.5t29 53.5t11.5 73.5q0 63 -27.5 106
t-76.5 63t-96.5 27t-108.5 7h-184v-408z" />
    <glyph glyph-name="Q" unicode="Q" horiz-adv-x="1744" 
d="M1718 209v-209h-844q-169 0 -314 52.5t-250.5 148.5t-165.5 239t-60 316q0 156 61 293t164.5 232.5t243 150.5t293.5 55t293.5 -55t243 -150.5t164.5 -232.5t61 -293q0 -87 -19 -165t-48 -134.5t-71 -105t-82 -80.5t-85 -58v-4h415zM840 1253q-210 0 -348 -143t-138 -360
q0 -223 139 -370t351 -147q215 0 354 147t139 370q0 218 -139.5 360.5t-357.5 142.5z" />
    <glyph glyph-name="R" unicode="R" horiz-adv-x="1290" 
d="M162 0v1450h504q88 0 163.5 -11.5t146.5 -41t120.5 -75.5t79.5 -119.5t30 -168.5q0 -159 -88.5 -264.5t-247.5 -128.5l385 -641h-311l-336 614h-188v-614h-258zM420 836h201q43 0 74 2t71 8t67.5 19.5t52.5 35t37.5 56t12.5 79.5q0 50 -18.5 86t-46 56.5t-68.5 32
t-77.5 15t-82.5 3.5h-223v-393z" />
    <glyph glyph-name="S" unicode="S" horiz-adv-x="1175" 
d="M1061 1337l-189 -198q-40 56 -107.5 85t-146.5 29q-99 0 -168 -46.5t-69 -139.5q0 -46 23.5 -81t63.5 -58t91.5 -41.5t108.5 -37t114 -39.5t108.5 -53.5t91.5 -75t63.5 -107.5t23.5 -148q0 -113 -42.5 -203t-116 -146t-168 -85t-203.5 -29q-143 0 -267 48t-209 149
l195 188q47 -71 123.5 -111t163.5 -40q99 0 176.5 52.5t77.5 145.5q0 50 -23.5 88.5t-63.5 62.5t-91.5 44t-108.5 38t-114 39t-108.5 53t-91.5 74t-63.5 107t-23.5 148q0 108 45.5 194t121.5 138t170 79t197 27q256 0 416 -150z" />
    <glyph glyph-name="T" unicode="T" horiz-adv-x="1175" 
d="M459 0v1217h-445v233h1147v-233h-444v-1217h-258z" />
    <glyph glyph-name="U" unicode="U" horiz-adv-x="1478" 
d="M1323 1450v-918q0 -171 -77 -301.5t-209 -199t-298 -68.5t-298 68.5t-208.5 199t-76.5 301.5v918h258v-909q0 -45 9.5 -89.5t33.5 -89t60 -78t93.5 -54.5t128.5 -21q88 0 154.5 31t102 82t52.5 106t17 113v909h258z" />
    <glyph glyph-name="V" unicode="V" horiz-adv-x="1366" 
d="M563 0l-569 1450h297l395 -1096l408 1096h278l-586 -1450h-223z" />
    <glyph glyph-name="W" unicode="W" horiz-adv-x="2009" 
d="M428 0l-428 1450h283l272 -1044h4l326 1044h254l319 -1044h4l285 1044h262l-422 -1450h-246l-335 1104h-5l-335 -1104h-238z" />
    <glyph glyph-name="X" unicode="X" horiz-adv-x="1402" 
d="M0 0l516 758l-483 692h325l342 -537l338 537h314l-475 -692l526 -758h-328l-383 612l-381 -612h-311z" />
    <glyph glyph-name="Y" unicode="Y" horiz-adv-x="1290" 
d="M516 0v621l-545 829h324l356 -578l361 578h307l-545 -829v-621h-258z" />
    <glyph glyph-name="Z" unicode="Z" horiz-adv-x="1251" 
d="M72 0v233l774 984h-762v233h1083v-233l-780 -984h793v-233h-1108z" />
    <glyph glyph-name="bracketleft" unicode="[" horiz-adv-x="569" 
d="M528 1499v-160h-184v-1499h184v-159h-393v1818h393z" />
    <glyph glyph-name="backslash" unicode="\" horiz-adv-x="796" 
d="M6 1487l170 65l639 -1589l-170 -61z" />
    <glyph glyph-name="bracketright" unicode="]" horiz-adv-x="569" 
d="M41 -319v159h184v1499h-184v160h393v-1818h-393z" />
    <glyph glyph-name="asciicircum" unicode="^" horiz-adv-x="1363" 
d="M383 702h-242l457 748h168l457 -748h-242l-301 490z" />
    <glyph glyph-name="underscore" unicode="_" horiz-adv-x="1024" 
d="M1024 -256h-1024v102h1024v-102z" />
    <glyph glyph-name="grave" unicode="`" 
d="M160 1450l202 -295h-192l-289 295h279z" />
    <glyph glyph-name="a" unicode="a" horiz-adv-x="1099" 
d="M754 0v135h-6q-101 -160 -316 -160q-94 0 -173.5 32t-132 101t-52.5 162q0 66 22 119t56.5 88.5t88 61t104.5 39.5t117.5 22t117 10t112.5 2h62v27q0 88 -62 136t-164 48q-152 0 -262 -102l-129 129q155 158 418 158q68 0 125 -11t97.5 -28t73 -45.5t52.5 -54t35 -63
t22 -64t10.5 -66t4 -59t0.5 -52.5v-565h-221zM739 385v55h-51q-369 0 -369 -151q0 -63 52.5 -96t120.5 -33q123 0 185 59.5t62 165.5z" />
    <glyph glyph-name="b" unicode="b" horiz-adv-x="1290" 
d="M139 0v1548h246v-690h6q121 150 334 150q208 0 341.5 -147.5t133.5 -368.5q0 -146 -57 -262.5t-168.5 -185.5t-259.5 -69q-107 0 -196.5 43t-141.5 129h-4v-147h-234zM954 492q0 121 -79 207.5t-209 86.5t-209.5 -86.5t-79.5 -207.5t79.5 -208t209.5 -87t209 87t79 208z
" />
    <glyph glyph-name="c" unicode="c" horiz-adv-x="987" 
d="M981 858l-170 -170q-95 98 -186 98q-130 0 -209.5 -86.5t-79.5 -207.5t79.5 -208t209.5 -87q120 0 190 92l164 -176q-68 -68 -172 -103t-182 -35q-148 0 -269.5 64t-193.5 183t-72 270t72 270t193.5 182.5t269.5 63.5q99 0 193.5 -37.5t162.5 -112.5z" />
    <glyph glyph-name="d" unicode="d" horiz-adv-x="1290" 
d="M918 0v147h-5q-52 -86 -141.5 -129t-196.5 -43q-148 0 -259.5 69t-168.5 185.5t-57 262.5q0 221 133.5 368.5t341.5 147.5q213 0 334 -150h6v690h246v-1548h-233zM336 492q0 -121 79.5 -208t209.5 -87t209 87t79 208t-79 207.5t-209 86.5t-209.5 -86.5t-79.5 -207.5z" />
    <glyph glyph-name="e" unicode="e" horiz-adv-x="1175" 
d="M1085 406h-749q12 -107 85.5 -170.5t178.5 -63.5q157 0 264 133l176 -133q-161 -197 -415 -197q-148 0 -269.5 64t-193.5 183t-72 270t72 270t193.5 182.5t269.5 63.5q209 0 334.5 -141.5t125.5 -393.5v-67zM336 590h504q-2 108 -68.5 170.5t-181.5 62.5
q-107 0 -173.5 -62.5t-80.5 -170.5z" />
    <glyph glyph-name="f" unicode="f" horiz-adv-x="720" 
d="M227 0v774h-202v209h202v139q0 87 9 152t32.5 123.5t64 95.5t106 58.5t155.5 21.5q85 0 156 -14l-17 -209q-61 14 -102 14q-49 0 -82 -15.5t-48.5 -46t-21.5 -63t-6 -78.5v-178h227v-209h-227v-774h-246z" />
    <glyph glyph-name="g" unicode="g" horiz-adv-x="1290" 
d="M918 983h233v-895q0 -274 -138 -427t-417 -153q-304 0 -487 162l147 201q77 -70 158 -105.5t180 -35.5q169 0 240 85.5t71 243.5v72h-4q-52 -70 -138.5 -106.5t-182.5 -36.5q-144 0 -257 68t-173 182.5t-60 253.5q0 224 131.5 370t353.5 146q107 0 196.5 -43t141.5 -129
h5v147zM627 786q-129 0 -210 -81t-81 -211q0 -118 83 -201.5t206 -83.5q134 0 213.5 81.5t79.5 207.5q0 129 -79.5 208.5t-211.5 79.5z" />
    <glyph glyph-name="h" unicode="h" horiz-adv-x="1175" 
d="M385 1548v-702h4q32 68 107 115t182 47q95 0 166.5 -31.5t112 -87t60 -122.5t19.5 -146v-621h-245v498q0 42 -2 73t-12.5 74.5t-28.5 71.5t-53.5 48.5t-84.5 20.5q-114 0 -169.5 -70.5t-55.5 -178.5v-537h-246v1548h246z" />
    <glyph glyph-name="i" unicode="i" 
d="M143 0v983h246v-983h-246zM109 1317q0 60 44.5 103.5t110.5 43.5q68 0 114 -42t46 -105t-46 -105.5t-114 -42.5q-66 0 -110.5 44t-44.5 104z" />
    <glyph glyph-name="j" unicode="j" 
d="M143 983h246v-1042q0 -80 -7.5 -140t-28.5 -118t-57.5 -94.5t-96.5 -58.5t-142 -22q-75 0 -133 19l19 213q45 -10 77 -10q30 0 52 8.5t35 26.5t20.5 35t11 46t4 45.5t0.5 47.5v1044zM109 1317q0 60 44.5 103.5t110.5 43.5q68 0 114 -42t46 -105t-46 -105.5t-114 -42.5
q-66 0 -110.5 44t-44.5 104z" />
    <glyph glyph-name="k" unicode="k" horiz-adv-x="1099" 
d="M139 0v1548h246v-973l379 408h315l-422 -446l449 -537h-326l-391 502h-4v-502h-246z" />
    <glyph glyph-name="l" unicode="l" 
d="M143 0v1548h246v-1548h-246z" />
    <glyph glyph-name="m" unicode="m" horiz-adv-x="1781" 
d="M129 0v983h233v-154h5q36 78 111.5 128.5t189.5 50.5q231 0 307 -183q105 183 323 183q77 0 137.5 -21.5t101 -59t67 -91.5t38 -115.5t11.5 -134.5v-586h-246v557q0 229 -182 229q-107 0 -159 -73.5t-52 -180.5v-532h-246v586q0 200 -168 200q-114 0 -169.5 -70.5
t-55.5 -178.5v-537h-246z" />
    <glyph glyph-name="n" unicode="n" horiz-adv-x="1175" 
d="M139 0v983h234v-158h4q37 82 111.5 132.5t189.5 50.5q95 0 166.5 -31.5t112 -87t60 -122.5t19.5 -146v-621h-245v498q0 42 -2 73t-12.5 74.5t-28.5 71.5t-53.5 48.5t-84.5 20.5q-114 0 -169.5 -70.5t-55.5 -178.5v-537h-246z" />
    <glyph glyph-name="o" unicode="o" horiz-adv-x="1249" 
d="M90 492q0 151 72 270t193.5 182.5t269.5 63.5t269.5 -64t193 -182.5t71.5 -269.5t-71.5 -270t-193 -183t-269.5 -64t-269.5 64t-193.5 183t-72 270zM336 492q0 -121 79.5 -208t209.5 -87t209 87t79 208t-79 207.5t-209 86.5t-209.5 -86.5t-79.5 -207.5z" />
    <glyph glyph-name="p" unicode="p" horiz-adv-x="1290" 
d="M139 -467v1450h234v-147h4q52 86 141.5 129t196.5 43q222 0 353.5 -146t131.5 -370q0 -221 -133.5 -369t-341.5 -148q-213 0 -334 150h-6v-592h-246zM954 492q0 121 -79 207.5t-209 86.5t-209.5 -86.5t-79.5 -207.5t79.5 -208t209.5 -87t209 87t79 208z" />
    <glyph glyph-name="q" unicode="q" horiz-adv-x="1290" 
d="M1151 983v-1450h-246v592h-6q-121 -150 -334 -150q-208 0 -341.5 148t-133.5 369q0 224 131.5 370t353.5 146q107 0 196.5 -43t141.5 -129h5v147h233zM336 492q0 -121 79.5 -208t209.5 -87t209 87t79 208t-79 207.5t-209 86.5t-209.5 -86.5t-79.5 -207.5z" />
    <glyph glyph-name="r" unicode="r" horiz-adv-x="796" 
d="M139 0v983h246v-156h4q40 85 117 133t174 48q34 0 88 -15v-237q-74 18 -119 18q-65 0 -115.5 -21t-77.5 -50.5t-44 -66.5t-22 -63.5t-5 -46.5v-526h-246z" />
    <glyph glyph-name="s" unicode="s" horiz-adv-x="909" 
d="M827 858l-163 -147q-71 100 -193 100q-56 0 -99.5 -26.5t-43.5 -77.5q0 -31 23 -52.5t60 -32.5t84.5 -23t97.5 -22.5t97.5 -32.5t84.5 -51.5t60 -81t23 -120.5q0 -84 -37.5 -147t-100 -99t-134.5 -53t-152 -17q-248 0 -383 152l164 154q53 -59 107.5 -90t126.5 -31
q62 0 112.5 29t50.5 83q0 36 -23 61t-60 37t-84.5 24.5t-97.5 22t-97.5 30t-84.5 48.5t-60 78t-23 117q0 79 33.5 141.5t90 100t125.5 57t146 19.5q107 0 200 -36.5t150 -113.5z" />
    <glyph glyph-name="t" unicode="t" horiz-adv-x="796" 
d="M227 774h-202v209h202v285h246v-285h270v-209h-270v-430q0 -80 30 -120t107 -40q91 0 133 31v-207q-67 -33 -194 -33q-96 0 -159.5 21.5t-99 67.5t-49.5 107.5t-14 152.5v450z" />
    <glyph glyph-name="u" unicode="u" horiz-adv-x="1175" 
d="M1036 983v-983h-233v158h-4q-37 -82 -111.5 -132.5t-189.5 -50.5q-95 0 -166.5 31.5t-112.5 87t-60.5 122.5t-19.5 146v621h246v-498q0 -34 1.5 -59.5t6.5 -62.5t17.5 -63.5t31.5 -51.5t50.5 -38t72.5 -13q114 0 170 70.5t56 178.5v537h245z" />
    <glyph glyph-name="v" unicode="v" horiz-adv-x="1062" 
d="M408 0l-402 983h268l263 -688h4l264 688h252l-387 -983h-262z" />
    <glyph glyph-name="w" unicode="w" horiz-adv-x="1630" 
d="M348 0l-342 983h266l213 -688h4l199 688h266l213 -688h4l205 688h248l-334 -983h-243l-234 672h-4l-207 -672h-254z" />
    <glyph glyph-name="x" unicode="x" horiz-adv-x="1099" 
d="M-2 0l395 528l-340 455h299l197 -295l213 295h280l-335 -455l395 -528h-299l-256 352l-258 -352h-291z" />
    <glyph glyph-name="y" unicode="y" horiz-adv-x="1062" 
d="M426 -8l-420 991h270l275 -682h4l246 682h256l-465 -1194q-29 -73 -59 -122t-73.5 -86.5t-103 -55t-139.5 -17.5q-93 0 -188 25l30 221q67 -24 125 -24q86 0 124 31.5t71 113.5z" />
    <glyph glyph-name="z" unicode="z" horiz-adv-x="987" 
d="M70 0v227l526 555v4h-502v197h799v-223l-533 -563h558v-197h-848z" />
    <glyph glyph-name="braceleft" unicode="{" horiz-adv-x="569" 
d="M0 500v180q26 0 55 6.5t62 21t54.5 44.5t21.5 71v406q0 65 28 119t70 85.5t85.5 48.5t78.5 17h186v-172h-113q-41 0 -68.5 -13t-39 -37t-15.5 -45t-4 -48v-385q-1 -46 -16 -82t-36 -57.5t-50 -37t-52 -21.5t-46 -9v-4q26 -2 46.5 -6.5t51 -18.5t51 -36t35.5 -63t16 -95
v-373q0 -27 4 -48t15.5 -45t39 -37t68.5 -13h113v-172h-186q-35 0 -78.5 17t-85.5 48.5t-70 85.5t-28 119v391q0 45 -21.5 78.5t-54.5 49.5t-62.5 23t-54.5 7z" />
    <glyph glyph-name="bar" unicode="|" horiz-adv-x="454" 
d="M123 1536h209v-2048h-209v2048z" />
    <glyph glyph-name="braceright" unicode="}" horiz-adv-x="569" 
d="M569 680v-180q-25 0 -54.5 -6.5t-62 -21t-54 -45t-21.5 -71.5v-405q0 -65 -28 -119t-70 -85.5t-85.5 -48.5t-78.5 -17h-187v172h113q41 0 68.5 13t39 37t15.5 45t4 48v385q1 46 16 82t36.5 57.5t50.5 37t52 21.5t46 9v4q-26 2 -47 6.5t-51 18.5t-51 36t-36 63t-16 95v373
q0 27 -4 48t-15.5 45t-39 37t-68.5 13h-113v172h187q35 0 78.5 -17t85.5 -48.5t70 -85.5t28 -119v-391q0 -45 21.5 -78.5t54 -49.5t62 -23t54.5 -7z" />
    <glyph glyph-name="asciitilde" unicode="~" horiz-adv-x="1363" 
d="M1083 788l74 -172q-23 -32 -38.5 -52t-41 -46.5t-49.5 -41t-57 -25.5t-70 -11q-84 0 -209 68q-128 72 -235 72q-63 0 -103 -39t-73 -101l-74 172q92 176 250 176q92 0 237 -65q15 -6 44.5 -19.5t47 -21t40.5 -16.5t41.5 -13t33.5 -4q28 0 53 10.5t47.5 31.5t37.5 39
t36 47q5 7 8 11z" />
    <glyph glyph-name="uni00A0" unicode="&#xa0;" horiz-adv-x="606" 
 />
    <glyph glyph-name="exclamdown" unicode="&#xa1;" horiz-adv-x="606" 
d="M180 -455v998h246v-998h-246zM467 852q0 -66 -48 -113t-116 -47q-67 0 -115.5 45.5t-48.5 110.5q0 66 48 113t116 47q66 0 115 -45.5t49 -110.5z" />
    <glyph glyph-name="cent" unicode="&#xa2;" horiz-adv-x="1212" 
d="M725 1145v-137q235 -7 348 -142l-158 -159q-83 86 -190 92v-615q55 0 108 26t91 69l149 -162q-63 -69 -154.5 -104t-193.5 -38v-147h-111v147q-207 18 -330.5 163t-123.5 356q0 213 121.5 349.5t332.5 164.5v137h111zM614 184v613q-110 -22 -165.5 -104.5t-55.5 -200.5
q0 -111 58 -196t163 -112z" />
    <glyph glyph-name="sterling" unicode="&#xa3;" horiz-adv-x="1212" 
d="M135 0v197h209v448h-209v172h209v205q0 63 16.5 125t54 122t91 105.5t134.5 73t179 27.5q113 0 215.5 -33.5t175.5 -98.5l-166 -178q-94 88 -217 88q-109 0 -173 -74.5t-64 -177.5v-184h332v-172h-332v-448h518v-197h-973z" />
    <glyph glyph-name="currency" unicode="&#xa4;" horiz-adv-x="1212" 
d="M197 195l-123 122l100 101q-100 137 -100 309q0 169 100 309l-100 101l123 120l100 -98q138 98 309 98t309 -98l101 98l123 -120l-101 -101q101 -138 101 -309q0 -168 -101 -309l101 -101l-123 -122l-101 100q-137 -100 -309 -100q-173 0 -309 100zM307 727
q0 -141 81.5 -226t217.5 -85t217.5 85t81.5 226t-81.5 225t-217.5 84t-217.5 -84t-81.5 -225z" />
    <glyph glyph-name="yen" unicode="&#xa5;" horiz-adv-x="1212" 
d="M483 0v362h-348v160h348v99l-39 69h-309v160h221l-331 600h276l317 -602l306 602h264l-332 -600h221v-160h-309l-39 -69v-99h348v-160h-348v-362h-246z" />
    <glyph glyph-name="brokenbar" unicode="&#xa6;" horiz-adv-x="454" 
d="M123 1382h209v-716h-209v716zM123 358h209v-716h-209v716z" />
    <glyph glyph-name="section" unicode="&#xa7;" horiz-adv-x="1214" 
d="M1030 1280l-215 -121q-21 60 -74.5 95.5t-119.5 35.5q-68 0 -117 -34.5t-49 -100.5q0 -46 34 -83t88 -64t119.5 -54t131 -60.5t119.5 -74t88 -104t34 -142.5q0 -83 -48.5 -154.5t-125.5 -107.5q125 -92 125 -243q0 -72 -27 -132.5t-72 -102.5t-104.5 -71.5t-123.5 -43
t-130 -13.5q-341 0 -454 252l219 106q21 -72 86.5 -110.5t146.5 -38.5q75 0 132 32.5t57 100.5q0 40 -26.5 73.5t-69.5 56t-98.5 47.5t-113 47t-113 54.5t-98.5 69t-69.5 93t-26.5 124.5q0 197 197 303q-135 85 -135 234q0 82 36.5 148t96.5 106.5t133 62t151 21.5
q134 0 248 -50t168 -157zM543 489l198 -92q38 21 66.5 62.5t28.5 81.5q0 21 -4.5 39.5t-16 34t-20.5 26.5t-28.5 24t-29.5 19t-34.5 19t-32.5 18l-183 86q-59 -28 -88.5 -58t-29.5 -85q0 -29 12 -54t25.5 -40.5t43 -33.5t44 -24.5t49.5 -22.5z" />
    <glyph glyph-name="dieresis" unicode="&#xa8;" 
d="M-102 1303q0 60 44.5 103.5t110.5 43.5q68 0 114 -42t46 -105t-46 -105.5t-114 -42.5q-66 0 -110.5 44t-44.5 104zM319 1303q0 60 45 103.5t111 43.5q68 0 114 -42t46 -105t-46 -105.5t-114 -42.5q-66 0 -111 44t-45 104z" />
    <glyph glyph-name="copyright" unicode="&#xa9;" horiz-adv-x="1638" 
d="M1012 608h192q-21 -149 -123 -232t-241 -83q-188 0 -298 124t-110 314q0 194 106 312t298 118q144 0 245 -76.5t123 -220.5h-192q-24 125 -160 125q-113 0 -168 -68.5t-55 -185.5q0 -119 57.5 -194.5t161.5 -75.5q70 0 115 34t49 109zM57 725q0 155 60.5 296t162.5 243
t243 162.5t296 60.5t296 -60.5t243 -162.5t162.5 -243t60.5 -296t-60.5 -296t-162.5 -243t-243 -162.5t-296 -60.5t-296 60.5t-243 162.5t-162.5 243t-60.5 296zM254 725q0 -122 44 -231t119.5 -188t180 -125t221.5 -46t221.5 46t180 125t119.5 188t44 231t-44 231
t-119.5 188t-180 125t-221.5 46t-221.5 -46t-180 -125t-119.5 -188t-44 -231z" />
    <glyph glyph-name="ordfeminine" unicode="&#xaa;" horiz-adv-x="714" 
d="M498 883v80h-4q-29 -47 -87.5 -70t-123.5 -23q-31 0 -65.5 8t-73 26t-63 56t-24.5 91q0 40 14.5 72t37 53t58 36.5t68.5 23.5t77.5 12.5t76.5 5.5t74 1h35v17q0 34 -39 50.5t-103 16.5q-92 0 -170 -65l-88 108q106 93 283 93q146 0 211 -60t65 -186v-346h-159zM489 1133
h-57q-203 0 -203 -76q0 -29 31 -46.5t72 -17.5q157 0 157 127v13z" />
    <glyph glyph-name="guillemotleft" unicode="&#xab;" horiz-adv-x="1062" 
d="M526 862l-235 -354l237 -358l-155 -105l-312 463l312 459zM983 862l-235 -354l237 -358l-156 -105l-311 463l311 459z" />
    <glyph glyph-name="logicalnot" unicode="&#xac;" horiz-adv-x="1363" 
d="M1028 301v399h-901v209h1110v-608h-209z" />
    <glyph glyph-name="uni00AD" unicode="&#xad;" horiz-adv-x="645" 
d="M575 608v-209h-505v209h505z" />
    <glyph glyph-name="registered" unicode="&#xae;" horiz-adv-x="1638" 
d="M526 334v799h256q361 0 361 -236q0 -101 -55 -168.5t-125 -77.5l204 -317h-215l-182 307h-47v-307h-197zM721 973v-172h96q20 0 33 1t33 5.5t32 13t21.5 25.5t9.5 41q0 29 -12.5 48t-35 26.5t-40 9.5t-41.5 2h-96zM57 725q0 155 60.5 296t162.5 243t243 162.5t296 60.5
t296 -60.5t243 -162.5t162.5 -243t60.5 -296t-60.5 -296t-162.5 -243t-243 -162.5t-296 -60.5t-296 60.5t-243 162.5t-162.5 243t-60.5 296zM254 725q0 -122 44 -231t119.5 -188t180 -125t221.5 -46t221.5 46t180 125t119.5 188t44 231t-44 231t-119.5 188t-180 125
t-221.5 46t-221.5 -46t-180 -125t-119.5 -188t-44 -231z" />
    <glyph glyph-name="macron" unicode="&#xaf;" 
d="M594 1378v-159h-655v159h655z" />
    <glyph glyph-name="degree" unicode="&#xb0;" horiz-adv-x="819" 
d="M82 1147q0 135 96.5 231.5t231.5 96.5t231 -96.5t96 -231.5t-96 -231.5t-231 -96.5t-231.5 96.5t-96.5 231.5zM242 1147q0 -69 49.5 -118.5t118.5 -49.5t118.5 49.5t49.5 118.5t-49.5 118.5t-118.5 49.5t-118.5 -49.5t-49.5 -118.5z" />
    <glyph glyph-name="plusminus" unicode="&#xb1;" horiz-adv-x="1363" 
d="M580 883v293h208v-293h449v-209h-449v-293h-208v293h-453v209h453zM127 66v208h1110v-208h-1110z" />
    <glyph glyph-name="twosuperior" unicode="&#xb2;" horiz-adv-x="788" 
d="M63 592v194l369 312q1 1 12 11t13.5 12t12 11t13 13l10.5 12t9.5 13.5t6.5 12.5t5.5 13.5t1.5 13.5q0 40 -32.5 60t-82.5 20q-54 0 -89 -31.5t-38 -78.5l-196 12q9 141 98.5 212t235.5 71q140 0 226.5 -68t86.5 -195q0 -133 -119 -223l-287 -221v-4h406v-172h-662z" />
    <glyph glyph-name="threesuperior" unicode="&#xb3;" horiz-adv-x="788" 
d="M299 958v172h66q65 0 104 20t39 73q0 32 -29.5 49.5t-79.5 17.5q-47 0 -81 -24t-44 -66l-211 41q55 234 336 234q134 0 226 -61t92 -173q0 -73 -42.5 -125t-119.5 -65v-4q82 -10 130 -68.5t48 -136.5q0 -126 -97 -194t-243 -68q-284 0 -338 241l211 45q19 -102 127 -102
q131 0 131 98q0 27 -10.5 46t-25 28.5t-41.5 14.5t-47 6t-54 1h-47z" />
    <glyph glyph-name="acute" unicode="&#xb4;" 
d="M170 1155l203 295h278l-289 -295h-192z" />
    <glyph glyph-name="mu" unicode="&#xb5;" horiz-adv-x="1175" 
d="M139 983h246v-498q0 -34 1.5 -59.5t6.5 -62.5t17.5 -63.5t31.5 -51.5t50.5 -38t72.5 -13q114 0 170 70.5t56 178.5v537h245v-983h-233v158h-4q-37 -82 -111.5 -132.5t-189.5 -50.5q-63 0 -113 15v-457h-246v1450z" />
    <glyph glyph-name="paragraph" unicode="&#xb6;" horiz-adv-x="1228" 
d="M504 -258v950q-197 0 -319 105t-122 268q0 198 127 291.5t351 93.5h551v-1708h-185v1561h-219v-1561h-184z" />
    <glyph glyph-name="periodcentered" unicode="&#xb7;" horiz-adv-x="606" 
d="M139 596q0 66 48 113t116 47q67 0 115.5 -45.5t48.5 -110.5q0 -66 -48 -113t-116 -47q-66 0 -115 45.5t-49 110.5z" />
    <glyph glyph-name="cedilla" unicode="&#xb8;" 
d="M449 0l-87 -123q43 0 73 -2.5t66 -12t57.5 -27t36.5 -50t15 -78.5q0 -53 -26.5 -93.5t-70 -62.5t-90.5 -32.5t-97 -10.5q-114 0 -217 58l45 94q77 -41 168 -41q43 0 79.5 20t36.5 66q0 36 -33 55t-71 19q-29 0 -76 -15l-55 52l127 184h119z" />
    <glyph glyph-name="onesuperior" unicode="&#xb9;" horiz-adv-x="788" 
d="M367 592v649l-172 -154l-113 136l307 239h186v-870h-208z" />
    <glyph glyph-name="ordmasculine" unicode="&#xba;" horiz-adv-x="813" 
d="M403 870q-145 0 -244 85t-96 216q0 133 97.5 218.5t242.5 85.5q147 0 247 -85.5t100 -218.5q0 -132 -100 -216.5t-247 -84.5zM403 1018q81 0 128 47.5t47 105.5q0 60 -47 108t-128 48q-80 0 -126 -48t-46 -108q0 -59 46 -106t126 -47z" />
    <glyph glyph-name="guillemotright" unicode="&#xbb;" horiz-adv-x="1062" 
d="M537 150l235 354l-237 358l155 105l311 -463l-311 -459zM80 150l235 354l-237 358l155 105l312 -463l-312 -459z" />
    <glyph glyph-name="onequarter" unicode="&#xbc;" horiz-adv-x="1820" 
d="M1444 0v174h-406v160l385 536h230v-524h108v-172h-108v-174h-209zM1444 346v275l-2 4l-195 -279h197zM344 592v649l-172 -154l-113 136l308 239h186v-870h-209zM377 12l852 1504l170 -78l-852 -1504z" />
    <glyph glyph-name="onehalf" unicode="&#xbd;" horiz-adv-x="1820" 
d="M350 592v649l-172 -154l-112 136l307 239h186v-870h-209zM1096 0v195l366 311q1 1 12 11t13.5 12t12 11t13 13l10.5 12t9.5 13.5t6.5 12.5t5.5 13.5t1.5 13.5q0 40 -32 60t-82 20q-54 0 -89 -31.5t-38 -78.5l-197 12q9 141 98.5 212t235.5 71q140 0 226.5 -68t86.5 -194
q0 -134 -119 -224l-286 -221v-4h405v-172h-659zM381 12l852 1504l170 -78l-852 -1504z" />
    <glyph glyph-name="threequarters" unicode="&#xbe;" horiz-adv-x="1820" 
d="M1464 322v364h-4l-241 -360v-4h245zM1458 0v174h-405v160l385 536h229v-524h107v-172h-107v-174h-209zM291 958v172h65q144 0 144 93q0 32 -29.5 49.5t-79.5 17.5q-47 0 -81 -24t-44 -66l-211 41q55 234 336 234q134 0 226 -61t92 -173q0 -73 -42.5 -125t-119.5 -65v-4
q82 -10 130 -68.5t48 -136.5q0 -126 -97 -194t-243 -68q-284 0 -338 241l211 45q19 -102 127 -102q131 0 131 98q0 27 -10.5 46t-25 28.5t-41.5 14.5t-47 6t-54 1h-47zM432 12l852 1504l170 -78l-852 -1504z" />
    <glyph glyph-name="questiondown" unicode="&#xbf;" horiz-adv-x="1062" 
d="M387 567h246v-112q0 -87 -21 -128.5t-90 -111.5l-157 -160q-52 -52 -52 -133q0 -79 52.5 -129.5t132.5 -50.5q84 0 140 57.5t64 143.5l263 -21q-23 -193 -152 -303.5t-326 -110.5q-189 0 -310.5 106t-121.5 294q0 78 32 146.5t64 104t104 103.5l8 8t7.5 7t8.5 8
q32 31 41.5 40t28 31t23.5 37t10 39.5t5 56.5v78zM674 852q0 -66 -48 -113t-116 -47q-67 0 -115.5 45.5t-48.5 110.5q0 66 48 113t116 47q66 0 115 -45.5t49 -110.5z" />
    <glyph glyph-name="Agrave" unicode="&#xc0;" horiz-adv-x="1478" 
d="M0 0l631 1450h223l625 -1450h-295l-135 332h-629l-131 -332h-289zM508 553h450l-223 590zM633 1843l203 -295h-193l-289 295h279z" />
    <glyph glyph-name="Aacute" unicode="&#xc1;" horiz-adv-x="1478" 
d="M0 0l631 1450h223l625 -1450h-295l-135 332h-629l-131 -332h-289zM508 553h450l-223 590zM643 1548l203 295h278l-288 -295h-193z" />
    <glyph glyph-name="Acircumflex" unicode="&#xc2;" horiz-adv-x="1478" 
d="M0 0l631 1450h223l625 -1450h-295l-135 332h-629l-131 -332h-289zM508 553h450l-223 590zM1112 1548h-233l-142 185l-141 -185h-229l235 295h277z" />
    <glyph glyph-name="Atilde" unicode="&#xc3;" horiz-adv-x="1478" 
d="M0 0l631 1450h223l625 -1450h-295l-135 332h-629l-131 -332h-289zM508 553h450l-223 590zM498 1556h-136q10 54 25 96.5t40.5 82t67.5 61t97 21.5q60 0 163.5 -38t131.5 -38q68 0 94 86h135q-10 -55 -24.5 -97t-40 -81t-67.5 -60.5t-97 -21.5q-60 0 -163.5 39t-131.5 39
q-67 0 -94 -89z" />
    <glyph glyph-name="Adieresis" unicode="&#xc4;" horiz-adv-x="1478" 
d="M0 0l631 1450h223l625 -1450h-295l-135 332h-629l-131 -332h-289zM508 553h450l-223 590zM371 1696q0 61 44 104t111 43q68 0 114 -42t46 -105t-46 -105.5t-114 -42.5q-66 0 -110.5 43.5t-44.5 104.5zM793 1696q0 61 44 104t111 43q68 0 114 -42t46 -105t-46 -105.5
t-114 -42.5q-66 0 -110.5 43.5t-44.5 104.5z" />
    <glyph glyph-name="Aring" unicode="&#xc5;" horiz-adv-x="1478" 
d="M0 0l631 1450h223l625 -1450h-295l-135 332h-629l-131 -332h-289zM508 553h450l-223 590zM954 1714q0 -92 -61 -150.5t-154 -58.5t-154 58t-61 149t61.5 151t153.5 60q93 0 154 -58.5t61 -150.5zM856 1714q0 47 -34.5 79t-82.5 32t-82 -32t-34 -79t34 -78.5t82 -31.5
q49 0 83 31t34 79z" />
    <glyph glyph-name="AE" unicode="&#xc6;" horiz-adv-x="2048" 
d="M1083 0v381h-548l-234 -381h-313l927 1450h1016v-233h-590v-357h553v-233h-553v-394h615v-233h-873zM670 602h413v615h-30z" />
    <glyph glyph-name="Ccedilla" unicode="&#xc7;" horiz-adv-x="1402" 
d="M1358 1257l-201 -147q-134 143 -305 143q-146 0 -260.5 -69t-176 -187t-61.5 -262q0 -234 138 -386t360 -152q189 0 326 176l213 -152q-94 -129 -231.5 -192.5t-301.5 -65.5l-59 -86q43 0 73 -2.5t66 -12t57.5 -27t36.5 -50t15 -78.5q0 -53 -26.5 -93.5t-70.5 -62.5
t-91 -32.5t-97 -10.5q-114 0 -217 58l45 94q77 -41 168 -41q43 0 79.5 20t36.5 66q0 36 -33 55t-71 19q-29 0 -76 -15l-55 52l104 153q-296 34 -477.5 237.5t-181.5 512.5q0 229 98.5 404.5t272 269.5t395.5 94q310 0 508 -230z" />
    <glyph glyph-name="Egrave" unicode="&#xc8;" horiz-adv-x="1251" 
d="M162 0v1450h960v-233h-702v-357h665v-233h-665v-394h739v-233h-997zM520 1843l203 -295h-193l-288 295h278z" />
    <glyph glyph-name="Eacute" unicode="&#xc9;" horiz-adv-x="1251" 
d="M162 0v1450h960v-233h-702v-357h665v-233h-665v-394h739v-233h-997zM530 1548l203 295h279l-289 -295h-193z" />
    <glyph glyph-name="Ecircumflex" unicode="&#xca;" horiz-adv-x="1251" 
d="M162 0v1450h960v-233h-702v-357h665v-233h-665v-394h739v-233h-997zM999 1548h-233l-141 185l-142 -185h-229l235 295h277z" />
    <glyph glyph-name="Edieresis" unicode="&#xcb;" horiz-adv-x="1251" 
d="M162 0v1450h960v-233h-702v-357h665v-233h-665v-394h739v-233h-997zM258 1696q0 61 44.5 104t111.5 43q68 0 113.5 -42t45.5 -105t-45.5 -105.5t-113.5 -42.5q-67 0 -111.5 43.5t-44.5 104.5zM680 1696q0 61 44.5 104t111.5 43q68 0 113.5 -42t45.5 -105t-45.5 -105.5
t-113.5 -42.5q-67 0 -111.5 43.5t-44.5 104.5z" />
    <glyph glyph-name="Igrave" unicode="&#xcc;" horiz-adv-x="569" 
d="M156 0v1450h258v-1450h-258zM178 1843l203 -295h-193l-288 295h278z" />
    <glyph glyph-name="Iacute" unicode="&#xcd;" horiz-adv-x="569" 
d="M156 0v1450h258v-1450h-258zM188 1548l203 295h279l-289 -295h-193z" />
    <glyph glyph-name="Icircumflex" unicode="&#xce;" horiz-adv-x="569" 
d="M156 0v1450h258v-1450h-258zM657 1548h-233l-141 185l-142 -185h-229l235 295h277z" />
    <glyph glyph-name="Idieresis" unicode="&#xcf;" horiz-adv-x="569" 
d="M156 0v1450h258v-1450h-258zM-84 1696q0 61 44.5 104t111.5 43q68 0 113.5 -42t45.5 -105t-45.5 -105.5t-113.5 -42.5q-67 0 -111.5 43.5t-44.5 104.5zM338 1696q0 61 44.5 104t111.5 43q68 0 113.5 -42t45.5 -105t-45.5 -105.5t-113.5 -42.5q-67 0 -111.5 43.5
t-44.5 104.5z" />
    <glyph glyph-name="Eth" unicode="&#xd0;" horiz-adv-x="1554" 
d="M162 0v664h-135v172h135v614h571q116 0 223 -27.5t201 -86.5t163.5 -143t109.5 -204t40 -264q0 -143 -46.5 -265t-123.5 -205t-177.5 -142t-207 -86t-213.5 -27h-540zM420 233h192q125 0 229 28t186 85.5t127.5 154t45.5 224.5q0 129 -40.5 225t-114.5 153.5t-171.5 85.5
t-218.5 28h-235v-381h442v-172h-442v-431z" />
    <glyph glyph-name="Ntilde" unicode="&#xd1;" horiz-adv-x="1630" 
d="M162 0v1450h342l702 -1077h4v1077h258v-1450h-327l-717 1112h-4v-1112h-258zM573 1556h-135q10 54 25 96.5t40.5 82t67.5 61t97 21.5q60 0 163.5 -38t131.5 -38q68 0 94 86h135q-10 -55 -24.5 -97t-40 -81t-67.5 -60.5t-97 -21.5q-60 0 -163.5 39t-131.5 39
q-68 0 -95 -89z" />
    <glyph glyph-name="Ograve" unicode="&#xd2;" horiz-adv-x="1705" 
d="M84 719q0 229 98.5 404.5t272 269.5t395.5 94q168 3 311.5 -50.5t245 -152t158.5 -242t57 -315.5q0 -223 -98 -396t-273.5 -268.5t-400.5 -99.5q-221 0 -395.5 94t-272.5 266.5t-98 395.5zM354 735q0 -234 138 -386t360 -152q223 0 361.5 152t138.5 386q0 144 -61.5 262
t-176.5 187t-262 69q-146 0 -260.5 -69t-176 -187t-61.5 -262zM748 1843l202 -295h-192l-289 295h279z" />
    <glyph glyph-name="Oacute" unicode="&#xd3;" horiz-adv-x="1705" 
d="M84 719q0 229 98.5 404.5t272 269.5t395.5 94q168 3 311.5 -50.5t245 -152t158.5 -242t57 -315.5q0 -223 -98 -396t-273.5 -268.5t-400.5 -99.5q-221 0 -395.5 94t-272.5 266.5t-98 395.5zM354 735q0 -234 138 -386t360 -152q223 0 361.5 152t138.5 386q0 144 -61.5 262
t-176.5 187t-262 69q-146 0 -260.5 -69t-176 -187t-61.5 -262zM758 1548l203 295h278l-289 -295h-192z" />
    <glyph glyph-name="Ocircumflex" unicode="&#xd4;" horiz-adv-x="1705" 
d="M84 719q0 229 98.5 404.5t272 269.5t395.5 94q168 3 311.5 -50.5t245 -152t158.5 -242t57 -315.5q0 -223 -98 -396t-273.5 -268.5t-400.5 -99.5q-221 0 -395.5 94t-272.5 266.5t-98 395.5zM354 735q0 -234 138 -386t360 -152q223 0 361.5 152t138.5 386q0 144 -61.5 262
t-176.5 187t-262 69q-146 0 -260.5 -69t-176 -187t-61.5 -262zM1227 1548h-234l-141 185l-141 -185h-230l236 295h276z" />
    <glyph glyph-name="Otilde" unicode="&#xd5;" horiz-adv-x="1705" 
d="M84 719q0 229 98.5 404.5t272 269.5t395.5 94q168 3 311.5 -50.5t245 -152t158.5 -242t57 -315.5q0 -223 -98 -396t-273.5 -268.5t-400.5 -99.5q-221 0 -395.5 94t-272.5 266.5t-98 395.5zM354 735q0 -234 138 -386t360 -152q223 0 361.5 152t138.5 386q0 144 -61.5 262
t-176.5 187t-262 69q-146 0 -260.5 -69t-176 -187t-61.5 -262zM612 1556h-135q10 54 25 96.5t40.5 82t67.5 61t97 21.5q60 0 163 -38t131 -38q69 0 95 86h135q-10 -54 -25 -96.5t-40.5 -81.5t-67.5 -60.5t-97 -21.5q-60 0 -163 39t-131 39q-68 0 -95 -89z" />
    <glyph glyph-name="Odieresis" unicode="&#xd6;" horiz-adv-x="1705" 
d="M84 719q0 229 98.5 404.5t272 269.5t395.5 94q168 3 311.5 -50.5t245 -152t158.5 -242t57 -315.5q0 -223 -98 -396t-273.5 -268.5t-400.5 -99.5q-221 0 -395.5 94t-272.5 266.5t-98 395.5zM354 735q0 -234 138 -386t360 -152q223 0 361.5 152t138.5 386q0 144 -61.5 262
t-176.5 187t-262 69q-146 0 -260.5 -69t-176 -187t-61.5 -262zM485 1696q0 61 44.5 104t111.5 43q68 0 114 -42t46 -105t-46 -105.5t-114 -42.5q-67 0 -111.5 43.5t-44.5 104.5zM907 1696q0 61 44.5 104t111.5 43q68 0 114 -42t46 -105t-46 -105.5t-114 -42.5
q-67 0 -111.5 43.5t-44.5 104.5z" />
    <glyph glyph-name="multiply" unicode="&#xd7;" horiz-adv-x="1363" 
d="M307 1141l375 -375l373 373l143 -144l-371 -370l379 -381l-151 -152l-375 371l-371 -371l-151 150l379 372l-377 381z" />
    <glyph glyph-name="Oslash" unicode="&#xd8;" horiz-adv-x="1705" 
d="M449 403l696 758q-128 92 -293 92q-146 0 -260.5 -69t-176 -187t-61.5 -262q0 -187 95 -332zM1241 1067l-700 -764q131 -106 311 -106q223 0 361.5 152t138.5 386q0 199 -111 332zM1499 1546l100 -88l-176 -192q199 -208 199 -539q0 -223 -98 -396t-273.5 -268.5
t-400.5 -99.5q-282 0 -483 152l-174 -189l-103 88l178 193q-184 206 -184 512q0 229 98.5 404.5t272 269.5t395.5 94q267 6 471 -133z" />
    <glyph glyph-name="Ugrave" unicode="&#xd9;" horiz-adv-x="1478" 
d="M1323 1450v-918q0 -171 -77 -301.5t-209 -199t-298 -68.5t-298 68.5t-208.5 199t-76.5 301.5v918h258v-909q0 -45 9.5 -89.5t33.5 -89t60 -78t93.5 -54.5t128.5 -21q88 0 154.5 31t102 82t52.5 106t17 113v909h258zM633 1843l203 -295h-193l-289 295h279z" />
    <glyph glyph-name="Uacute" unicode="&#xda;" horiz-adv-x="1478" 
d="M1323 1450v-918q0 -171 -77 -301.5t-209 -199t-298 -68.5t-298 68.5t-208.5 199t-76.5 301.5v918h258v-909q0 -45 9.5 -89.5t33.5 -89t60 -78t93.5 -54.5t128.5 -21q88 0 154.5 31t102 82t52.5 106t17 113v909h258zM643 1548l203 295h278l-288 -295h-193z" />
    <glyph glyph-name="Ucircumflex" unicode="&#xdb;" horiz-adv-x="1478" 
d="M1323 1450v-918q0 -171 -77 -301.5t-209 -199t-298 -68.5t-298 68.5t-208.5 199t-76.5 301.5v918h258v-909q0 -45 9.5 -89.5t33.5 -89t60 -78t93.5 -54.5t128.5 -21q88 0 154.5 31t102 82t52.5 106t17 113v909h258zM1112 1548h-233l-142 185l-141 -185h-229l235 295h277z
" />
    <glyph glyph-name="Udieresis" unicode="&#xdc;" horiz-adv-x="1478" 
d="M1323 1450v-918q0 -171 -77 -301.5t-209 -199t-298 -68.5t-298 68.5t-208.5 199t-76.5 301.5v918h258v-909q0 -45 9.5 -89.5t33.5 -89t60 -78t93.5 -54.5t128.5 -21q88 0 154.5 31t102 82t52.5 106t17 113v909h258zM371 1696q0 61 44 104t111 43q68 0 114 -42t46 -105
t-46 -105.5t-114 -42.5q-66 0 -110.5 43.5t-44.5 104.5zM793 1696q0 61 44 104t111 43q68 0 114 -42t46 -105t-46 -105.5t-114 -42.5q-66 0 -110.5 43.5t-44.5 104.5z" />
    <glyph glyph-name="Yacute" unicode="&#xdd;" horiz-adv-x="1290" 
d="M516 0v621l-545 829h324l356 -578l361 578h307l-545 -829v-621h-258zM549 1548l203 295h278l-289 -295h-192z" />
    <glyph glyph-name="Thorn" unicode="&#xde;" horiz-adv-x="1251" 
d="M162 0v1450h258v-281h229q88 0 164 -12.5t145.5 -42.5t118.5 -77t78 -120t29 -167q0 -77 -16.5 -139t-44.5 -106.5t-71 -77.5t-90.5 -53.5t-108.5 -33t-120 -17t-129 -4.5h-184v-319h-258zM420 541h155q39 0 65.5 1t65 5t64.5 12t55.5 23t47 36t29 53.5t11.5 73.5
q0 63 -27.5 106t-76.5 63t-96.5 27t-108.5 7h-184v-407z" />
    <glyph glyph-name="germandbls" unicode="&#xdf;" horiz-adv-x="1251" 
d="M115 0v1047q0 275 120 400.5t371 125.5q122 0 221 -41t161.5 -129t62.5 -209q0 -113 -56.5 -197t-160.5 -127v-4q158 -21 242.5 -137t84.5 -283q0 -210 -134.5 -340.5t-346.5 -130.5q-90 0 -172 23v207q49 -21 113 -21q131 0 212.5 77t81.5 206q0 141 -85 217t-226 76
h-29v209h17q93 0 153 51.5t60 140.5q0 83 -60.5 137t-146.5 54q-118 0 -178 -68.5t-60 -179.5v-1104h-245z" />
    <glyph glyph-name="agrave" unicode="&#xe0;" horiz-adv-x="1099" 
d="M754 0v135h-6q-101 -160 -316 -160q-94 0 -173.5 32t-132 101t-52.5 162q0 66 22 119t56.5 88.5t88 61t104.5 39.5t117.5 22t117 10t112.5 2h62v27q0 88 -62 136t-164 48q-152 0 -262 -102l-129 129q155 158 418 158q68 0 125 -11t97.5 -28t73 -45.5t52.5 -54t35 -63
t22 -64t10.5 -66t4 -59t0.5 -52.5v-565h-221zM739 385v55h-51q-369 0 -369 -151q0 -63 52.5 -96t120.5 -33q123 0 185 59.5t62 165.5zM444 1450l203 -295h-192l-289 295h278z" />
    <glyph glyph-name="aacute" unicode="&#xe1;" horiz-adv-x="1099" 
d="M754 0v135h-6q-101 -160 -316 -160q-94 0 -173.5 32t-132 101t-52.5 162q0 66 22 119t56.5 88.5t88 61t104.5 39.5t117.5 22t117 10t112.5 2h62v27q0 88 -62 136t-164 48q-152 0 -262 -102l-129 129q155 158 418 158q68 0 125 -11t97.5 -28t73 -45.5t52.5 -54t35 -63
t22 -64t10.5 -66t4 -59t0.5 -52.5v-565h-221zM739 385v55h-51q-369 0 -369 -151q0 -63 52.5 -96t120.5 -33q123 0 185 59.5t62 165.5zM455 1155l202 295h279l-289 -295h-192z" />
    <glyph glyph-name="acircumflex" unicode="&#xe2;" horiz-adv-x="1099" 
d="M754 0v135h-6q-101 -160 -316 -160q-94 0 -173.5 32t-132 101t-52.5 162q0 66 22 119t56.5 88.5t88 61t104.5 39.5t117.5 22t117 10t112.5 2h62v27q0 88 -62 136t-164 48q-152 0 -262 -102l-129 129q155 158 418 158q68 0 125 -11t97.5 -28t73 -45.5t52.5 -54t35 -63
t22 -64t10.5 -66t4 -59t0.5 -52.5v-565h-221zM739 385v55h-51q-369 0 -369 -151q0 -63 52.5 -96t120.5 -33q123 0 185 59.5t62 165.5zM924 1155h-234l-141 184l-141 -184h-230l236 295h276z" />
    <glyph glyph-name="atilde" unicode="&#xe3;" horiz-adv-x="1099" 
d="M754 0v135h-6q-101 -160 -316 -160q-94 0 -173.5 32t-132 101t-52.5 162q0 66 22 119t56.5 88.5t88 61t104.5 39.5t117.5 22t117 10t112.5 2h62v27q0 88 -62 136t-164 48q-152 0 -262 -102l-129 129q155 158 418 158q68 0 125 -11t97.5 -28t73 -45.5t52.5 -54t35 -63
t22 -64t10.5 -66t4 -59t0.5 -52.5v-565h-221zM739 385v55h-51q-369 0 -369 -151q0 -63 52.5 -96t120.5 -33q123 0 185 59.5t62 165.5zM309 1163h-135q10 55 24.5 97t40 81t67.5 60.5t97 21.5q61 0 164.5 -37.5t130.5 -37.5q68 0 95 86h135q-10 -54 -25 -96.5t-40.5 -81.5
t-67.5 -60.5t-97 -21.5q-61 0 -164.5 38.5t-130.5 38.5q-67 0 -94 -88z" />
    <glyph glyph-name="adieresis" unicode="&#xe4;" horiz-adv-x="1099" 
d="M754 0v135h-6q-101 -160 -316 -160q-94 0 -173.5 32t-132 101t-52.5 162q0 66 22 119t56.5 88.5t88 61t104.5 39.5t117.5 22t117 10t112.5 2h62v27q0 88 -62 136t-164 48q-152 0 -262 -102l-129 129q155 158 418 158q68 0 125 -11t97.5 -28t73 -45.5t52.5 -54t35 -63
t22 -64t10.5 -66t4 -59t0.5 -52.5v-565h-221zM739 385v55h-51q-369 0 -369 -151q0 -63 52.5 -96t120.5 -33q123 0 185 59.5t62 165.5zM182 1303q0 60 45 103.5t111 43.5q68 0 114 -42t46 -105t-46 -105.5t-114 -42.5q-66 0 -111 44t-45 104zM604 1303q0 60 45 103.5
t111 43.5q68 0 114 -42t46 -105t-46 -105.5t-114 -42.5q-66 0 -111 44t-45 104z" />
    <glyph glyph-name="aring" unicode="&#xe5;" horiz-adv-x="1099" 
d="M754 0v135h-6q-101 -160 -316 -160q-94 0 -173.5 32t-132 101t-52.5 162q0 66 22 119t56.5 88.5t88 61t104.5 39.5t117.5 22t117 10t112.5 2h62v27q0 88 -62 136t-164 48q-152 0 -262 -102l-129 129q155 158 418 158q68 0 125 -11t97.5 -28t73 -45.5t52.5 -54t35 -63
t22 -64t10.5 -66t4 -59t0.5 -52.5v-565h-221zM739 385v55h-51q-369 0 -369 -151q0 -63 52.5 -96t120.5 -33q123 0 185 59.5t62 165.5zM766 1341q0 -92 -61 -150t-154 -58t-154 58t-61 148q0 91 61.5 151t153.5 60q93 0 154 -58.5t61 -150.5zM668 1341q0 47 -34.5 79
t-82.5 32t-82.5 -32t-34.5 -79t34.5 -78.5t82.5 -31.5q49 0 83 31t34 79z" />
    <glyph glyph-name="ae" unicode="&#xe6;" horiz-adv-x="1744" 
d="M1671 485v-67h-717q-4 -112 74.5 -185t165.5 -73q155 0 262 133l170 -121q-154 -197 -432 -197q-119 0 -215 49.5t-152 127.5q-113 -175 -395 -175q-67 0 -129.5 18t-114.5 52.5t-83 92.5t-31 132q0 169 119.5 243.5t355.5 74.5h201q0 109 -57.5 172t-164.5 63
q-152 0 -262 -102l-129 129q155 158 418 158q90 3 179 -34.5t147 -111.5q133 147 317 144q116 0 207.5 -41t149 -112.5t87 -165.5t29.5 -204zM489 162q118 0 189.5 69.5t71.5 161.5v25h-123q-308 0 -308 -129q0 -44 30 -74t66.5 -41.5t73.5 -11.5zM958 590h476
q-6 106 -69 169.5t-169 63.5q-100 0 -166 -65.5t-72 -167.5z" />
    <glyph glyph-name="ccedilla" unicode="&#xe7;" horiz-adv-x="987" 
d="M981 858l-170 -170q-95 98 -186 98q-130 0 -209.5 -86.5t-79.5 -207.5t79.5 -208t209.5 -87q120 0 190 92l164 -176q-67 -67 -170 -102.5t-180 -35.5l-70 -98q43 0 73 -2.5t66 -12t57.5 -27t36.5 -50t15 -78.5q0 -53 -26.5 -93.5t-70.5 -62.5t-91 -32.5t-97 -10.5
q-114 0 -217 58l45 94q77 -41 168 -41q26 0 50.5 6.5t45.5 27t21 52.5q0 36 -33 55t-72 19q-28 0 -75 -15l-56 52l117 170q-187 33 -306.5 170.5t-119.5 335.5q0 151 72 270t193.5 182.5t269.5 63.5q99 0 193.5 -37.5t162.5 -112.5z" />
    <glyph glyph-name="egrave" unicode="&#xe8;" horiz-adv-x="1175" 
d="M1085 406h-749q12 -107 85.5 -170.5t178.5 -63.5q157 0 264 133l176 -133q-161 -197 -415 -197q-148 0 -269.5 64t-193.5 183t-72 270t72 270t193.5 182.5t269.5 63.5q209 0 334.5 -141.5t125.5 -393.5v-67zM336 590h504q-2 108 -68.5 170.5t-181.5 62.5
q-107 0 -173.5 -62.5t-80.5 -170.5zM481 1450l203 -295h-192l-289 295h278z" />
    <glyph glyph-name="eacute" unicode="&#xe9;" horiz-adv-x="1175" 
d="M1085 406h-749q12 -107 85.5 -170.5t178.5 -63.5q157 0 264 133l176 -133q-161 -197 -415 -197q-148 0 -269.5 64t-193.5 183t-72 270t72 270t193.5 182.5t269.5 63.5q209 0 334.5 -141.5t125.5 -393.5v-67zM336 590h504q-2 108 -68.5 170.5t-181.5 62.5
q-107 0 -173.5 -62.5t-80.5 -170.5zM492 1155l202 295h279l-289 -295h-192z" />
    <glyph glyph-name="ecircumflex" unicode="&#xea;" horiz-adv-x="1175" 
d="M1085 406h-749q12 -107 85.5 -170.5t178.5 -63.5q157 0 264 133l176 -133q-161 -197 -415 -197q-148 0 -269.5 64t-193.5 183t-72 270t72 270t193.5 182.5t269.5 63.5q209 0 334.5 -141.5t125.5 -393.5v-67zM336 590h504q-2 108 -68.5 170.5t-181.5 62.5
q-107 0 -173.5 -62.5t-80.5 -170.5zM961 1155h-234l-141 184l-142 -184h-229l236 295h276z" />
    <glyph glyph-name="edieresis" unicode="&#xeb;" horiz-adv-x="1175" 
d="M1085 406h-749q12 -107 85.5 -170.5t178.5 -63.5q157 0 264 133l176 -133q-161 -197 -415 -197q-148 0 -269.5 64t-193.5 183t-72 270t72 270t193.5 182.5t269.5 63.5q209 0 334.5 -141.5t125.5 -393.5v-67zM336 590h504q-2 108 -68.5 170.5t-181.5 62.5
q-107 0 -173.5 -62.5t-80.5 -170.5zM219 1303q0 60 45 103.5t111 43.5q68 0 114 -42t46 -105t-46 -105.5t-114 -42.5q-66 0 -111 44t-45 104zM641 1303q0 60 45 103.5t111 43.5q68 0 113.5 -42t45.5 -105t-45.5 -105.5t-113.5 -42.5q-66 0 -111 44t-45 104z" />
    <glyph glyph-name="igrave" unicode="&#xec;" 
d="M143 0v983h246v-983h-246zM184 1450l203 -295h-192l-289 295h278z" />
    <glyph glyph-name="iacute" unicode="&#xed;" 
d="M143 0v983h246v-983h-246zM147 1155l203 295h279l-289 -295h-193z" />
    <glyph glyph-name="icircumflex" unicode="&#xee;" 
d="M143 0v983h246v-983h-246zM639 1155h-233l-142 184l-141 -184h-229l235 295h277z" />
    <glyph glyph-name="idieresis" unicode="&#xef;" 
d="M143 0v983h246v-983h-246zM-102 1303q0 60 44.5 103.5t110.5 43.5q68 0 114 -42t46 -105t-46 -105.5t-114 -42.5q-66 0 -110.5 44t-44.5 104zM319 1303q0 60 45 103.5t111 43.5q68 0 114 -42t46 -105t-46 -105.5t-114 -42.5q-66 0 -111 44t-45 104z" />
    <glyph glyph-name="eth" unicode="&#xf0;" horiz-adv-x="1249" 
d="M905 1573l131 -115l-239 -110q362 -395 362 -781q0 -265 -139 -428.5t-395 -163.5q-148 0 -269.5 64t-193.5 183t-72 270q0 150 71 269.5t188 183t255 63.5q153 0 234 -78l4 4q-80 130 -258 311l-6 6l-218 -100l-122 117l219 102q-22 23 -89.5 77.5t-68.5 55.5l205 119
q53 -41 174 -154zM625 197q130 0 209 87t79 208t-79 207.5t-209 86.5t-209.5 -86.5t-79.5 -207.5t79.5 -208t209.5 -87z" />
    <glyph glyph-name="ntilde" unicode="&#xf1;" horiz-adv-x="1175" 
d="M139 0v983h234v-158h4q37 82 111.5 132.5t189.5 50.5q95 0 166.5 -31.5t112 -87t60 -122.5t19.5 -146v-621h-245v498q0 42 -2 73t-12.5 74.5t-28.5 71.5t-53.5 48.5t-84.5 20.5q-114 0 -169.5 -70.5t-55.5 -178.5v-537h-246zM346 1163h-135q10 55 24.5 97t40 81
t67.5 60.5t97 21.5q61 0 164.5 -37.5t130.5 -37.5q67 0 94 86h136q-10 -54 -25 -96.5t-40.5 -81.5t-67.5 -60.5t-97 -21.5q-61 0 -164.5 38.5t-130.5 38.5q-67 0 -94 -88z" />
    <glyph glyph-name="ograve" unicode="&#xf2;" horiz-adv-x="1249" 
d="M90 492q0 151 72 270t193.5 182.5t269.5 63.5t269.5 -64t193 -182.5t71.5 -269.5t-71.5 -270t-193 -183t-269.5 -64t-269.5 64t-193.5 183t-72 270zM336 492q0 -121 79.5 -208t209.5 -87t209 87t79 208t-79 207.5t-209 86.5t-209.5 -86.5t-79.5 -207.5zM518 1450
l203 -295h-193l-288 295h278z" />
    <glyph glyph-name="oacute" unicode="&#xf3;" horiz-adv-x="1249" 
d="M90 492q0 151 72 270t193.5 182.5t269.5 63.5t269.5 -64t193 -182.5t71.5 -269.5t-71.5 -270t-193 -183t-269.5 -64t-269.5 64t-193.5 183t-72 270zM336 492q0 -121 79.5 -208t209.5 -87t209 87t79 208t-79 207.5t-209 86.5t-209.5 -86.5t-79.5 -207.5zM528 1155l203 295
h279l-289 -295h-193z" />
    <glyph glyph-name="ocircumflex" unicode="&#xf4;" horiz-adv-x="1249" 
d="M90 492q0 151 72 270t193.5 182.5t269.5 63.5t269.5 -64t193 -182.5t71.5 -269.5t-71.5 -270t-193 -183t-269.5 -64t-269.5 64t-193.5 183t-72 270zM336 492q0 -121 79.5 -208t209.5 -87t209 87t79 208t-79 207.5t-209 86.5t-209.5 -86.5t-79.5 -207.5zM997 1155h-233
l-141 184l-142 -184h-229l235 295h277z" />
    <glyph glyph-name="otilde" unicode="&#xf5;" horiz-adv-x="1249" 
d="M90 492q0 151 72 270t193.5 182.5t269.5 63.5t269.5 -64t193 -182.5t71.5 -269.5t-71.5 -270t-193 -183t-269.5 -64t-269.5 64t-193.5 183t-72 270zM336 492q0 -121 79.5 -208t209.5 -87t209 87t79 208t-79 207.5t-209 86.5t-209.5 -86.5t-79.5 -207.5zM383 1163h-135
q10 55 24.5 97t40 81t67.5 60.5t97 21.5q61 0 164.5 -37.5t130.5 -37.5q67 0 94 86h135q-10 -55 -24.5 -97t-40 -81t-67.5 -60.5t-97 -21.5q-61 0 -164.5 38.5t-130.5 38.5q-67 0 -94 -88z" />
    <glyph glyph-name="odieresis" unicode="&#xf6;" horiz-adv-x="1249" 
d="M90 492q0 151 72 270t193.5 182.5t269.5 63.5t269.5 -64t193 -182.5t71.5 -269.5t-71.5 -270t-193 -183t-269.5 -64t-269.5 64t-193.5 183t-72 270zM336 492q0 -121 79.5 -208t209.5 -87t209 87t79 208t-79 207.5t-209 86.5t-209.5 -86.5t-79.5 -207.5zM256 1303
q0 60 45 103.5t111 43.5q68 0 113.5 -42t45.5 -105t-45.5 -105.5t-113.5 -42.5q-66 0 -111 44t-45 104zM678 1303q0 60 45 103.5t111 43.5q68 0 113.5 -42t45.5 -105t-45.5 -105.5t-113.5 -42.5q-66 0 -111 44t-45 104z" />
    <glyph glyph-name="divide" unicode="&#xf7;" horiz-adv-x="1363" 
d="M127 725h1110v-209h-1110v209zM528 989q0 63 45.5 108.5t108.5 45.5t108.5 -45.5t45.5 -108.5t-45.5 -108t-108.5 -45t-108.5 45t-45.5 108zM528 252q0 63 45.5 108.5t108.5 45.5t108.5 -45.5t45.5 -108.5t-45.5 -108.5t-108.5 -45.5t-108.5 45.5t-45.5 108.5z" />
    <glyph glyph-name="oslash" unicode="&#xf8;" horiz-adv-x="1249" 
d="M383 328l403 409q-68 49 -161 49q-130 0 -209.5 -86.5t-79.5 -207.5q0 -93 47 -164zM870 651l-405 -407q65 -47 160 -47q130 0 209 87t79 208q0 89 -43 159zM1100 1053l86 -82l-144 -146q117 -140 117 -333q0 -151 -71.5 -270t-193 -183t-269.5 -64q-185 0 -326 101
l-143 -146l-82 84l137 140q-121 137 -121 338q0 151 72 270t193.5 182.5t269.5 63.5q189 0 329 -103z" />
    <glyph glyph-name="ugrave" unicode="&#xf9;" horiz-adv-x="1175" 
d="M1036 983v-983h-233v158h-4q-37 -82 -111.5 -132.5t-189.5 -50.5q-95 0 -166.5 31.5t-112.5 87t-60.5 122.5t-19.5 146v621h246v-498q0 -34 1.5 -59.5t6.5 -62.5t17.5 -63.5t31.5 -51.5t50.5 -38t72.5 -13q114 0 170 70.5t56 178.5v537h245zM481 1450l203 -295h-192
l-289 295h278z" />
    <glyph glyph-name="uacute" unicode="&#xfa;" horiz-adv-x="1175" 
d="M1036 983v-983h-233v158h-4q-37 -82 -111.5 -132.5t-189.5 -50.5q-95 0 -166.5 31.5t-112.5 87t-60.5 122.5t-19.5 146v621h246v-498q0 -34 1.5 -59.5t6.5 -62.5t17.5 -63.5t31.5 -51.5t50.5 -38t72.5 -13q114 0 170 70.5t56 178.5v537h245zM492 1155l202 295h279
l-289 -295h-192z" />
    <glyph glyph-name="ucircumflex" unicode="&#xfb;" horiz-adv-x="1175" 
d="M1036 983v-983h-233v158h-4q-37 -82 -111.5 -132.5t-189.5 -50.5q-95 0 -166.5 31.5t-112.5 87t-60.5 122.5t-19.5 146v621h246v-498q0 -34 1.5 -59.5t6.5 -62.5t17.5 -63.5t31.5 -51.5t50.5 -38t72.5 -13q114 0 170 70.5t56 178.5v537h245zM961 1155h-234l-141 184
l-142 -184h-229l236 295h276z" />
    <glyph glyph-name="udieresis" unicode="&#xfc;" horiz-adv-x="1175" 
d="M1036 983v-983h-233v158h-4q-37 -82 -111.5 -132.5t-189.5 -50.5q-95 0 -166.5 31.5t-112.5 87t-60.5 122.5t-19.5 146v621h246v-498q0 -34 1.5 -59.5t6.5 -62.5t17.5 -63.5t31.5 -51.5t50.5 -38t72.5 -13q114 0 170 70.5t56 178.5v537h245zM219 1303q0 60 45 103.5
t111 43.5q68 0 114 -42t46 -105t-46 -105.5t-114 -42.5q-66 0 -111 44t-45 104zM641 1303q0 60 45 103.5t111 43.5q68 0 113.5 -42t45.5 -105t-45.5 -105.5t-113.5 -42.5q-66 0 -111 44t-45 104z" />
    <glyph glyph-name="yacute" unicode="&#xfd;" horiz-adv-x="1062" 
d="M426 -8l-420 991h270l275 -682h4l246 682h256l-465 -1194q-29 -73 -59 -122t-73.5 -86.5t-103 -55t-139.5 -17.5q-93 0 -188 25l30 221q67 -24 125 -24q86 0 124 31.5t71 113.5zM436 1155l203 295h279l-289 -295h-193z" />
    <glyph glyph-name="thorn" unicode="&#xfe;" horiz-adv-x="1290" 
d="M139 -467v2015h246v-692h4q43 72 132 112t194 40q222 0 353.5 -146t131.5 -370q0 -221 -133.5 -369t-341.5 -148q-213 0 -334 150h-6v-592h-246zM954 492q0 121 -79 207.5t-209 86.5t-209.5 -86.5t-79.5 -207.5t79.5 -208t209.5 -87t209 87t79 208z" />
    <glyph glyph-name="ydieresis" unicode="&#xff;" horiz-adv-x="1062" 
d="M426 -8l-420 991h270l275 -682h4l246 682h256l-465 -1194q-29 -73 -59 -122t-73.5 -86.5t-103 -55t-139.5 -17.5q-93 0 -188 25l30 221q67 -24 125 -24q86 0 124 31.5t71 113.5zM164 1303q0 60 44.5 103.5t110.5 43.5q68 0 114 -42t46 -105t-46 -105.5t-114 -42.5
q-66 0 -110.5 44t-44.5 104zM586 1303q0 60 44.5 103.5t110.5 43.5q68 0 114 -42t46 -105t-46 -105.5t-114 -42.5q-66 0 -110.5 44t-44.5 104z" />
    <glyph glyph-name="Amacron" unicode="&#x100;" horiz-adv-x="1478" 
d="M0 0l631 1450h223l625 -1450h-295l-135 332h-629l-131 -332h-289zM508 553h450l-223 590zM1061 1772v-160h-655v160h655z" />
    <glyph glyph-name="amacron" unicode="&#x101;" horiz-adv-x="1099" 
d="M754 0v135h-6q-101 -160 -316 -160q-94 0 -173.5 32t-132 101t-52.5 162q0 66 22 119t56.5 88.5t88 61t104.5 39.5t117.5 22t117 10t112.5 2h62v27q0 88 -62 136t-164 48q-152 0 -262 -102l-129 129q155 158 418 158q68 0 125 -11t97.5 -28t73 -45.5t52.5 -54t35 -63
t22 -64t10.5 -66t4 -59t0.5 -52.5v-565h-221zM739 385v55h-51q-369 0 -369 -151q0 -63 52.5 -96t120.5 -33q123 0 185 59.5t62 165.5zM909 1378v-159h-655v159h655z" />
    <glyph glyph-name="Abreve" unicode="&#x102;" horiz-adv-x="1478" 
d="M0 0l631 1450h223l625 -1450h-295l-135 332h-629l-131 -332h-289zM508 553h450l-223 590zM385 1843h137q23 -135 211 -135q95 0 143 27t70 108h135q-17 -150 -107.5 -222.5t-242.5 -72.5q-153 0 -244.5 73t-101.5 222z" />
    <glyph glyph-name="abreve" unicode="&#x103;" horiz-adv-x="1099" 
d="M754 0v135h-6q-101 -160 -316 -160q-94 0 -173.5 32t-132 101t-52.5 162q0 66 22 119t56.5 88.5t88 61t104.5 39.5t117.5 22t117 10t112.5 2h62v27q0 88 -62 136t-164 48q-152 0 -262 -102l-129 129q155 158 418 158q68 0 125 -11t97.5 -28t73 -45.5t52.5 -54t35 -63
t22 -64t10.5 -66t4 -59t0.5 -52.5v-565h-221zM739 385v55h-51q-369 0 -369 -151q0 -63 52.5 -96t120.5 -33q123 0 185 59.5t62 165.5zM233 1450h138q23 -135 211 -135q95 0 143 27t70 108h135q-17 -149 -107.5 -222t-242.5 -73q-154 0 -245.5 73t-101.5 222z" />
    <glyph glyph-name="Aogonek" unicode="&#x104;" horiz-adv-x="1478" 
d="M1360 -301l51 -100q-95 -78 -205 -78q-88 0 -149.5 48t-61.5 134q0 76 56 155t133 142l-135 332h-629l-131 -332h-289l631 1450h223l625 -1450h-168q-58 -53 -107 -123.5t-49 -126.5q0 -38 28 -66t66 -28q58 0 111 43zM508 553h450l-223 590z" />
    <glyph glyph-name="aogonek" unicode="&#x105;" horiz-adv-x="1099" 
d="M754 0v135h-6q-100 -160 -316 -160q-93 0 -172.5 31.5t-132.5 100.5t-53 163q0 66 22 119t56.5 88.5t88 61t104.5 39.5t117.5 22t117 10t112.5 2h62v27q0 89 -62 136.5t-164 47.5q-155 0 -262 -102l-129 129q150 158 418 158q68 0 125 -11t97.5 -28t73 -45.5t52.5 -54
t35 -63t22 -64t10.5 -66t4 -59t0.5 -52.5v-565h-94q-58 -53 -107 -123.5t-49 -126.5q0 -38 28 -66t66 -28q58 0 111 43l51 -100q-95 -78 -205 -78q-88 0 -149.5 48t-61.5 134q0 76 56 155t133 142zM739 385v55h-51q-369 0 -369 -151q0 -63 52 -96t121 -33q125 0 186 58.5
t61 166.5z" />
    <glyph glyph-name="Cacute" unicode="&#x106;" horiz-adv-x="1402" 
d="M1358 1257l-201 -147q-134 143 -305 143q-146 0 -260.5 -69t-176 -187t-61.5 -262q0 -234 138 -386t360 -152q189 0 326 176l213 -152q-95 -131 -235 -194.5t-306 -63.5q-221 0 -395.5 94t-272.5 266.5t-98 395.5q0 229 98.5 404.5t272 269.5t395.5 94q310 0 508 -230z
M698 1548l203 295h279l-289 -295h-193z" />
    <glyph glyph-name="cacute" unicode="&#x107;" horiz-adv-x="987" 
d="M981 858l-170 -170q-95 98 -186 98q-130 0 -209.5 -86.5t-79.5 -207.5t79.5 -208t209.5 -87q120 0 190 92l164 -176q-68 -68 -172 -103t-182 -35q-148 0 -269.5 64t-193.5 183t-72 270t72 270t193.5 182.5t269.5 63.5q99 0 193.5 -37.5t162.5 -112.5zM496 1155l202 295
h279l-289 -295h-192z" />
    <glyph glyph-name="Ccircumflex" unicode="&#x108;" horiz-adv-x="1402" 
d="M1358 1257l-201 -147q-134 143 -305 143q-146 0 -260.5 -69t-176 -187t-61.5 -262q0 -234 138 -386t360 -152q189 0 326 176l213 -152q-95 -131 -235 -194.5t-306 -63.5q-221 0 -395.5 94t-272.5 266.5t-98 395.5q0 229 98.5 404.5t272 269.5t395.5 94q310 0 508 -230z
M1217 1548h-234l-141 185l-142 -185h-229l236 295h276z" />
    <glyph glyph-name="ccircumflex" unicode="&#x109;" horiz-adv-x="987" 
d="M981 858l-170 -170q-95 98 -186 98q-130 0 -209.5 -86.5t-79.5 -207.5t79.5 -208t209.5 -87q120 0 190 92l164 -176q-68 -68 -172 -103t-182 -35q-148 0 -269.5 64t-193.5 183t-72 270t72 270t193.5 182.5t269.5 63.5q99 0 193.5 -37.5t162.5 -112.5zM975 1155h-234
l-141 184l-141 -184h-230l236 295h276z" />
    <glyph glyph-name="Cdotaccent" unicode="&#x10a;" horiz-adv-x="1402" 
d="M1358 1257l-201 -147q-134 143 -305 143q-146 0 -260.5 -69t-176 -187t-61.5 -262q0 -234 138 -386t360 -152q189 0 326 176l213 -152q-95 -131 -235 -194.5t-306 -63.5q-221 0 -395.5 94t-272.5 266.5t-98 395.5q0 229 98.5 404.5t272 269.5t395.5 94q310 0 508 -230z
M686 1696q0 61 44.5 104t111.5 43q68 0 113.5 -42t45.5 -105t-45.5 -105.5t-113.5 -42.5q-67 0 -111.5 43.5t-44.5 104.5z" />
    <glyph glyph-name="cdotaccent" unicode="&#x10b;" horiz-adv-x="987" 
d="M981 858l-170 -170q-95 98 -186 98q-130 0 -209.5 -86.5t-79.5 -207.5t79.5 -208t209.5 -87q120 0 190 92l164 -176q-68 -68 -172 -103t-182 -35q-148 0 -269.5 64t-193.5 183t-72 270t72 270t193.5 182.5t269.5 63.5q99 0 193.5 -37.5t162.5 -112.5zM444 1303
q0 61 44.5 104t111.5 43q68 0 114 -42t46 -105t-46 -105.5t-114 -42.5q-67 0 -111.5 43.5t-44.5 104.5z" />
    <glyph glyph-name="Ccaron" unicode="&#x10c;" horiz-adv-x="1402" 
d="M1358 1257l-201 -147q-134 143 -305 143q-146 0 -260.5 -69t-176 -187t-61.5 -262q0 -234 138 -386t360 -152q189 0 326 176l213 -152q-95 -131 -235 -194.5t-306 -63.5q-221 0 -395.5 94t-272.5 266.5t-98 395.5q0 229 98.5 404.5t272 269.5t395.5 94q310 0 508 -230z
M473 1843h234l141 -184l141 184h225l-235 -295h-272z" />
    <glyph glyph-name="ccaron" unicode="&#x10d;" horiz-adv-x="987" 
d="M981 858l-170 -170q-95 98 -186 98q-130 0 -209.5 -86.5t-79.5 -207.5t79.5 -208t209.5 -87q120 0 190 92l164 -176q-68 -68 -172 -103t-182 -35q-148 0 -269.5 64t-193.5 183t-72 270t72 270t193.5 182.5t269.5 63.5q99 0 193.5 -37.5t162.5 -112.5zM229 1450h234
l141 -184l141 184h226l-236 -295h-272z" />
    <glyph glyph-name="Dcaron" unicode="&#x10e;" horiz-adv-x="1554" 
d="M162 0v1450h571q116 0 223 -27.5t201 -86.5t163.5 -143t109.5 -204t40 -264q0 -143 -46.5 -265t-123.5 -205t-177.5 -142t-207 -86t-213.5 -27h-540zM420 233h192q125 0 229 28t186 85.5t127.5 154t45.5 224.5q0 129 -40.5 225t-114.5 153.5t-171.5 85.5t-218.5 28h-235
v-984zM311 1843h234l141 -184l141 184h226l-236 -295h-272z" />
    <glyph glyph-name="dcaron" unicode="&#x10f;" horiz-adv-x="1290" 
d="M918 0v147h-5q-52 -86 -141.5 -129t-196.5 -43q-148 0 -259.5 69t-168.5 185.5t-57 262.5q0 221 133.5 368.5t341.5 147.5q213 0 334 -150h6v690h246v-1548h-233zM336 492q0 -121 79.5 -208t209.5 -87t209 87t79 208t-79 207.5t-209 86.5t-209.5 -86.5t-79.5 -207.5z
M1249 1044l123 406h250l-174 -406h-199z" />
    <glyph glyph-name="Dcroat" unicode="&#x110;" horiz-adv-x="1554" 
d="M162 0v664h-135v172h135v614h571q147 0 277.5 -45t234 -132t164.5 -228.5t61 -319.5q0 -144 -46.5 -265.5t-123 -204.5t-177 -142t-207 -86t-214.5 -27h-540zM420 233h192q125 0 229 28t186 85.5t127.5 154t45.5 224.5q0 129 -40.5 225t-114.5 153.5t-171.5 85.5
t-218.5 28h-235v-381h442v-172h-442v-431z" />
    <glyph glyph-name="dcroat" unicode="&#x111;" horiz-adv-x="1290" 
d="M1296 1317v-160h-145v-1157h-233v147h-5q-101 -172 -338 -172q-111 0 -203 40t-153.5 110t-95 164.5t-33.5 202.5q0 144 59.5 261.5t168.5 186t247 68.5q121 0 205.5 -45t128.5 -105h6v299h-264v160h264v231h246v-231h145zM336 492q0 -121 79.5 -208t209.5 -87t209 87
t79 208t-79 207.5t-209 86.5t-209.5 -86.5t-79.5 -207.5z" />
    <glyph glyph-name="Emacron" unicode="&#x112;" horiz-adv-x="1251" 
d="M162 0v1450h960v-233h-702v-357h665v-233h-665v-394h739v-233h-997zM983 1772v-160h-655v160h655z" />
    <glyph glyph-name="emacron" unicode="&#x113;" horiz-adv-x="1175" 
d="M1085 406h-749q12 -107 85.5 -170.5t178.5 -63.5q157 0 264 133l176 -133q-161 -197 -415 -197q-148 0 -269.5 64t-193.5 183t-72 270t72 270t193.5 182.5t269.5 63.5q209 0 334.5 -141.5t125.5 -393.5v-67zM336 590h504q-2 108 -68.5 170.5t-181.5 62.5
q-107 0 -173.5 -62.5t-80.5 -170.5zM942 1378v-159h-655v159h655z" />
    <glyph glyph-name="Ebreve" unicode="&#x114;" horiz-adv-x="1251" 
d="M162 0v1450h960v-233h-702v-357h665v-233h-665v-394h739v-233h-997zM313 1843h138q23 -135 211 -135q95 0 142.5 26.5t69.5 108.5h136q-17 -150 -108 -222.5t-243 -72.5q-153 0 -244.5 73t-101.5 222z" />
    <glyph glyph-name="ebreve" unicode="&#x115;" horiz-adv-x="1175" 
d="M1085 406h-749q12 -107 85.5 -170.5t178.5 -63.5q157 0 264 133l176 -133q-161 -197 -415 -197q-148 0 -269.5 64t-193.5 183t-72 270t72 270t193.5 182.5t269.5 63.5q209 0 334.5 -141.5t125.5 -393.5v-67zM336 590h504q-2 108 -68.5 170.5t-181.5 62.5
q-107 0 -173.5 -62.5t-80.5 -170.5zM266 1450h137q23 -135 211 -135q95 0 143 27t70 108h136q-17 -149 -108 -222t-243 -73q-153 0 -244.5 73t-101.5 222z" />
    <glyph glyph-name="Edotaccent" unicode="&#x116;" horiz-adv-x="1251" 
d="M162 0v1450h960v-233h-702v-357h665v-233h-665v-394h739v-233h-997zM528 1696q0 61 44.5 104t111.5 43q68 0 114 -42t46 -105t-46 -105.5t-114 -42.5q-67 0 -111.5 43.5t-44.5 104.5z" />
    <glyph glyph-name="edotaccent" unicode="&#x117;" horiz-adv-x="1175" 
d="M1085 406h-749q12 -107 85.5 -170.5t178.5 -63.5q157 0 264 133l176 -133q-161 -197 -415 -197q-148 0 -269.5 64t-193.5 183t-72 270t72 270t193.5 182.5t269.5 63.5q209 0 334.5 -141.5t125.5 -393.5v-67zM336 590h504q-2 108 -68.5 170.5t-181.5 62.5
q-107 0 -173.5 -62.5t-80.5 -170.5zM457 1303q0 61 44 104t111 43q68 0 114 -42t46 -105t-46 -105.5t-114 -42.5q-66 0 -110.5 43.5t-44.5 104.5z" />
    <glyph glyph-name="Eogonek" unicode="&#x118;" horiz-adv-x="1251" 
d="M162 0v1450h960v-233h-702v-357h665v-233h-665v-394h739v-233h-121q-58 -52 -106.5 -123t-48.5 -127q0 -38 28 -66t66 -28q57 0 110 43l52 -100q-95 -78 -205 -78q-88 0 -149.5 48t-61.5 134q0 76 56 155.5t132 141.5h-749z" />
    <glyph glyph-name="eogonek" unicode="&#x119;" horiz-adv-x="1175" 
d="M797 -301l51 -100q-95 -78 -205 -78q-88 0 -149.5 48t-61.5 134q0 126 160 274q-141 8 -254.5 72.5t-180.5 180t-67 262.5q0 152 72 270.5t193.5 182t269.5 63.5q208 0 334 -141.5t126 -393.5v-67h-749q12 -108 85 -171t179 -63q154 0 264 133l176 -133
q-120 -148 -309 -186q-55 -55 -97 -119t-42 -117q0 -38 28 -66t66 -28q58 0 111 43zM336 590h504q-2 110 -67.5 171.5t-182.5 61.5q-108 0 -174 -62.5t-80 -170.5z" />
    <glyph glyph-name="Ecaron" unicode="&#x11a;" horiz-adv-x="1251" 
d="M162 0v1450h960v-233h-702v-357h665v-233h-665v-394h739v-233h-997zM295 1843h233l142 -184l141 184h225l-235 -295h-273z" />
    <glyph glyph-name="ecaron" unicode="&#x11b;" horiz-adv-x="1175" 
d="M1085 406h-749q12 -107 85.5 -170.5t178.5 -63.5q157 0 264 133l176 -133q-161 -197 -415 -197q-148 0 -269.5 64t-193.5 183t-72 270t72 270t193.5 182.5t269.5 63.5q209 0 334.5 -141.5t125.5 -393.5v-67zM336 590h504q-2 108 -68.5 170.5t-181.5 62.5
q-107 0 -173.5 -62.5t-80.5 -170.5zM244 1450h233l141 -184l142 184h225l-235 -295h-273z" />
    <glyph glyph-name="Gcircumflex" unicode="&#x11c;" horiz-adv-x="1593" 
d="M1450 848v-742q-268 -143 -600 -143q-221 0 -395.5 94t-272.5 266.5t-98 395.5q0 229 98.5 404.5t272 269.5t395.5 94q366 0 571 -182l-190 -193q-68 67 -168.5 104t-210.5 37q-146 0 -260.5 -69t-176 -187t-61.5 -262q0 -234 138 -386t360 -152q208 0 340 75v342h-297
v234h555zM1214 1548h-233l-141 185l-142 -185h-229l236 295h276z" />
    <glyph glyph-name="gcircumflex" unicode="&#x11d;" horiz-adv-x="1290" 
d="M918 983h233v-895q0 -274 -138 -427t-417 -153q-304 0 -487 162l147 201q77 -70 158 -105.5t180 -35.5q169 0 240 85.5t71 243.5v72h-4q-52 -70 -138.5 -106.5t-182.5 -36.5q-144 0 -257 68t-173 182.5t-60 253.5q0 224 131.5 370t353.5 146q107 0 196.5 -43t141.5 -129
h5v147zM627 786q-129 0 -210 -81t-81 -211q0 -118 83 -201.5t206 -83.5q134 0 213.5 81.5t79.5 207.5q0 129 -79.5 208.5t-211.5 79.5zM1042 1155h-233l-141 184l-142 -184h-229l235 295h277z" />
    <glyph glyph-name="Gbreve" unicode="&#x11e;" horiz-adv-x="1593" 
d="M1450 848v-742q-268 -143 -600 -143q-221 0 -395.5 94t-272.5 266.5t-98 395.5q0 229 98.5 404.5t272 269.5t395.5 94q366 0 571 -182l-190 -193q-68 67 -168.5 104t-210.5 37q-146 0 -260.5 -69t-176 -187t-61.5 -262q0 -234 138 -386t360 -152q208 0 340 75v342h-297
v234h555zM498 1843h137q23 -135 211 -135q95 0 143 27t70 108h135q-17 -150 -107.5 -222.5t-242.5 -72.5q-153 0 -244.5 73t-101.5 222z" />
    <glyph glyph-name="gbreve" unicode="&#x11f;" horiz-adv-x="1290" 
d="M918 983h233v-895q0 -274 -138 -427t-417 -153q-304 0 -487 162l147 201q77 -70 158 -105.5t180 -35.5q169 0 240 85.5t71 243.5v72h-4q-52 -70 -138.5 -106.5t-182.5 -36.5q-144 0 -257 68t-173 182.5t-60 253.5q0 224 131.5 370t353.5 146q107 0 196.5 -43t141.5 -129
h5v147zM627 786q-129 0 -210 -81t-81 -211q0 -118 83 -201.5t206 -83.5q134 0 213.5 81.5t79.5 207.5q0 129 -79.5 208.5t-211.5 79.5zM322 1450h137q23 -135 211 -135q95 0 143 27t70 108h135q-17 -149 -107.5 -222t-242.5 -73q-153 0 -244.5 73t-101.5 222z" />
    <glyph glyph-name="Gdotaccent" unicode="&#x120;" horiz-adv-x="1593" 
d="M1450 848v-742q-268 -143 -600 -143q-221 0 -395.5 94t-272.5 266.5t-98 395.5q0 229 98.5 404.5t272 269.5t395.5 94q366 0 571 -182l-190 -193q-68 67 -168.5 104t-210.5 37q-146 0 -260.5 -69t-176 -187t-61.5 -262q0 -234 138 -386t360 -152q208 0 340 75v342h-297
v234h555zM690 1696q0 61 44.5 104t111.5 43q68 0 114 -42t46 -105t-46 -105.5t-114 -42.5q-67 0 -111.5 43.5t-44.5 104.5z" />
    <glyph glyph-name="gdotaccent" unicode="&#x121;" horiz-adv-x="1290" 
d="M918 983h233v-895q0 -274 -138 -427t-417 -153q-304 0 -487 162l147 201q77 -70 158 -105.5t180 -35.5q169 0 240 85.5t71 243.5v72h-4q-52 -70 -138.5 -106.5t-182.5 -36.5q-144 0 -257 68t-173 182.5t-60 253.5q0 224 131.5 370t353.5 146q107 0 196.5 -43t141.5 -129
h5v147zM627 786q-129 0 -210 -81t-81 -211q0 -118 83 -201.5t206 -83.5q134 0 213.5 81.5t79.5 207.5q0 129 -79.5 208.5t-211.5 79.5zM492 1303q0 61 44 104t111 43q68 0 114 -42t46 -105t-46 -105.5t-114 -42.5q-66 0 -110.5 43.5t-44.5 104.5z" />
    <glyph glyph-name="Gcommaaccent" unicode="&#x122;" horiz-adv-x="1593" 
d="M1450 848v-742q-268 -143 -600 -143q-221 0 -395.5 94t-272.5 266.5t-98 395.5q0 229 98.5 404.5t272 269.5t395.5 94q366 0 571 -182l-190 -193q-68 67 -168.5 104t-210.5 37q-146 0 -260.5 -69t-176 -187t-61.5 -262q0 -234 138 -386t360 -152q208 0 340 75v342h-297
v234h555zM633 -528l143 405h250l-174 -405h-219z" />
    <glyph glyph-name="gcommaaccent" unicode="&#x123;" horiz-adv-x="1290" 
d="M918 983h233v-895q0 -274 -138 -427t-417 -153q-304 0 -487 162l147 201q77 -70 158 -105.5t180 -35.5q169 0 240 85.5t71 243.5v72h-4q-52 -70 -138.5 -106.5t-182.5 -36.5q-144 0 -257 68t-173 182.5t-60 253.5q0 224 131.5 370t353.5 146q107 0 196.5 -43t141.5 -129
h5v147zM627 786q-129 0 -210 -81t-81 -211q0 -118 83 -201.5t206 -83.5q134 0 213.5 81.5t79.5 207.5q0 129 -79.5 208.5t-211.5 79.5zM874 1602l-143 -406h-250l174 406h219z" />
    <glyph glyph-name="Hcircumflex" unicode="&#x124;" horiz-adv-x="1517" 
d="M162 0v1450h258v-578h678v578h258v-1450h-258v639h-678v-639h-258zM1130 1548h-233l-141 185l-142 -185h-229l236 295h276z" />
    <glyph glyph-name="hcircumflex" unicode="&#x125;" horiz-adv-x="1175" 
d="M385 1548v-702h4q32 68 107 115t182 47q95 0 166.5 -31.5t112 -87t60 -122.5t19.5 -146v-621h-245v498q0 42 -2 73t-12.5 74.5t-28.5 71.5t-53.5 48.5t-84.5 20.5q-114 0 -169.5 -70.5t-55.5 -178.5v-537h-246v1548h246zM967 1630h-234l-141 185l-141 -185h-230l236 295
h276z" />
    <glyph glyph-name="Hbar" unicode="&#x126;" horiz-adv-x="1517" 
d="M162 0v1450h258v-182h678v182h258v-1450h-258v639h-678v-639h-258zM420 872h678v236h-678v-236z" />
    <glyph glyph-name="hbar" unicode="&#x127;" horiz-adv-x="1175" 
d="M649 1317v-160h-264v-311h4q33 69 106.5 115.5t182.5 46.5q95 0 166.5 -31.5t112 -87t60 -122.5t19.5 -146v-621h-245v498q0 42 -2 73t-12.5 74.5t-28.5 71.5t-53.5 48.5t-84.5 20.5q-114 0 -169.5 -70.5t-55.5 -178.5v-537h-246v1157h-145v160h145v231h246v-231h264z
" />
    <glyph glyph-name="Itilde" unicode="&#x128;" horiz-adv-x="569" 
d="M156 0v1450h258v-1450h-258zM45 1556h-135q10 55 24.5 97t40 81.5t67.5 61t97 21.5q60 0 163.5 -38t131.5 -38q68 0 94 86h136q-10 -54 -25 -96.5t-40.5 -81.5t-67.5 -60.5t-97 -21.5q-60 0 -163.5 39t-131.5 39q-67 0 -94 -89z" />
    <glyph glyph-name="itilde" unicode="&#x129;" 
d="M143 0v983h246v-983h-246zM29 1163h-135q10 55 24.5 97t40 81t67.5 60.5t97 21.5q61 0 164.5 -37.5t130.5 -37.5q67 0 94 86h135q-10 -55 -24.5 -97t-40 -81t-67.5 -60.5t-97 -21.5q-61 0 -164.5 38.5t-130.5 38.5q-67 0 -94 -88z" />
    <glyph glyph-name="Imacron" unicode="&#x12a;" horiz-adv-x="569" 
d="M156 0v1450h258v-1450h-258zM610 1772v-160h-655v160h655z" />
    <glyph glyph-name="imacron" unicode="&#x12b;" 
d="M143 0v983h246v-983h-246zM598 1378v-159h-655v159h655z" />
    <glyph glyph-name="Iogonek" unicode="&#x12e;" horiz-adv-x="569" 
d="M156 0v1450h258v-1450h-74q-58 -53 -107 -123.5t-49 -126.5q0 -38 28.5 -66t66.5 -28q57 0 110 43l51 -100q-95 -78 -204 -78q-88 0 -149.5 48t-61.5 134q0 76 56 155.5t132 141.5h-57z" />
    <glyph glyph-name="iogonek" unicode="&#x12f;" 
d="M143 0v983h246v-983h-119q-58 -52 -106.5 -123t-48.5 -127q0 -38 28 -66t66 -28q57 0 110 43l52 -100q-95 -78 -205 -78q-88 0 -149.5 48t-61.5 134q0 76 56 155.5t132 141.5zM109 1317q0 61 44 104t111 43q68 0 114 -42t46 -105t-46 -105.5t-114 -42.5
q-66 0 -110.5 43.5t-44.5 104.5z" />
    <glyph glyph-name="Idotaccent" unicode="&#x130;" horiz-adv-x="569" 
d="M156 0v1450h258v-1450h-258zM129 1696q0 61 44.5 104t111.5 43q68 0 113.5 -42t45.5 -105t-45.5 -105.5t-113.5 -42.5q-67 0 -111.5 43.5t-44.5 104.5z" />
    <glyph glyph-name="dotlessi" unicode="&#x131;" 
d="M143 0v983h246v-983h-246z" />
    <glyph glyph-name="Jcircumflex" unicode="&#x134;" horiz-adv-x="1024" 
d="M872 1450v-1049q0 -88 -28 -166t-80.5 -139.5t-137 -97t-190.5 -35.5q-174 0 -283.5 83t-142.5 251l242 57q12 -71 58.5 -114t113.5 -43q105 0 147.5 70.5t42.5 209.5v973h258zM1118 1548h-233l-142 185l-141 -185h-229l235 295h277z" />
    <glyph glyph-name="jcircumflex" unicode="&#x135;" 
d="M143 983h246v-1042q0 -80 -7.5 -140t-28.5 -118t-57.5 -94.5t-96.5 -58.5t-142 -22q-75 0 -133 19l19 213q45 -10 77 -10q30 0 52 8.5t35 26.5t20.5 34.5t11 45.5t4 46t0.5 48v1044zM639 1155h-233l-142 184l-141 -184h-229l235 295h277z" />
    <glyph glyph-name="Kcommaaccent" unicode="&#x136;" horiz-adv-x="1402" 
d="M162 0v1450h258v-614h12l600 614h348l-678 -670l723 -780h-362l-629 713h-14v-713h-258zM434 -528l144 405h249l-174 -405h-219z" />
    <glyph glyph-name="kcommaaccent" unicode="&#x137;" horiz-adv-x="1099" 
d="M139 0v1548h246v-973l379 408h315l-422 -446l449 -537h-326l-391 502h-4v-502h-246zM291 -528l143 405h250l-174 -405h-219z" />
    <glyph glyph-name="Lacute" unicode="&#x139;" horiz-adv-x="1062" 
d="M162 0v1450h258v-1217h616v-233h-874zM129 1548l203 295h278l-288 -295h-193z" />
    <glyph glyph-name="lacute" unicode="&#x13a;" 
d="M143 0v1548h246v-1548h-246zM106 1630l203 295h279l-289 -295h-193z" />
    <glyph glyph-name="Lcommaaccent" unicode="&#x13b;" horiz-adv-x="1062" 
d="M162 0v1450h258v-1217h616v-233h-874zM322 -528l143 405h250l-174 -405h-219z" />
    <glyph glyph-name="lcommaaccent" unicode="&#x13c;" 
d="M143 0v1548h246v-1548h-246zM33 -528l143 405h250l-174 -405h-219z" />
    <glyph glyph-name="Lcaron" unicode="&#x13d;" horiz-adv-x="1062" 
d="M162 0v1450h258v-1217h616v-233h-874zM528 1044l123 406h250l-174 -406h-199z" />
    <glyph glyph-name="lcaron" unicode="&#x13e;" 
d="M143 0v1548h246v-1548h-246zM506 1044l123 406h250l-174 -406h-199z" />
    <glyph glyph-name="Ldot" unicode="&#x13f;" horiz-adv-x="1062" 
d="M162 0v1450h258v-1217h616v-233h-874zM688 772q0 61 44.5 104.5t111.5 43.5q68 0 114 -42.5t46 -105.5t-46 -105t-114 -42q-67 0 -111.5 43t-44.5 104z" />
    <glyph glyph-name="ldot" unicode="&#x140;" horiz-adv-x="786" 
d="M143 0v1548h246v-1548h-246zM496 774q0 61 44.5 104.5t110.5 43.5q68 0 114 -42.5t46 -105.5t-46 -105t-114 -42q-67 0 -111 43t-44 104z" />
    <glyph glyph-name="Lslash" unicode="&#x141;" horiz-adv-x="1062" 
d="M162 0v383l-144 -127v225l144 127v842h258v-614l422 370v-223l-422 -373v-377h616v-233h-874z" />
    <glyph glyph-name="lslash" unicode="&#x142;" 
d="M143 0v559l-141 -141v223l141 141v766h246v-522l141 141v-219l-141 -139v-809h-246z" />
    <glyph glyph-name="Nacute" unicode="&#x143;" horiz-adv-x="1630" 
d="M162 0v1450h342l702 -1077h4v1077h258v-1450h-327l-717 1112h-4v-1112h-258zM705 1548l202 295h279l-289 -295h-192z" />
    <glyph glyph-name="nacute" unicode="&#x144;" horiz-adv-x="1175" 
d="M139 0v983h234v-158h4q37 82 111.5 132.5t189.5 50.5q95 0 166.5 -31.5t112 -87t60 -122.5t19.5 -146v-621h-245v498q0 42 -2 73t-12.5 74.5t-28.5 71.5t-53.5 48.5t-84.5 20.5q-114 0 -169.5 -70.5t-55.5 -178.5v-537h-246zM430 1155l203 295h278l-288 -295h-193z" />
    <glyph glyph-name="Ncommaaccent" unicode="&#x145;" horiz-adv-x="1630" 
d="M162 0v1450h342l702 -1077h4v1077h258v-1450h-327l-717 1112h-4v-1112h-258zM535 -528l143 405h250l-174 -405h-219z" />
    <glyph glyph-name="ncommaaccent" unicode="&#x146;" horiz-adv-x="1175" 
d="M139 0v983h234v-158h4q37 82 111.5 132.5t189.5 50.5q95 0 166.5 -31.5t112 -87t60 -122.5t19.5 -146v-621h-245v498q0 42 -2 73t-12.5 74.5t-28.5 71.5t-53.5 48.5t-84.5 20.5q-114 0 -169.5 -70.5t-55.5 -178.5v-537h-246zM328 -528l143 405h250l-174 -405h-219z" />
    <glyph glyph-name="Ncaron" unicode="&#x147;" horiz-adv-x="1630" 
d="M162 0v1450h342l702 -1077h4v1077h258v-1450h-327l-717 1112h-4v-1112h-258zM442 1843h234l141 -184l141 184h226l-236 -295h-272z" />
    <glyph glyph-name="ncaron" unicode="&#x148;" horiz-adv-x="1175" 
d="M139 0v983h234v-158h4q37 82 111.5 132.5t189.5 50.5q95 0 166.5 -31.5t112 -87t60 -122.5t19.5 -146v-621h-245v498q0 42 -2 73t-12.5 74.5t-28.5 71.5t-53.5 48.5t-84.5 20.5q-114 0 -169.5 -70.5t-55.5 -178.5v-537h-246zM227 1450h234l141 -184l141 184h226
l-236 -295h-272z" />
    <glyph glyph-name="Omacron" unicode="&#x14c;" horiz-adv-x="1705" 
d="M84 719q0 229 98.5 404.5t272 269.5t395.5 94q168 3 311.5 -50.5t245 -152t158.5 -242t57 -315.5q0 -223 -98 -396t-273.5 -268.5t-400.5 -99.5q-221 0 -395.5 94t-272.5 266.5t-98 395.5zM354 735q0 -234 138 -386t360 -152q223 0 361.5 152t138.5 386q0 144 -61.5 262
t-176.5 187t-262 69q-146 0 -260.5 -69t-176 -187t-61.5 -262zM1178 1772v-160h-656v160h656z" />
    <glyph glyph-name="omacron" unicode="&#x14d;" horiz-adv-x="1249" 
d="M90 492q0 151 72 270t193.5 182.5t269.5 63.5t269.5 -64t193 -182.5t71.5 -269.5t-71.5 -270t-193 -183t-269.5 -64t-269.5 64t-193.5 183t-72 270zM336 492q0 -121 79.5 -208t209.5 -87t209 87t79 208t-79 207.5t-209 86.5t-209.5 -86.5t-79.5 -207.5zM952 1378v-159
h-655v159h655z" />
    <glyph glyph-name="Obreve" unicode="&#x14e;" horiz-adv-x="1705" 
d="M84 719q0 229 98.5 404.5t272 269.5t395.5 94q168 3 311.5 -50.5t245 -152t158.5 -242t57 -315.5q0 -223 -98 -396t-273.5 -268.5t-400.5 -99.5q-221 0 -395.5 94t-272.5 266.5t-98 395.5zM354 735q0 -234 138 -386t360 -152q223 0 361.5 152t138.5 386q0 144 -61.5 262
t-176.5 187t-262 69q-146 0 -260.5 -69t-176 -187t-61.5 -262zM502 1843h137q23 -135 211 -135q95 0 143 27t70 108h135q-17 -150 -107.5 -222.5t-242.5 -72.5q-153 0 -244.5 73t-101.5 222z" />
    <glyph glyph-name="obreve" unicode="&#x14f;" horiz-adv-x="1249" 
d="M90 492q0 151 72 270t193.5 182.5t269.5 63.5t269.5 -64t193 -182.5t71.5 -269.5t-71.5 -270t-193 -183t-269.5 -64t-269.5 64t-193.5 183t-72 270zM336 492q0 -121 79.5 -208t209.5 -87t209 87t79 208t-79 207.5t-209 86.5t-209.5 -86.5t-79.5 -207.5zM281 1450h137
q23 -135 211 -135q95 0 143 27t70 108h135q-17 -149 -107.5 -222t-242.5 -73q-153 0 -244.5 73t-101.5 222z" />
    <glyph glyph-name="Ohungarumlaut" unicode="&#x150;" horiz-adv-x="1705" 
d="M84 719q0 229 98.5 404.5t272 269.5t395.5 94q168 3 311.5 -50.5t245 -152t158.5 -242t57 -315.5q0 -223 -98 -396t-273.5 -268.5t-400.5 -99.5q-221 0 -395.5 94t-272.5 266.5t-98 395.5zM354 735q0 -234 138 -386t360 -152q223 0 361.5 152t138.5 386q0 144 -61.5 262
t-176.5 187t-262 69q-146 0 -260.5 -69t-176 -187t-61.5 -262zM541 1548l202 295h279l-289 -295h-192zM961 1548l202 295h279l-289 -295h-192z" />
    <glyph glyph-name="ohungarumlaut" unicode="&#x151;" horiz-adv-x="1249" 
d="M90 492q0 151 72 270t193.5 182.5t269.5 63.5t269.5 -64t193 -182.5t71.5 -269.5t-71.5 -270t-193 -183t-269.5 -64t-269.5 64t-193.5 183t-72 270zM336 492q0 -121 79.5 -208t209.5 -87t209 87t79 208t-79 207.5t-209 86.5t-209.5 -86.5t-79.5 -207.5zM295 1155l203 295
h278l-289 -295h-192zM715 1155l203 295h278l-289 -295h-192z" />
    <glyph glyph-name="OE" unicode="&#x152;" horiz-adv-x="2048" 
d="M1321 1217v-357h553v-233h-553v-394h625v-233h-1018q-192 0 -349 55.5t-260.5 153t-160 230t-56.5 286.5q0 155 56.5 288t160.5 230t260.5 152t348.5 55h983v-233h-590zM1063 233v984h-129q-43 0 -89.5 -6t-101 -22t-104.5 -40.5t-97 -63.5t-81.5 -88.5t-55 -119.5
t-20.5 -152t20.5 -152t55 -119.5t81.5 -88.5t97 -63.5t104.5 -40.5t101 -22t89.5 -6h129z" />
    <glyph glyph-name="oe" unicode="&#x153;" horiz-adv-x="1896" 
d="M1823 418h-717q-4 -103 75 -174.5t165 -71.5q155 0 262 133l170 -121q-150 -209 -432 -209q-120 0 -213.5 41t-151.5 117q-142 -158 -373 -158q-148 0 -269.5 64t-193 183t-71.5 270t71.5 269.5t193 182.5t269.5 64q233 0 377 -160q129 160 365 160q116 0 207.5 -41
t149 -112.5t87 -165.5t29.5 -204v-67zM1098 590h479q-1 106 -64.5 169.5t-162.5 63.5q-96 0 -172.5 -62.5t-79.5 -170.5zM319 492q0 -129 79 -218.5t210 -89.5q134 0 213.5 89.5t79.5 218.5t-79.5 218t-213.5 89q-131 0 -210 -89t-79 -218z" />
    <glyph glyph-name="Racute" unicode="&#x154;" horiz-adv-x="1290" 
d="M162 0v1450h504q88 0 163.5 -11.5t146.5 -41t120.5 -75.5t79.5 -119.5t30 -168.5q0 -159 -88.5 -264.5t-247.5 -128.5l385 -641h-311l-336 614h-188v-614h-258zM420 836h201q43 0 74 2t71 8t67.5 19.5t52.5 35t37.5 56t12.5 79.5q0 50 -18.5 86t-46 56.5t-68.5 32
t-77.5 15t-82.5 3.5h-223v-393zM430 1548l203 295h278l-288 -295h-193z" />
    <glyph glyph-name="racute" unicode="&#x155;" horiz-adv-x="796" 
d="M139 0v983h246v-156h4q40 85 117 133t174 48q34 0 88 -15v-237q-74 18 -119 18q-65 0 -115.5 -21t-77.5 -50.5t-44 -66.5t-22 -63.5t-5 -46.5v-526h-246zM272 1155l203 295h279l-289 -295h-193z" />
    <glyph glyph-name="Rcommaaccent" unicode="&#x156;" horiz-adv-x="1290" 
d="M162 0v1450h504q88 0 163.5 -11.5t146.5 -41t120.5 -75.5t79.5 -119.5t30 -168.5q0 -159 -88.5 -264.5t-247.5 -128.5l385 -641h-311l-336 614h-188v-614h-258zM420 836h201q43 0 74 2t71 8t67.5 19.5t52.5 35t37.5 56t12.5 79.5q0 50 -18.5 86t-46 56.5t-68.5 32
t-77.5 15t-82.5 3.5h-223v-393zM350 -528l144 405h249l-174 -405h-219z" />
    <glyph glyph-name="rcommaaccent" unicode="&#x157;" horiz-adv-x="796" 
d="M139 0v983h246v-156h4q40 85 117 133t174 48q34 0 88 -15v-237q-74 18 -119 18q-65 0 -115.5 -21t-77.5 -50.5t-44 -66.5t-22 -63.5t-5 -46.5v-526h-246zM129 -528l143 405h250l-174 -405h-219z" />
    <glyph glyph-name="Rcaron" unicode="&#x158;" horiz-adv-x="1290" 
d="M162 0v1450h504q88 0 163.5 -11.5t146.5 -41t120.5 -75.5t79.5 -119.5t30 -168.5q0 -159 -88.5 -264.5t-247.5 -128.5l385 -641h-311l-336 614h-188v-614h-258zM420 836h201q43 0 74 2t71 8t67.5 19.5t52.5 35t37.5 56t12.5 79.5q0 50 -18.5 86t-46 56.5t-68.5 32
t-77.5 15t-82.5 3.5h-223v-393zM276 1843h234l141 -184l142 184h225l-236 -295h-272z" />
    <glyph glyph-name="rcaron" unicode="&#x159;" horiz-adv-x="796" 
d="M139 0v983h246v-156h4q40 85 117 133t174 48q34 0 88 -15v-237q-74 18 -119 18q-65 0 -115.5 -21t-77.5 -50.5t-44 -66.5t-22 -63.5t-5 -46.5v-526h-246zM55 1450h234l141 -184l141 184h226l-236 -295h-272z" />
    <glyph glyph-name="Sacute" unicode="&#x15a;" horiz-adv-x="1175" 
d="M1061 1337l-189 -198q-40 56 -107.5 85t-146.5 29q-99 0 -168 -46.5t-69 -139.5q0 -46 23.5 -81t63.5 -58t91.5 -41.5t108.5 -37t114 -39.5t108.5 -53.5t91.5 -75t63.5 -107.5t23.5 -148q0 -113 -42.5 -203t-116 -146t-168 -85t-203.5 -29q-143 0 -267 48t-209 149
l195 188q47 -71 123.5 -111t163.5 -40q99 0 176.5 52.5t77.5 145.5q0 50 -23.5 88.5t-63.5 62.5t-91.5 44t-108.5 38t-114 39t-108.5 53t-91.5 74t-63.5 107t-23.5 148q0 108 45.5 194t121.5 138t170 79t197 27q256 0 416 -150zM477 1548l203 295h278l-288 -295h-193z" />
    <glyph glyph-name="sacute" unicode="&#x15b;" horiz-adv-x="909" 
d="M827 858l-163 -147q-71 100 -193 100q-56 0 -99.5 -26.5t-43.5 -77.5q0 -31 23 -52.5t60 -32.5t84.5 -23t97.5 -22.5t97.5 -32.5t84.5 -51.5t60 -81t23 -120.5q0 -84 -37.5 -147t-100 -99t-134.5 -53t-152 -17q-248 0 -383 152l164 154q53 -59 107.5 -90t126.5 -31
q62 0 112.5 29t50.5 83q0 36 -23 61t-60 37t-84.5 24.5t-97.5 22t-97.5 30t-84.5 48.5t-60 78t-23 117q0 79 33.5 141.5t90 100t125.5 57t146 19.5q107 0 200 -36.5t150 -113.5zM322 1155l202 295h279l-289 -295h-192z" />
    <glyph glyph-name="Scircumflex" unicode="&#x15c;" horiz-adv-x="1175" 
d="M1061 1337l-189 -198q-40 56 -107.5 85t-146.5 29q-99 0 -168 -46.5t-69 -139.5q0 -46 23.5 -81t63.5 -58t91.5 -41.5t108.5 -37t114 -39.5t108.5 -53.5t91.5 -75t63.5 -107.5t23.5 -148q0 -113 -42.5 -203t-116 -146t-168 -85t-203.5 -29q-143 0 -267 48t-209 149
l195 188q47 -71 123.5 -111t163.5 -40q99 0 176.5 52.5t77.5 145.5q0 50 -23.5 88.5t-63.5 62.5t-91.5 44t-108.5 38t-114 39t-108.5 53t-91.5 74t-63.5 107t-23.5 148q0 108 45.5 194t121.5 138t170 79t197 27q256 0 416 -150zM991 1548h-233l-142 185l-141 -185h-229
l235 295h277z" />
    <glyph glyph-name="scircumflex" unicode="&#x15d;" horiz-adv-x="909" 
d="M827 858l-163 -147q-71 100 -193 100q-56 0 -99.5 -26.5t-43.5 -77.5q0 -31 23 -52.5t60 -32.5t84.5 -23t97.5 -22.5t97.5 -32.5t84.5 -51.5t60 -81t23 -120.5q0 -84 -37.5 -147t-100 -99t-134.5 -53t-152 -17q-248 0 -383 152l164 154q53 -59 107.5 -90t126.5 -31
q62 0 112.5 29t50.5 83q0 36 -23 61t-60 37t-84.5 24.5t-97.5 22t-97.5 30t-84.5 48.5t-60 78t-23 117q0 79 33.5 141.5t90 100t125.5 57t146 19.5q107 0 200 -36.5t150 -113.5zM856 1155h-233l-142 184l-141 -184h-229l235 295h277z" />
    <glyph glyph-name="Scedilla" unicode="&#x15e;" horiz-adv-x="1175" 
d="M1061 1337l-189 -198q-39 57 -107 85.5t-147 28.5q-99 0 -168 -46.5t-69 -139.5q0 -46 23.5 -81t63.5 -58t91.5 -41.5t108.5 -36.5t114 -39t108.5 -53.5t91.5 -75t63.5 -108t23.5 -148.5q0 -200 -123.5 -318t-318.5 -139l-64 -92q43 0 73 -2.5t66 -12t57.5 -27t36.5 -50
t15 -78.5q0 -53 -26.5 -93.5t-70.5 -62.5t-91 -32.5t-97 -10.5q-116 0 -217 58l45 94q77 -41 168 -41q42 0 79.5 20.5t37.5 65.5q0 37 -32.5 55.5t-71.5 18.5q-29 0 -76 -15l-56 52l103 147q-281 10 -443 197l195 188q47 -71 123.5 -111t163.5 -40q100 0 177 52.5t77 145.5
q0 50 -23.5 88.5t-63.5 62.5t-91.5 44t-108.5 38t-114 39t-108.5 53t-91.5 74t-63.5 107t-23.5 148q0 108 45.5 194t121.5 138t170 79t197 27q253 0 416 -150z" />
    <glyph glyph-name="scedilla" unicode="&#x15f;" horiz-adv-x="909" 
d="M827 858l-163 -147q-69 100 -193 100q-56 0 -99.5 -26.5t-43.5 -77.5q0 -31 23 -52.5t60 -32.5t84.5 -23t97.5 -22.5t97.5 -32.5t84.5 -51.5t60 -81t23 -120.5q0 -71 -26 -126.5t-72 -92t-102 -58t-123 -30.5l-74 -107q43 0 73 -2.5t66 -12t57.5 -27t36.5 -50t15 -78.5
q0 -53 -26.5 -93.5t-70.5 -62.5t-91 -32.5t-97 -10.5q-116 0 -217 58l45 94q77 -41 168 -41q42 0 79.5 20.5t37.5 65.5q0 37 -33 55.5t-72 18.5q-29 0 -76 -15l-55 52l109 159q-230 10 -359 152l164 154q52 -60 106.5 -90.5t127.5 -30.5q62 0 112.5 29t50.5 83q0 36 -23 61
t-60 37.5t-84.5 24.5t-97.5 21.5t-97.5 30t-84.5 48t-60 77.5t-23 118q0 80 33.5 142.5t90 100t125.5 56.5t146 19q107 0 200 -36.5t150 -113.5z" />
    <glyph glyph-name="Scaron" unicode="&#x160;" horiz-adv-x="1175" 
d="M1061 1337l-189 -198q-40 56 -107.5 85t-146.5 29q-99 0 -168 -46.5t-69 -139.5q0 -46 23.5 -81t63.5 -58t91.5 -41.5t108.5 -37t114 -39.5t108.5 -53.5t91.5 -75t63.5 -107.5t23.5 -148q0 -113 -42.5 -203t-116 -146t-168 -85t-203.5 -29q-143 0 -267 48t-209 149
l195 188q47 -71 123.5 -111t163.5 -40q99 0 176.5 52.5t77.5 145.5q0 50 -23.5 88.5t-63.5 62.5t-91.5 44t-108.5 38t-114 39t-108.5 53t-91.5 74t-63.5 107t-23.5 148q0 108 45.5 194t121.5 138t170 79t197 27q256 0 416 -150zM217 1843h234l141 -184l141 184h225
l-235 -295h-272z" />
    <glyph glyph-name="scaron" unicode="&#x161;" horiz-adv-x="909" 
d="M827 858l-163 -147q-71 100 -193 100q-56 0 -99.5 -26.5t-43.5 -77.5q0 -31 23 -52.5t60 -32.5t84.5 -23t97.5 -22.5t97.5 -32.5t84.5 -51.5t60 -81t23 -120.5q0 -84 -37.5 -147t-100 -99t-134.5 -53t-152 -17q-248 0 -383 152l164 154q53 -59 107.5 -90t126.5 -31
q62 0 112.5 29t50.5 83q0 36 -23 61t-60 37t-84.5 24.5t-97.5 22t-97.5 30t-84.5 48.5t-60 78t-23 117q0 79 33.5 141.5t90 100t125.5 57t146 19.5q107 0 200 -36.5t150 -113.5zM84 1450h233l142 -184l141 184h225l-235 -295h-273z" />
    <glyph glyph-name="Tcommaaccent" unicode="&#x162;" horiz-adv-x="1175" 
d="M459 0v1217h-445v233h1147v-233h-444v-1217h-258zM367 -528l143 405h250l-174 -405h-219z" />
    <glyph glyph-name="tcommaaccent" unicode="&#x163;" horiz-adv-x="796" 
d="M227 774h-202v209h202v285h246v-285h270v-209h-270v-430q0 -80 30 -120t107 -40q91 0 133 31v-207q-67 -33 -194 -33q-96 0 -159.5 21.5t-99 67.5t-49.5 107.5t-14 152.5v450zM178 -528l144 405h249l-174 -405h-219z" />
    <glyph glyph-name="Tcaron" unicode="&#x164;" horiz-adv-x="1175" 
d="M459 0v1217h-445v233h1147v-233h-444v-1217h-258zM217 1843h234l141 -184l141 184h225l-235 -295h-272z" />
    <glyph glyph-name="tcaron" unicode="&#x165;" horiz-adv-x="796" 
d="M227 774h-202v209h202v285h246v-285h270v-209h-270v-430q0 -80 30 -120t107 -40q91 0 133 31v-207q-67 -33 -194 -33q-96 0 -159.5 21.5t-99 67.5t-49.5 107.5t-14 152.5v450zM582 1126l123 406h249l-174 -406h-198z" />
    <glyph glyph-name="Tbar" unicode="&#x166;" horiz-adv-x="1175" 
d="M1024 987v-160h-307v-827h-258v827h-295v160h295v230h-445v233h1147v-233h-444v-230h307z" />
    <glyph glyph-name="tbar" unicode="&#x167;" horiz-adv-x="796" 
d="M688 649v-160h-215v-145q0 -80 30 -120t107 -40q91 0 133 31v-207q-67 -33 -194 -33q-97 0 -160.5 21t-99 67.5t-49 107.5t-13.5 153v165h-153v160h153v125h-202v209h202v285h246v-285h270v-209h-270v-125h215z" />
    <glyph glyph-name="Utilde" unicode="&#x168;" horiz-adv-x="1478" 
d="M1323 1450v-918q0 -171 -77 -301.5t-209 -199t-298 -68.5t-298 68.5t-208.5 199t-76.5 301.5v918h258v-909q0 -45 9.5 -89.5t33.5 -89t60 -78t93.5 -54.5t128.5 -21q88 0 154.5 31t102 82t52.5 106t17 113v909h258zM508 1556h-135q10 55 24.5 97t40 81.5t67.5 61t97 21.5
q60 0 163.5 -38t131.5 -38q68 0 94 86h135q-10 -55 -24.5 -97t-40 -81t-67.5 -60.5t-97 -21.5q-60 0 -163.5 39t-131.5 39q-67 0 -94 -89z" />
    <glyph glyph-name="utilde" unicode="&#x169;" horiz-adv-x="1175" 
d="M1036 983v-983h-233v158h-4q-37 -82 -111.5 -132.5t-189.5 -50.5q-95 0 -166.5 31.5t-112.5 87t-60.5 122.5t-19.5 146v621h246v-498q0 -34 1.5 -59.5t6.5 -62.5t17.5 -63.5t31.5 -51.5t50.5 -38t72.5 -13q114 0 170 70.5t56 178.5v537h245zM352 1163h-135q10 55 24.5 97
t40 81t67.5 60.5t97 21.5q61 0 164.5 -37.5t130.5 -37.5q68 0 95 86h135q-10 -54 -25 -96.5t-40.5 -81.5t-67.5 -60.5t-97 -21.5q-61 0 -164.5 38.5t-130.5 38.5q-67 0 -94 -88z" />
    <glyph glyph-name="Umacron" unicode="&#x16a;" horiz-adv-x="1478" 
d="M1323 1450v-918q0 -171 -77 -301.5t-209 -199t-298 -68.5t-298 68.5t-208.5 199t-76.5 301.5v918h258v-909q0 -45 9.5 -89.5t33.5 -89t60 -78t93.5 -54.5t128.5 -21q88 0 154.5 31t102 82t52.5 106t17 113v909h258zM1059 1772v-160h-656v160h656z" />
    <glyph glyph-name="umacron" unicode="&#x16b;" horiz-adv-x="1175" 
d="M1036 983v-983h-233v158h-4q-37 -82 -111.5 -132.5t-189.5 -50.5q-95 0 -166.5 31.5t-112.5 87t-60.5 122.5t-19.5 146v621h246v-498q0 -34 1.5 -59.5t6.5 -62.5t17.5 -63.5t31.5 -51.5t50.5 -38t72.5 -13q114 0 170 70.5t56 178.5v537h245zM913 1378v-159h-655v159h655z
" />
    <glyph glyph-name="Ubreve" unicode="&#x16c;" horiz-adv-x="1478" 
d="M1323 1450v-918q0 -171 -77 -301.5t-209 -199t-298 -68.5t-298 68.5t-208.5 199t-76.5 301.5v918h258v-909q0 -45 9.5 -89.5t33.5 -89t60 -78t93.5 -54.5t128.5 -21q88 0 154.5 31t102 82t52.5 106t17 113v909h258zM383 1843h137q23 -135 211 -135q95 0 143 27t70 108
h135q-17 -150 -107.5 -222.5t-242.5 -72.5q-153 0 -244.5 73t-101.5 222z" />
    <glyph glyph-name="ubreve" unicode="&#x16d;" horiz-adv-x="1175" 
d="M1036 983v-983h-233v158h-4q-37 -82 -111.5 -132.5t-189.5 -50.5q-95 0 -166.5 31.5t-112.5 87t-60.5 122.5t-19.5 146v621h246v-498q0 -34 1.5 -59.5t6.5 -62.5t17.5 -63.5t31.5 -51.5t50.5 -38t72.5 -13q114 0 170 70.5t56 178.5v537h245zM244 1450h137
q23 -135 211 -135q95 0 143 27t70 108h135q-17 -149 -107.5 -222t-242.5 -73q-153 0 -244.5 73t-101.5 222z" />
    <glyph glyph-name="Uring" unicode="&#x16e;" horiz-adv-x="1478" 
d="M1323 1450v-918q0 -171 -77 -301.5t-209 -199t-298 -68.5t-298 68.5t-208.5 199t-76.5 301.5v918h258v-909q0 -45 9.5 -89.5t33.5 -89t60 -78t93.5 -54.5t128.5 -21q88 0 154.5 31t102 82t52.5 106t17 113v909h258zM956 1714q0 -92 -61 -150.5t-154 -58.5t-154 58
t-61 149t61.5 151t153.5 60q93 0 154 -58.5t61 -150.5zM858 1714q0 47 -34.5 79t-82.5 32t-82 -32t-34 -79t34 -78.5t82 -31.5q49 0 83 31t34 79z" />
    <glyph glyph-name="uring" unicode="&#x16f;" horiz-adv-x="1175" 
d="M1036 983v-983h-233v158h-4q-37 -82 -111.5 -132.5t-189.5 -50.5q-95 0 -166.5 31.5t-112.5 87t-60.5 122.5t-19.5 146v621h246v-498q0 -34 1.5 -59.5t6.5 -62.5t17.5 -63.5t31.5 -51.5t50.5 -38t72.5 -13q114 0 170 70.5t56 178.5v537h245zM797 1341q0 -92 -61 -150
t-154 -58t-154 58t-61 148q0 91 61.5 151t153.5 60q93 0 154 -58.5t61 -150.5zM698 1341q0 47 -34 79t-82 32t-82.5 -32t-34.5 -79t34.5 -78.5t82.5 -31.5t82 31t34 79z" />
    <glyph glyph-name="Uhungarumlaut" unicode="&#x170;" horiz-adv-x="1478" 
d="M1323 1450v-918q0 -171 -77 -301.5t-209 -199t-298 -68.5t-298 68.5t-208.5 199t-76.5 301.5v918h258v-909q0 -45 9.5 -89.5t33.5 -89t60 -78t93.5 -54.5t128.5 -21q88 0 154.5 31t102 82t52.5 106t17 113v909h258zM420 1548l203 295h278l-289 -295h-192zM840 1548
l202 295h279l-289 -295h-192z" />
    <glyph glyph-name="uhungarumlaut" unicode="&#x171;" horiz-adv-x="1175" 
d="M1036 983v-983h-233v158h-4q-37 -82 -111.5 -132.5t-189.5 -50.5q-95 0 -166.5 31.5t-112.5 87t-60.5 122.5t-19.5 146v621h246v-498q0 -34 1.5 -59.5t6.5 -62.5t17.5 -63.5t31.5 -51.5t50.5 -38t72.5 -13q114 0 170 70.5t56 178.5v537h245zM256 1155l203 295h278
l-288 -295h-193zM676 1155l203 295h278l-289 -295h-192z" />
    <glyph glyph-name="Uogonek" unicode="&#x172;" horiz-adv-x="1478" 
d="M924 -301l51 -100q-95 -78 -205 -78q-88 0 -149.5 48t-61.5 134q0 122 148 262q-242 12 -396.5 165.5t-154.5 401.5v918h258v-909q0 -57 17 -112t52.5 -106t101.5 -82.5t154 -31.5t154 31.5t102 82.5t53 106t17 112v909h258v-918q0 -229 -133 -380t-346 -181
q-52 -52 -88.5 -111.5t-36.5 -109.5q0 -38 28 -66t66 -28q58 0 111 43z" />
    <glyph glyph-name="uogonek" unicode="&#x173;" horiz-adv-x="1175" 
d="M979 -301l51 -100q-95 -78 -205 -78q-88 0 -149.5 48t-61.5 134q0 76 56 155t133 142v158h-4q-88 -183 -301 -183q-96 0 -167 31.5t-112 86.5t-60.5 122.5t-19.5 146.5v621h246v-498q0 -34 1.5 -59.5t6.5 -62.5t17.5 -63.5t31.5 -51.5t50.5 -38t72.5 -13q114 0 170 70.5
t56 178.5v537h245v-983h-106q-58 -53 -107 -123.5t-49 -126.5q0 -38 28 -66t66 -28q58 0 111 43z" />
    <glyph glyph-name="Wcircumflex" unicode="&#x174;" horiz-adv-x="2009" 
d="M428 0l-428 1450h283l272 -1044h4l326 1044h254l319 -1044h4l285 1044h262l-422 -1450h-246l-335 1104h-5l-335 -1104h-238zM1378 1548h-233l-141 185l-142 -185h-229l235 295h277z" />
    <glyph glyph-name="wcircumflex" unicode="&#x175;" horiz-adv-x="1630" 
d="M348 0l-342 983h266l213 -688h4l199 688h266l213 -688h4l205 688h248l-334 -983h-243l-234 672h-4l-207 -672h-254zM1184 1155h-234l-141 184l-141 -184h-230l236 295h276z" />
    <glyph glyph-name="Ycircumflex" unicode="&#x176;" horiz-adv-x="1290" 
d="M516 0v621l-545 829h324l356 -578l361 578h307l-545 -829v-621h-258zM1024 1548h-233l-142 185l-141 -185h-229l235 295h277z" />
    <glyph glyph-name="ycircumflex" unicode="&#x177;" horiz-adv-x="1062" 
d="M426 -8l-420 991h270l275 -682h4l246 682h256l-465 -1194q-29 -73 -59 -122t-73.5 -86.5t-103 -55t-139.5 -17.5q-93 0 -188 25l30 221q67 -24 125 -24q86 0 124 31.5t71 113.5zM924 1155h-234l-141 184l-141 -184h-230l236 295h276z" />
    <glyph glyph-name="Ydieresis" unicode="&#x178;" horiz-adv-x="1290" 
d="M516 0v621l-545 829h324l356 -578l361 578h307l-545 -829v-621h-258zM276 1696q0 61 44.5 104t111.5 43q68 0 114 -42t46 -105t-46 -105.5t-114 -42.5q-67 0 -111.5 43.5t-44.5 104.5zM698 1696q0 61 44.5 104t111.5 43q68 0 114 -42t46 -105t-46 -105.5t-114 -42.5
q-67 0 -111.5 43.5t-44.5 104.5z" />
    <glyph glyph-name="Zacute" unicode="&#x179;" horiz-adv-x="1251" 
d="M72 0v233l774 984h-762v233h1083v-233l-780 -984h793v-233h-1108zM494 1548l202 295h279l-289 -295h-192z" />
    <glyph glyph-name="zacute" unicode="&#x17a;" horiz-adv-x="987" 
d="M70 0v227l526 555v4h-502v197h799v-223l-533 -563h558v-197h-848zM358 1155l203 295h279l-289 -295h-193z" />
    <glyph glyph-name="Zdotaccent" unicode="&#x17b;" horiz-adv-x="1251" 
d="M72 0v233l774 984h-762v233h1083v-233l-780 -984h793v-233h-1108zM516 1696q0 61 44.5 104t111.5 43q68 0 113.5 -42t45.5 -105t-45.5 -105.5t-113.5 -42.5q-67 0 -111.5 43.5t-44.5 104.5z" />
    <glyph glyph-name="zdotaccent" unicode="&#x17c;" horiz-adv-x="987" 
d="M70 0v227l526 555v4h-502v197h799v-223l-533 -563h558v-197h-848zM379 1303q0 61 44.5 104t111.5 43q68 0 113.5 -42t45.5 -105t-45.5 -105.5t-113.5 -42.5q-67 0 -111.5 43.5t-44.5 104.5z" />
    <glyph glyph-name="Zcaron" unicode="&#x17d;" horiz-adv-x="1251" 
d="M72 0v233l774 984h-762v233h1083v-233l-780 -984h793v-233h-1108zM256 1843h233l142 -184l141 184h225l-235 -295h-273z" />
    <glyph glyph-name="zcaron" unicode="&#x17e;" horiz-adv-x="987" 
d="M70 0v227l526 555v4h-502v197h799v-223l-533 -563h558v-197h-848zM123 1450h233l142 -184l141 184h225l-235 -295h-273z" />
    <glyph glyph-name="florin" unicode="&#x192;" horiz-adv-x="1212" 
d="M983 872v-184h-283l-116 -590q-38 -196 -131 -289.5t-252 -93.5q-115 0 -209 49l92 189q44 -29 96 -29q73 0 107.5 53t56.5 160l109 551h-232v184h268l46 228q13 66 31 118.5t47.5 102t68 82t95 52.5t126.5 20q121 0 240 -64l-94 -190q-56 32 -113 32q-35 0 -62 -13.5
t-43 -31t-29 -50.5t-18.5 -54.5t-13.5 -59.5l-37 -172h250z" />
    <glyph glyph-name="Scommaaccent" unicode="&#x218;" horiz-adv-x="1175" 
d="M1061 1337l-189 -198q-40 56 -107.5 85t-146.5 29q-99 0 -168 -46.5t-69 -139.5q0 -46 23.5 -81t63.5 -58t91.5 -41.5t108.5 -37t114 -39.5t108.5 -53.5t91.5 -75t63.5 -107.5t23.5 -148q0 -113 -42.5 -203t-116 -146t-168 -85t-203.5 -29q-143 0 -267 48t-209 149
l195 188q47 -71 123.5 -111t163.5 -40q99 0 176.5 52.5t77.5 145.5q0 50 -23.5 88.5t-63.5 62.5t-91.5 44t-108.5 38t-114 39t-108.5 53t-91.5 74t-63.5 107t-23.5 148q0 108 45.5 194t121.5 138t170 79t197 27q256 0 416 -150zM307 -528l144 405h249l-174 -405h-219z" />
    <glyph glyph-name="scommaaccent" unicode="&#x219;" horiz-adv-x="909" 
d="M827 858l-163 -147q-71 100 -193 100q-56 0 -99.5 -26.5t-43.5 -77.5q0 -31 23 -52.5t60 -32.5t84.5 -23t97.5 -22.5t97.5 -32.5t84.5 -51.5t60 -81t23 -120.5q0 -84 -37.5 -147t-100 -99t-134.5 -53t-152 -17q-248 0 -383 152l164 154q53 -59 107.5 -90t126.5 -31
q62 0 112.5 29t50.5 83q0 36 -23 61t-60 37t-84.5 24.5t-97.5 22t-97.5 30t-84.5 48.5t-60 78t-23 117q0 79 33.5 141.5t90 100t125.5 57t146 19.5q107 0 200 -36.5t150 -113.5zM190 -528l144 405h250l-174 -405h-220z" />
    <glyph glyph-name="uni021A" unicode="&#x21a;" horiz-adv-x="1175" 
d="M459 0v1217h-445v233h1147v-233h-444v-1217h-258zM367 -528l143 405h250l-174 -405h-219z" />
    <glyph glyph-name="uni021B" unicode="&#x21b;" horiz-adv-x="796" 
d="M227 774h-202v209h202v285h246v-285h270v-209h-270v-430q0 -80 30 -120t107 -40q91 0 133 31v-207q-67 -33 -194 -33q-96 0 -159.5 21.5t-99 67.5t-49.5 107.5t-14 152.5v450zM178 -528l144 405h249l-174 -405h-219z" />
    <glyph glyph-name="dotlessj" unicode="&#x237;" 
d="M143 983h246v-1042q0 -80 -7.5 -140t-28.5 -118t-57.5 -94.5t-96.5 -58.5t-142 -22q-75 0 -133 19l19 213q45 -10 77 -10q30 0 52 8.5t35 26.5t20.5 34.5t11 45.5t4 46t0.5 48v1044z" />
    <glyph glyph-name="circumflex" unicode="&#x2c6;" 
d="M639 1155h-233l-142 184l-141 -184h-229l235 295h277z" />
    <glyph glyph-name="caron" unicode="&#x2c7;" 
d="M-104 1450h233l141 -184l142 184h225l-236 -295h-272z" />
    <glyph glyph-name="uni02C9" unicode="&#x2c9;" 
d="M594 1378v-159h-655v159h655z" />
    <glyph glyph-name="breve" unicode="&#x2d8;" 
d="M-82 1450h137q23 -135 211 -135q95 0 143 27t70 108h135q-17 -149 -107.5 -222t-242.5 -73q-153 0 -244.5 73t-101.5 222z" />
    <glyph glyph-name="dotaccent" unicode="&#x2d9;" 
d="M109 1303q0 61 44 104t111 43q68 0 114 -42t46 -105t-46 -105.5t-114 -42.5q-66 0 -110.5 43.5t-44.5 104.5z" />
    <glyph glyph-name="ring" unicode="&#x2da;" 
d="M481 1341q0 -92 -61 -150t-154 -58t-154 58t-61 148q0 91 61.5 151t153.5 60q93 0 154 -58.5t61 -150.5zM383 1341q0 47 -34.5 79t-82.5 32t-82 -32t-34 -79t34 -78.5t82 -31.5q49 0 83 31t34 79z" />
    <glyph glyph-name="ogonek" unicode="&#x2db;" 
d="M362 -301l52 -100q-95 -78 -205 -78q-88 0 -149.5 48t-61.5 134q0 79 63 164.5t142 144.5h125q-60 -50 -115 -126.5t-55 -135.5q0 -38 28 -66t66 -28q57 0 110 43z" />
    <glyph glyph-name="tilde" unicode="&#x2dc;" 
d="M25 1163h-136q10 54 25 96.5t40.5 81.5t67.5 60.5t97 21.5q61 0 164.5 -37.5t130.5 -37.5q67 0 94 86h135q-10 -55 -24.5 -97t-40 -81t-67.5 -60.5t-97 -21.5q-61 0 -164.5 38.5t-130.5 38.5q-67 0 -94 -88z" />
    <glyph glyph-name="hungarumlaut" unicode="&#x2dd;" 
d="M-41 1155l203 295h278l-288 -295h-193zM379 1155l203 295h278l-289 -295h-192z" />
    <glyph glyph-name="uni0394" unicode="&#x394;" horiz-adv-x="1402" 
d="M1386 0h-1370l553 1458h236zM1063 213l-379 977l-354 -977h733z" />
    <glyph glyph-name="uni03A9" unicode="&#x3a9;" horiz-adv-x="1554" 
d="M1436 0h-566v387q151 28 236.5 147.5t85.5 278.5q0 187 -119.5 318t-304.5 131q-188 0 -308 -131t-120 -320q0 -163 79 -273.5t236 -150.5v-387h-561v217h352v66q-177 55 -264.5 200t-87.5 344q0 186 90 335.5t243 232t337 82.5q186 0 339 -80t243 -228t90 -335
q0 -133 -35 -240t-116 -190t-204 -121v-66h355v-217z" />
    <glyph glyph-name="uni03BC" unicode="&#x3bc;" horiz-adv-x="1175" 
d="M139 983h246v-498q0 -34 1.5 -59.5t6.5 -62.5t17.5 -63.5t31.5 -51.5t50.5 -38t72.5 -13q114 0 170 70.5t56 178.5v537h245v-983h-233v158h-4q-88 -183 -301 -183q-66 0 -113 15v-457h-246v1450z" />
    <glyph glyph-name="pi" unicode="&#x3c0;" horiz-adv-x="1214" 
d="M1188 190v-163q-87 -41 -195 -41q-66 0 -109.5 19t-65.5 58t-30 83t-8 108v520h-374v-774h-240v774h-143v209h1159v-209h-162v-485q0 -22 0.5 -35t5 -31t12 -28t23 -17.5t37.5 -7.5q49 0 90 20z" />
    <glyph glyph-name="endash" unicode="&#x2013;" horiz-adv-x="1024" 
d="M1024 602v-196h-1024v196h1024z" />
    <glyph glyph-name="emdash" unicode="&#x2014;" horiz-adv-x="2048" 
d="M2048 602v-196h-2048v196h2048z" />
    <glyph glyph-name="quoteleft" unicode="&#x2018;" horiz-adv-x="606" 
d="M500 1450l-144 -541h-250l175 541h219z" />
    <glyph glyph-name="quoteright" unicode="&#x2019;" horiz-adv-x="606" 
d="M106 909l144 541h250l-174 -541h-220z" />
    <glyph glyph-name="quotesinglbase" unicode="&#x201a;" horiz-adv-x="606" 
d="M106 -258l144 541h250l-174 -541h-220z" />
    <glyph glyph-name="quotedblleft" unicode="&#x201c;" horiz-adv-x="1062" 
d="M512 1450l-143 -541h-250l174 541h219zM944 1450l-143 -541h-250l174 541h219z" />
    <glyph glyph-name="quotedblright" unicode="&#x201d;" horiz-adv-x="1062" 
d="M551 909l143 541h250l-174 -541h-219zM119 909l143 541h250l-174 -541h-219z" />
    <glyph glyph-name="quotedblbase" unicode="&#x201e;" horiz-adv-x="1062" 
d="M549 -258l143 541h250l-174 -541h-219zM121 -258l143 541h250l-174 -541h-219z" />
    <glyph glyph-name="dagger" unicode="&#x2020;" horiz-adv-x="1214" 
d="M723 1450v-416h407v-196h-407v-1096h-234v1096h-405v196h405v416h234z" />
    <glyph glyph-name="daggerdbl" unicode="&#x2021;" horiz-adv-x="1214" 
d="M723 1450v-379h395v-197h-395v-555h395v-196h-395v-381h-234v381h-393v196h393v555h-393v197h393v379h234z" />
    <glyph glyph-name="bullet" unicode="&#x2022;" horiz-adv-x="1024" 
d="M150 725q0 151 105.5 256.5t256.5 105.5t256.5 -105.5t105.5 -256.5t-105.5 -257t-256.5 -106t-256.5 106t-105.5 257z" />
    <glyph glyph-name="ellipsis" unicode="&#x2026;" horiz-adv-x="2048" 
d="M178 143q0 66 48 113t116 47q67 0 115.5 -45.5t48.5 -110.5q0 -66 -48 -112.5t-116 -46.5q-66 0 -115 45t-49 110zM860 143q0 66 48 113t116 47q67 0 115.5 -45.5t48.5 -110.5q0 -66 -48 -112.5t-116 -46.5q-66 0 -115 45t-49 110zM1542 143q0 66 48 113t116 47
q67 0 115.5 -45.5t48.5 -110.5q0 -66 -48 -112.5t-116 -46.5q-66 0 -115 45t-49 110z" />
    <glyph glyph-name="perthousand" unicode="&#x2030;" horiz-adv-x="2390" 
d="M842 338q0 149 105.5 254.5t254.5 105.5q150 0 256.5 -105.5t106.5 -254.5t-107 -256t-256 -107t-254.5 106.5t-105.5 256.5zM1026 338q0 -77 50 -127.5t126 -50.5t127 51t51 127t-50.5 126t-127.5 50q-76 0 -126 -50t-50 -126zM1653 338q0 149 105.5 254.5t254.5 105.5
q150 0 256.5 -105.5t106.5 -254.5t-107 -256t-256 -107t-254.5 106.5t-105.5 256.5zM1837 338q0 -77 50 -127.5t126 -50.5q77 0 127.5 51t50.5 127t-50.5 126t-127.5 50t-126.5 -50t-49.5 -126zM14 1114q0 149 106 255t255 106t255.5 -106t106.5 -255t-106.5 -255.5
t-255.5 -106.5t-255 106.5t-106 255.5zM199 1114q0 -77 50 -127.5t126 -50.5q77 0 127.5 51t50.5 127t-50.5 126t-127.5 50t-126.5 -50t-49.5 -126zM274 12l852 1504l170 -78l-852 -1504z" />
    <glyph glyph-name="guilsinglleft" unicode="&#x2039;" horiz-adv-x="606" 
d="M526 862l-235 -354l237 -358l-155 -105l-312 463l312 459z" />
    <glyph glyph-name="guilsinglright" unicode="&#x203a;" horiz-adv-x="606" 
d="M80 150l235 354l-237 358l155 105l312 -463l-312 -459z" />
    <glyph glyph-name="fraction" unicode="&#x2044;" horiz-adv-x="342" 
d="M-340 12l852 1504l170 -78l-852 -1504z" />
    <glyph glyph-name="Euro" unicode="&#x20ac;" horiz-adv-x="1249" 
d="M1112 248l84 -197q-62 -40 -157.5 -64t-202.5 -24q-135 0 -246 38.5t-186.5 107.5t-125 155.5t-75.5 190.5h-172l57 176h92q-2 14 -2 45v45q0 67 6 98h-147l61 176h113q62 227 234 359.5t415 132.5q95 0 182.5 -19t145.5 -49l-78 -205q-94 58 -262 58q-130 0 -240.5 -74
t-148.5 -203h590l-58 -176h-571q-6 -43 -6 -100v-43q0 -17 4 -45h524l-55 -176h-438q30 -119 137.5 -197t257.5 -78q153 0 268 68z" />
    <glyph glyph-name="afii61289" unicode="&#x2113;" horiz-adv-x="1024" 
d="M825 225l82 -125q-147 -129 -323 -129q-146 0 -230 78.5t-84 210.5v131l-114 -106h-4l-86 129l202 174v499q0 170 95.5 280t242.5 110q129 0 205 -79t76 -214q0 -154 -92.5 -308t-286.5 -327v-250q0 -80 39 -116t94 -36q84 0 180 78h4zM692 1167q0 64 -25 107t-63 43
q-40 0 -68 -50t-28 -134v-379q184 205 184 413z" />
    <glyph glyph-name="trademark" unicode="&#x2122;" horiz-adv-x="2048" 
d="M332 606v660h-250v184h709v-184h-250v-660h-209zM983 606v844h291l201 -549l200 549h291v-844h-209v549h-4l-207 -549h-143l-207 549h-4v-549h-209z" />
    <glyph glyph-name="Omega" unicode="&#x2126;" horiz-adv-x="1554" 
d="M1436 0h-566v387q151 28 236.5 147.5t85.5 278.5q0 187 -119.5 318t-304.5 131q-188 0 -308 -131t-120 -320q0 -163 79 -273.5t236 -150.5v-387h-561v217h352v66q-177 55 -264.5 200t-87.5 344q0 186 90 335.5t243 232t337 82.5q186 0 339 -80t243 -228t90 -335
q0 -133 -35 -240t-116 -190t-204 -121v-66h355v-217z" />
    <glyph glyph-name="estimated" unicode="&#x212e;" horiz-adv-x="1024" 
d="M1149 530h-827v-370q121 -121 296 -121q129 0 223.5 58.5t172.5 187.5l71 -43q-95 -149 -201 -213t-266 -64q-157 0 -278.5 75.5t-185.5 203.5t-64 286q0 159 64 287t185.5 203.5t278.5 75.5q236 0 383.5 -158t147.5 -408zM322 604h596v297q-129 123 -302 123
q-171 0 -294 -123v-297z" />
    <glyph glyph-name="partialdiff" unicode="&#x2202;" horiz-adv-x="1138" 
d="M1053 733q0 -80 -6 -153t-22.5 -150.5t-42 -143t-66.5 -124.5t-94 -100t-127.5 -65t-164.5 -24q-200 0 -324 132.5t-124 334.5q0 198 122.5 325.5t319.5 127.5q155 0 293 -113v58q2 62 -6.5 123t-31 123t-57 108.5t-90 76t-124.5 29.5q-125 0 -250 -100l-121 143
q92 71 173 103.5t186 32.5q123 0 220.5 -43.5t159.5 -115t102.5 -169.5t57.5 -200.5t17 -215.5zM815 541l-2 51q-59 66 -118 98.5t-140 32.5q-121 0 -185.5 -85t-64.5 -210q0 -120 59 -201.5t175 -81.5q69 0 125 38.5t88.5 98.5t48.5 127.5t14 131.5z" />
    <glyph glyph-name="Delta" unicode="&#x2206;" horiz-adv-x="1402" 
d="M1386 0h-1370l553 1458h236zM1063 213l-379 977l-354 -977h733z" />
    <glyph glyph-name="product" unicode="&#x220f;" horiz-adv-x="1517" 
d="M1391 -438h-234v1837h-797v-1837h-233v2048h1264v-2048z" />
    <glyph glyph-name="summation" unicode="&#x2211;" horiz-adv-x="1327" 
d="M1278 -438h-1227v182l621 854l-594 829v183h1173v-211h-864l563 -799l-600 -827h928v-211z" />
    <glyph glyph-name="minus" unicode="&#x2212;" horiz-adv-x="1363" 
d="M127 725h1110v-209h-1110v209z" />
    <glyph glyph-name="uni2215" unicode="&#x2215;" horiz-adv-x="342" 
d="M-340 12l852 1504l170 -78l-852 -1504z" />
    <glyph glyph-name="uni2219" unicode="&#x2219;" horiz-adv-x="606" 
d="M139 596q0 66 48 113t116 47q67 0 115.5 -45.5t48.5 -110.5q0 -66 -48 -113t-116 -47q-67 0 -115.5 45.5t-48.5 110.5z" />
    <glyph glyph-name="radical" unicode="&#x221a;" horiz-adv-x="1099" 
d="M1124 1610l-432 -2048h-217l-311 649l-105 -51l-84 184l304 139l264 -559l344 1686h237z" />
    <glyph glyph-name="infinity" unicode="&#x221e;" horiz-adv-x="1669" 
d="M1577 539q0 -160 -94 -266.5t-252 -106.5q-115 0 -210 62t-185 167q-55 -58 -87.5 -88.5t-84 -68t-105.5 -54t-117 -16.5q-158 0 -254 105t-96 264q0 158 93 262t249 104q53 0 102 -14.5t86 -34.5t78.5 -56t68.5 -64.5t67 -74.5q46 55 83 92.5t87 76t107 58t120 19.5
q156 0 250 -104t94 -262zM1393 532q0 76 -44 126.5t-120 50.5q-38 0 -77 -16.5t-77 -46.5t-64.5 -55.5t-58.5 -60.5q147 -168 283 -168q73 0 115.5 48t42.5 122zM717 530q-162 177 -283 177q-70 0 -114 -51.5t-44 -123.5q0 -75 44.5 -121t119.5 -46q71 0 144.5 48.5
t132.5 116.5z" />
    <glyph glyph-name="integral" unicode="&#x222b;" horiz-adv-x="1251" 
d="M995 1452q0 -47 -29.5 -76.5t-76.5 -29.5q-44 0 -70 23.5t-33.5 51t-20 51t-32.5 23.5q-33 0 -33 -53q0 -42 4.5 -125t4.5 -125v-1206q0 -69 -6 -124t-24.5 -114t-50 -98t-86 -64.5t-128.5 -25.5q-39 0 -77 8.5t-73 25.5t-56.5 48.5t-21.5 72.5q0 47 31 78t78 31
q44 0 70 -23.5t33.5 -51.5t18.5 -51.5t29 -23.5q9 0 15.5 3.5t10 11t6 15t3 18t1 17.5t0 17t-0.5 13q0 36 -4 104t-4 104v1037q0 22 -1 69q-3 57 0 118t8 119.5t25 111t51 92.5t85.5 63t128.5 23q51 0 100 -15t87 -52.5t38 -90.5z" />
    <glyph glyph-name="approxequal" unicode="&#x2248;" horiz-adv-x="1363" 
d="M1087 924h146q-5 -56 -18 -106t-37.5 -96t-58 -79t-82.5 -52.5t-109 -19.5q-69 0 -175 35.5t-202 71t-141 35.5q-52 0 -85.5 -42t-45.5 -100h-146q6 68 26 128t54.5 112.5t91 83.5t127.5 31q57 0 131.5 -21t135.5 -46.5t134 -46.5t128 -21q53 0 83.5 37.5t42.5 95.5z
M1083 498h146q-6 -71 -25.5 -131.5t-54.5 -112t-92 -80.5t-131 -29q-70 0 -175.5 35.5t-201.5 71t-143 35.5q-52 0 -86 -41.5t-46 -98.5h-145q6 68 26 128t54.5 112t90.5 82.5t128 30.5q57 0 131.5 -21t135 -46.5t133.5 -46.5t128 -21q53 0 84 37.5t43 95.5z" />
    <glyph glyph-name="notequal" unicode="&#x2260;" horiz-adv-x="1363" 
d="M1200 332h-541l-151 -295l-180 92l102 203h-266v209h371l77 159h-448v209h553l147 293l185 -90l-105 -203h256v-209h-360l-78 -159h438v-209z" />
    <glyph glyph-name="lessequal" unicode="&#x2264;" horiz-adv-x="1363" 
d="M1200 295l-1036 348v221l1036 363v-232l-735 -241l735 -230v-229zM1200 8h-1036v219h1036v-219z" />
    <glyph glyph-name="greaterequal" unicode="&#x2265;" horiz-adv-x="1363" 
d="M164 295v229l735 230l-735 241v232l1036 -363v-221zM164 8v219h1036v-219h-1036z" />
    <glyph glyph-name="lozenge" unicode="&#x25ca;" horiz-adv-x="1214" 
d="M1073 729l-364 -801h-205l-363 801l363 801h205zM850 729l-244 584l-241 -584l241 -586z" />
    <glyph glyph-name="grave.cap" unicode="&#xe300;" 
d="M160 1843l202 -295h-192l-289 295h279z" />
    <glyph glyph-name="acute.cap" unicode="&#xe301;" 
d="M170 1548l203 295h278l-289 -295h-192z" />
    <glyph glyph-name="circumflex.cap" unicode="&#xe302;" 
d="M639 1548h-233l-142 185l-141 -185h-229l235 295h277z" />
    <glyph glyph-name="caron.cap" unicode="&#xe303;" 
d="M-104 1843h233l141 -184l142 184h225l-236 -295h-272z" />
    <glyph glyph-name="tilde.cap" unicode="&#xe304;" 
d="M25 1556h-136q10 54 25 96.5t40.5 82t67.5 61t97 21.5q60 0 163.5 -38t131.5 -38q68 0 94 86h135q-10 -55 -24.5 -97t-40 -81t-67.5 -60.5t-97 -21.5q-60 0 -163.5 39t-131.5 39q-67 0 -94 -89z" />
    <glyph glyph-name="dieresis.cap" unicode="&#xe305;" 
d="M-102 1696q0 61 44 104t111 43q68 0 114 -42t46 -105t-46 -105.5t-114 -42.5q-66 0 -110.5 43.5t-44.5 104.5zM319 1696q0 61 44.5 104t111.5 43q68 0 114 -42t46 -105t-46 -105.5t-114 -42.5q-67 0 -111.5 43.5t-44.5 104.5z" />
    <glyph glyph-name="macron.cap" unicode="&#xe306;" 
d="M594 1772v-160h-655v160h655z" />
    <glyph glyph-name="breve.cap" unicode="&#xe307;" 
d="M-82 1843h137q23 -135 211 -135q95 0 143 27t70 108h135q-17 -150 -107.5 -222.5t-242.5 -72.5q-153 0 -244.5 73t-101.5 222z" />
    <glyph glyph-name="ring.cap" unicode="&#xe308;" 
d="M481 1714q0 -92 -61 -150.5t-154 -58.5t-154 58t-61 149t61.5 151t153.5 60q93 0 154 -58.5t61 -150.5zM383 1714q0 47 -34.5 79t-82.5 32t-82 -32t-34 -79t34 -78.5t82 -31.5q49 0 83 31t34 79z" />
    <glyph glyph-name="hungarumlaut.cap" unicode="&#xe309;" 
d="M-41 1548l203 295h278l-288 -295h-193zM379 1548l203 295h278l-289 -295h-192z" />
    <glyph glyph-name="dotaccent.cap" unicode="&#xe30a;" 
d="M109 1696q0 61 44 104t111 43q68 0 114 -42t46 -105t-46 -105.5t-114 -42.5q-66 0 -110.5 43.5t-44.5 104.5z" />
    <glyph glyph-name="caron.alt" unicode="&#xe30b;" 
d="M98 1044l123 406h250l-174 -406h-199z" />
    <glyph glyph-name="commaaccent" unicode="&#xe30c;" 
d="M57 -528l144 405h250l-175 -405h-219z" />
    <glyph glyph-name="commaaccent.alt" unicode="&#xe30d;" 
d="M471 1602l-143 -406h-250l174 406h219z" />
    <glyph glyph-name="uniF8FF" unicode="&#xf8ff;" horiz-adv-x="1048" 
d="M569 240h-114v137h114v-137zM555 479h-94l-4 35q0 115 26 166q28 54 95 121q62 58 82 94t20 76q0 73 -46 123.5t-110 50.5q-67 0 -112 -47.5t-56 -147.5l-102 17q13 142 86.5 211t189.5 69q112 0 183 -73.5t71 -194.5q0 -69 -27 -123t-102 -123q-77 -68 -88 -106
q-12 -41 -12 -148zM102 102h844v1264h-844v-1264zM0 1470h1049v-1470h-1049v1470z" />
    </font>
</defs>
</svg>
