<svg xmlns="http://www.w3.org/2000/svg">
<defs>
<font id="AvenirLTPro-Book" horiz-adv-x="1138" >
  <font-face 
    font-family="Avenir LT Pro 45 Book"
    font-weight="400"
    font-stretch="normal"
    units-per-em="2048"
    panose-1="2 11 5 2 2 2 3 2 2 4"
    ascent="1548"
    descent="-500"
    x-height="958"
    cap-height="1450"
    bbox="-342 -590 2048 1925"
    underline-thickness="102"
    underline-position="-307"
    unicode-range="U+000D-FB02"
  />
<missing-glyph horiz-adv-x="1048" 
d="M569 240h-114v137h114v-137zM555 479h-94l-4 35q0 115 26 166q28 54 95 121q62 58 82 94t20 76q0 73 -46 123.5t-110 50.5q-67 0 -112 -47.5t-56 -147.5l-102 17q13 142 86.5 211t189.5 69q112 0 183 -73.5t71 -194.5q0 -69 -27 -123t-102 -123q-77 -68 -88 -106
q-12 -41 -12 -148zM102 102h844v1264h-844v-1264zM0 1470h1049v-1470h-1049v1470z" />
    <glyph glyph-name="IJ" unicode="IJ" horiz-adv-x="1409" 
d="M344 1450v-1450h-147v1450h147zM451 266l149 31q21 -94 78 -146.5t151 -52.5q62 0 109 21t74.5 54.5t44 82.5t22.5 97t6 106v991h148v-1053q0 -62 -12 -120.5t-42 -116.5t-75.5 -101t-117 -69.5t-161.5 -26.5q-152 0 -251 78t-123 225z" />
    <glyph glyph-name="ij" unicode="ij" horiz-adv-x="972" 
d="M313 958v-958h-135v958h135zM344 1327q0 -41 -30 -69.5t-68 -28.5t-68.5 28.5t-30.5 69.5t30.5 69.5t68.5 28.5t68 -28.5t30 -69.5zM418 -471l18 117l6 -2q50 -13 72 -13q47 0 78 17.5t44.5 50.5t18 62.5t4.5 70.5v1126h136v-1148v-8q0 -23 -0.5 -38.5t-5 -49t-14 -57.5
t-29.5 -54t-48 -49t-73 -32.5t-101 -13.5q-54 0 -106 21zM825 1327q0 -41 -30 -69.5t-68 -28.5t-68 28.5t-30 69.5t30 69.5t68 28.5t68 -28.5t30 -69.5z" />
    <glyph glyph-name="napostrophe" unicode="&#x22;n" 
d="M137 958h139q7 -60 7 -153h4q44 78 134.5 128t186.5 50q180 0 270.5 -97t90.5 -278v-608h-135v530q0 168 -58 249t-203 81q-10 0 -25.5 -2t-44.5 -10t-56.5 -22t-58 -42.5t-53 -65.5t-37.5 -95.5t-15 -130.5v-492h-136v748q0 35 -10 210zM307 1450l-155 -379h-117
l127 379h145z" />
    <glyph glyph-name="fi" unicode="fi" horiz-adv-x="1099" 
d="M594 958v-122h-227v-836h-136v836h-202v122h202v263q0 352 322 352q49 0 117 -14l-25 -123q-58 14 -104 14q-54 0 -90 -18t-53.5 -54t-24 -76t-6.5 -98v-246h227zM922 958v-958h-136v958h136zM952 1327q0 -41 -30 -69.5t-68 -28.5t-68 28.5t-30 69.5t30 69.5t68 28.5
t68 -28.5t30 -69.5z" />
    <glyph glyph-name="fl" unicode="fl" horiz-adv-x="1099" 
d="M594 958v-122h-227v-836h-136v836h-202v122h202v263q0 352 322 352q49 0 117 -14l-25 -123q-58 14 -104 14q-54 0 -90 -18t-53.5 -54t-24 -76t-6.5 -98v-246h227zM922 1548v-1548h-136v1548h136z" />
    <glyph glyph-name=".notdef" horiz-adv-x="1048" 
d="M569 240h-114v137h114v-137zM555 479h-94l-4 35q0 115 26 166q28 54 95 121q62 58 82 94t20 76q0 73 -46 123.5t-110 50.5q-67 0 -112 -47.5t-56 -147.5l-102 17q13 142 86.5 211t189.5 69q112 0 183 -73.5t71 -194.5q0 -69 -27 -123t-102 -123q-77 -68 -88 -106
q-12 -41 -12 -148zM102 102h844v1264h-844v-1264zM0 1470h1049v-1470h-1049v1470z" />
    <glyph glyph-name=".null" horiz-adv-x="1024" 
 />
    <glyph glyph-name="nonmarkingreturn" horiz-adv-x="682" 
 />
    <glyph glyph-name="CR" unicode="&#xd;" horiz-adv-x="0" 
 />
    <glyph glyph-name="space" unicode=" " horiz-adv-x="569" 
 />
    <glyph glyph-name="exclam" unicode="!" horiz-adv-x="569" 
d="M358 1450v-1057h-147v1057h147zM395 98q0 -44 -31 -77t-79 -33t-79.5 33t-31.5 77t31.5 77.5t79.5 33.5t79 -33.5t31 -77.5z" />
    <glyph glyph-name="quotedbl" unicode="&#x22;" horiz-adv-x="1062" 
d="M322 969v481h122v-481h-122zM618 969v481h123v-481h-123z" />
    <glyph glyph-name="numbersign" unicode="#" 
d="M219 0l62 438h-209v123h225l45 332h-221v123h239l60 434h125l-60 -434h273l59 434h125l-59 -434h184v-123h-203l-45 -332h195v-123h-211l-62 -438h-125l62 438h-272l-62 -438h-125zM467 893l-45 -332h272l45 332h-272z" />
    <glyph glyph-name="dollar" unicode="$" 
d="M520 829v517q-108 -7 -178 -82t-70 -181q0 -50 19 -90.5t55.5 -70.5t77 -51.5t96.5 -41.5zM618 643v-541q34 0 68.5 7.5t71 27t64.5 48t46 75.5t19 105q1 99 -71.5 169t-197.5 109zM520 100v572q-80 25 -142 54t-123.5 76t-95.5 117.5t-34 159.5q0 86 33.5 160.5t89 124
t126 80t146.5 35.5v143h98v-139q92 0 168 -26.5t121 -61t90 -86.5l-114 -99q-41 69 -114 104.5t-151 33.5v-547q59 -21 101.5 -39.5t94.5 -46t88 -60t68 -74.5t48 -97t16 -119q0 -168 -118 -277.5t-298 -120.5v-139h-98v135q-137 7 -252 70t-180 155l123 88
q65 -81 153 -129.5t156 -46.5z" />
    <glyph glyph-name="percent" unicode="%" horiz-adv-x="1705" 
d="M799 1116q0 -151 -104.5 -254.5t-256.5 -103.5t-256 103.5t-104 254.5t104 255t256 104t256.5 -104t104.5 -255zM676 1116q0 100 -70 168t-168 68t-167.5 -68t-69.5 -168t69.5 -167.5t167.5 -67.5t168 67.5t70 167.5zM1628 334q0 -151 -104 -255t-256 -104t-256.5 104
t-104.5 255t104.5 254.5t256.5 103.5t256 -103.5t104 -254.5zM1505 334q0 100 -69.5 167.5t-167.5 67.5t-168 -67.5t-70 -167.5t70 -168t168 -68t167.5 68t69.5 168zM1366 1458l-922 -1521l-106 55l924 1521z" />
    <glyph glyph-name="ampersand" unicode="&#x26;" horiz-adv-x="1441" 
d="M1350 784l-267 -448l326 -336h-209l-205 213q-96 -125 -199 -187.5t-243 -62.5q-123 0 -225.5 48.5t-166 144t-63.5 221.5q0 272 330 428q-170 182 -170 340q0 159 102.5 250.5t260.5 91.5q151 0 250.5 -86.5t99.5 -239.5q0 -55 -19.5 -105t-49 -87t-75 -73.5t-85 -60.5
t-91.5 -51l334 -344l199 344h166zM823 1161q0 85 -57.5 138t-142.5 53q-93 0 -155 -58.5t-62 -154.5q0 -65 51 -141t100 -119q9 5 42.5 23.5t47 26.5t43 27t43 31.5t34.5 34.5t31 41t17.5 45t7.5 53zM903 311l-383 402q-146 -81 -204 -154.5t-58 -183.5q0 -120 87.5 -198.5
t209.5 -78.5q75 0 140.5 30.5t109.5 72.5t98 110z" />
    <glyph glyph-name="quotesingle" unicode="'" horiz-adv-x="532" 
d="M205 969v481h123v-481h-123z" />
    <glyph glyph-name="parenleft" unicode="(" horiz-adv-x="532" 
d="M408 1507l108 -69q-141 -227 -205.5 -417.5t-64.5 -430.5q0 -239 61.5 -422t200.5 -414l-109 -82q-137 191 -212.5 430.5t-75.5 487.5q0 240 76.5 480.5t220.5 436.5z" />
    <glyph glyph-name="parenright" unicode=")" horiz-adv-x="532" 
d="M125 -328l-109 70q141 228 206 418t65 430q0 239 -61.5 421.5t-200.5 413.5l108 82q137 -192 213 -431t76 -486q0 -240 -76.5 -481t-220.5 -437z" />
    <glyph glyph-name="asterisk" unicode="*" horiz-adv-x="909" 
d="M516 1450v-293l287 92l43 -114l-289 -93l184 -247l-98 -74l-188 254l-189 -254l-98 74l184 247l-289 93l43 114l287 -92v293h123z" />
    <glyph glyph-name="plus" unicode="+" horiz-adv-x="1363" 
d="M743 1143v-461h461v-123h-461v-461h-122v461h-461v123h461v461h122z" />
    <glyph glyph-name="comma" unicode="," horiz-adv-x="569" 
d="M436 195l-166 -482h-137l137 482h166z" />
    <glyph glyph-name="hyphen" unicode="-" horiz-adv-x="681" 
d="M604 559v-135h-526v135h526z" />
    <glyph glyph-name="period" unicode="." horiz-adv-x="569" 
d="M395 98q0 -44 -31 -77t-79 -33t-79.5 33t-31.5 77t31.5 77.5t79.5 33.5t79 -33.5t31 -77.5z" />
    <glyph glyph-name="slash" unicode="/" horiz-adv-x="757" 
d="M748 1446l-619 -1483l-119 39l621 1485z" />
    <glyph glyph-name="zero" unicode="0" 
d="M569 1475q86 0 158 -25t122 -67t88.5 -102.5t61.5 -125t37.5 -141.5t19.5 -145.5t5 -143.5t-5 -143.5t-19.5 -145.5t-37.5 -141.5t-61.5 -125t-88.5 -102.5t-122 -67t-158 -25t-157.5 25t-121.5 67t-88.5 102.5t-61.5 125t-37.5 141.5t-19.5 145.5t-5 143.5t5 143.5
t19.5 145.5t37.5 141.5t61.5 125t88.5 102.5t121.5 67t157.5 25zM569 1339q-344 0 -344 -614t344 -614t344 614t-344 614z" />
    <glyph glyph-name="one" unicode="1" 
d="M713 1450v-1450h-148v1266l-260 -230l-92 111l369 303h131z" />
    <glyph glyph-name="two" unicode="2" 
d="M1020 135v-135h-922v170l578 588q42 42 67.5 72t56 73.5t45.5 89t15 92.5q0 117 -79.5 185.5t-200.5 68.5q-109 0 -187.5 -61.5t-101.5 -165.5l-156 16q31 160 148.5 253.5t285.5 93.5q120 0 217.5 -41t159.5 -128.5t62 -207.5q0 -54 -10.5 -103.5t-34.5 -96.5t-46 -83
t-63 -82t-66 -71.5t-73 -73.5l-457 -453h762z" />
    <glyph glyph-name="three" unicode="3" 
d="M418 692v135h76q140 0 228.5 65.5t88.5 201.5q0 117 -71 181t-197 64q-90 0 -161.5 -41t-115.5 -118l-129 65q127 230 402 230q115 0 209 -43t152 -130t58 -204q0 -115 -71 -207t-174 -125l6 -4q124 -26 201 -129t77 -240q0 -130 -63.5 -226.5t-167 -144t-231.5 -47.5
q-343 0 -457 293l155 47q37 -105 111.5 -154.5t202.5 -49.5q127 0 215 80.5t88 205.5q0 79 -30.5 138t-83.5 92t-116.5 49t-138.5 16h-63z" />
    <glyph glyph-name="four" unicode="4" 
d="M852 1450v-971h209v-135h-209v-344h-147v344h-627v168l586 938h188zM705 479v824h-5l-499 -824h504z" />
    <glyph glyph-name="five" unicode="5" 
d="M952 1450v-135h-594l-8 -436q83 34 195 34q202 0 330.5 -131.5t128.5 -332.5q0 -209 -138.5 -341.5t-349.5 -132.5q-139 0 -249.5 67t-168.5 191l146 64q42 -86 116 -136t168 -50q138 0 233 94t95 229q0 153 -100 248.5t-256 95.5q-151 0 -301 -80l14 752h739z" />
    <glyph glyph-name="six" unicode="6" 
d="M788 1450l-395 -623l4 -4q33 23 90 36t111 13q190 0 316 -127t126 -321q0 -198 -133 -323.5t-338 -125.5t-338 125.5t-133 323.5q0 111 31.5 200t93.5 189l391 637h174zM246 424q0 -138 90.5 -225.5t232.5 -87.5q143 0 233.5 87.5t90.5 225.5t-90.5 225.5t-233.5 87.5
q-142 0 -232.5 -87.5t-90.5 -225.5z" />
    <glyph glyph-name="seven" unicode="7" 
d="M971 1450v-135l-584 -1315h-166l596 1315h-706v135h860z" />
    <glyph glyph-name="eight" unicode="8" 
d="M381 768v4q-95 32 -156 123t-61 201q0 168 118.5 273.5t286.5 105.5t287 -105.5t119 -273.5q0 -110 -61 -201t-156 -123v-4q122 -32 196 -135.5t74 -245.5q0 -122 -64 -217.5t-168 -145t-227 -49.5t-226.5 49.5t-167.5 145t-64 217.5q0 142 74 245.5t196 135.5zM827 1083
q0 111 -74 183.5t-184 72.5t-184 -72.5t-74 -183.5t74 -183.5t184 -72.5t184 72.5t74 183.5zM881 408q0 129 -86.5 213t-225.5 84t-225 -84t-86 -213t86 -213t225 -84t225.5 84t86.5 213z" />
    <glyph glyph-name="nine" unicode="9" 
d="M350 0l395 623l-4 4q-33 -23 -89.5 -36t-110.5 -13q-190 0 -316.5 127t-126.5 321q0 198 133 323.5t338 125.5t338 -125.5t133 -323.5q0 -111 -31.5 -200t-93.5 -189l-391 -637h-174zM893 1026q0 138 -90.5 225.5t-233.5 87.5q-142 0 -232.5 -87.5t-90.5 -225.5
t90.5 -225.5t232.5 -87.5q143 0 233.5 87.5t90.5 225.5z" />
    <glyph glyph-name="colon" unicode=":" horiz-adv-x="569" 
d="M395 858q0 -44 -31 -77t-79 -33t-79.5 33t-31.5 77t31.5 77.5t79.5 33.5t79 -33.5t31 -77.5zM395 98q0 -44 -31 -77t-79 -33t-79.5 33t-31.5 77t31.5 77.5t79.5 33.5t79 -33.5t31 -77.5z" />
    <glyph glyph-name="semicolon" unicode=";" horiz-adv-x="569" 
d="M436 195l-166 -482h-137l137 482h166zM414 858q0 -44 -31.5 -77t-79.5 -33t-79 33t-31 77t31 77.5t79 33.5t79.5 -33.5t31.5 -77.5z" />
    <glyph glyph-name="less" unicode="&#x3c;" horiz-adv-x="1363" 
d="M1204 1155v-123l-878 -411l878 -412v-123l-1044 487v95z" />
    <glyph glyph-name="equal" unicode="=" horiz-adv-x="1363" 
d="M160 836h1044v-123h-1044v123zM160 528h1044v-122h-1044v122z" />
    <glyph glyph-name="greater" unicode="&#x3e;" horiz-adv-x="1363" 
d="M160 1032v123l1044 -487v-95l-1044 -487v123l878 412z" />
    <glyph glyph-name="question" unicode="?" horiz-adv-x="987" 
d="M565 498v-105h-147v170q1 45 19.5 87.5t48 76.5t65 67t70.5 67t64 69t47 80t18 94q0 104 -67 169.5t-173 65.5q-102 0 -171.5 -61t-88.5 -162l-154 19q23 158 136.5 249t275.5 91q170 0 279.5 -95.5t109.5 -263.5q0 -71 -18.5 -128t-47.5 -95t-64.5 -71.5t-71 -65
t-64.5 -65.5t-47.5 -83.5t-18.5 -109.5zM614 98q0 -44 -31 -77t-79 -33t-79.5 33t-31.5 77t31.5 77.5t79.5 33.5t79 -33.5t31 -77.5z" />
    <glyph glyph-name="at" unicode="@" horiz-adv-x="1638" 
d="M1030 838q0 86 -50 145t-116 59q-95 -4 -176 -75t-124.5 -170.5t-43.5 -196.5q0 -86 54.5 -141.5t138.5 -55.5t159.5 74.5t116.5 174.5t41 186zM1102 997l45 129h115l-172 -577q-19 -66 -19 -105q0 -16 13 -28.5t34 -12.5q70 0 142 63.5t119.5 168.5t47.5 215
q0 149 -83.5 271.5t-214.5 188.5t-275 66q-172 0 -321 -91.5t-235.5 -241.5t-86.5 -318t86.5 -318t235.5 -241.5t321 -91.5q154 0 295 66.5t223 181.5h129q-98 -167 -272 -263t-375 -96q-206 0 -382 100.5t-280 276t-104 385.5t104 385.5t280 276t382 100.5
q189 0 347.5 -79.5t253.5 -224.5t95 -325q0 -102 -31 -195.5t-81.5 -161t-113 -118.5t-126 -76.5t-119.5 -25.5q-129 0 -143 120h-4q-55 -58 -114 -89t-142 -31q-130 0 -210.5 85t-80.5 222q0 106 35 209.5t95.5 185t152 132t196.5 50.5q176 0 234 -168h4z" />
    <glyph glyph-name="A" unicode="A" horiz-adv-x="1404" 
d="M332 381l-160 -381h-172l631 1450h143l631 -1450h-172l-160 381h-741zM702 1278l-315 -762h629z" />
    <glyph glyph-name="B" unicode="B" horiz-adv-x="1290" 
d="M197 0v1450h432q95 0 175 -19t147.5 -60t106 -114t38.5 -172q0 -120 -67.5 -204.5t-188.5 -112.5v-4q153 -12 240 -108.5t87 -254.5q0 -24 -4.5 -52t-19 -68t-37 -77.5t-64 -75t-94.5 -65.5t-133 -45.5t-176 -17.5h-442zM344 1315v-500h297q56 0 106 14t93.5 42.5
t69.5 79.5t26 118q0 23 -5 48.5t-24 63t-50 65.5t-91 48.5t-139 20.5h-283zM344 692v-557h283q169 0 275 69.5t106 205.5q0 282 -363 282h-301z" />
    <glyph glyph-name="C" unicode="C" horiz-adv-x="1441" 
d="M1270 315l121 -86q-75 -117 -219 -191.5t-318 -74.5q-213 0 -386 98t-271.5 272.5t-98.5 391.5t98.5 391.5t271.5 272.5t386 98q144 0 277.5 -57t224.5 -173l-129 -96q-45 74 -153.5 132.5t-219.5 58.5q-136 0 -250 -51t-188.5 -137.5t-116 -199.5t-41.5 -239t41.5 -239
t116 -199.5t188.5 -137.5t250 -51q275 0 416 217z" />
    <glyph glyph-name="D" unicode="D" horiz-adv-x="1517" 
d="M176 0v1450h481q110 0 218 -28.5t206.5 -88.5t173.5 -144t119.5 -204t44.5 -260t-44.5 -260t-119.5 -204t-173.5 -144t-206.5 -88.5t-218 -28.5h-481zM324 1315v-1180h286q129 0 237 32.5t183 89t128 132t77.5 160.5t24.5 176t-24.5 176t-77.5 160.5t-128 132t-183 89
t-237 32.5h-286z" />
    <glyph glyph-name="E" unicode="E" horiz-adv-x="1214" 
d="M344 686v-551h776v-135h-923v1450h899v-135h-752v-494h703v-135h-703z" />
    <glyph glyph-name="F" unicode="F" 
d="M344 686v-686h-147v1450h874v-135h-727v-494h676v-135h-676z" />
    <glyph glyph-name="G" unicode="G" horiz-adv-x="1593" 
d="M1378 1292l-110 -108q-158 168 -414 168q-136 0 -250 -51t-188.5 -137.5t-116 -199.5t-41.5 -239t41.5 -239t116 -199.5t188.5 -137.5t250 -51q217 0 401 103v485h-346v135h494v-710q-119 -70 -266.5 -109t-282.5 -39q-213 0 -386 98t-271.5 272.5t-98.5 391.5
t98.5 391.5t271.5 272.5t386 98q329 0 524 -195z" />
    <glyph glyph-name="H" unicode="H" horiz-adv-x="1478" 
d="M197 0v1450h147v-629h791v629h147v-1450h-147v686h-791v-686h-147z" />
    <glyph glyph-name="I" unicode="I" horiz-adv-x="540" 
d="M344 1450v-1450h-147v1450h147z" />
    <glyph glyph-name="J" unicode="J" horiz-adv-x="987" 
d="M29 266l149 31q21 -94 78.5 -146.5t151.5 -52.5q62 0 109 21t74.5 54.5t44 82.5t22.5 97t6 106v991h147v-1053q0 -62 -12 -120.5t-42 -116.5t-75.5 -101t-117 -69.5t-161.5 -26.5q-152 0 -251 78t-123 225z" />
    <glyph glyph-name="K" unicode="K" horiz-adv-x="1290" 
d="M344 1450v-629h21l682 629h210l-731 -657l772 -793h-217l-712 748h-25v-748h-147v1450h147z" />
    <glyph glyph-name="L" unicode="L" horiz-adv-x="1024" 
d="M344 1450v-1315h676v-135h-823v1450h147z" />
    <glyph glyph-name="M" unicode="M" horiz-adv-x="1822" 
d="M422 1450l489 -1180l490 1180h225v-1450h-147v1253h-4l-525 -1253h-78l-524 1253h-4v-1253h-147v1450h225z" />
    <glyph glyph-name="N" unicode="N" horiz-adv-x="1593" 
d="M381 1450l864 -1229h4v1229h148v-1450h-185l-864 1241h-4v-1241h-147v1450h184z" />
    <glyph glyph-name="O" unicode="O" horiz-adv-x="1708" 
d="M1610 725q0 -217 -98.5 -391.5t-271.5 -272.5t-386 -98t-386 98t-271.5 272.5t-98.5 391.5t98.5 391.5t271.5 272.5t386 98t386 -98t271.5 -272.5t98.5 -391.5zM1450 725q0 126 -41.5 239t-116 199.5t-188.5 137.5t-250 51t-250 -51t-188.5 -137.5t-116 -199.5
t-41.5 -239t41.5 -239t116 -199.5t188.5 -137.5t250 -51t250 51t188.5 137.5t116 199.5t41.5 239z" />
    <glyph glyph-name="P" unicode="P" horiz-adv-x="1175" 
d="M197 0v1450h421q226 0 352 -98t126 -289t-126 -290t-352 -99h-274v-674h-147zM344 1315v-506h238q186 0 270 70t84 184t-84 183t-270 69h-238z" />
    <glyph glyph-name="Q" unicode="Q" horiz-adv-x="1708" 
d="M258 743q0 -121 40 -231t112 -194t181.5 -133.5t239.5 -49.5q172 0 304.5 85.5t200 222.5t67.5 300q0 121 -40 231t-112 194t-181 134t-239 50t-239.5 -50t-181.5 -134t-112 -194t-40 -231zM1661 135v-135h-830q-207 0 -375 95.5t-263 265.5t-95 382q0 159 56 297.5
t153 236.5t233 154t291 56t290.5 -56t232.5 -154t153 -236.5t56 -297.5q0 -202 -84 -357.5t-256 -246.5v-4h438z" />
    <glyph glyph-name="R" unicode="R" horiz-adv-x="1214" 
d="M344 674v-674h-147v1450h446q226 0 351.5 -98t125.5 -289q0 -154 -97.5 -257t-272.5 -118l417 -688h-180l-397 674h-246zM344 1315v-506h262q186 0 270.5 70t84.5 184t-84.5 183t-270.5 69h-262z" />
    <glyph glyph-name="S" unicode="S" 
d="M1012 1311l-129 -101q-95 142 -281 142q-80 0 -148 -26.5t-114.5 -87.5t-46.5 -148q0 -62 25.5 -109.5t68.5 -77.5t98.5 -53.5t117.5 -43.5t123.5 -41.5t117 -53t98.5 -73t68.5 -107t25.5 -148.5q0 -95 -42 -176t-110.5 -133.5t-153 -81.5t-171.5 -29q-139 0 -258 53
t-199 162l134 96q47 -82 132.5 -129t196.5 -47q75 0 145 29.5t118.5 91.5t48.5 143q0 65 -25.5 114.5t-68.5 80t-99 54.5t-117.5 43t-123 40t-117.5 52t-99 72t-68.5 106.5t-25.5 150.5q0 82 26 150.5t71 116t105 81t127.5 49t139.5 15.5q128 0 227.5 -40.5t182.5 -135.5z
" />
    <glyph glyph-name="T" unicode="T" horiz-adv-x="1175" 
d="M662 1315v-1315h-148v1315h-485v135h1118v-135h-485z" />
    <glyph glyph-name="U" unicode="U" horiz-adv-x="1404" 
d="M1233 1450v-909q0 -55 -6.5 -108.5t-23 -112t-42.5 -109t-68 -97t-95.5 -79.5t-129.5 -52.5t-166 -19.5t-165.5 19.5t-129.5 52.5t-95.5 79.5t-67.5 97t-42.5 109t-23 112t-6.5 108.5v909h147v-893q0 -119 30 -207.5t72 -135t99 -74.5t98.5 -35t83.5 -7t83.5 7t98.5 35
t99 74.5t72 135t30 207.5v893h148z" />
    <glyph glyph-name="V" unicode="V" horiz-adv-x="1251" 
d="M158 1450l460 -1229h5l475 1229h159l-565 -1450h-147l-551 1450h164z" />
    <glyph glyph-name="W" unicode="W" horiz-adv-x="1933" 
d="M164 1450l348 -1241h4l365 1241h176l364 -1241h4l344 1241h164l-428 -1450h-172l-364 1241h-4l-365 -1241h-172l-428 1450h164z" />
    <glyph glyph-name="X" unicode="X" horiz-adv-x="1290" 
d="M252 1450l395 -580l406 580h184l-492 -688l533 -762h-195l-442 657l-444 -657h-185l531 762l-490 688h199z" />
    <glyph glyph-name="Y" unicode="Y" horiz-adv-x="1175" 
d="M662 625v-625h-148v625l-543 825h185l432 -684l432 684h184z" />
    <glyph glyph-name="Z" unicode="Z" 
d="M1079 1450v-123l-846 -1192h859v-135h-1045v123l848 1192h-836v135h1020z" />
    <glyph glyph-name="bracketleft" unicode="[" horiz-adv-x="532" 
d="M465 1499v-110h-197v-1598h197v-110h-332v1818h332z" />
    <glyph glyph-name="backslash" unicode="\" horiz-adv-x="757" 
d="M629 -37l-619 1483l117 41l621 -1485z" />
    <glyph glyph-name="bracketright" unicode="]" horiz-adv-x="532" 
d="M68 -319v110h196v1598h-196v110h331v-1818h-331z" />
    <glyph glyph-name="asciicircum" unicode="^" horiz-adv-x="1363" 
d="M164 563l469 887h98l469 -887h-127l-391 740l-391 -740h-127z" />
    <glyph glyph-name="underscore" unicode="_" horiz-adv-x="1024" 
d="M0 -256v102h1024v-102h-1024z" />
    <glyph glyph-name="grave" unicode="`" horiz-adv-x="491" 
d="M250 1155l-270 295h186l205 -295h-121z" />
    <glyph glyph-name="a" unicode="a" horiz-adv-x="1062" 
d="M694 588h68v24q0 248 -246 248q-169 0 -293 -112l-82 96q136 139 406 139q151 0 250.5 -87t99.5 -253v-428q0 -113 16 -215h-131q-12 70 -12 156h-4q-58 -94 -140 -137.5t-198 -43.5q-88 0 -161.5 30.5t-121 96t-47.5 154.5q0 64 21.5 116t55.5 86t86 59t101.5 38.5
t114 21t111.5 9.5t106 2zM762 477h-70q-446 0 -446 -203q0 -88 66.5 -132t158.5 -44q141 0 216 87.5t75 222.5v69z" />
    <glyph glyph-name="b" unicode="b" horiz-adv-x="1251" 
d="M147 0v1548h136v-749h4q62 91 165 137.5t207 46.5q223 0 366.5 -143t143.5 -361t-143.5 -361t-366.5 -143q-104 0 -207 47t-165 138h-4v-160h-136zM1022 479q0 165 -99.5 273t-263.5 108q-165 0 -274 -109.5t-109 -271.5t109 -271.5t274 -109.5q164 0 263.5 108t99.5 273
z" />
    <glyph glyph-name="c" unicode="c" horiz-adv-x="987" 
d="M956 817l-110 -84q-36 55 -100 91t-140 36q-164 3 -262 -105t-98 -276t98 -276t262 -105q76 0 140 36t100 91l110 -84q-69 -81 -159.5 -122.5t-190.5 -43.5q-230 -3 -369 140t-139 364t139 364t369 140q100 -2 190.5 -43.5t159.5 -122.5z" />
    <glyph glyph-name="d" unicode="d" horiz-adv-x="1251" 
d="M1104 1548v-1548h-135v160h-4q-62 -91 -165.5 -138t-207.5 -47q-223 0 -366.5 143t-143.5 361t143.5 361t366.5 143q104 0 207.5 -46.5t165.5 -137.5h4v749h135zM229 479q0 -165 99.5 -273t263.5 -108q165 0 274 109.5t109 271.5t-109 271.5t-274 109.5
q-164 0 -263.5 -108t-99.5 -273z" />
    <glyph glyph-name="e" unicode="e" 
d="M1040 442h-798q12 -146 111.5 -245t240.5 -99q101 0 182.5 48t124.5 118l105 -86q-160 -203 -412 -203q-214 0 -355 143.5t-141 360.5q0 216 139.5 360t344.5 144q141 -1 246.5 -66.5t158.5 -173t53 -239.5v-62zM246 553h647q0 138 -83.5 222.5t-227.5 84.5
q-131 0 -233.5 -94t-102.5 -213z" />
    <glyph glyph-name="f" unicode="f" horiz-adv-x="606" 
d="M594 958v-122h-227v-836h-136v836h-202v122h202v263q0 352 322 352q49 0 117 -14l-25 -123q-58 14 -104 14q-54 0 -90 -18t-53.5 -54t-24 -76t-6.5 -98v-246h227z" />
    <glyph glyph-name="g" unicode="g" horiz-adv-x="1251" 
d="M121 -299l100 106q61 -81 157.5 -128.5t209.5 -47.5q100 0 173.5 29.5t116 82t63 118.5t20.5 147v172h-5q-120 -180 -358 -180q-137 0 -251.5 62.5t-181.5 174.5t-67 250t62.5 251.5t174.5 179t251 65.5q234 0 370 -184h5v159h135v-950q0 -48 -5.5 -93.5t-21 -96.5
t-40 -94.5t-65 -84t-92.5 -69t-126.5 -45.5t-163.5 -17q-280 0 -461 193zM246 492q0 -152 103 -260.5t253 -108.5q99 0 183 45.5t134 131t46 192.5q0 156 -99.5 262t-263.5 106q-150 0 -253 -108t-103 -260z" />
    <glyph glyph-name="h" unicode="h" 
d="M147 0v1548h136v-743h4q44 78 134.5 128t186.5 50q180 0 270.5 -97t90.5 -278v-608h-135v530q0 168 -58 249t-203 81q-10 0 -25.5 -2t-44.5 -10t-56.5 -22t-58 -42.5t-53 -65.5t-37.5 -95.5t-15 -130.5v-492h-136z" />
    <glyph glyph-name="i" unicode="i" horiz-adv-x="491" 
d="M313 958v-958h-135v958h135zM344 1327q0 -41 -30 -69.5t-68 -28.5t-68.5 28.5t-30.5 69.5t30.5 69.5t68.5 28.5t68 -28.5t30 -69.5z" />
    <glyph glyph-name="j" unicode="j" horiz-adv-x="491" 
d="M-63 -471l18 117l6 -2q50 -13 72 -13q47 0 78 17.5t44.5 50.5t18 62.5t4.5 70.5v1126h135v-1148q0 -90 -15 -139q-52 -162 -255 -163q-54 0 -106 21zM344 1327q0 -41 -30 -69.5t-68 -28.5t-68.5 28.5t-30.5 69.5t30.5 69.5t68.5 28.5t68 -28.5t30 -69.5z" />
    <glyph glyph-name="k" unicode="k" horiz-adv-x="987" 
d="M283 1548v-1022l452 432h203l-477 -438l528 -520h-209l-497 504v-504h-136v1548h136z" />
    <glyph glyph-name="l" unicode="l" horiz-adv-x="491" 
d="M313 1548v-1548h-135v1548h135z" />
    <glyph glyph-name="m" unicode="m" horiz-adv-x="1744" 
d="M147 0v745q0 33 -10 213h146v-145h4q48 80 133.5 125t175.5 45q43 0 83.5 -8.5t83.5 -29t79.5 -61.5t58.5 -100q40 91 128.5 145t187.5 54q180 0 270 -96.5t90 -278.5v-608h-135v559q0 154 -54 227.5t-188 73.5q-58 0 -105 -19.5t-77 -52.5t-50.5 -78.5t-29 -95
t-8.5 -104.5v-510h-135v559q0 154 -54 227.5t-188 73.5q-11 0 -25.5 -2t-42 -10t-53 -22t-53.5 -42.5t-48.5 -65.5t-34 -95.5t-13.5 -130.5v-492h-136z" />
    <glyph glyph-name="n" unicode="n" 
d="M137 958h139q7 -60 7 -153h4q44 78 134.5 128t186.5 50q180 0 270.5 -97t90.5 -278v-608h-135v530q0 168 -58 249t-203 81q-10 0 -25.5 -2t-44.5 -10t-56.5 -22t-58 -42.5t-53 -65.5t-37.5 -95.5t-15 -130.5v-492h-136v748q0 35 -10 210z" />
    <glyph glyph-name="o" unicode="o" horiz-adv-x="1214" 
d="M1116 479q0 -218 -143.5 -361t-366.5 -143q-222 0 -365 143t-143 361t143 361t365 143q223 0 366.5 -143t143.5 -361zM969 479q0 165 -99.5 273t-263.5 108q-163 0 -261.5 -108t-98.5 -273t98.5 -273t261.5 -108q164 0 263.5 108t99.5 273z" />
    <glyph glyph-name="p" unicode="p" horiz-adv-x="1251" 
d="M147 -590v1548h136v-159h4q62 91 165 137.5t207 46.5q223 0 366.5 -143t143.5 -361t-143.5 -361t-366.5 -143q-104 0 -207 47t-165 138h-4v-750h-136zM1022 479q0 165 -99.5 273t-263.5 108q-165 0 -274 -109.5t-109 -271.5t109 -271.5t274 -109.5q164 0 263.5 108
t99.5 273z" />
    <glyph glyph-name="q" unicode="q" horiz-adv-x="1251" 
d="M1104 958v-1548h-135v750h-4q-62 -91 -165.5 -138t-207.5 -47q-223 0 -366.5 143t-143.5 361t143.5 361t366.5 143q104 0 207.5 -46.5t165.5 -137.5h4v159h135zM229 479q0 -165 99.5 -273t263.5 -108q165 0 274 109.5t109 271.5t-109 271.5t-274 109.5
q-164 0 -263.5 -108t-99.5 -273z" />
    <glyph glyph-name="r" unicode="r" horiz-adv-x="679" 
d="M162 0v659q0 21 -8 299h133v-178h4q33 86 111.5 144.5t195.5 58.5q56 0 100 -12l-26 -133q-27 10 -78 10q-73 0 -132 -29.5t-94 -76t-53 -98.5t-18 -103v-541h-135z" />
    <glyph glyph-name="s" unicode="s" horiz-adv-x="872" 
d="M776 811l-121 -80q-68 129 -206 129q-80 0 -139.5 -36t-59.5 -107q0 -64 44 -96.5t144 -55.5l137 -33q103 -24 168.5 -94t65.5 -168q0 -75 -31.5 -133.5t-85.5 -93t-119 -51.5t-137 -17q-243 0 -368 187l116 80q92 -144 252 -144q92 0 159 41t67 119q0 28 -10 50.5
t-25.5 38t-40.5 28.5t-49 21t-58 16l-131 30q-27 7 -51.5 15t-62.5 28.5t-65 46t-47 68t-20 94.5q0 72 30 128.5t80.5 91t113 52t131.5 17.5q107 0 191.5 -41.5t127.5 -130.5z" />
    <glyph glyph-name="t" unicode="t" horiz-adv-x="679" 
d="M643 958v-122h-276v-566q0 -100 34.5 -136t104.5 -36q73 0 139 37l6 -125q-75 -35 -182 -35q-34 0 -64.5 6t-63 23.5t-56.5 45t-39 74t-15 107.5v605h-202v122h202v271h136v-271h276z" />
    <glyph glyph-name="u" unicode="u" 
d="M979 0h-139q-6 51 -6 154h-5q-44 -78 -135 -128.5t-186 -50.5q-180 0 -270.5 97t-90.5 278v608h136v-530q0 -168 57.5 -249t202.5 -81q10 0 25.5 2t44.5 10.5t57 22.5t58.5 42t53 65.5t37.5 96t15 130.5v491h135v-747q0 -36 10 -211z" />
    <glyph glyph-name="v" unicode="v" horiz-adv-x="987" 
d="M958 958l-389 -958h-151l-389 958h161l306 -806h4l305 806h153z" />
    <glyph glyph-name="w" unicode="w" horiz-adv-x="1478" 
d="M29 958h159l222 -778h4l256 778h139l256 -778h4l221 778h160l-303 -958h-152l-254 786h-4l-254 -786h-151z" />
    <glyph glyph-name="x" unicode="x" horiz-adv-x="987" 
d="M0 0l395 512l-348 446h184l267 -358l254 358h168l-334 -446l401 -512h-184l-322 420l-309 -420h-172z" />
    <glyph glyph-name="y" unicode="y" horiz-adv-x="987" 
d="M203 958l301 -792l293 792h164l-480 -1208q-47 -120 -115.5 -181t-185.5 -61q-74 0 -125 15l15 131q45 -23 102 -23q67 0 109 42.5t75 129.5l70 185l-393 970h170z" />
    <glyph glyph-name="z" unicode="z" horiz-adv-x="872" 
d="M805 958v-98l-561 -737h581v-123h-778v98l561 738h-532v122h729z" />
    <glyph glyph-name="braceleft" unicode="{" horiz-adv-x="532" 
d="M25 528v123q73 0 127.5 62.5t54.5 165.5v364q0 135 61.5 195.5t159.5 60.5h131v-123h-115q-29 0 -49 -11t-30 -25.5t-15.5 -40.5t-6.5 -44.5t-1 -48.5v-352q0 -56 -14.5 -102.5t-35.5 -74t-47.5 -47.5t-47 -28t-37.5 -10v-4q17 -2 37.5 -10t47 -28t47.5 -47.5t35.5 -74
t14.5 -102.5v-353q0 -30 1 -48.5t6.5 -44.5t15.5 -40.5t30 -25.5t49 -11h115v-122h-131q-98 0 -159.5 60.5t-61.5 195.5v364q0 103 -54.5 165t-127.5 62z" />
    <glyph glyph-name="bar" unicode="|" horiz-adv-x="454" 
d="M166 1536h123v-2048h-123v2048z" />
    <glyph glyph-name="braceright" unicode="}" horiz-adv-x="532" 
d="M508 651v-123q-73 0 -127.5 -62t-54.5 -165v-364q0 -135 -62 -195.5t-160 -60.5h-131v122h115q29 0 49 11t30 25.5t15.5 40.5t6.5 44.5t1 48.5v353q0 56 14.5 102.5t36 74t48 47.5t47 28t37.5 10v4q-17 2 -37.5 10t-47 28t-48 47.5t-36 74t-14.5 102.5v352q0 30 -1 48.5
t-6.5 44.5t-15.5 40.5t-30 25.5t-49 11h-115v123h131q98 0 160 -60.5t62 -195.5v-364q0 -103 54.5 -165.5t127.5 -62.5z" />
    <glyph glyph-name="asciitilde" unicode="~" horiz-adv-x="1363" 
d="M1096 754l86 -82q-28 -39 -52 -67t-59.5 -59.5t-78 -48t-89.5 -16.5q-67 0 -103.5 10t-109.5 50q-15 8 -50.5 29.5t-57 33.5t-53 22.5t-58.5 10.5q-102 0 -203 -150l-86 82q28 39 52 67t59.5 59.5t78 48t89.5 16.5q67 0 103.5 -10t109.5 -50q15 -8 50.5 -29.5t57 -33.5
t53 -22.5t58.5 -10.5q102 0 203 150z" />
    <glyph glyph-name="uni00A0" unicode="&#xa0;" horiz-adv-x="569" 
 />
    <glyph glyph-name="exclamdown" unicode="&#xa1;" horiz-adv-x="569" 
d="M211 -467v1057h147v-1057h-147zM174 885q0 44 31.5 77t79.5 33t79 -33t31 -77t-31 -77.5t-79 -33.5t-79.5 33.5t-31.5 77.5z" />
    <glyph glyph-name="cent" unicode="&#xa2;" 
d="M590 104v750q-131 -23 -207 -126t-76 -249t76 -249t207 -126zM688 858v-758q71 4 129 38.5t90 86.5l111 -84q-131 -154 -330 -164v-124h-98v129q-198 21 -314 158.5t-116 338.5t116 339t314 159v129h98v-125q199 -10 330 -164l-111 -84q-32 52 -90 86.5t-129 38.5z" />
    <glyph glyph-name="sterling" unicode="&#xa3;" 
d="M872 809v-123h-344v-563h519v-123h-875v123h209v563h-197v123h197v178q0 82 12.5 151t43.5 132.5t79 108t124.5 70.5t174.5 26q201 0 318 -123l-97 -105q-95 105 -227 105q-72 0 -125.5 -26.5t-82.5 -65t-46.5 -93.5t-22 -98.5t-4.5 -93.5v-166h344z" />
    <glyph glyph-name="currency" unicode="&#xa4;" 
d="M1075 1145l-108 -109q111 -139 108 -311q3 -172 -108 -311l108 -109l-90 -90l-108 109q-140 -109 -308 -109q-167 0 -307 109l-108 -109l-91 90l109 109q-112 140 -109 311q-3 171 109 311l-109 109l91 90l108 -109q140 109 307 109q168 0 308 -109l108 109zM199 725
q0 -160 108.5 -273.5t263.5 -113.5q153 0 261 113.5t108 273.5t-108 273.5t-261 113.5q-155 0 -263.5 -113.5t-108.5 -273.5z" />
    <glyph glyph-name="yen" unicode="&#xa5;" 
d="M162 457h334v157l-15 25h-319v111h254l-420 700h174l399 -696l400 696h174l-418 -700h252v-111h-320l-14 -25v-157h334v-111h-334v-346h-147v346h-334v111z" />
    <glyph glyph-name="brokenbar" unicode="&#xa6;" horiz-adv-x="454" 
d="M166 1382h123v-716h-123v716zM166 358h123v-716h-123v716z" />
    <glyph glyph-name="section" unicode="&#xa7;" 
d="M928 1282l-121 -61q-26 51 -81 91t-140 40q-66 0 -113 -22t-68.5 -54.5t-30.5 -59.5t-9 -49q0 -68 41.5 -110t123.5 -84l226 -115q198 -102 198 -285q0 -172 -178 -268q77 -55 109.5 -112t32.5 -144q0 -83 -32 -148.5t-86.5 -105t-123 -60t-144.5 -20.5q-142 0 -249.5 60
t-155.5 176l135 65q32 -90 105.5 -134t164.5 -44q44 0 83.5 10.5t75.5 33.5t57.5 65.5t21.5 99.5q0 109 -143 180l-281 138q-184 89 -184 266q0 181 213 274q-69 47 -98 80q-60 69 -60 166q0 152 104 238t254 86q131 0 226 -55t127 -138zM496 827l-35 -14
q-152 -64 -152 -172q0 -21 6.5 -41t14 -34.5t25 -30.5t28 -24.5t35.5 -22.5t34 -18.5t37 -18t33 -15.5l135 -65q60 24 105 74t45 108q0 43 -16 78t-47 61.5t-60.5 44.5t-71.5 37z" />
    <glyph glyph-name="dieresis" unicode="&#xa8;" horiz-adv-x="491" 
d="M-55 1325q0 41 30 73t74 32t74.5 -32t30.5 -73t-30.5 -72.5t-74.5 -31.5t-74 31.5t-30 72.5zM338 1325q0 41 30 73t74 32t74.5 -32t30.5 -73t-30.5 -72.5t-74.5 -31.5t-74 31.5t-30 72.5z" />
    <glyph glyph-name="copyright" unicode="&#xa9;" horiz-adv-x="1638" 
d="M1116 578h117q-34 -147 -137.5 -233.5t-245.5 -86.5q-204 0 -330.5 132.5t-126.5 334.5q0 206 122 335.5t329 129.5q153 0 259.5 -80.5t127.5 -230.5h-115q-18 88 -92 144t-178 56q-152 0 -241 -99.5t-89 -250.5q0 -146 94 -253t240 -107q103 0 175.5 59.5t90.5 149.5z
M51 721q0 161 61.5 304t165.5 244t245 159.5t296 58.5q207 0 383 -99t280.5 -274t104.5 -385q0 -161 -61.5 -304t-165.5 -244t-245 -159.5t-296 -58.5q-207 0 -383 99t-280.5 274t-104.5 385zM174 721q0 -179 86 -328t234 -234t325 -85q132 0 251.5 50.5t205.5 137
t137 208.5t51 259q0 180 -86 329t-234 233.5t-325 84.5q-132 0 -251.5 -50t-206 -136.5t-137 -208.5t-50.5 -260z" />
    <glyph glyph-name="ordfeminine" unicode="&#xaa;" horiz-adv-x="690" 
d="M279 868q-90 0 -153 44t-63 126q0 101 82.5 153t276.5 52h45v17q0 57 -34 86.5t-97 29.5q-105 0 -182 -61l-66 76q89 84 244 84q72 0 126 -19t81 -48.5t39 -59t12 -58.5v-280q0 -42 10 -129h-111l-6 73h-2q-60 -86 -202 -86zM467 1145h-27q-254 0 -254 -101q0 -37 36 -57
t85 -20q160 0 160 178z" />
    <glyph glyph-name="guillemotleft" unicode="&#xab;" horiz-adv-x="987" 
d="M489 852l-235 -360l235 -361l-96 -68l-287 429l287 428zM862 852l-235 -360l235 -361l-96 -68l-287 429l287 428z" />
    <glyph glyph-name="logicalnot" unicode="&#xac;" horiz-adv-x="1363" 
d="M1204 836v-570h-123v447h-921v123h1044z" />
    <glyph glyph-name="uni00AD" unicode="&#xad;" horiz-adv-x="681" 
d="M604 559v-135h-526v135h526z" />
    <glyph glyph-name="registered" unicode="&#xae;" horiz-adv-x="1638" 
d="M535 279v882h323q159 0 235 -61.5t76 -192.5q0 -112 -63.5 -170t-169.5 -69l254 -389h-133l-242 378h-158v-378h-122zM657 1051v-283h152q37 0 61 1t55 5.5t50 14t37 25t26.5 40.5t8.5 59q0 44 -17 73t-48.5 42.5t-62 18t-71.5 4.5h-191zM51 721q0 161 61.5 304
t165.5 244t245 159.5t296 58.5q207 0 383 -99t280.5 -274t104.5 -385q0 -161 -61.5 -304t-165.5 -244t-245 -159.5t-296 -58.5q-207 0 -383 99t-280.5 274t-104.5 385zM174 721q0 -179 86 -328t234 -234t325 -85q132 0 251.5 50.5t205.5 137t137 208.5t51 259q0 180 -86 329
t-234 233.5t-325 84.5q-132 0 -251.5 -50t-206 -136.5t-137 -208.5t-50.5 -260z" />
    <glyph glyph-name="macron" unicode="&#xaf;" horiz-adv-x="491" 
d="M522 1339v-110h-553v110h553z" />
    <glyph glyph-name="degree" unicode="&#xb0;" horiz-adv-x="819" 
d="M715 1169q0 -132 -86.5 -218.5t-218.5 -86.5t-219 86.5t-87 218.5t87 219t219 87t218.5 -87t86.5 -219zM616 1169q0 86 -60 146.5t-146 60.5t-146.5 -60.5t-60.5 -146.5t60.5 -146t146.5 -60t146 60t60 146z" />
    <glyph glyph-name="plusminus" unicode="&#xb1;" horiz-adv-x="1363" 
d="M160 711v123h461v319h122v-319h461v-123h-461v-310h-122v310h-461zM160 98v123h1044v-123h-1044z" />
    <glyph glyph-name="twosuperior" unicode="&#xb2;" horiz-adv-x="739" 
d="M670 702v-110h-600v117l350 335q36 35 57 58.5t41.5 62.5t20.5 76q0 49 -49 86t-107 37q-66 0 -115 -33t-65 -82l-115 19q20 98 99 152.5t190 54.5q121 0 203 -59.5t82 -166.5q0 -47 -14.5 -89.5t-48 -84t-57 -65.5t-71.5 -68l-266 -240h465z" />
    <glyph glyph-name="threesuperior" unicode="&#xb3;" horiz-adv-x="739" 
d="M266 989v111h49q88 0 146.5 35.5t58.5 101.5q0 55 -42 91t-105 36q-60 0 -98.5 -20t-77.5 -74l-97 67q51 74 116.5 106t154.5 32q115 0 193.5 -61t78.5 -165q0 -70 -47.5 -124.5t-120.5 -77.5v-5q92 -15 143.5 -73.5t51.5 -139.5q0 -116 -86.5 -182.5t-214.5 -66.5
q-223 0 -299 176l106 61q26 -65 72 -96t129 -31q61 0 115.5 44.5t54.5 96.5q0 27 -9.5 52t-32 50t-68.5 40.5t-111 15.5h-60z" />
    <glyph glyph-name="acute" unicode="&#xb4;" horiz-adv-x="491" 
d="M512 1450l-270 -295h-121l205 295h186z" />
    <glyph glyph-name="mu" unicode="&#xb5;" 
d="M147 -467v1425h136v-530q0 -180 57 -255t203 -75q127 0 209 98.5t82 270.5v491h135v-747q0 -36 10 -211h-145v156h-5q-46 -74 -137 -127.5t-184 -53.5q-140 0 -225 60v-502h-136z" />
    <glyph glyph-name="paragraph" unicode="&#xb6;" horiz-adv-x="1228" 
d="M1051 1450v-1708h-136v1597h-253v-1597h-136v905q-186 0 -307 110t-121 271q0 198 125 310t342 112h486z" />
    <glyph glyph-name="periodcentered" unicode="&#xb7;" horiz-adv-x="569" 
d="M395 643q0 -44 -31 -77.5t-79 -33.5t-79.5 33.5t-31.5 77.5t31.5 77.5t79.5 33.5t79 -33.5t31 -77.5z" />
    <glyph glyph-name="cedilla" unicode="&#xb8;" horiz-adv-x="491" 
d="M319 0l-92 -123l4 -2q40 14 74 14q65 0 111.5 -41.5t46.5 -111.5q0 -88 -71 -134t-165 -46q-107 0 -198 49l32 73q68 -36 152 -36q51 0 89 22.5t38 69.5q0 28 -22.5 55t-77.5 27q-43 0 -95 -23l-36 35l127 172h83z" />
    <glyph glyph-name="onesuperior" unicode="&#xb9;" horiz-adv-x="739" 
d="M461 1462v-870h-123v747l-168 -137l-59 78l239 182h111z" />
    <glyph glyph-name="ordmasculine" unicode="&#xba;" horiz-adv-x="788" 
d="M725 1169q0 -130 -93.5 -215.5t-238.5 -85.5q-144 0 -237 85.5t-93 215.5q0 133 93 219.5t237 86.5q146 0 239 -86.5t93 -219.5zM602 1169q0 86 -59 146.5t-150 60.5q-89 0 -148 -60.5t-59 -146.5q0 -85 59 -143.5t148 -58.5q91 0 150 58.5t59 143.5z" />
    <glyph glyph-name="guillemotright" unicode="&#xbb;" horiz-adv-x="987" 
d="M498 131l235 361l-235 360l96 68l287 -428l-287 -429zM125 131l235 361l-235 360l96 68l287 -428l-287 -429z" />
    <glyph glyph-name="onequarter" unicode="&#xbc;" horiz-adv-x="1708" 
d="M1454 870v-567h123v-110h-123v-193h-123v193h-393v126l367 551h149zM420 -66l-107 66l924 1516l104 -64zM1331 303v445h-4l-278 -445h282zM481 1462v-870h-123v747l-168 -137l-59 78l240 182h110z" />
    <glyph glyph-name="onehalf" unicode="&#xbd;" horiz-adv-x="1708" 
d="M369 -66l-107 66l924 1516l104 -64zM430 1462v-870h-123v747l-168 -137l-59 78l239 182h111zM1628 111v-111h-600v117l350 336q37 36 57.5 58.5t41 61.5t20.5 76q0 49 -49 86t-107 37q-66 0 -115 -33t-65 -82l-114 19q20 98 98.5 152.5t189.5 54.5q121 0 203 -59.5
t82 -166.5q0 -47 -14.5 -89.5t-47 -84t-57 -66t-71.5 -67.5l-267 -239h465z" />
    <glyph glyph-name="threequarters" unicode="&#xbe;" horiz-adv-x="1708" 
d="M1495 870v-567h123v-110h-123v-193h-123v193h-393v126l367 551h149zM502 -66l-107 66l924 1516l104 -64zM1372 303v445h-4l-278 -445h282zM285 989v111h49q89 0 147 37t58 108q0 50 -42.5 84.5t-105.5 34.5q-60 0 -98.5 -20t-77.5 -74l-96 67q51 74 116 106t154 32
q115 0 194 -61t79 -165q0 -70 -47.5 -124.5t-120.5 -77.5v-5q92 -15 143 -73t51 -140q0 -116 -86.5 -182.5t-214.5 -66.5q-224 0 -297 176l105 61q26 -65 71.5 -96t128.5 -31q61 0 115.5 44.5t54.5 96.5q0 27 -9.5 52t-32 50t-68.5 40.5t-111 15.5h-59z" />
    <glyph glyph-name="questiondown" unicode="&#xbf;" horiz-adv-x="987" 
d="M422 485v105h147v-170q-1 -52 -26 -101t-61.5 -85.5t-79.5 -78t-79.5 -79t-60.5 -89t-24 -108.5q0 -104 66.5 -169.5t172.5 -65.5q102 0 171.5 61t88.5 162l154 -19q-23 -158 -136.5 -249t-275.5 -91q-170 0 -279.5 95.5t-109.5 263.5q0 71 18.5 128t47.5 95t64.5 71.5
t71 65t64.5 65.5t47.5 83.5t18.5 109.5zM373 885q0 44 31 77t79 33t79.5 -33t31.5 -77t-31.5 -77.5t-79.5 -33.5t-79 33.5t-31 77.5z" />
    <glyph glyph-name="Agrave" unicode="&#xc0;" horiz-adv-x="1404" 
d="M332 381l-160 -381h-172l631 1450h143l631 -1450h-172l-160 381h-741zM702 1278l-315 -762h629zM707 1513l-271 295h187l204 -295h-120z" />
    <glyph glyph-name="Aacute" unicode="&#xc1;" horiz-adv-x="1404" 
d="M332 381l-160 -381h-172l631 1450h143l631 -1450h-172l-160 381h-741zM702 1278l-315 -762h629zM969 1808l-271 -295h-120l204 295h187z" />
    <glyph glyph-name="Acircumflex" unicode="&#xc2;" horiz-adv-x="1404" 
d="M332 381l-160 -381h-172l631 1450h143l631 -1450h-172l-160 381h-741zM702 1278l-315 -762h629zM784 1808l224 -295h-136l-170 222l-170 -222h-135l224 295h163z" />
    <glyph glyph-name="Atilde" unicode="&#xc3;" horiz-adv-x="1404" 
d="M332 381l-160 -381h-172l631 1450h143l631 -1450h-172l-160 381h-741zM702 1278l-315 -762h629zM459 1538h-88q36 213 188 213q58 0 150 -47q3 -1 16 -7.5t16.5 -8t15 -6.5t16.5 -7l15 -6t15.5 -5.5t14 -3.5t15 -2.5t13.5 -0.5q76 0 100 102h88q-36 -213 -188 -213
q-50 0 -150 47q-88 47 -137 47q-76 0 -100 -102z" />
    <glyph glyph-name="Adieresis" unicode="&#xc4;" horiz-adv-x="1404" 
d="M332 381l-160 -381h-172l631 1450h143l631 -1450h-172l-160 381h-741zM702 1278l-315 -762h629zM401 1683q0 41 30.5 73t74.5 32t74 -32t30 -73t-30 -72.5t-74 -31.5t-74.5 31.5t-30.5 72.5zM795 1683q0 41 30 73t74 32t74.5 -32t30.5 -73t-30.5 -72.5t-74.5 -31.5
t-74 31.5t-30 72.5z" />
    <glyph glyph-name="Aring" unicode="&#xc5;" horiz-adv-x="1404" 
d="M332 381l-160 -381h-172l631 1450h143l631 -1450h-172l-160 381h-741zM702 1278l-315 -762h629zM825 1690q0 51 -36 85.5t-87 34.5t-86.5 -34.5t-35.5 -85.5t35.5 -86t86.5 -35t87 35t36 86zM899 1690q0 -82 -58 -138.5t-139 -56.5q-80 0 -138 56.5t-58 138.5
q0 81 58 137.5t138 56.5t138.5 -56.5t58.5 -137.5z" />
    <glyph glyph-name="AE" unicode="&#xc6;" horiz-adv-x="1933" 
d="M1194 1315v-494h565v-135h-565v-551h627v-135h-774v406h-611l-262 -406h-174l944 1450h852v-135h-602zM522 541h525v774h-23z" />
    <glyph glyph-name="Ccedilla" unicode="&#xc7;" horiz-adv-x="1441" 
d="M1270 315l121 -86q-75 -117 -219 -191.5t-318 -74.5q-29 0 -43 4l-68 -90l5 -2q40 14 73 14q65 0 111.5 -41.5t46.5 -111.5q0 -88 -71 -134t-165 -46q-107 0 -198 49l33 73q68 -36 151 -36q51 0 89 22.5t38 69.5q0 28 -22.5 55t-77.5 27q-42 0 -94 -23l-37 35l106 145
q-280 42 -456.5 249t-176.5 503q0 217 98.5 391.5t271.5 272.5t386 98q144 0 277.5 -57t224.5 -173l-129 -96q-45 74 -153.5 132.5t-219.5 58.5q-136 0 -250 -51t-188.5 -137.5t-116 -199.5t-41.5 -239t41.5 -239t116 -199.5t188.5 -137.5t250 -51q275 0 416 217z" />
    <glyph glyph-name="Egrave" unicode="&#xc8;" horiz-adv-x="1214" 
d="M344 686v-551h776v-135h-923v1450h899v-135h-752v-494h703v-135h-703zM612 1513l-270 295h186l205 -295h-121z" />
    <glyph glyph-name="Eacute" unicode="&#xc9;" horiz-adv-x="1214" 
d="M344 686v-551h776v-135h-923v1450h899v-135h-752v-494h703v-135h-703zM874 1808l-270 -295h-121l205 295h186z" />
    <glyph glyph-name="Ecircumflex" unicode="&#xca;" horiz-adv-x="1214" 
d="M344 686v-551h776v-135h-923v1450h899v-135h-752v-494h703v-135h-703zM690 1808l223 -295h-135l-170 222l-170 -222h-135l223 295h164z" />
    <glyph glyph-name="Edieresis" unicode="&#xcb;" horiz-adv-x="1214" 
d="M344 686v-551h776v-135h-923v1450h899v-135h-752v-494h703v-135h-703zM307 1683q0 41 30.5 73t74.5 32t74 -32t30 -73t-30 -72.5t-74 -31.5t-74.5 31.5t-30.5 72.5zM700 1683q0 41 30.5 73t74.5 32t74 -32t30 -73t-30 -72.5t-74 -31.5t-74.5 31.5t-30.5 72.5z" />
    <glyph glyph-name="Igrave" unicode="&#xcc;" horiz-adv-x="540" 
d="M344 1450v-1450h-147v1450h147zM274 1513l-270 295h186l205 -295h-121z" />
    <glyph glyph-name="Iacute" unicode="&#xcd;" horiz-adv-x="540" 
d="M344 1450v-1450h-147v1450h147zM537 1808l-271 -295h-121l205 295h187z" />
    <glyph glyph-name="Icircumflex" unicode="&#xce;" horiz-adv-x="540" 
d="M344 1450v-1450h-147v1450h147zM352 1808l223 -295h-135l-170 222l-170 -222h-135l223 295h164z" />
    <glyph glyph-name="Idieresis" unicode="&#xcf;" horiz-adv-x="540" 
d="M344 1450v-1450h-147v1450h147zM-31 1683q0 41 30.5 73t74.5 32t74 -32t30 -73t-30 -72.5t-74 -31.5t-74.5 31.5t-30.5 72.5zM362 1683q0 41 30.5 73t74.5 32t74 -32t30 -73t-30 -72.5t-74 -31.5t-74.5 31.5t-30.5 72.5z" />
    <glyph glyph-name="Eth" unicode="&#xd0;" horiz-adv-x="1517" 
d="M176 0v711h-149v110h149v629h481q110 0 218 -28.5t206.5 -88.5t173.5 -144t119.5 -204t44.5 -260t-44.5 -260t-119.5 -204t-173.5 -144t-206.5 -88.5t-218 -28.5h-481zM324 711v-576h286q129 0 237 32.5t183 89t128 132t77.5 160.5t24.5 176t-24.5 176t-77.5 160.5
t-128 132t-183 89t-237 32.5h-286v-494h528v-110h-528z" />
    <glyph glyph-name="Ntilde" unicode="&#xd1;" horiz-adv-x="1593" 
d="M381 1450l864 -1229h4v1229h148v-1450h-185l-864 1241h-4v-1241h-147v1450h184zM553 1538h-88q36 213 188 213q58 0 150 -47q3 -1 16 -7.5t16.5 -8t15 -6.5t16.5 -7l15 -6t15.5 -5.5t14 -3.5t15 -2.5t13.5 -0.5q76 0 100 102h88q-36 -213 -188 -213q-49 0 -149 47
q-88 47 -138 47q-76 0 -100 -102z" />
    <glyph glyph-name="Ograve" unicode="&#xd2;" horiz-adv-x="1708" 
d="M1610 725q0 -217 -98.5 -391.5t-271.5 -272.5t-386 -98t-386 98t-271.5 272.5t-98.5 391.5t98.5 391.5t271.5 272.5t386 98t386 -98t271.5 -272.5t98.5 -391.5zM1450 725q0 126 -41.5 239t-116 199.5t-188.5 137.5t-250 51t-250 -51t-188.5 -137.5t-116 -199.5
t-41.5 -239t41.5 -239t116 -199.5t188.5 -137.5t250 -51t250 51t188.5 137.5t116 199.5t41.5 239zM858 1513l-270 295h186l205 -295h-121z" />
    <glyph glyph-name="Oacute" unicode="&#xd3;" horiz-adv-x="1708" 
d="M1610 725q0 -217 -98.5 -391.5t-271.5 -272.5t-386 -98t-386 98t-271.5 272.5t-98.5 391.5t98.5 391.5t271.5 272.5t386 98t386 -98t271.5 -272.5t98.5 -391.5zM1450 725q0 126 -41.5 239t-116 199.5t-188.5 137.5t-250 51t-250 -51t-188.5 -137.5t-116 -199.5
t-41.5 -239t41.5 -239t116 -199.5t188.5 -137.5t250 -51t250 51t188.5 137.5t116 199.5t41.5 239zM1120 1808l-270 -295h-121l205 295h186z" />
    <glyph glyph-name="Ocircumflex" unicode="&#xd4;" horiz-adv-x="1708" 
d="M1610 725q0 -217 -98.5 -391.5t-271.5 -272.5t-386 -98t-386 98t-271.5 272.5t-98.5 391.5t98.5 391.5t271.5 272.5t386 98t386 -98t271.5 -272.5t98.5 -391.5zM1450 725q0 126 -41.5 239t-116 199.5t-188.5 137.5t-250 51t-250 -51t-188.5 -137.5t-116 -199.5
t-41.5 -239t41.5 -239t116 -199.5t188.5 -137.5t250 -51t250 51t188.5 137.5t116 199.5t41.5 239zM936 1808l223 -295h-135l-170 222l-170 -222h-135l223 295h164z" />
    <glyph glyph-name="Otilde" unicode="&#xd5;" horiz-adv-x="1708" 
d="M1610 725q0 -217 -98.5 -391.5t-271.5 -272.5t-386 -98t-386 98t-271.5 272.5t-98.5 391.5t98.5 391.5t271.5 272.5t386 98t386 -98t271.5 -272.5t98.5 -391.5zM1450 725q0 126 -41.5 239t-116 199.5t-188.5 137.5t-250 51t-250 -51t-188.5 -137.5t-116 -199.5
t-41.5 -239t41.5 -239t116 -199.5t188.5 -137.5t250 -51t250 51t188.5 137.5t116 199.5t41.5 239zM610 1538h-88q36 213 189 213q57 0 149 -47q3 -1 16 -7.5t16.5 -8t15 -6.5t16.5 -7l15 -6t15.5 -5.5t14 -3.5t15 -2.5t13.5 -0.5q77 0 101 102h88q-36 -213 -189 -213
q-49 0 -149 47q-88 47 -137 47q-77 0 -101 -102z" />
    <glyph glyph-name="Odieresis" unicode="&#xd6;" horiz-adv-x="1708" 
d="M1610 725q0 -217 -98.5 -391.5t-271.5 -272.5t-386 -98t-386 98t-271.5 272.5t-98.5 391.5t98.5 391.5t271.5 272.5t386 98t386 -98t271.5 -272.5t98.5 -391.5zM1450 725q0 126 -41.5 239t-116 199.5t-188.5 137.5t-250 51t-250 -51t-188.5 -137.5t-116 -199.5
t-41.5 -239t41.5 -239t116 -199.5t188.5 -137.5t250 -51t250 51t188.5 137.5t116 199.5t41.5 239zM553 1683q0 41 30 73t74 32t74.5 -32t30.5 -73t-30.5 -72.5t-74.5 -31.5t-74 31.5t-30 72.5zM946 1683q0 41 30.5 73t74.5 32t74 -32t30 -73t-30 -72.5t-74 -31.5t-74.5 31.5
t-30.5 72.5z" />
    <glyph glyph-name="multiply" unicode="&#xd7;" horiz-adv-x="1363" 
d="M356 1034l326 -325l324 325l88 -86l-326 -327l326 -326l-88 -88l-324 325l-326 -325l-86 88l326 326l-326 327z" />
    <glyph glyph-name="Oslash" unicode="&#xd8;" horiz-adv-x="1708" 
d="M1569 1417l-156 -168q197 -210 197 -524q0 -217 -98.5 -391.5t-271.5 -272.5t-386 -98q-280 0 -483 166l-156 -166l-76 70l156 168q-197 210 -197 524q0 217 98.5 391.5t271.5 272.5t386 98q278 0 483 -166l156 166zM1311 1139l-842 -903q157 -138 385 -138q136 0 250 51
t188.5 137.5t116 199.5t41.5 239q0 239 -139 414zM397 311l842 903q-157 138 -385 138q-136 0 -250 -51t-188.5 -137.5t-116 -199.5t-41.5 -239q0 -243 139 -414z" />
    <glyph glyph-name="Ugrave" unicode="&#xd9;" horiz-adv-x="1404" 
d="M1233 1450v-909q0 -55 -6.5 -108.5t-23 -112t-42.5 -109t-68 -97t-95.5 -79.5t-129.5 -52.5t-166 -19.5t-165.5 19.5t-129.5 52.5t-95.5 79.5t-67.5 97t-42.5 109t-23 112t-6.5 108.5v909h147v-893q0 -119 30 -207.5t72 -135t99 -74.5t98.5 -35t83.5 -7t83.5 7t98.5 35
t99 74.5t72 135t30 207.5v893h148zM707 1513l-271 295h187l204 -295h-120z" />
    <glyph glyph-name="Uacute" unicode="&#xda;" horiz-adv-x="1404" 
d="M1233 1450v-909q0 -55 -6.5 -108.5t-23 -112t-42.5 -109t-68 -97t-95.5 -79.5t-129.5 -52.5t-166 -19.5t-165.5 19.5t-129.5 52.5t-95.5 79.5t-67.5 97t-42.5 109t-23 112t-6.5 108.5v909h147v-893q0 -119 30 -207.5t72 -135t99 -74.5t98.5 -35t83.5 -7t83.5 7t98.5 35
t99 74.5t72 135t30 207.5v893h148zM969 1808l-271 -295h-120l204 295h187z" />
    <glyph glyph-name="Ucircumflex" unicode="&#xdb;" horiz-adv-x="1404" 
d="M1233 1450v-909q0 -55 -6.5 -108.5t-23 -112t-42.5 -109t-68 -97t-95.5 -79.5t-129.5 -52.5t-166 -19.5t-165.5 19.5t-129.5 52.5t-95.5 79.5t-67.5 97t-42.5 109t-23 112t-6.5 108.5v909h147v-893q0 -119 30 -207.5t72 -135t99 -74.5t98.5 -35t83.5 -7t83.5 7t98.5 35
t99 74.5t72 135t30 207.5v893h148zM784 1808l224 -295h-136l-170 222l-170 -222h-135l224 295h163z" />
    <glyph glyph-name="Udieresis" unicode="&#xdc;" horiz-adv-x="1404" 
d="M1233 1450v-909q0 -55 -6.5 -108.5t-23 -112t-42.5 -109t-68 -97t-95.5 -79.5t-129.5 -52.5t-166 -19.5t-165.5 19.5t-129.5 52.5t-95.5 79.5t-67.5 97t-42.5 109t-23 112t-6.5 108.5v909h147v-893q0 -119 30 -207.5t72 -135t99 -74.5t98.5 -35t83.5 -7t83.5 7t98.5 35
t99 74.5t72 135t30 207.5v893h148zM401 1683q0 41 30.5 73t74.5 32t74 -32t30 -73t-30 -72.5t-74 -31.5t-74.5 31.5t-30.5 72.5zM795 1683q0 41 30 73t74 32t74.5 -32t30.5 -73t-30.5 -72.5t-74.5 -31.5t-74 31.5t-30 72.5z" />
    <glyph glyph-name="Yacute" unicode="&#xdd;" horiz-adv-x="1175" 
d="M662 625v-625h-148v625l-543 825h185l432 -684l432 684h184zM854 1808l-270 -295h-121l205 295h186z" />
    <glyph glyph-name="Thorn" unicode="&#xde;" horiz-adv-x="1175" 
d="M197 0v1450h147v-320h328q190 0 307 -99.5t117 -287.5q0 -96 -32 -171t-89.5 -122t-134 -71.5t-168.5 -24.5h-328v-354h-147zM344 995v-506h238q46 0 81 2.5t79.5 10.5t76 25.5t60 44.5t43 70.5t14.5 100.5q0 67 -23 115.5t-56 74t-84.5 40.5t-93 18.5t-97.5 3.5h-238z
" />
    <glyph glyph-name="germandbls" unicode="&#xdf;" horiz-adv-x="1214" 
d="M307 1126v-1126h-135v1114q0 76 13 141t44.5 124.5t79.5 101.5t123.5 67t171.5 25q169 0 280 -98t111 -265q0 -241 -237 -325v-4q88 -7 156.5 -44.5t110 -96t62.5 -130.5t21 -153q0 -218 -134 -350t-351 -132q-64 0 -119 17v117q45 -11 98 -11q164 0 261.5 96t97.5 265
q0 182 -107.5 270t-304.5 88v123q135 0 217 61t82 191q0 119 -72 188.5t-180 69.5q-63 0 -114 -20t-83 -52.5t-53 -76t-30 -87t-9 -88.5z" />
    <glyph glyph-name="agrave" unicode="&#xe0;" horiz-adv-x="1062" 
d="M694 588h68v24q0 248 -246 248q-169 0 -293 -112l-82 96q136 139 406 139q151 0 250.5 -87t99.5 -253v-428q0 -113 16 -215h-131q-12 70 -12 156h-4q-58 -94 -140 -137.5t-198 -43.5q-88 0 -161.5 30.5t-121 96t-47.5 154.5q0 64 21.5 116t55.5 86t86 59t101.5 38.5
t114 21t111.5 9.5t106 2zM762 477h-70q-446 0 -446 -203q0 -88 66.5 -132t158.5 -44q141 0 216 87.5t75 222.5v69zM537 1155l-271 295h187l204 -295h-120z" />
    <glyph glyph-name="aacute" unicode="&#xe1;" horiz-adv-x="1062" 
d="M694 588h68v24q0 248 -246 248q-169 0 -293 -112l-82 96q136 139 406 139q151 0 250.5 -87t99.5 -253v-428q0 -113 16 -215h-131q-12 70 -12 156h-4q-58 -94 -140 -137.5t-198 -43.5q-88 0 -161.5 30.5t-121 96t-47.5 154.5q0 64 21.5 116t55.5 86t86 59t101.5 38.5
t114 21t111.5 9.5t106 2zM762 477h-70q-446 0 -446 -203q0 -88 66.5 -132t158.5 -44q141 0 216 87.5t75 222.5v69zM799 1450l-271 -295h-120l204 295h187z" />
    <glyph glyph-name="acircumflex" unicode="&#xe2;" horiz-adv-x="1062" 
d="M694 588h68v24q0 248 -246 248q-169 0 -293 -112l-82 96q136 139 406 139q151 0 250.5 -87t99.5 -253v-428q0 -113 16 -215h-131q-12 70 -12 156h-4q-58 -94 -140 -137.5t-198 -43.5q-88 0 -161.5 30.5t-121 96t-47.5 154.5q0 64 21.5 116t55.5 86t86 59t101.5 38.5
t114 21t111.5 9.5t106 2zM762 477h-70q-446 0 -446 -203q0 -88 66.5 -132t158.5 -44q141 0 216 87.5t75 222.5v69zM614 1450l224 -295h-136l-170 221l-170 -221h-135l224 295h163z" />
    <glyph glyph-name="atilde" unicode="&#xe3;" horiz-adv-x="1062" 
d="M694 588h68v24q0 248 -246 248q-169 0 -293 -112l-82 96q136 139 406 139q151 0 250.5 -87t99.5 -253v-428q0 -113 16 -215h-131q-12 70 -12 156h-4q-58 -94 -140 -137.5t-198 -43.5q-88 0 -161.5 30.5t-121 96t-47.5 154.5q0 64 21.5 116t55.5 86t86 59t101.5 38.5
t114 21t111.5 9.5t106 2zM762 477h-70q-446 0 -446 -203q0 -88 66.5 -132t158.5 -44q141 0 216 87.5t75 222.5v69zM289 1180h-88q36 213 188 213q58 0 150 -47q5 -2 20.5 -9.5t21.5 -10.5t19 -8.5t20.5 -8t18.5 -6t19.5 -4.5t17.5 -1q76 0 100 103h88q-36 -213 -188 -213
q-50 0 -150 47q-88 47 -137 47q-76 0 -100 -102z" />
    <glyph glyph-name="adieresis" unicode="&#xe4;" horiz-adv-x="1062" 
d="M694 588h68v24q0 248 -246 248q-169 0 -293 -112l-82 96q136 139 406 139q151 0 250.5 -87t99.5 -253v-428q0 -113 16 -215h-131q-12 70 -12 156h-4q-58 -94 -140 -137.5t-198 -43.5q-88 0 -161.5 30.5t-121 96t-47.5 154.5q0 64 21.5 116t55.5 86t86 59t101.5 38.5
t114 21t111.5 9.5t106 2zM762 477h-70q-446 0 -446 -203q0 -88 66.5 -132t158.5 -44q141 0 216 87.5t75 222.5v69zM231 1325q0 41 30.5 73t74.5 32t74 -32t30 -73t-30 -72.5t-74 -31.5t-74.5 31.5t-30.5 72.5zM625 1325q0 41 30 73t74 32t74.5 -32t30.5 -73t-30.5 -72.5
t-74.5 -31.5t-74 31.5t-30 72.5z" />
    <glyph glyph-name="aring" unicode="&#xe5;" horiz-adv-x="1062" 
d="M694 588h68v24q0 248 -246 248q-169 0 -293 -112l-82 96q136 139 406 139q151 0 250.5 -87t99.5 -253v-428q0 -113 16 -215h-131q-12 70 -12 156h-4q-58 -94 -140 -137.5t-198 -43.5q-88 0 -161.5 30.5t-121 96t-47.5 154.5q0 64 21.5 116t55.5 86t86 59t101.5 38.5
t114 21t111.5 9.5t106 2zM762 477h-70q-446 0 -446 -203q0 -88 66.5 -132t158.5 -44q141 0 216 87.5t75 222.5v69zM655 1331q0 51 -36 86t-87 35t-86.5 -35t-35.5 -86t35.5 -86t86.5 -35t87 35t36 86zM729 1331q0 -82 -58 -138t-139 -56t-138.5 56t-57.5 138q0 81 58 138
t138 57t138.5 -57t58.5 -138z" />
    <glyph glyph-name="ae" unicode="&#xe6;" horiz-adv-x="1744" 
d="M1647 442h-719v-18q0 -136 76.5 -231t203.5 -95q112 0 179 41t120 115l107 -84q-76 -97 -181 -146t-221 -49q-114 0 -211 57t-147 167q-71 -120 -172 -172t-254 -52q-88 0 -161.5 30.5t-121 96t-47.5 154.5q0 74 28.5 129t73 86.5t109 50.5t124.5 25t132 6h228v59
q-1 58 -20.5 103.5t-47 72t-62 43.5t-63 23t-53.5 6q-170 0 -291 -115l-84 99q149 139 381 139q108 0 195 -52t122 -132q45 83 141 133.5t201 50.5q138 -1 237.5 -65t148.5 -170.5t49 -243.5v-62zM793 442h-281q-47 0 -91 -8.5t-84.5 -26.5t-65.5 -52.5t-25 -80.5
q0 -88 66.5 -132t158.5 -44q145 0 233.5 91t88.5 235v18zM928 553h583q0 135 -80.5 221t-213.5 86q-122 0 -205.5 -88t-83.5 -219z" />
    <glyph glyph-name="ccedilla" unicode="&#xe7;" horiz-adv-x="987" 
d="M956 817l-110 -84q-36 55 -100 91t-140 36q-164 3 -262 -105t-98 -276t98 -276t262 -105q76 0 140 36t100 91l110 -84q-69 -81 -159.5 -122.5t-190.5 -43.5q-12 0 -14 2l-76 -100l4 -2q40 14 74 14q65 0 111.5 -41.5t46.5 -111.5q0 -88 -71 -134t-165 -46q-108 0 -199 49
l33 73q68 -36 152 -36q51 0 89 22.5t38 69.5q0 28 -23 55t-78 27q-42 0 -94 -23l-37 35l115 156q-191 26 -302.5 162.5t-111.5 332.5q0 221 139 364t369 140q100 -2 190.5 -43.5t159.5 -122.5z" />
    <glyph glyph-name="egrave" unicode="&#xe8;" 
d="M1040 442h-798q12 -146 111.5 -245t240.5 -99q101 0 182.5 48t124.5 118l105 -86q-160 -203 -412 -203q-214 0 -355 143.5t-141 360.5q0 216 139.5 360t344.5 144q141 -1 246.5 -66.5t158.5 -173t53 -239.5v-62zM246 553h647q0 138 -83.5 222.5t-227.5 84.5
q-131 0 -233.5 -94t-102.5 -213zM573 1155l-270 295h186l205 -295h-121z" />
    <glyph glyph-name="eacute" unicode="&#xe9;" 
d="M1040 442h-798q12 -146 111.5 -245t240.5 -99q101 0 182.5 48t124.5 118l105 -86q-160 -203 -412 -203q-214 0 -355 143.5t-141 360.5q0 216 139.5 360t344.5 144q141 -1 246.5 -66.5t158.5 -173t53 -239.5v-62zM246 553h647q0 138 -83.5 222.5t-227.5 84.5
q-131 0 -233.5 -94t-102.5 -213zM836 1450l-271 -295h-121l205 295h187z" />
    <glyph glyph-name="ecircumflex" unicode="&#xea;" 
d="M1040 442h-798q12 -146 111.5 -245t240.5 -99q101 0 182.5 48t124.5 118l105 -86q-160 -203 -412 -203q-214 0 -355 143.5t-141 360.5q0 216 139.5 360t344.5 144q141 -1 246.5 -66.5t158.5 -173t53 -239.5v-62zM246 553h647q0 138 -83.5 222.5t-227.5 84.5
q-131 0 -233.5 -94t-102.5 -213zM651 1450l223 -295h-135l-170 221l-170 -221h-135l223 295h164z" />
    <glyph glyph-name="edieresis" unicode="&#xeb;" 
d="M1040 442h-798q12 -146 111.5 -245t240.5 -99q101 0 182.5 48t124.5 118l105 -86q-160 -203 -412 -203q-214 0 -355 143.5t-141 360.5q0 216 139.5 360t344.5 144q141 -1 246.5 -66.5t158.5 -173t53 -239.5v-62zM246 553h647q0 138 -83.5 222.5t-227.5 84.5
q-131 0 -233.5 -94t-102.5 -213zM268 1325q0 41 30.5 73t74.5 32t74 -32t30 -73t-30 -72.5t-74 -31.5t-74.5 31.5t-30.5 72.5zM662 1325q0 41 30 73t74 32t74 -32t30 -73t-30 -72.5t-74 -31.5t-74 31.5t-30 72.5z" />
    <glyph glyph-name="igrave" unicode="&#xec;" horiz-adv-x="491" 
d="M313 958v-958h-135v958h135zM250 1155l-270 295h186l205 -295h-121z" />
    <glyph glyph-name="iacute" unicode="&#xed;" horiz-adv-x="491" 
d="M313 958v-958h-135v958h135zM512 1450l-270 -295h-121l205 295h186z" />
    <glyph glyph-name="icircumflex" unicode="&#xee;" horiz-adv-x="491" 
d="M313 958v-958h-135v958h135zM328 1450l223 -295h-135l-170 221l-170 -221h-135l223 295h164z" />
    <glyph glyph-name="idieresis" unicode="&#xef;" horiz-adv-x="491" 
d="M313 958v-958h-135v958h135zM-55 1325q0 41 30 73t74 32t74.5 -32t30.5 -73t-30.5 -72.5t-74.5 -31.5t-74 31.5t-30 72.5zM338 1325q0 41 30 73t74 32t74.5 -32t30.5 -73t-30.5 -72.5t-74.5 -31.5t-74 31.5t-30 72.5z" />
    <glyph glyph-name="eth" unicode="&#xf0;" horiz-adv-x="1214" 
d="M246 479q0 -165 98.5 -273t261.5 -108q164 0 263.5 108t99.5 273t-99.5 273t-263.5 108q-163 0 -261.5 -108t-98.5 -273zM932 1462l-211 -110q198 -198 298 -398.5t97 -433.5q-1 -79 -15.5 -152t-51.5 -146t-93 -126.5t-146 -87t-204 -33.5q-222 0 -365 143t-143 361
t143 361t365 143q88 0 160.5 -28.5t146.5 -90.5l5 4q-75 142 -149.5 234.5t-176.5 183.5l-225 -117l-74 74l221 115q-107 101 -195 162l123 75q133 -108 199 -170l209 109z" />
    <glyph glyph-name="ntilde" unicode="&#xf1;" 
d="M137 958h139q7 -60 7 -153h4q44 78 134.5 128t186.5 50q180 0 270.5 -97t90.5 -278v-608h-135v530q0 168 -58 249t-203 81q-10 0 -25.5 -2t-44.5 -10t-56.5 -22t-58 -42.5t-53 -65.5t-37.5 -95.5t-15 -130.5v-492h-136v748q0 35 -10 210zM326 1180h-88q36 213 188 213
q57 0 149 -47q4 -2 18 -8.5t19 -9t17 -7.5t18.5 -7.5t16.5 -6t17 -5t15.5 -3t16.5 -1.5q76 0 100 103h88q-36 -213 -188 -213q-50 0 -150 47q-88 47 -137 47q-76 0 -100 -102z" />
    <glyph glyph-name="ograve" unicode="&#xf2;" horiz-adv-x="1214" 
d="M1116 479q0 -218 -143.5 -361t-366.5 -143q-222 0 -365 143t-143 361t143 361t365 143q223 0 366.5 -143t143.5 -361zM969 479q0 165 -99.5 273t-263.5 108q-163 0 -261.5 -108t-98.5 -273t98.5 -273t261.5 -108q164 0 263.5 108t99.5 273zM612 1155l-270 295h186
l205 -295h-121z" />
    <glyph glyph-name="oacute" unicode="&#xf3;" horiz-adv-x="1214" 
d="M1116 479q0 -218 -143.5 -361t-366.5 -143q-222 0 -365 143t-143 361t143 361t365 143q223 0 366.5 -143t143.5 -361zM969 479q0 165 -99.5 273t-263.5 108q-163 0 -261.5 -108t-98.5 -273t98.5 -273t261.5 -108q164 0 263.5 108t99.5 273zM874 1450l-270 -295h-121
l205 295h186z" />
    <glyph glyph-name="ocircumflex" unicode="&#xf4;" horiz-adv-x="1214" 
d="M1116 479q0 -218 -143.5 -361t-366.5 -143q-222 0 -365 143t-143 361t143 361t365 143q223 0 366.5 -143t143.5 -361zM969 479q0 165 -99.5 273t-263.5 108q-163 0 -261.5 -108t-98.5 -273t98.5 -273t261.5 -108q164 0 263.5 108t99.5 273zM690 1450l223 -295h-135
l-170 221l-170 -221h-135l223 295h164z" />
    <glyph glyph-name="otilde" unicode="&#xf5;" horiz-adv-x="1214" 
d="M1116 479q0 -218 -143.5 -361t-366.5 -143q-222 0 -365 143t-143 361t143 361t365 143q223 0 366.5 -143t143.5 -361zM969 479q0 165 -99.5 273t-263.5 108q-163 0 -261.5 -108t-98.5 -273t98.5 -273t261.5 -108q164 0 263.5 108t99.5 273zM365 1180h-89q36 213 189 213
q57 0 149 -47q4 -2 18 -8.5t19 -9t17 -7.5t18.5 -7.5t16.5 -6t17 -5t15.5 -3t16.5 -1.5q76 0 100 103h88q-36 -213 -188 -213q-50 0 -150 47q-88 47 -137 47q-76 0 -100 -102z" />
    <glyph glyph-name="odieresis" unicode="&#xf6;" horiz-adv-x="1214" 
d="M1116 479q0 -218 -143.5 -361t-366.5 -143q-222 0 -365 143t-143 361t143 361t365 143q223 0 366.5 -143t143.5 -361zM969 479q0 165 -99.5 273t-263.5 108q-163 0 -261.5 -108t-98.5 -273t98.5 -273t261.5 -108q164 0 263.5 108t99.5 273zM307 1325q0 41 30.5 73
t74.5 32t74 -32t30 -73t-30 -72.5t-74 -31.5t-74.5 31.5t-30.5 72.5zM700 1325q0 41 30.5 73t74.5 32t74 -32t30 -73t-30 -72.5t-74 -31.5t-74.5 31.5t-30.5 72.5z" />
    <glyph glyph-name="divide" unicode="&#xf7;" horiz-adv-x="1363" 
d="M1204 682v-123h-1044v123h1044zM793 952q0 -44 -31.5 -77t-79.5 -33t-79.5 33t-31.5 77t31.5 77.5t79.5 33.5t79.5 -33.5t31.5 -77.5zM793 289q0 -44 -31.5 -77.5t-79.5 -33.5t-79.5 33.5t-31.5 77.5t31.5 77t79.5 33t79.5 -33t31.5 -77z" />
    <glyph glyph-name="oslash" unicode="&#xf8;" horiz-adv-x="1214" 
d="M899 713l-522 -537q94 -78 229 -78q164 0 263.5 108t99.5 273q0 131 -70 234zM315 246l523 534q-93 80 -232 80q-163 0 -261.5 -108t-98.5 -273q0 -139 69 -233zM1133 952l-136 -139q119 -135 119 -334q0 -218 -143.5 -361t-366.5 -143q-188 0 -321 107l-138 -139l-65 63
l135 139q-119 138 -119 334q0 218 143 361t365 143q189 0 326 -106l135 139z" />
    <glyph glyph-name="ugrave" unicode="&#xf9;" 
d="M979 0h-139q-6 51 -6 154h-5q-44 -78 -135 -128.5t-186 -50.5q-180 0 -270.5 97t-90.5 278v608h136v-530q0 -168 57.5 -249t202.5 -81q10 0 25.5 2t44.5 10.5t57 22.5t58.5 42t53 65.5t37.5 96t15 130.5v491h135v-747q0 -36 10 -211zM573 1155l-270 295h186l205 -295
h-121z" />
    <glyph glyph-name="uacute" unicode="&#xfa;" 
d="M979 0h-139q-6 51 -6 154h-5q-44 -78 -135 -128.5t-186 -50.5q-180 0 -270.5 97t-90.5 278v608h136v-530q0 -168 57.5 -249t202.5 -81q10 0 25.5 2t44.5 10.5t57 22.5t58.5 42t53 65.5t37.5 96t15 130.5v491h135v-747q0 -36 10 -211zM836 1450l-271 -295h-121l205 295
h187z" />
    <glyph glyph-name="ucircumflex" unicode="&#xfb;" 
d="M979 0h-139q-6 51 -6 154h-5q-44 -78 -135 -128.5t-186 -50.5q-180 0 -270.5 97t-90.5 278v608h136v-530q0 -168 57.5 -249t202.5 -81q10 0 25.5 2t44.5 10.5t57 22.5t58.5 42t53 65.5t37.5 96t15 130.5v491h135v-747q0 -36 10 -211zM651 1450l223 -295h-135l-170 221
l-170 -221h-135l223 295h164z" />
    <glyph glyph-name="udieresis" unicode="&#xfc;" 
d="M979 0h-139q-6 51 -6 154h-5q-44 -78 -135 -128.5t-186 -50.5q-180 0 -270.5 97t-90.5 278v608h136v-530q0 -168 57.5 -249t202.5 -81q10 0 25.5 2t44.5 10.5t57 22.5t58.5 42t53 65.5t37.5 96t15 130.5v491h135v-747q0 -36 10 -211zM268 1325q0 41 30.5 73t74.5 32
t74 -32t30 -73t-30 -72.5t-74 -31.5t-74.5 31.5t-30.5 72.5zM662 1325q0 41 30 73t74 32t74 -32t30 -73t-30 -72.5t-74 -31.5t-74 31.5t-30 72.5z" />
    <glyph glyph-name="yacute" unicode="&#xfd;" horiz-adv-x="987" 
d="M203 958l301 -792l293 792h164l-480 -1208q-47 -120 -115.5 -181t-185.5 -61q-74 0 -125 15l15 131q45 -23 102 -23q67 0 109 42.5t75 129.5l70 185l-393 970h170zM760 1450l-271 -295h-120l204 295h187z" />
    <glyph glyph-name="thorn" unicode="&#xfe;" horiz-adv-x="1251" 
d="M147 -467v2015h136v-768h4q148 203 372 203q223 0 366.5 -143t143.5 -361t-143.5 -361t-366.5 -143q-104 0 -207 47t-165 138h-4v-627h-136zM1022 479q0 165 -99.5 273t-263.5 108q-165 0 -274 -109.5t-109 -271.5q0 -164 105.5 -272.5t277.5 -108.5q164 0 263.5 108
t99.5 273z" />
    <glyph glyph-name="ydieresis" unicode="&#xff;" horiz-adv-x="987" 
d="M203 958l301 -792l293 792h164l-480 -1208q-47 -120 -115.5 -181t-185.5 -61q-74 0 -125 15l15 131q45 -23 102 -23q67 0 109 42.5t75 129.5l70 185l-393 970h170zM193 1325q0 41 30 73t74 32t74 -32t30 -73t-30 -72.5t-74 -31.5t-74 31.5t-30 72.5zM586 1325q0 41 30 73
t74 32t74.5 -32t30.5 -73t-30.5 -72.5t-74.5 -31.5t-74 31.5t-30 72.5z" />
    <glyph glyph-name="Amacron" unicode="&#x100;" horiz-adv-x="1404" 
d="M332 381l-160 -381h-172l631 1450h143l631 -1450h-172l-160 381h-741zM702 1278l-315 -762h629zM979 1731v-111h-553v111h553z" />
    <glyph glyph-name="amacron" unicode="&#x101;" horiz-adv-x="1062" 
d="M694 588h68v24q0 248 -246 248q-169 0 -293 -112l-82 96q136 139 406 139q151 0 250.5 -87t99.5 -253v-428q0 -113 16 -215h-131q-12 70 -12 156h-4q-58 -94 -140 -137.5t-198 -43.5q-88 0 -161.5 30.5t-121 96t-47.5 154.5q0 64 21.5 116t55.5 86t86 59t101.5 38.5
t114 21t111.5 9.5t106 2zM762 477h-70q-446 0 -446 -203q0 -88 66.5 -132t158.5 -44q141 0 216 87.5t75 222.5v69zM780 1339v-110h-553v110h553z" />
    <glyph glyph-name="Abreve" unicode="&#x102;" horiz-adv-x="1404" 
d="M332 381l-160 -381h-172l631 1450h143l631 -1450h-172l-160 381h-741zM702 1278l-315 -762h629zM913 1839h91q-7 -127 -89.5 -198.5t-212.5 -71.5t-212 71.5t-89 198.5h91q13 -77 71 -118.5t139 -41.5t139.5 41.5t71.5 118.5z" />
    <glyph glyph-name="abreve" unicode="&#x103;" horiz-adv-x="1062" 
d="M694 588h68v24q0 248 -246 248q-169 0 -293 -112l-82 96q136 139 406 139q151 0 250.5 -87t99.5 -253v-428q0 -113 16 -215h-131q-12 70 -12 156h-4q-58 -94 -140 -137.5t-198 -43.5q-88 0 -161.5 30.5t-121 96t-47.5 154.5q0 64 21.5 116t55.5 86t86 59t101.5 38.5
t114 21t111.5 9.5t106 2zM762 477h-70q-446 0 -446 -203q0 -88 66.5 -132t158.5 -44q141 0 216 87.5t75 222.5v69zM715 1450h90q-7 -127 -89 -198.5t-212 -71.5t-212 71.5t-89 198.5h90q13 -77 71.5 -118.5t139.5 -41.5t139.5 41.5t71.5 118.5z" />
    <glyph glyph-name="Aogonek" unicode="&#x104;" horiz-adv-x="1404" 
d="M1395 -289l39 -82q-73 -73 -185 -73q-74 0 -129 49t-55 125q0 108 119 227q25 25 49 43l-160 381h-741l-160 -381h-172l631 1450h143l631 -1450h-72q-67 -66 -104 -119q-41 -59 -41 -117q0 -42 30 -70t72 -28q66 0 105 45zM702 1278l-315 -762h629z" />
    <glyph glyph-name="aogonek" unicode="&#x105;" horiz-adv-x="1062" 
d="M948 -289l39 -82q-73 -73 -184 -73q-75 0 -130 49t-55 125q0 108 119 227q32 28 47 43h-2q-12 70 -12 156h-4q-60 -96 -140 -138.5t-198 -42.5q-88 0 -161.5 30.5t-121 96t-47.5 154.5q0 64 21.5 116t55.5 86t86 59t101.5 38.5t114 21t111.5 9.5t106 2h68v24
q0 248 -246 248q-169 0 -293 -112l-82 96q136 139 406 139q151 0 250.5 -87t99.5 -253v-428q0 -113 16 -215h-26q-70 -70 -105 -119q-41 -59 -41 -117q0 -42 30.5 -70t72.5 -28q65 0 104 45zM762 477h-70q-446 0 -446 -203q0 -88 66.5 -132t158.5 -44q141 0 216 87.5
t75 222.5v69z" />
    <glyph glyph-name="Cacute" unicode="&#x106;" horiz-adv-x="1441" 
d="M1270 315l121 -86q-75 -117 -219 -191.5t-318 -74.5q-213 0 -386 98t-271.5 272.5t-98.5 391.5t98.5 391.5t271.5 272.5t386 98q144 0 277.5 -57t224.5 -173l-129 -96q-45 74 -153.5 132.5t-219.5 58.5q-136 0 -250 -51t-188.5 -137.5t-116 -199.5t-41.5 -239t41.5 -239
t116 -199.5t188.5 -137.5t250 -51q275 0 416 217zM1153 1851l-270 -295h-121l205 295h186z" />
    <glyph glyph-name="cacute" unicode="&#x107;" horiz-adv-x="987" 
d="M956 817l-110 -84q-36 55 -100 91t-140 36q-164 3 -262 -105t-98 -276t98 -276t262 -105q76 0 140 36t100 91l110 -84q-69 -81 -159.5 -122.5t-190.5 -43.5q-230 -3 -369 140t-139 364t139 364t369 140q100 -2 190.5 -43.5t159.5 -122.5zM879 1450l-271 -295h-121
l205 295h187z" />
    <glyph glyph-name="Ccircumflex" unicode="&#x108;" horiz-adv-x="1441" 
d="M1270 315l121 -86q-75 -117 -219 -191.5t-318 -74.5q-213 0 -386 98t-271.5 272.5t-98.5 391.5t98.5 391.5t271.5 272.5t386 98q144 0 277.5 -57t224.5 -173l-129 -96q-45 74 -153.5 132.5t-219.5 58.5q-136 0 -250 -51t-188.5 -137.5t-116 -199.5t-41.5 -239t41.5 -239
t116 -199.5t188.5 -137.5t250 -51q275 0 416 217zM924 1851l223 -295h-135l-170 222l-170 -222h-135l223 295h164z" />
    <glyph glyph-name="ccircumflex" unicode="&#x109;" horiz-adv-x="987" 
d="M956 817l-110 -84q-36 55 -100 91t-140 36q-164 3 -262 -105t-98 -276t98 -276t262 -105q76 0 140 36t100 91l110 -84q-69 -81 -159.5 -122.5t-190.5 -43.5q-230 -3 -369 140t-139 364t139 364t369 140q100 -2 190.5 -43.5t159.5 -122.5zM678 1450l223 -295h-135
l-170 221l-170 -221h-135l223 295h164z" />
    <glyph glyph-name="Cdotaccent" unicode="&#x10a;" horiz-adv-x="1441" 
d="M1270 315l121 -86q-75 -117 -219 -191.5t-318 -74.5q-213 0 -386 98t-271.5 272.5t-98.5 391.5t98.5 391.5t271.5 272.5t386 98q144 0 277.5 -57t224.5 -173l-129 -96q-45 74 -153.5 132.5t-219.5 58.5q-136 0 -250 -51t-188.5 -137.5t-116 -199.5t-41.5 -239t41.5 -239
t116 -199.5t188.5 -137.5t250 -51q275 0 416 217zM733 1673q0 43 29.5 74t75.5 31t75 -31t29 -74t-29 -73.5t-75 -30.5t-75.5 30.5t-29.5 73.5z" />
    <glyph glyph-name="cdotaccent" unicode="&#x10b;" horiz-adv-x="987" 
d="M956 817l-110 -84q-36 55 -100 91t-140 36q-164 3 -262 -105t-98 -276t98 -276t262 -105q76 0 140 36t100 91l110 -84q-69 -81 -159.5 -122.5t-190.5 -43.5q-230 -3 -369 140t-139 364t139 364t369 140q100 -2 190.5 -43.5t159.5 -122.5zM475 1346q0 43 29.5 73.5
t75.5 30.5t75 -30.5t29 -73.5t-29 -74t-75 -31t-75.5 31t-29.5 74z" />
    <glyph glyph-name="Ccaron" unicode="&#x10c;" horiz-adv-x="1441" 
d="M1270 315l121 -86q-75 -117 -219 -191.5t-318 -74.5q-213 0 -386 98t-271.5 272.5t-98.5 391.5t98.5 391.5t271.5 272.5t386 98q144 0 277.5 -57t224.5 -173l-129 -96q-45 74 -153.5 132.5t-219.5 58.5q-136 0 -250 -51t-188.5 -137.5t-116 -199.5t-41.5 -239t41.5 -239
t116 -199.5t188.5 -137.5t250 -51q275 0 416 217zM1126 1851l-223 -295h-164l-223 295h135l170 -221l170 221h135z" />
    <glyph glyph-name="ccaron" unicode="&#x10d;" horiz-adv-x="987" 
d="M956 817l-110 -84q-36 55 -100 91t-140 36q-164 3 -262 -105t-98 -276t98 -276t262 -105q76 0 140 36t100 91l110 -84q-69 -81 -159.5 -122.5t-190.5 -43.5q-230 -3 -369 140t-139 364t139 364t369 140q100 -2 190.5 -43.5t159.5 -122.5zM893 1450l-223 -295h-164
l-223 295h135l170 -221l170 221h135z" />
    <glyph glyph-name="Dcaron" unicode="&#x10e;" horiz-adv-x="1517" 
d="M176 0v1450h481q110 0 218 -28.5t206.5 -88.5t173.5 -144t119.5 -204t44.5 -260t-44.5 -260t-119.5 -204t-173.5 -144t-206.5 -88.5t-218 -28.5h-481zM324 1315v-1180h286q129 0 237 32.5t183 89t128 132t77.5 160.5t24.5 176t-24.5 176t-77.5 160.5t-128 132t-183 89
t-237 32.5h-286zM1010 1851l-224 -295h-163l-224 295h136l170 -221l169 221h136z" />
    <glyph glyph-name="dcaron" unicode="&#x10f;" horiz-adv-x="1251" 
d="M1104 1548v-1548h-135v160h-4q-62 -91 -165.5 -138t-207.5 -47q-223 0 -366.5 143t-143.5 361t143.5 361t366.5 143q104 0 207.5 -46.5t165.5 -137.5h4v749h135zM229 479q0 -165 99.5 -273t263.5 -108q165 0 274 109.5t109 271.5t-109 271.5t-274 109.5
q-164 0 -263.5 -108t-99.5 -273zM1501 1450l-155 -379h-117l127 379h145z" />
    <glyph glyph-name="Dcroat" unicode="&#x110;" horiz-adv-x="1517" 
d="M324 711v-576h286q129 0 237 32.5t183 89t128 132t77.5 160.5t24.5 176t-24.5 176t-77.5 160.5t-128 132t-183 89t-237 32.5h-286v-494h528v-110h-528zM176 0v711h-149v110h149v629h481q110 0 218 -28.5t206.5 -88.5t173.5 -144t119.5 -204t44.5 -260t-44.5 -260
t-119.5 -204t-173.5 -144t-206.5 -88.5t-218 -28.5h-481z" />
    <glyph glyph-name="dcroat" unicode="&#x111;" horiz-adv-x="1251" 
d="M1214 1253v-106h-110v-1147h-135v160h-4q-62 -92 -165 -138.5t-208 -46.5q-223 0 -366.5 143t-143.5 361t143.5 361t366.5 143q105 0 208 -46t165 -138h4v348h-408v106h408v295h135v-295h110zM229 479q0 -163 100 -272t263 -109q165 0 274 110t109 271t-109 271t-274 110
q-163 0 -263 -109t-100 -272z" />
    <glyph glyph-name="Emacron" unicode="&#x112;" horiz-adv-x="1214" 
d="M344 686v-551h776v-135h-923v1450h899v-135h-752v-494h703v-135h-703zM932 1731v-111h-553v111h553z" />
    <glyph glyph-name="emacron" unicode="&#x113;" 
d="M1040 442h-798q12 -146 111.5 -245t240.5 -99q101 0 182.5 48t124.5 118l105 -86q-160 -203 -412 -203q-214 0 -355 143.5t-141 360.5q0 216 139.5 360t344.5 144q141 -1 246.5 -66.5t158.5 -173t53 -239.5v-62zM246 553h647q0 138 -83.5 222.5t-227.5 84.5
q-131 0 -233.5 -94t-102.5 -213zM852 1339v-110h-553v110h553z" />
    <glyph glyph-name="Ebreve" unicode="&#x114;" horiz-adv-x="1214" 
d="M344 686v-551h776v-135h-923v1450h899v-135h-752v-494h703v-135h-703zM870 1839h91q-7 -127 -89.5 -198.5t-212.5 -71.5t-212 71.5t-89 198.5h91q13 -77 71 -118.5t139 -41.5t139.5 41.5t71.5 118.5z" />
    <glyph glyph-name="ebreve" unicode="&#x115;" 
d="M1040 442h-798q12 -146 111.5 -245t240.5 -99q101 0 182.5 48t124.5 118l105 -86q-160 -203 -412 -203q-214 0 -355 143.5t-141 360.5q0 216 139.5 360t344.5 144q141 -1 246.5 -66.5t158.5 -173t53 -239.5v-62zM246 553h647q0 138 -83.5 222.5t-227.5 84.5
q-131 0 -233.5 -94t-102.5 -213zM799 1450h90q-7 -127 -89 -198.5t-212 -71.5t-212 71.5t-89 198.5h90q13 -77 71.5 -118.5t139.5 -41.5t139.5 41.5t71.5 118.5z" />
    <glyph glyph-name="Edotaccent" unicode="&#x116;" horiz-adv-x="1214" 
d="M344 686v-551h776v-135h-923v1450h899v-135h-752v-494h703v-135h-703zM571 1673q0 43 29.5 74t75.5 31t75 -31t29 -74t-29 -73.5t-75 -30.5t-75.5 30.5t-29.5 73.5z" />
    <glyph glyph-name="edotaccent" unicode="&#x117;" 
d="M1040 442h-798q12 -146 111.5 -245t240.5 -99q101 0 182.5 48t124.5 118l105 -86q-160 -203 -412 -203q-214 0 -355 143.5t-141 360.5q0 216 139.5 360t344.5 144q141 -1 246.5 -66.5t158.5 -173t53 -239.5v-62zM246 553h647q0 138 -83.5 222.5t-227.5 84.5
q-131 0 -233.5 -94t-102.5 -213zM487 1346q0 43 29.5 73.5t75.5 30.5t75 -30.5t29 -73.5t-29 -74t-75 -31t-75.5 31t-29.5 74z" />
    <glyph glyph-name="Eogonek" unicode="&#x118;" horiz-adv-x="1214" 
d="M1149 -289l39 -82q-73 -73 -184 -73q-75 0 -130 49t-55 125q0 108 119 227q32 28 47 43h-788v1450h899v-135h-752v-494h703v-135h-703v-551h776v-135h-33q-67 -66 -104 -119q-41 -59 -41 -117q0 -42 30 -70t72 -28q66 0 105 45z" />
    <glyph glyph-name="eogonek" unicode="&#x119;" 
d="M760 -289l39 -82q-73 -73 -185 -73q-74 0 -129 49t-55 125q0 108 119 227q3 3 10 9t10 9q-93 3 -174 37q-135 58 -216 182.5t-81 284.5q0 216 139.5 360t344.5 144q106 0 193.5 -38t145 -104t88.5 -152.5t31 -184.5v-62h-798q12 -146 111.5 -245t240.5 -99q102 0 182 47
t125 119l105 -86q-86 -108 -191 -155q-75 -31 -135 -39q-55 -62 -86 -103q-41 -59 -41 -117q0 -42 30 -70t72 -28q66 0 105 45zM246 553h647q0 139 -82.5 223t-228.5 84q-131 0 -233.5 -94t-102.5 -213z" />
    <glyph glyph-name="Ecaron" unicode="&#x11a;" horiz-adv-x="1214" 
d="M344 686v-551h776v-135h-923v1450h899v-135h-752v-494h703v-135h-703zM967 1851l-224 -295h-163l-224 295h136l170 -221l169 221h136z" />
    <glyph glyph-name="ecaron" unicode="&#x11b;" 
d="M1040 442h-798q12 -146 111.5 -245t240.5 -99q101 0 182.5 48t124.5 118l105 -86q-160 -203 -412 -203q-214 0 -355 143.5t-141 360.5q0 216 139.5 360t344.5 144q141 -1 246.5 -66.5t158.5 -173t53 -239.5v-62zM246 553h647q0 138 -83.5 222.5t-227.5 84.5
q-131 0 -233.5 -94t-102.5 -213zM901 1450l-223 -295h-164l-223 295h135l170 -221l170 221h135z" />
    <glyph glyph-name="Gcircumflex" unicode="&#x11c;" horiz-adv-x="1593" 
d="M1378 1292l-110 -108q-158 168 -414 168q-136 0 -250 -51t-188.5 -137.5t-116 -199.5t-41.5 -239t41.5 -239t116 -199.5t188.5 -137.5t250 -51q217 0 401 103v485h-346v135h494v-710q-119 -70 -266.5 -109t-282.5 -39q-213 0 -386 98t-271.5 272.5t-98.5 391.5
t98.5 391.5t271.5 272.5t386 98q329 0 524 -195zM920 1851l223 -295h-135l-170 222l-170 -222h-136l224 295h164z" />
    <glyph glyph-name="gcircumflex" unicode="&#x11d;" horiz-adv-x="1251" 
d="M121 -299l100 106q61 -81 157.5 -128.5t209.5 -47.5q100 0 173.5 29.5t116 82t63 118.5t20.5 147v172h-5q-120 -180 -358 -180q-137 0 -251.5 62.5t-181.5 174.5t-67 250t62.5 251.5t174.5 179t251 65.5q234 0 370 -184h5v159h135v-950q0 -48 -5.5 -93.5t-21 -96.5
t-40 -94.5t-65 -84t-92.5 -69t-126.5 -45.5t-163.5 -17q-280 0 -461 193zM246 492q0 -152 103 -260.5t253 -108.5q99 0 183 45.5t134 131t46 192.5q0 156 -99.5 262t-263.5 106q-150 0 -253 -108t-103 -260zM700 1450l224 -295h-136l-170 221l-169 -221h-136l224 295h163z
" />
    <glyph glyph-name="Gbreve" unicode="&#x11e;" horiz-adv-x="1593" 
d="M1378 1292l-110 -108q-158 168 -414 168q-136 0 -250 -51t-188.5 -137.5t-116 -199.5t-41.5 -239t41.5 -239t116 -199.5t188.5 -137.5t250 -51q217 0 401 103v485h-346v135h494v-710q-119 -70 -266.5 -109t-282.5 -39q-213 0 -386 98t-271.5 272.5t-98.5 391.5
t98.5 391.5t271.5 272.5t386 98q329 0 524 -195zM1051 1839h90q-7 -127 -89 -198.5t-212 -71.5t-212 71.5t-89 198.5h90q13 -77 71.5 -118.5t139.5 -41.5t139.5 41.5t71.5 118.5z" />
    <glyph glyph-name="gbreve" unicode="&#x11f;" horiz-adv-x="1251" 
d="M121 -299l100 106q61 -81 157.5 -128.5t209.5 -47.5q100 0 173.5 29.5t116 82t63 118.5t20.5 147v172h-5q-120 -180 -358 -180q-137 0 -251.5 62.5t-181.5 174.5t-67 250t62.5 251.5t174.5 179t251 65.5q234 0 370 -184h5v159h135v-950q0 -48 -5.5 -93.5t-21 -96.5
t-40 -94.5t-65 -84t-92.5 -69t-126.5 -45.5t-163.5 -17q-280 0 -461 193zM246 492q0 -152 103 -260.5t253 -108.5q99 0 183 45.5t134 131t46 192.5q0 156 -99.5 262t-263.5 106q-150 0 -253 -108t-103 -260zM838 1450h90q-7 -127 -89 -198.5t-212 -71.5t-212 71.5t-89 198.5
h90q13 -77 71.5 -118.5t139.5 -41.5t139.5 41.5t71.5 118.5z" />
    <glyph glyph-name="Gdotaccent" unicode="&#x120;" horiz-adv-x="1593" 
d="M1378 1292l-110 -108q-158 168 -414 168q-136 0 -250 -51t-188.5 -137.5t-116 -199.5t-41.5 -239t41.5 -239t116 -199.5t188.5 -137.5t250 -51q217 0 401 103v485h-346v135h494v-710q-119 -70 -266.5 -109t-282.5 -39q-213 0 -386 98t-271.5 272.5t-98.5 391.5
t98.5 391.5t271.5 272.5t386 98q329 0 524 -195zM762 1673q0 43 29 74t75 31t75.5 -31t29.5 -74t-29.5 -73.5t-75.5 -30.5t-75 30.5t-29 73.5z" />
    <glyph glyph-name="gdotaccent" unicode="&#x121;" horiz-adv-x="1251" 
d="M121 -299l100 106q61 -81 157.5 -128.5t209.5 -47.5q100 0 173.5 29.5t116 82t63 118.5t20.5 147v172h-5q-120 -180 -358 -180q-137 0 -251.5 62.5t-181.5 174.5t-67 250t62.5 251.5t174.5 179t251 65.5q234 0 370 -184h5v159h135v-950q0 -48 -5.5 -93.5t-21 -96.5
t-40 -94.5t-65 -84t-92.5 -69t-126.5 -45.5t-163.5 -17q-280 0 -461 193zM246 492q0 -152 103 -260.5t253 -108.5q99 0 183 45.5t134 131t46 192.5q0 156 -99.5 262t-263.5 106q-150 0 -253 -108t-103 -260zM524 1346q0 43 29.5 73.5t75.5 30.5t75 -30.5t29 -73.5t-29 -74
t-75 -31t-75.5 31t-29.5 74z" />
    <glyph glyph-name="Gcommaaccent" unicode="&#x122;" horiz-adv-x="1593" 
d="M1378 1292l-110 -108q-158 168 -414 168q-136 0 -250 -51t-188.5 -137.5t-116 -199.5t-41.5 -239t41.5 -239t116 -199.5t188.5 -137.5t250 -51q217 0 401 103v485h-346v135h494v-710q-119 -70 -266.5 -109t-282.5 -39q-213 0 -386 98t-271.5 272.5t-98.5 391.5
t98.5 391.5t271.5 272.5t386 98q329 0 524 -195zM958 -92l-155 -379h-117l127 379h145z" />
    <glyph glyph-name="gcommaaccent" unicode="&#x123;" horiz-adv-x="1251" 
d="M121 -299l100 106q61 -81 157.5 -128.5t209.5 -47.5q100 0 173.5 29.5t116 82t63 118.5t20.5 147v172h-5q-120 -180 -358 -180q-137 0 -251.5 62.5t-181.5 174.5t-67 250t62.5 251.5t174.5 179t251 65.5q234 0 370 -184h5v159h135v-950q0 -48 -5.5 -93.5t-21 -96.5
t-40 -94.5t-65 -84t-92.5 -69t-126.5 -45.5t-163.5 -17q-280 0 -461 193zM246 492q0 -152 103 -260.5t253 -108.5q99 0 183 45.5t134 131t46 192.5q0 156 -99.5 262t-263.5 106q-150 0 -253 -108t-103 -260zM537 1155l155 379h117l-127 -379h-145z" />
    <glyph glyph-name="Hcircumflex" unicode="&#x124;" horiz-adv-x="1478" 
d="M197 0v1450h147v-629h791v629h147v-1450h-147v686h-791v-686h-147zM823 1851l224 -295h-136l-170 222l-170 -222h-135l223 295h164z" />
    <glyph glyph-name="hcircumflex" unicode="&#x125;" 
d="M147 0v1548h136v-743h4q44 78 134.5 128t186.5 50q180 0 270.5 -97t90.5 -278v-608h-135v530q0 168 -58 249t-203 81q-10 0 -25.5 -2t-44.5 -10t-56.5 -22t-58 -42.5t-53 -65.5t-37.5 -95.5t-15 -130.5v-492h-136zM657 1925l224 -295h-136l-170 221l-169 -221h-136
l224 295h163z" />
    <glyph glyph-name="Hbar" unicode="&#x126;" horiz-adv-x="1478" 
d="M197 0v1450h147v-338h791v338h147v-1450h-147v686h-791v-686h-147zM344 821h791v168h-791v-168z" />
    <glyph glyph-name="hbar" unicode="&#x127;" 
d="M678 1253v-108h-395v-340h4q44 78 134.5 128t186.5 50q182 0 271.5 -96t89.5 -279v-608h-135v530q0 168 -58.5 249t-202.5 81q-10 0 -25.5 -2t-44.5 -10t-56.5 -22t-58 -42.5t-53 -65.5t-37.5 -95.5t-15 -130.5v-492h-136v1145h-122v108h122v295h136v-295h395z" />
    <glyph glyph-name="Itilde" unicode="&#x128;" horiz-adv-x="540" 
d="M344 1450v-1450h-147v1450h147zM29 1579h-88q6 43 19.5 78.5t35 67t55.5 49.5t78 18q58 0 150 -47q3 -1 16 -7.5t16.5 -8t15 -6.5t16.5 -7l15 -6t15.5 -5.5t14 -3.5t15 -2.5t13.5 -0.5q43 0 65 27.5t35 74.5h88q-6 -43 -19.5 -78.5t-35 -67t-55.5 -49.5t-78 -18
q-50 0 -150 47q-88 47 -137 47q-43 0 -65 -27.5t-35 -74.5z" />
    <glyph glyph-name="itilde" unicode="&#x129;" horiz-adv-x="491" 
d="M313 958v-958h-135v958h135zM6 1180h-88q36 213 188 213q58 0 150 -47q5 -2 20.5 -9.5t21.5 -10.5t19 -8.5t20.5 -8t18.5 -6t19.5 -4.5t17.5 -1q77 0 101 103h88q-36 -213 -189 -213q-49 0 -149 47q-88 47 -138 47q-76 0 -100 -102z" />
    <glyph glyph-name="Imacron" unicode="&#x12a;" horiz-adv-x="540" 
d="M344 1450v-1450h-147v1450h147zM545 1731v-111h-553v111h553z" />
    <glyph glyph-name="imacron" unicode="&#x12b;" horiz-adv-x="491" 
d="M313 958v-958h-135v958h135zM524 1339v-110h-553v110h553z" />
    <glyph glyph-name="Iogonek" unicode="&#x12e;" horiz-adv-x="540" 
d="M369 -289l39 -82q-73 -73 -185 -73q-74 0 -129 49t-55 125q0 108 119 227q32 28 47 43h-8v1450h147v-1450h-37q-66 -66 -104 -119q-41 -59 -41 -117q0 -42 30 -70t72 -28q66 0 105 45z" />
    <glyph glyph-name="iogonek" unicode="&#x12f;" horiz-adv-x="491" 
d="M346 -289l39 -82q-73 -73 -184 -73q-75 0 -130 49t-55 125q0 108 119 227q32 28 47 43h-4v958h135v-958h-28q-70 -70 -105 -119q-41 -59 -41 -117q0 -42 30.5 -70t72.5 -28q65 0 104 45zM344 1327q0 -41 -30 -69.5t-68 -28.5t-68.5 28.5t-30.5 69.5t30.5 69.5t68.5 28.5
t68 -28.5t30 -69.5z" />
    <glyph glyph-name="Idotaccent" unicode="&#x130;" horiz-adv-x="540" 
d="M344 1450v-1450h-147v1450h147zM168 1673q0 43 29 74t75 31t75.5 -31t29.5 -74t-29.5 -73.5t-75.5 -30.5t-75 30.5t-29 73.5z" />
    <glyph glyph-name="dotlessi" unicode="&#x131;" horiz-adv-x="491" 
d="M313 958v-958h-135v958h135z" />
    <glyph glyph-name="Jcircumflex" unicode="&#x134;" horiz-adv-x="987" 
d="M29 266l149 31q21 -94 78.5 -146.5t151.5 -52.5q62 0 109 21t74.5 54.5t44 82.5t22.5 97t6 106v991h147v-1053q0 -62 -12 -120.5t-42 -116.5t-75.5 -101t-117 -69.5t-161.5 -26.5q-152 0 -251 78t-123 225zM815 1851l223 -295h-135l-170 222l-170 -222h-135l223 295h164z
" />
    <glyph glyph-name="jcircumflex" unicode="&#x135;" horiz-adv-x="491" 
d="M-63 -471l18 117l6 -2q50 -13 72 -13q47 0 78 17.5t44.5 50.5t18 62.5t4.5 70.5v1126h135v-1148v-9q0 -23 -0.5 -39t-5 -49.5t-14 -57t-29.5 -53.5t-47.5 -49t-72.5 -32t-101 -13t-106 21zM322 1450l223 -295h-135l-170 221l-170 -221h-136l224 295h164z" />
    <glyph glyph-name="Kcommaaccent" unicode="&#x136;" horiz-adv-x="1290" 
d="M344 1450v-629h21l682 629h210l-731 -657l772 -793h-217l-712 748h-25v-748h-147v1450h147zM745 -92l-155 -379h-117l127 379h145z" />
    <glyph glyph-name="kcommaaccent" unicode="&#x137;" horiz-adv-x="987" 
d="M283 1548v-1022l452 432h203l-477 -438l528 -520h-209l-497 504v-504h-136v1548h136zM561 -92l-155 -379h-117l127 379h145z" />
    <glyph glyph-name="Lacute" unicode="&#x139;" horiz-adv-x="1024" 
d="M344 1450v-1315h676v-135h-823v1450h147zM614 1851l-270 -295h-121l205 295h186z" />
    <glyph glyph-name="lacute" unicode="&#x13a;" horiz-adv-x="491" 
d="M313 1548v-1548h-135v1548h135zM569 1917l-270 -295h-121l205 295h186z" />
    <glyph glyph-name="Lcommaaccent" unicode="&#x13b;" horiz-adv-x="1024" 
d="M344 1450v-1315h676v-135h-823v1450h147zM702 -92l-155 -379h-117l127 379h145z" />
    <glyph glyph-name="lcommaaccent" unicode="&#x13c;" horiz-adv-x="491" 
d="M313 1548v-1548h-135v1548h135zM324 -92l-156 -379h-117l127 379h146z" />
    <glyph glyph-name="Lcaron" unicode="&#x13d;" horiz-adv-x="1024" 
d="M344 1450v-1315h676v-135h-823v1450h147zM795 1450l-156 -379h-117l127 379h146z" />
    <glyph glyph-name="lcaron" unicode="&#x13e;" horiz-adv-x="491" 
d="M313 1548v-1548h-135v1548h135zM686 1450l-156 -379h-116l127 379h145z" />
    <glyph glyph-name="Ldot" unicode="&#x13f;" horiz-adv-x="1024" 
d="M344 1450v-1315h676v-135h-823v1450h147zM659 829q0 43 29.5 74t75.5 31t75 -31t29 -74t-29 -73.5t-75 -30.5t-75.5 30.5t-29.5 73.5z" />
    <glyph glyph-name="ldot" unicode="&#x140;" horiz-adv-x="614" 
d="M313 1548v-1548h-135v1548h135zM440 838q0 43 29.5 73.5t75.5 30.5t75 -30.5t29 -73.5t-29 -74t-75 -31t-75.5 31t-29.5 74z" />
    <glyph glyph-name="Lslash" unicode="&#x141;" horiz-adv-x="1024" 
d="M344 1450v-709l442 381v-143l-442 -381v-463h676v-135h-823v471l-168 -143v143l168 143v836h147z" />
    <glyph glyph-name="lslash" unicode="&#x142;" horiz-adv-x="491" 
d="M313 1548v-610l166 172v-149l-166 -170v-791h-135v649l-166 -170v150l166 168v751h135z" />
    <glyph glyph-name="Nacute" unicode="&#x143;" horiz-adv-x="1593" 
d="M381 1450l864 -1229h4v1229h148v-1450h-185l-864 1241h-4v-1241h-147v1450h184zM1090 1851l-271 -295h-121l205 295h187z" />
    <glyph glyph-name="nacute" unicode="&#x144;" 
d="M137 958h139q7 -60 7 -153h4q44 78 134.5 128t186.5 50q180 0 270.5 -97t90.5 -278v-608h-135v530q0 168 -58 249t-203 81q-10 0 -25.5 -2t-44.5 -10t-56.5 -22t-58 -42.5t-53 -65.5t-37.5 -95.5t-15 -130.5v-492h-136v748q0 35 -10 210zM866 1450l-270 -295h-121
l205 295h186z" />
    <glyph glyph-name="Ncommaaccent" unicode="&#x145;" horiz-adv-x="1593" 
d="M381 1450l864 -1229h4v1229h148v-1450h-185l-864 1241h-4v-1241h-147v1450h184zM889 -92l-156 -379h-117l127 379h146z" />
    <glyph glyph-name="ncommaaccent" unicode="&#x146;" 
d="M137 958h139q7 -60 7 -153h4q44 78 134.5 128t186.5 50q180 0 270.5 -97t90.5 -278v-608h-135v530q0 168 -58 249t-203 81q-10 0 -25.5 -2t-44.5 -10t-56.5 -22t-58 -42.5t-53 -65.5t-37.5 -95.5t-15 -130.5v-492h-136v748q0 35 -10 210zM659 -92l-155 -379h-117l127 379
h145z" />
    <glyph glyph-name="Ncaron" unicode="&#x147;" horiz-adv-x="1593" 
d="M381 1450l864 -1229h4v1229h148v-1450h-185l-864 1241h-4v-1241h-147v1450h184zM1106 1851l-223 -295h-164l-223 295h135l170 -221l170 221h135z" />
    <glyph glyph-name="ncaron" unicode="&#x148;" 
d="M137 958h139q7 -60 7 -153h4q44 78 134.5 128t186.5 50q180 0 270.5 -97t90.5 -278v-608h-135v530q0 168 -58 249t-203 81q-10 0 -25.5 -2t-44.5 -10t-56.5 -22t-58 -42.5t-53 -65.5t-37.5 -95.5t-15 -130.5v-492h-136v748q0 35 -10 210zM866 1450l-223 -295h-164
l-223 295h135l170 -221l170 221h135z" />
    <glyph glyph-name="Omacron" unicode="&#x14c;" horiz-adv-x="1708" 
d="M1610 725q0 -217 -98.5 -391.5t-271.5 -272.5t-386 -98t-386 98t-271.5 272.5t-98.5 391.5t98.5 391.5t271.5 272.5t386 98t386 -98t271.5 -272.5t98.5 -391.5zM1450 725q0 126 -41.5 239t-116 199.5t-188.5 137.5t-250 51t-250 -51t-188.5 -137.5t-116 -199.5
t-41.5 -239t41.5 -239t116 -199.5t188.5 -137.5t250 -51t250 51t188.5 137.5t116 199.5t41.5 239zM1133 1731v-111h-553v111h553z" />
    <glyph glyph-name="omacron" unicode="&#x14d;" horiz-adv-x="1214" 
d="M1116 479q0 -218 -143.5 -361t-366.5 -143q-222 0 -365 143t-143 361t143 361t365 143q223 0 366.5 -143t143.5 -361zM969 479q0 165 -99.5 273t-263.5 108q-163 0 -261.5 -108t-98.5 -273t98.5 -273t261.5 -108q164 0 263.5 108t99.5 273zM885 1339v-110h-553v110h553z
" />
    <glyph glyph-name="Obreve" unicode="&#x14e;" horiz-adv-x="1708" 
d="M1610 725q0 -217 -98.5 -391.5t-271.5 -272.5t-386 -98t-386 98t-271.5 272.5t-98.5 391.5t98.5 391.5t271.5 272.5t386 98t386 -98t271.5 -272.5t98.5 -391.5zM1450 725q0 126 -41.5 239t-116 199.5t-188.5 137.5t-250 51t-250 -51t-188.5 -137.5t-116 -199.5
t-41.5 -239t41.5 -239t116 -199.5t188.5 -137.5t250 -51t250 51t188.5 137.5t116 199.5t41.5 239zM1063 1839h90q-7 -127 -89 -198.5t-212 -71.5t-212 71.5t-89 198.5h90q13 -77 71.5 -118.5t139.5 -41.5t139.5 41.5t71.5 118.5z" />
    <glyph glyph-name="obreve" unicode="&#x14f;" horiz-adv-x="1214" 
d="M1116 479q0 -218 -143.5 -361t-366.5 -143q-222 0 -365 143t-143 361t143 361t365 143q223 0 366.5 -143t143.5 -361zM969 479q0 165 -99.5 273t-263.5 108q-163 0 -261.5 -108t-98.5 -273t98.5 -273t261.5 -108q164 0 263.5 108t99.5 273zM819 1450h90
q-7 -127 -89 -198.5t-212 -71.5t-212 71.5t-89 198.5h90q13 -77 71.5 -118.5t139.5 -41.5t139.5 41.5t71.5 118.5z" />
    <glyph glyph-name="Ohungarumlaut" unicode="&#x150;" horiz-adv-x="1708" 
d="M1610 725q0 -217 -98.5 -391.5t-271.5 -272.5t-386 -98t-386 98t-271.5 272.5t-98.5 391.5t98.5 391.5t271.5 272.5t386 98t386 -98t271.5 -272.5t98.5 -391.5zM1450 725q0 126 -41.5 239t-116 199.5t-188.5 137.5t-250 51t-250 -51t-188.5 -137.5t-116 -199.5
t-41.5 -239t41.5 -239t116 -199.5t188.5 -137.5t250 -51t250 51t188.5 137.5t116 199.5t41.5 239zM1333 1851l-270 -295h-121l205 295h186zM924 1851l-273 -295h-121l207 295h187z" />
    <glyph glyph-name="ohungarumlaut" unicode="&#x151;" horiz-adv-x="1214" 
d="M1116 479q0 -218 -143.5 -361t-366.5 -143q-222 0 -365 143t-143 361t143 361t365 143q223 0 366.5 -143t143.5 -361zM969 479q0 165 -99.5 273t-263.5 108q-163 0 -261.5 -108t-98.5 -273t98.5 -273t261.5 -108q164 0 263.5 108t99.5 273zM1094 1450l-271 -295h-121
l205 295h187zM684 1450l-272 -295h-121l207 295h186z" />
    <glyph glyph-name="OE" unicode="&#x152;" horiz-adv-x="1933" 
d="M1212 1315v-494h578v-135h-578v-551h627v-135h-915q-168 0 -305.5 46t-226.5 119.5t-150 170.5t-87 195t-26 196q0 142 45 262t121.5 203.5t178 142.5t214.5 87t232 28h895v-135h-603zM1065 135v1180h-117q-142 0 -262 -38.5t-208.5 -112t-138.5 -187t-50 -256.5
q0 -41 6.5 -87t25.5 -104t48.5 -112t79 -106.5t113 -91t156 -62t202.5 -23.5h145z" />
    <glyph glyph-name="oe" unicode="&#x153;" horiz-adv-x="1888" 
d="M1790 442h-719v-18q0 -136 76.5 -231t204.5 -95q112 0 179 41t120 115l106 -84q-76 -97 -180.5 -146t-220.5 -49q-121 0 -219.5 55.5t-153.5 162.5q-74 -109 -185.5 -163.5t-213.5 -54.5q-217 0 -351.5 142.5t-134.5 361.5q0 216 140 360t346 144q126 0 233.5 -52.5
t171.5 -162.5q71 108 157.5 161.5t209.5 53.5q138 -1 237.5 -65t148 -170.5t48.5 -243.5v-62zM924 479q0 162 -90.5 271.5t-249.5 109.5q-148 0 -243 -109t-95 -272t95 -272t243 -109q159 0 249.5 109.5t90.5 271.5zM1071 553h584q0 135 -81 221t-214 86q-122 0 -205.5 -88
t-83.5 -219z" />
    <glyph glyph-name="Racute" unicode="&#x154;" horiz-adv-x="1214" 
d="M344 674v-674h-147v1450h446q226 0 351.5 -98t125.5 -289q0 -154 -97.5 -257t-272.5 -118l417 -688h-180l-397 674h-246zM344 1315v-506h262q186 0 270.5 70t84.5 184t-84.5 183t-270.5 69h-262zM889 1851l-271 -295h-120l204 295h187z" />
    <glyph glyph-name="racute" unicode="&#x155;" horiz-adv-x="679" 
d="M162 0v659q0 21 -8 299h133v-178h4q33 86 111.5 144.5t195.5 58.5q56 0 100 -12l-26 -133q-27 10 -78 10q-73 0 -132 -29.5t-94 -76t-53 -98.5t-18 -103v-541h-135zM672 1450l-271 -295h-120l204 295h187z" />
    <glyph glyph-name="Rcommaaccent" unicode="&#x156;" horiz-adv-x="1214" 
d="M344 674v-674h-147v1450h446q226 0 351.5 -98t125.5 -289q0 -154 -97.5 -257t-272.5 -118l417 -688h-180l-397 674h-246zM344 1315v-506h262q186 0 270.5 70t84.5 184t-84.5 183t-270.5 69h-262zM721 -92l-156 -379h-116l126 379h146z" />
    <glyph glyph-name="rcommaaccent" unicode="&#x157;" horiz-adv-x="679" 
d="M162 0v659q0 21 -8 299h133v-178h4q33 86 111.5 144.5t195.5 58.5q56 0 100 -12l-26 -133q-27 10 -78 10q-73 0 -132 -29.5t-94 -76t-53 -98.5t-18 -103v-541h-135zM311 -92l-155 -379h-117l127 379h145z" />
    <glyph glyph-name="Rcaron" unicode="&#x158;" horiz-adv-x="1214" 
d="M344 674v-674h-147v1450h446q226 0 351.5 -98t125.5 -289q0 -154 -97.5 -257t-272.5 -118l417 -688h-180l-397 674h-246zM344 1315v-506h262q186 0 270.5 70t84.5 184t-84.5 183t-270.5 69h-262zM907 1851l-223 -295h-164l-223 295h135l170 -221l170 221h135z" />
    <glyph glyph-name="rcaron" unicode="&#x159;" horiz-adv-x="679" 
d="M162 0v659q0 21 -8 299h133v-178h4q33 86 111.5 144.5t195.5 58.5q56 0 100 -12l-26 -133q-27 10 -78 10q-73 0 -132 -29.5t-94 -76t-53 -98.5t-18 -103v-541h-135zM672 1450l-223 -295h-164l-224 295h136l170 -221l170 221h135z" />
    <glyph glyph-name="Sacute" unicode="&#x15a;" 
d="M1012 1311l-129 -101q-95 142 -281 142q-80 0 -148 -26.5t-114.5 -87.5t-46.5 -148q0 -62 25.5 -109.5t68.5 -77.5t98.5 -53.5t117.5 -43.5t123.5 -41.5t117 -53t98.5 -73t68.5 -107t25.5 -148.5q0 -95 -42 -176t-110.5 -133.5t-153 -81.5t-171.5 -29q-139 0 -258 53
t-199 162l134 96q47 -82 132.5 -129t196.5 -47q75 0 145 29.5t118.5 91.5t48.5 143q0 65 -25.5 114.5t-68.5 80t-99 54.5t-117.5 43t-123 40t-117.5 52t-99 72t-68.5 106.5t-25.5 150.5q0 82 26 150.5t71 116t105 81t127.5 49t139.5 15.5q128 0 227.5 -40.5t182.5 -135.5z
M905 1851l-270 -295h-121l205 295h186z" />
    <glyph glyph-name="sacute" unicode="&#x15b;" horiz-adv-x="872" 
d="M776 811l-121 -80q-68 129 -206 129q-80 0 -139.5 -36t-59.5 -107q0 -64 44 -96.5t144 -55.5l137 -33q103 -24 168.5 -94t65.5 -168q0 -75 -31.5 -133.5t-85.5 -93t-119 -51.5t-137 -17q-243 0 -368 187l116 80q92 -144 252 -144q92 0 159 41t67 119q0 28 -10 50.5
t-25.5 38t-40.5 28.5t-49 21t-58 16l-131 30q-27 7 -51.5 15t-62.5 28.5t-65 46t-47 68t-20 94.5q0 72 30 128.5t80.5 91t113 52t131.5 17.5q107 0 191.5 -41.5t127.5 -130.5zM756 1450l-271 -295h-120l204 295h187z" />
    <glyph glyph-name="Scircumflex" unicode="&#x15c;" 
d="M1012 1311l-129 -101q-95 142 -281 142q-80 0 -148 -26.5t-114.5 -87.5t-46.5 -148q0 -62 25.5 -109.5t68.5 -77.5t98.5 -53.5t117.5 -43.5t123.5 -41.5t117 -53t98.5 -73t68.5 -107t25.5 -148.5q0 -95 -42 -176t-110.5 -133.5t-153 -81.5t-171.5 -29q-139 0 -258 53
t-199 162l134 96q47 -82 132.5 -129t196.5 -47q75 0 145 29.5t118.5 91.5t48.5 143q0 65 -25.5 114.5t-68.5 80t-99 54.5t-117.5 43t-123 40t-117.5 52t-99 72t-68.5 106.5t-25.5 150.5q0 82 26 150.5t71 116t105 81t127.5 49t139.5 15.5q128 0 227.5 -40.5t182.5 -135.5z
M694 1851l224 -295h-136l-170 222l-170 -222h-135l223 295h164z" />
    <glyph glyph-name="scircumflex" unicode="&#x15d;" horiz-adv-x="872" 
d="M776 811l-121 -80q-68 129 -206 129q-80 0 -139.5 -36t-59.5 -107q0 -64 44 -96.5t144 -55.5l137 -33q103 -24 168.5 -94t65.5 -168q0 -75 -31.5 -133.5t-85.5 -93t-119 -51.5t-137 -17q-243 0 -368 187l116 80q92 -144 252 -144q92 0 159 41t67 119q0 28 -10 50.5
t-25.5 38t-40.5 28.5t-49 21t-58 16l-131 30q-27 7 -51.5 15t-62.5 28.5t-65 46t-47 68t-20 94.5q0 72 30 128.5t80.5 91t113 52t131.5 17.5q107 0 191.5 -41.5t127.5 -130.5zM522 1450l223 -295h-135l-170 221l-170 -221h-135l223 295h164z" />
    <glyph glyph-name="Scedilla" unicode="&#x15e;" 
d="M612 -33l-65 -90l4 -2q40 14 74 14q65 0 111 -41.5t46 -111.5q0 -60 -37 -102.5t-88.5 -60t-109.5 -17.5q-108 0 -199 49l33 73q68 -36 151 -36q51 0 89 22.5t38 69.5q0 28 -22.5 55t-77.5 27q-50 0 -94 -23l-37 35l100 137q-114 3 -223 47q-121 53 -203 166l134 96
q49 -82 133 -129t196 -47q75 0 145 29.5t118.5 91.5t48.5 143q0 65 -25.5 114.5t-68.5 80t-99 54.5t-117.5 43t-123 40t-117.5 52t-99 72t-68.5 106.5t-25.5 150.5q0 82 26 150.5t71 116t105 81t127.5 49t139.5 15.5q128 0 227.5 -40.5t182.5 -135.5l-129 -101
q-95 142 -281 142q-81 0 -149 -26.5t-114 -87.5t-46 -148q0 -63 25.5 -110.5t68.5 -77.5t98.5 -53.5t117.5 -43t123.5 -41t117 -53t98.5 -73t68.5 -106.5t25.5 -149q0 -142 -86.5 -244.5t-220.5 -146.5q-63 -20 -117 -25z" />
    <glyph glyph-name="scedilla" unicode="&#x15f;" horiz-adv-x="872" 
d="M498 -20l-76 -103l4 -2q40 14 74 14q65 0 111 -41.5t46 -111.5q0 -60 -37 -102.5t-88.5 -60t-109.5 -17.5q-108 0 -199 49l33 73q68 -36 152 -36q51 0 89 22.5t38 69.5q0 28 -23 55t-78 27q-50 0 -94 -23l-37 35l109 147q-99 6 -183 41q-93 43 -161 146l116 80
q90 -144 252 -144q92 0 159 41t67 119q0 28 -10 50.5t-25.5 38t-40.5 28.5t-49 21t-58 16l-131 30q-27 6 -52.5 14.5t-63 29t-64 46t-46.5 68t-20 94.5q0 72 30 128.5t80.5 91t113 52t131.5 17.5q232 0 319 -172l-121 -80q-66 129 -206 129q-80 0 -139.5 -36t-59.5 -107
q0 -64 43 -95.5t145 -56.5l137 -33q104 -24 169 -93.5t65 -168.5q0 -111 -65 -181.5t-171 -96.5q-42 -9 -75 -12z" />
    <glyph glyph-name="Scaron" unicode="&#x160;" 
d="M1012 1311l-129 -101q-95 142 -281 142q-80 0 -148 -26.5t-114.5 -87.5t-46.5 -148q0 -62 25.5 -109.5t68.5 -77.5t98.5 -53.5t117.5 -43.5t123.5 -41.5t117 -53t98.5 -73t68.5 -107t25.5 -148.5q0 -95 -42 -176t-110.5 -133.5t-153 -81.5t-171.5 -29q-139 0 -258 53
t-199 162l134 96q47 -82 132.5 -129t196.5 -47q75 0 145 29.5t118.5 91.5t48.5 143q0 65 -25.5 114.5t-68.5 80t-99 54.5t-117.5 43t-123 40t-117.5 52t-99 72t-68.5 106.5t-25.5 150.5q0 82 26 150.5t71 116t105 81t127.5 49t139.5 15.5q128 0 227.5 -40.5t182.5 -135.5z
M874 1808l-223 -295h-164l-223 295h135l170 -221l170 221h135z" />
    <glyph glyph-name="scaron" unicode="&#x161;" horiz-adv-x="872" 
d="M776 811l-121 -80q-68 129 -206 129q-80 0 -139.5 -36t-59.5 -107q0 -64 44 -96.5t144 -55.5l137 -33q103 -24 168.5 -94t65.5 -168q0 -75 -31.5 -133.5t-85.5 -93t-119 -51.5t-137 -17q-243 0 -368 187l116 80q92 -144 252 -144q92 0 159 41t67 119q0 28 -10 50.5
t-25.5 38t-40.5 28.5t-49 21t-58 16l-131 30q-27 7 -51.5 15t-62.5 28.5t-65 46t-47 68t-20 94.5q0 72 30 128.5t80.5 91t113 52t131.5 17.5q107 0 191.5 -41.5t127.5 -130.5zM741 1450l-223 -295h-164l-223 295h135l170 -221l170 221h135z" />
    <glyph glyph-name="Tcommaaccent" unicode="&#x162;" horiz-adv-x="1175" 
d="M662 1315v-1315h-148v1315h-485v135h1118v-135h-485zM680 -92l-156 -379h-116l127 379h145z" />
    <glyph glyph-name="tcommaaccent" unicode="&#x163;" horiz-adv-x="679" 
d="M643 958v-122h-276v-566q0 -100 34.5 -136t104.5 -36q73 0 139 37l6 -125q-75 -35 -182 -35q-34 0 -64.5 6t-63 23.5t-56.5 45t-39 74t-15 107.5v605h-202v122h202v271h136v-271h276zM485 -92l-155 -379h-117l127 379h145z" />
    <glyph glyph-name="Tcaron" unicode="&#x164;" horiz-adv-x="1175" 
d="M662 1315v-1315h-148v1315h-485v135h1118v-135h-485zM893 1851l-223 -295h-164l-223 295h135l170 -221l170 221h135z" />
    <glyph glyph-name="tcaron" unicode="&#x165;" horiz-adv-x="679" 
d="M643 958v-122h-276v-566q0 -100 34.5 -136t104.5 -36q73 0 139 37l6 -125q-75 -35 -182 -35q-34 0 -64.5 6t-63 23.5t-56.5 45t-39 74t-15 107.5v605h-202v122h202v271h136v-271h276zM764 1450l-156 -379h-116l126 379h146z" />
    <glyph glyph-name="Tbar" unicode="&#x166;" horiz-adv-x="1175" 
d="M1110 948v-123h-448v-825h-148v825h-448v123h448v367h-485v135h1118v-135h-485v-367h448z" />
    <glyph glyph-name="tbar" unicode="&#x167;" horiz-adv-x="679" 
d="M643 958v-122h-276v-209h235v-109h-235v-248q0 -99 35.5 -135.5t103.5 -36.5q73 0 139 37l6 -125q-78 -35 -182 -35q-44 0 -82 11t-75 37t-59 79.5t-22 128.5v287h-159v109h159v209h-202v122h202v271h136v-271h276z" />
    <glyph glyph-name="Utilde" unicode="&#x168;" horiz-adv-x="1404" 
d="M1233 1450v-909q0 -55 -6.5 -108.5t-23 -112t-42.5 -109t-68 -97t-95.5 -79.5t-129.5 -52.5t-166 -19.5t-165.5 19.5t-129.5 52.5t-95.5 79.5t-67.5 97t-42.5 109t-23 112t-6.5 108.5v909h147v-893q0 -119 30 -207.5t72 -135t99 -74.5t98.5 -35t83.5 -7t83.5 7t98.5 35
t99 74.5t72 135t30 207.5v893h148zM477 1579h-88q14 91 59.5 152t129.5 61q57 0 149 -47q3 -1 16 -7.5t16.5 -8t15 -6.5t16.5 -7l15 -6t15.5 -5.5t14 -3.5t15 -2.5t13.5 -0.5q43 0 65.5 28t35.5 74h88q-14 -91 -59.5 -152t-129.5 -61q-49 0 -149 47q-88 47 -137 47
q-43 0 -65.5 -28t-35.5 -74z" />
    <glyph glyph-name="utilde" unicode="&#x169;" 
d="M979 0h-139q-6 51 -6 154h-5q-44 -78 -135 -128.5t-186 -50.5q-180 0 -270.5 97t-90.5 278v608h136v-530q0 -168 57.5 -249t202.5 -81q10 0 25.5 2t44.5 10.5t57 22.5t58.5 42t53 65.5t37.5 96t15 130.5v491h135v-747q0 -36 10 -211zM326 1180h-88q36 213 188 213
q57 0 149 -47q4 -2 18 -8.5t19 -9t17 -7.5t18.5 -7.5t16.5 -6t17 -5t15.5 -3t16.5 -1.5q76 0 100 103h88q-36 -213 -188 -213q-50 0 -150 47q-88 47 -137 47q-76 0 -100 -102z" />
    <glyph glyph-name="Umacron" unicode="&#x16a;" horiz-adv-x="1404" 
d="M1233 1450v-909q0 -55 -6.5 -108.5t-23 -112t-42.5 -109t-68 -97t-95.5 -79.5t-129.5 -52.5t-166 -19.5t-165.5 19.5t-129.5 52.5t-95.5 79.5t-67.5 97t-42.5 109t-23 112t-6.5 108.5v909h147v-893q0 -119 30 -207.5t72 -135t99 -74.5t98.5 -35t83.5 -7t83.5 7t98.5 35
t99 74.5t72 135t30 207.5v893h148zM983 1731v-111h-553v111h553z" />
    <glyph glyph-name="umacron" unicode="&#x16b;" 
d="M979 0h-139q-6 51 -6 154h-5q-44 -78 -135 -128.5t-186 -50.5q-180 0 -270.5 97t-90.5 278v608h136v-530q0 -168 57.5 -249t202.5 -81q10 0 25.5 2t44.5 10.5t57 22.5t58.5 42t53 65.5t37.5 96t15 130.5v491h135v-747q0 -36 10 -211zM838 1339v-110h-553v110h553z" />
    <glyph glyph-name="Ubreve" unicode="&#x16c;" horiz-adv-x="1404" 
d="M1233 1450v-909q0 -55 -6.5 -108.5t-23 -112t-42.5 -109t-68 -97t-95.5 -79.5t-129.5 -52.5t-166 -19.5t-165.5 19.5t-129.5 52.5t-95.5 79.5t-67.5 97t-42.5 109t-23 112t-6.5 108.5v909h147v-893q0 -119 30 -207.5t72 -135t99 -74.5t98.5 -35t83.5 -7t83.5 7t98.5 35
t99 74.5t72 135t30 207.5v893h148zM918 1839h90q-7 -127 -89 -198.5t-212 -71.5t-212 71.5t-89 198.5h90q13 -77 71.5 -118.5t139.5 -41.5t139.5 41.5t71.5 118.5z" />
    <glyph glyph-name="ubreve" unicode="&#x16d;" 
d="M979 0h-139q-6 51 -6 154h-5q-44 -78 -135 -128.5t-186 -50.5q-180 0 -270.5 97t-90.5 278v608h136v-530q0 -168 57.5 -249t202.5 -81q10 0 25.5 2t44.5 10.5t57 22.5t58.5 42t53 65.5t37.5 96t15 130.5v491h135v-747q0 -36 10 -211zM776 1450h90q-7 -127 -89 -198.5
t-212 -71.5t-212 71.5t-89 198.5h90q13 -77 71.5 -118.5t139.5 -41.5t139.5 41.5t71.5 118.5z" />
    <glyph glyph-name="Uring" unicode="&#x16e;" horiz-adv-x="1404" 
d="M1233 1450v-909q0 -55 -6.5 -108.5t-23 -112t-42.5 -109t-68 -97t-95.5 -79.5t-129.5 -52.5t-166 -19.5t-165.5 19.5t-129.5 52.5t-95.5 79.5t-67.5 97t-42.5 109t-23 112t-6.5 108.5v909h147v-893q0 -119 30 -207.5t72 -135t99 -74.5t98.5 -35t83.5 -7t83.5 7t98.5 35
t99 74.5t72 135t30 207.5v893h148zM834 1710q0 51 -36 86t-87 35t-87 -35t-36 -86t36 -86t87 -35t87 35t36 86zM907 1710q0 -82 -57.5 -138t-138.5 -56t-139 56t-58 138q0 81 58.5 138t138.5 57t138 -57t58 -138z" />
    <glyph glyph-name="uring" unicode="&#x16f;" 
d="M979 0h-139q-6 51 -6 154h-5q-44 -78 -135 -128.5t-186 -50.5q-180 0 -270.5 97t-90.5 278v608h136v-530q0 -168 57.5 -249t202.5 -81q10 0 25.5 2t44.5 10.5t57 22.5t58.5 42t53 65.5t37.5 96t15 130.5v491h135v-747q0 -36 10 -211zM682 1331q0 51 -36 86t-87 35
t-87 -35t-36 -86t36 -86t87 -35t87 35t36 86zM756 1331q0 -82 -58 -138t-139 -56t-139 56t-58 138q0 81 58.5 138t138.5 57t138.5 -57t58.5 -138z" />
    <glyph glyph-name="Uhungarumlaut" unicode="&#x170;" horiz-adv-x="1404" 
d="M1233 1450v-909q0 -55 -6.5 -108.5t-23 -112t-42.5 -109t-68 -97t-95.5 -79.5t-129.5 -52.5t-166 -19.5t-165.5 19.5t-129.5 52.5t-95.5 79.5t-67.5 97t-42.5 109t-23 112t-6.5 108.5v909h147v-893q0 -119 30 -207.5t72 -135t99 -74.5t98.5 -35t83.5 -7t83.5 7t98.5 35
t99 74.5t72 135t30 207.5v893h148zM1198 1851l-270 -295h-121l205 295h186zM788 1851l-272 -295h-121l207 295h186z" />
    <glyph glyph-name="uhungarumlaut" unicode="&#x171;" 
d="M979 0h-139q-6 51 -6 154h-5q-44 -78 -135 -128.5t-186 -50.5q-180 0 -270.5 97t-90.5 278v608h136v-530q0 -168 57.5 -249t202.5 -81q10 0 25.5 2t44.5 10.5t57 22.5t58.5 42t53 65.5t37.5 96t15 130.5v491h135v-747q0 -36 10 -211zM1085 1450l-270 -295h-121l205 295
h186zM676 1450l-273 -295h-120l206 295h187z" />
    <glyph glyph-name="Uogonek" unicode="&#x172;" horiz-adv-x="1404" 
d="M872 -289l39 -82q-73 -73 -184 -73q-74 0 -129 49t-55 125q0 108 119 227l6 6q-142 6 -232 55q-75 42 -129 103.5t-82 133t-40.5 141.5t-12.5 145v909h147v-893q0 -119 30 -207.5t72 -135t99 -74.5t98.5 -35t83.5 -7t83.5 7t98.5 35t99 74.5t72 135t30 207.5v893h148
v-909q0 -75 -12.5 -145t-41 -141.5t-82.5 -133t-130 -103.5q-80 -42 -189 -51q-39 -41 -71 -86q-41 -59 -41 -117q0 -42 30 -70t72 -28q65 0 104 45z" />
    <glyph glyph-name="uogonek" unicode="&#x173;" 
d="M1008 -289l39 -82q-73 -73 -185 -73q-74 0 -129 49t-55 125q0 108 119 227q32 28 47 43h-4q-6 51 -6 154h-5q-44 -78 -135 -128.5t-186 -50.5q-182 0 -271.5 96t-89.5 279v608h136v-530q0 -169 57 -249.5t203 -80.5q10 0 25.5 2t44.5 10.5t57 22.5t58.5 42t53 65.5
t37.5 96t15 130.5v491h135v-747q0 -91 10 -211h-33q-66 -66 -104 -119q-41 -59 -41 -117q0 -42 30 -70t72 -28q66 0 105 45z" />
    <glyph glyph-name="Wcircumflex" unicode="&#x174;" horiz-adv-x="1933" 
d="M164 1450l348 -1241h4l365 1241h176l364 -1241h4l344 1241h164l-428 -1450h-172l-364 1241h-4l-365 -1241h-172l-428 1450h164zM1051 1851l223 -295h-135l-170 222l-170 -222h-135l223 295h164z" />
    <glyph glyph-name="wcircumflex" unicode="&#x175;" horiz-adv-x="1478" 
d="M29 958h159l222 -778h4l256 778h139l256 -778h4l221 778h160l-303 -958h-152l-254 786h-4l-254 -786h-151zM821 1450l223 -295h-135l-170 221l-170 -221h-135l223 295h164z" />
    <glyph glyph-name="Ycircumflex" unicode="&#x176;" horiz-adv-x="1175" 
d="M662 625v-625h-148v625l-543 825h185l432 -684l432 684h184zM670 1851l223 -295h-135l-170 222l-170 -222h-135l223 295h164z" />
    <glyph glyph-name="ycircumflex" unicode="&#x177;" horiz-adv-x="987" 
d="M203 958l301 -792l293 792h164l-480 -1208q-47 -120 -115.5 -181t-185.5 -61q-74 0 -125 15l15 131q45 -23 102 -23q67 0 109 42.5t75 129.5l70 185l-393 970h170zM571 1450l224 -295h-136l-170 221l-170 -221h-135l224 295h163z" />
    <glyph glyph-name="Ydieresis" unicode="&#x178;" horiz-adv-x="1175" 
d="M662 625v-625h-148v625l-543 825h185l432 -684l432 684h184zM287 1683q0 41 30 73t74 32t74.5 -32t30.5 -73t-30.5 -72.5t-74.5 -31.5t-74 31.5t-30 72.5zM680 1683q0 41 30 73t74 32t74.5 -32t30.5 -73t-30.5 -72.5t-74.5 -31.5t-74 31.5t-30 72.5z" />
    <glyph glyph-name="Zacute" unicode="&#x179;" 
d="M1079 1450v-123l-846 -1192h859v-135h-1045v123l848 1192h-836v135h1020zM831 1851l-270 -295h-121l205 295h186z" />
    <glyph glyph-name="zacute" unicode="&#x17a;" horiz-adv-x="872" 
d="M805 958v-98l-561 -737h581v-123h-778v98l561 738h-532v122h729zM713 1450l-271 -295h-120l204 295h187z" />
    <glyph glyph-name="Zdotaccent" unicode="&#x17b;" 
d="M1079 1450v-123l-846 -1192h859v-135h-1045v123l848 1192h-836v135h1020zM444 1673q0 43 29.5 74t75.5 31t75 -31t29 -74t-29 -73.5t-75 -30.5t-75.5 30.5t-29.5 73.5z" />
    <glyph glyph-name="zdotaccent" unicode="&#x17c;" horiz-adv-x="872" 
d="M805 958v-98l-561 -737h581v-123h-778v98l561 738h-532v122h729zM332 1346q0 43 29 73.5t75 30.5t75.5 -30.5t29.5 -73.5t-29.5 -74t-75.5 -31t-75 31t-29 74z" />
    <glyph glyph-name="Zcaron" unicode="&#x17d;" 
d="M1079 1450v-123l-846 -1192h859v-135h-1045v123l848 1192h-836v135h1020zM874 1808l-223 -295h-164l-223 295h135l170 -221l170 221h135z" />
    <glyph glyph-name="zcaron" unicode="&#x17e;" horiz-adv-x="872" 
d="M805 958v-98l-561 -737h581v-123h-778v98l561 738h-532v122h729zM741 1450l-223 -295h-164l-223 295h135l170 -221l170 221h135z" />
    <glyph glyph-name="florin" unicode="&#x192;" 
d="M866 858v-110h-243l-138 -721q-12 -63 -31.5 -112t-54 -97.5t-93.5 -75.5t-138 -27q-102 0 -168 49l66 99q48 -25 106 -25q37 0 65.5 13t46 32.5t31 50.5t20.5 57.5t13 63.5l129 693h-221v110h244l55 295q13 68 33.5 122t56 101t91.5 73t130 26q107 0 195 -60l-70 -98
q-61 35 -117 35q-145 0 -184 -238l-45 -256h221z" />
    <glyph glyph-name="Scommaaccent" unicode="&#x218;" 
d="M1012 1311l-129 -101q-95 142 -281 142q-80 0 -148 -26.5t-114.5 -87.5t-46.5 -148q0 -62 25.5 -109.5t68.5 -77.5t98.5 -53.5t117.5 -43.5t123.5 -41.5t117 -53t98.5 -73t68.5 -107t25.5 -148.5q0 -95 -42 -176t-110.5 -133.5t-153 -81.5t-171.5 -29q-139 0 -258 53
t-199 162l134 96q47 -82 132.5 -129t196.5 -47q75 0 145 29.5t118.5 91.5t48.5 143q0 65 -25.5 114.5t-68.5 80t-99 54.5t-117.5 43t-123 40t-117.5 52t-99 72t-68.5 106.5t-25.5 150.5q0 82 26 150.5t71 116t105 81t127.5 49t139.5 15.5q128 0 227.5 -40.5t182.5 -135.5z
M678 -92l-156 -379h-116l126 379h146z" />
    <glyph glyph-name="scommaaccent" unicode="&#x219;" horiz-adv-x="872" 
d="M776 811l-121 -80q-68 129 -206 129q-80 0 -139.5 -36t-59.5 -107q0 -64 44 -96.5t144 -55.5l137 -33q103 -24 168.5 -94t65.5 -168q0 -75 -31.5 -133.5t-85.5 -93t-119 -51.5t-137 -17q-243 0 -368 187l116 80q92 -144 252 -144q92 0 159 41t67 119q0 28 -10 50.5
t-25.5 38t-40.5 28.5t-49 21t-58 16l-131 30q-27 7 -51.5 15t-62.5 28.5t-65 46t-47 68t-20 94.5q0 72 30 128.5t80.5 91t113 52t131.5 17.5q107 0 191.5 -41.5t127.5 -130.5zM543 -92l-156 -379h-117l127 379h146z" />
    <glyph glyph-name="uni021A" unicode="&#x21a;" horiz-adv-x="1175" 
d="M662 1315v-1315h-148v1315h-485v135h1118v-135h-485zM680 -92l-156 -379h-116l127 379h145z" />
    <glyph glyph-name="uni021B" unicode="&#x21b;" horiz-adv-x="679" 
d="M643 958v-122h-276v-566q0 -100 34.5 -136t104.5 -36q73 0 139 37l6 -125q-75 -35 -182 -35q-34 0 -64.5 6t-63 23.5t-56.5 45t-39 74t-15 107.5v605h-202v122h202v271h136v-271h276zM485 -92l-155 -379h-117l127 379h145z" />
    <glyph glyph-name="dotlessj" unicode="&#x237;" horiz-adv-x="491" 
d="M-63 -471l18 117l6 -2q50 -13 72 -13q47 0 78 17.5t44.5 50.5t18 62.5t4.5 70.5v1126h135v-1148v-9q0 -23 -0.5 -39t-5 -49.5t-14 -57t-29.5 -53.5t-47.5 -49t-72.5 -32t-101 -13t-106 21z" />
    <glyph glyph-name="circumflex" unicode="&#x2c6;" horiz-adv-x="491" 
d="M328 1450l223 -295h-135l-170 221l-170 -221h-135l223 295h164z" />
    <glyph glyph-name="caron" unicode="&#x2c7;" horiz-adv-x="491" 
d="M551 1450l-223 -295h-164l-223 295h135l170 -221l170 221h135z" />
    <glyph glyph-name="uni02C9" unicode="&#x2c9;" horiz-adv-x="491" 
d="M522 1339v-110h-553v110h553z" />
    <glyph glyph-name="breve" unicode="&#x2d8;" horiz-adv-x="491" 
d="M457 1450h90q-7 -127 -89 -198.5t-212 -71.5t-212 71.5t-89 198.5h90q13 -77 71.5 -118.5t139.5 -41.5t139.5 41.5t71.5 118.5z" />
    <glyph glyph-name="dotaccent" unicode="&#x2d9;" horiz-adv-x="491" 
d="M141 1346q0 43 29.5 73.5t75.5 30.5t75 -30.5t29 -73.5t-29 -74t-75 -31t-75.5 31t-29.5 74z" />
    <glyph glyph-name="ring" unicode="&#x2da;" horiz-adv-x="491" 
d="M369 1331q0 51 -36 86t-87 35t-87 -35t-36 -86t36 -86t87 -35t87 35t36 86zM442 1331q0 -82 -57.5 -138t-138.5 -56t-139 56t-58 138q0 81 58.5 138t138.5 57t138 -57t58 -138z" />
    <glyph glyph-name="ogonek" unicode="&#x2db;" horiz-adv-x="491" 
d="M391 -289l39 -82q-73 -73 -184 -73q-75 0 -130 49t-55 125q0 134 183 282h98q-84 -84 -121 -138t-37 -110q0 -42 30.5 -70t72.5 -28q65 0 104 45z" />
    <glyph glyph-name="tilde" unicode="&#x2dc;" horiz-adv-x="491" 
d="M2 1180h-88q36 213 188 213q58 0 150 -47q5 -2 20.5 -9.5t21.5 -10.5t19 -8.5t20.5 -8t18.5 -6t19.5 -4.5t17.5 -1q76 0 100 103h89q-36 -213 -189 -213q-49 0 -149 47q-88 47 -138 47q-76 0 -100 -102z" />
    <glyph glyph-name="hungarumlaut" unicode="&#x2dd;" horiz-adv-x="491" 
d="M647 1450l-270 -295h-121l205 295h186zM238 1450l-273 -295h-121l207 295h187z" />
    <glyph glyph-name="uni0394" unicode="&#x394;" horiz-adv-x="1372" 
d="M1346 0h-1315l575 1458h152zM1149 127l-469 1194l-463 -1194h932z" />
    <glyph glyph-name="uni03A9" unicode="&#x3a9;" horiz-adv-x="1523" 
d="M1403 0h-514v371q182 32 279.5 161t97.5 318q0 145 -68.5 260t-186 178.5t-261.5 63.5q-218 0 -367.5 -143.5t-149.5 -358.5q0 -187 98.5 -319t278.5 -160v-371h-514v119h404v168q-188 53 -296 209t-108 356q0 134 53 251.5t142 199t209 128t252 46.5q131 0 250 -47
t207.5 -128.5t141 -198t52.5 -249.5q0 -132 -46 -247t-138.5 -200.5t-219.5 -119.5v-168h404v-119z" />
    <glyph glyph-name="uni03BC" unicode="&#x3bc;" 
d="M147 -467v1425h136v-530q0 -180 57 -255t203 -75q127 0 209 98.5t82 270.5v491h135v-747q0 -91 10 -211h-145v156h-5q-45 -75 -136.5 -128t-184.5 -53q-140 0 -225 60v-502h-136z" />
    <glyph glyph-name="pi" unicode="&#x3c0;" horiz-adv-x="1153" 
d="M1085 123v-100q-72 -35 -131 -35q-33 0 -59 7t-43 17.5t-29 30.5t-18 37t-9.5 45.5t-4 48t-0.5 53.5v611h-451v-838h-131v838h-143v120h1011v-120h-155v-625q0 -22 1 -35t5 -29t12 -25t23 -15.5t36 -6.5q39 0 86 21z" />
    <glyph glyph-name="endash" unicode="&#x2013;" horiz-adv-x="1024" 
d="M1024 559v-135h-1024v135h1024z" />
    <glyph glyph-name="emdash" unicode="&#x2014;" horiz-adv-x="2048" 
d="M2048 559v-135h-2048v135h2048z" />
    <glyph glyph-name="quoteleft" unicode="&#x2018;" horiz-adv-x="532" 
d="M115 969l166 481h137l-137 -481h-166z" />
    <glyph glyph-name="quoteright" unicode="&#x2019;" horiz-adv-x="532" 
d="M418 1450l-166 -481h-137l137 481h166z" />
    <glyph glyph-name="quotesinglbase" unicode="&#x201a;" horiz-adv-x="532" 
d="M418 195l-166 -482h-137l137 482h166z" />
    <glyph glyph-name="quotedblleft" unicode="&#x201c;" horiz-adv-x="1062" 
d="M195 969l165 481h138l-138 -481h-165zM565 969l166 481h137l-137 -481h-166z" />
    <glyph glyph-name="quotedblright" unicode="&#x201d;" horiz-adv-x="1062" 
d="M868 1450l-166 -481h-137l137 481h166zM498 1450l-166 -481h-137l137 481h166z" />
    <glyph glyph-name="quotedblbase" unicode="&#x201e;" horiz-adv-x="1062" 
d="M868 195l-166 -482h-137l137 482h166zM498 195l-166 -482h-137l137 482h166z" />
    <glyph glyph-name="dagger" unicode="&#x2020;" 
d="M637 1450v-418h418v-123h-418v-1167h-135v1167h-418v123h418v418h135z" />
    <glyph glyph-name="daggerdbl" unicode="&#x2021;" 
d="M637 1450v-393h399v-123h-399v-676h399v-123h-399v-393h-135v393h-400v123h400v676h-400v123h400v393h135z" />
    <glyph glyph-name="bullet" unicode="&#x2022;" horiz-adv-x="1024" 
d="M150 725q0 151 105.5 256.5t256.5 105.5t256.5 -105.5t105.5 -256.5t-105.5 -257t-256.5 -106t-256.5 106t-105.5 257z" />
    <glyph glyph-name="ellipsis" unicode="&#x2026;" horiz-adv-x="2048" 
d="M453 98q0 -44 -31.5 -77t-79.5 -33t-79.5 33t-31.5 77t31.5 77.5t79.5 33.5t79.5 -33.5t31.5 -77.5zM1135 98q0 -44 -31.5 -77t-79.5 -33t-79.5 33t-31.5 77t31.5 77.5t79.5 33.5t79.5 -33.5t31.5 -77.5zM1817 98q0 -44 -31.5 -77t-79.5 -33t-79.5 33t-31.5 77t31.5 77.5
t79.5 33.5t79.5 -33.5t31.5 -77.5z" />
    <glyph glyph-name="perthousand" unicode="&#x2030;" horiz-adv-x="2048" 
d="M678 1159q0 -130 -91.5 -222.5t-221.5 -92.5t-222 93t-92 222q0 130 92 223t222 93t221.5 -93t91.5 -223zM567 1159q0 85 -59 145t-143 60q-85 0 -144 -60t-59 -145t59 -145t144 -60q84 0 143 60t59 145zM1280 291q0 -130 -91.5 -223t-221.5 -93t-222 93t-92 223
q0 129 92 222t222 93t221.5 -92.5t91.5 -222.5zM1169 291q0 85 -59 145t-143 60q-85 0 -144 -60t-59 -145t59 -145t144 -60q84 0 143 60t59 145zM1997 291q0 -130 -92 -223t-222 -93t-221.5 93t-91.5 223t91.5 222.5t221.5 92.5t222 -93t92 -222zM1886 291q0 85 -59 145
t-144 60q-84 0 -143 -60t-59 -145t59 -145t143 -60q85 0 144 60t59 145zM1178 1458l-922 -1521l-106 55l923 1521z" />
    <glyph glyph-name="guilsinglleft" unicode="&#x2039;" horiz-adv-x="645" 
d="M268 492l236 -361l-96 -68l-287 429l287 428l96 -68z" />
    <glyph glyph-name="guilsinglright" unicode="&#x203a;" horiz-adv-x="645" 
d="M377 492l-236 360l97 68l286 -428l-286 -429l-97 68z" />
    <glyph glyph-name="fraction" unicode="&#x2044;" horiz-adv-x="344" 
d="M-236 -66l-106 66l924 1516l104 -64z" />
    <glyph glyph-name="Euro" unicode="&#x20ac;" 
d="M1061 1393l-43 -127q-107 80 -275 80q-307 0 -381 -373h580l-35 -115h-563q-6 -74 -6 -156q0 -34 4 -112h492l-37 -113h-443q65 -379 348 -379q80 0 150 37t106 94l97 -69q-55 -90 -155.5 -137.5t-215.5 -47.5q-107 0 -192.5 36.5t-143.5 104.5t-94 158t-53 203h-154
l41 113h100q-4 78 -4 119q0 79 6 149h-141l41 115h117q50 250 191.5 376t346.5 126q83 0 173 -24t143 -58z" />
    <glyph glyph-name="afii61289" unicode="&#x2113;" horiz-adv-x="1024" 
d="M801 156l49 -72q-119 -113 -266 -113q-118 0 -189 66.5t-71 195.5v234l-119 -127h-4l-54 76l177 172v530q0 167 75 263t189 96q100 0 162.5 -71t62.5 -192q0 -290 -350 -651v-307q0 -96 45 -137t108 -41q92 0 181 78h4zM696 1204q0 78 -30 126t-78 48q-52 0 -88.5 -60.5
t-36.5 -176.5v-455q114 132 173.5 265.5t59.5 252.5z" />
    <glyph glyph-name="trademark" unicode="&#x2122;" horiz-adv-x="2048" 
d="M821 1450v-111h-272v-733h-123v733h-279v111h674zM1901 1450v-844h-123v709h-4l-285 -709h-80l-285 709h-4v-709h-123v844h191l264 -647l264 647h185z" />
    <glyph glyph-name="Omega" unicode="&#x2126;" horiz-adv-x="1523" 
d="M1403 0h-514v371q182 32 279.5 161t97.5 318q0 145 -68.5 260t-186 178.5t-261.5 63.5q-218 0 -367.5 -143.5t-149.5 -358.5q0 -187 98.5 -319t278.5 -160v-371h-514v119h404v168q-188 53 -296 209t-108 356q0 134 53 251.5t142 199t209 128t252 46.5q131 0 250 -47
t207.5 -128.5t141 -198t52.5 -249.5q0 -132 -46 -247t-138.5 -200.5t-219.5 -119.5v-168h404v-119z" />
    <glyph glyph-name="estimated" unicode="&#x212e;" horiz-adv-x="1236" 
d="M1149 530h-827v-370q121 -121 296 -121q129 0 223.5 58.5t172.5 187.5l71 -43q-95 -149 -201 -213t-266 -64q-157 0 -278.5 75.5t-185.5 203.5t-64 286q0 159 64 287t185.5 203.5t278.5 75.5q236 0 383.5 -158t147.5 -408zM322 604h596v297q-129 123 -302 123
q-171 0 -294 -123v-297z" />
    <glyph glyph-name="partialdiff" unicode="&#x2202;" horiz-adv-x="1015" 
d="M932 743q0 -71 -4.5 -138t-18 -145.5t-34.5 -145.5t-57 -131t-82.5 -109t-114.5 -72t-150 -27q-93 0 -171 38t-129.5 101.5t-79.5 146.5t-28 173q0 185 107.5 310.5t290.5 125.5q98 0 187 -46t153 -126q0 18 1 54t1 53q0 60 -7.5 120.5t-24 125t-45.5 119.5t-68 99
t-96 69.5t-126 25.5q-66 0 -116 -23t-113 -71l-74 88q138 119 297 119q113 0 202.5 -46.5t144.5 -119.5t91 -172.5t50 -196.5t14 -199zM791 569q-62 82 -144 134.5t-174 52.5q-133 0 -206.5 -94.5t-73.5 -231.5q0 -50 11 -99t34 -93.5t55.5 -79t79 -54.5t100.5 -20
q68 0 123 33t89 83t58 117.5t34.5 128.5t13.5 123z" />
    <glyph glyph-name="Delta" unicode="&#x2206;" horiz-adv-x="1372" 
d="M1346 0h-1315l575 1458h152zM1149 127l-469 1194l-463 -1194h932z" />
    <glyph glyph-name="product" unicode="&#x220f;" horiz-adv-x="1456" 
d="M1313 -438h-135v1921h-897v-1921h-136v2048h1168v-2048z" />
    <glyph glyph-name="summation" unicode="&#x2211;" horiz-adv-x="1236" 
d="M1184 -438h-1133v112l674 918l-645 903v115h1079v-127h-905l633 -891l-672 -905h969v-125z" />
    <glyph glyph-name="minus" unicode="&#x2212;" horiz-adv-x="1363" 
d="M1204 682v-123h-1044v123h1044z" />
    <glyph glyph-name="uni2215" unicode="&#x2215;" horiz-adv-x="344" 
d="M-236 -66l-106 66l924 1516l104 -64z" />
    <glyph glyph-name="uni2219" unicode="&#x2219;" horiz-adv-x="569" 
d="M395 643q0 -44 -31 -77.5t-79 -33.5t-79.5 33.5t-31.5 77.5t31.5 77.5t79.5 33.5t79 -33.5t31 -77.5z" />
    <glyph glyph-name="radical" unicode="&#x221a;" horiz-adv-x="1009" 
d="M1028 1610l-430 -2048h-135l-336 696l-94 -45l-49 102l204 99l324 -680l387 1876h129z" />
    <glyph glyph-name="infinity" unicode="&#x221e;" horiz-adv-x="1517" 
d="M1434 516q0 -130 -79.5 -216.5t-207.5 -86.5q-56 0 -110.5 18t-105.5 54t-87 67.5t-84 79.5q-22 -18 -69 -59t-74.5 -62t-69.5 -47.5t-85 -38.5t-91 -12q-128 0 -207.5 84t-79.5 213q0 128 78 215.5t205 87.5q43 0 86.5 -13t78.5 -32t75 -49t67.5 -55t64.5 -60
q14 -14 21 -20q9 8 46 44t50.5 48t47 41t55.5 41t54 28.5t64 22.5t66 6q129 0 210 -84.5t81 -214.5zM1317 510q0 82 -44.5 135t-125.5 53q-33 0 -66.5 -11t-70 -36.5t-58.5 -42.5t-63 -54t-51 -46q3 -3 29 -25.5t33 -28t31 -25.5t35 -26.5t33.5 -21.5t37.5 -21t36 -14
t40.5 -11t39.5 -3q76 0 120 50.5t44 127.5zM682 510q-108 94 -157 127q-91 59 -160 59q-75 0 -119.5 -54t-44.5 -130q0 -80 46 -130t126 -50q40 0 83 16t86.5 47.5t72 55t67.5 59.5z" />
    <glyph glyph-name="integral" unicode="&#x222b;" horiz-adv-x="1112" 
d="M831 1507q0 -34 -20.5 -51.5t-54.5 -17.5q-26 0 -43.5 13t-24 28t-16.5 28t-23 13q-20 0 -34 -19t-21.5 -52t-12 -70t-5 -80t0 -75t2 -62t1.5 -34v-1032q0 -184 -13 -267q-43 -265 -237 -265q-49 0 -86 24.5t-37 71.5q0 29 19 47.5t48 18.5q24 0 40.5 -12t24 -27
t17.5 -27t21 -12q69 0 65 315v10l2 43v1014q0 21 -1 69t-1 81t1 83.5t7.5 86.5t17 79.5t29 73t44 55.5t63 39t84.5 13q55 0 99 -25.5t44 -77.5z" />
    <glyph glyph-name="approxequal" unicode="&#x2248;" horiz-adv-x="1363" 
d="M1133 823h88q-6 -56 -23.5 -104.5t-47 -89t-76.5 -63.5t-105 -23q-97 0 -297 75q-190 74 -273 74q-65 0 -107.5 -47.5t-53.5 -116.5h-93q9 76 36 137.5t83.5 104.5t134.5 43q103 0 293 -74q70 -26 104.5 -38t86 -24.5t88.5 -12.5q129 0 162 159zM1130 475h91
q-13 -120 -76.5 -201t-177.5 -81q-103 0 -295 75q-190 74 -273 74q-65 0 -107.5 -47.5t-53.5 -116.5h-93q47 287 252 287q98 0 295 -74q195 -76 279 -76q126 0 159 160z" />
    <glyph glyph-name="notequal" unicode="&#x2260;" horiz-adv-x="1363" 
d="M1196 246h-588l-155 -295l-107 55l127 240h-305v123h371l139 266h-510v123h577l158 301l107 -58l-129 -243h315v-123h-381l-141 -266h522v-123z" />
    <glyph glyph-name="lessequal" unicode="&#x2264;" horiz-adv-x="1363" 
d="M1196 221l-1028 385v133l1028 387v-133l-858 -321l858 -318v-133zM1196 12h-1028v121h1028v-121z" />
    <glyph glyph-name="greaterequal" unicode="&#x2265;" horiz-adv-x="1363" 
d="M1196 606l-1028 -385v133l860 318l-860 321v133l1028 -387v-133zM1196 12h-1028v121h1028v-121z" />
    <glyph glyph-name="lozenge" unicode="&#x25ca;" horiz-adv-x="1214" 
d="M1020 729l-350 -801h-129l-346 801l346 801h129zM887 729l-281 666l-278 -666l278 -666z" />
    <glyph glyph-name="grave.cap" unicode="&#xe300;" horiz-adv-x="491" 
d="M250 1556l-270 295h186l205 -295h-121z" />
    <glyph glyph-name="acute.cap" unicode="&#xe301;" horiz-adv-x="491" 
d="M512 1851l-270 -295h-121l205 295h186z" />
    <glyph glyph-name="circumflex.cap" unicode="&#xe302;" horiz-adv-x="491" 
d="M328 1851l223 -295h-135l-170 222l-170 -222h-135l223 295h164z" />
    <glyph glyph-name="caron.cap" unicode="&#xe303;" horiz-adv-x="491" 
d="M551 1851l-223 -295h-164l-223 295h135l170 -221l170 221h135z" />
    <glyph glyph-name="tilde.cap" unicode="&#xe304;" horiz-adv-x="491" 
d="M2 1579h-88q6 43 19.5 78.5t35 67t55.5 49.5t78 18q58 0 150 -47q3 -1 16 -7.5t16.5 -8t15 -6.5t16.5 -7l15 -6t15.5 -5.5t14 -3.5t15 -2.5t13.5 -0.5q43 0 65 27.5t35 74.5h89q-14 -91 -59.5 -152t-129.5 -61q-49 0 -149 47q-88 47 -138 47q-43 0 -65 -27.5t-35 -74.5z
" />
    <glyph glyph-name="dieresis.cap" unicode="&#xe305;" horiz-adv-x="491" 
d="M338 1683q0 43 29 74t75 31t75.5 -31t29.5 -74t-29.5 -73.5t-75.5 -30.5t-75 30.5t-29 73.5zM-55 1683q0 43 29 74t75 31t75.5 -31t29.5 -74t-29.5 -73.5t-75.5 -30.5t-75 30.5t-29 73.5z" />
    <glyph glyph-name="macron.cap" unicode="&#xe306;" horiz-adv-x="491" 
d="M522 1731v-111h-553v111h553z" />
    <glyph glyph-name="breve.cap" unicode="&#xe307;" horiz-adv-x="491" 
d="M457 1839h90q-7 -127 -89 -198.5t-212 -71.5t-212 71.5t-89 198.5h90q13 -77 71.5 -118.5t139.5 -41.5t139.5 41.5t71.5 118.5z" />
    <glyph glyph-name="ring.cap" unicode="&#xe308;" horiz-adv-x="491" 
d="M369 1710q0 51 -36 86t-87 35t-87 -35t-36 -86t36 -86t87 -35t87 35t36 86zM442 1710q0 -82 -57.5 -138t-138.5 -56t-139 56t-58 138q0 81 58.5 138t138.5 57t138 -57t58 -138z" />
    <glyph glyph-name="hungarumlaut.cap" unicode="&#xe309;" horiz-adv-x="491" 
d="M688 1851l-270 -295h-121l205 295h186zM279 1851l-273 -295h-121l207 295h187z" />
    <glyph glyph-name="dotaccent.cap" unicode="&#xe30a;" horiz-adv-x="491" 
d="M141 1673q0 43 29.5 74t75.5 31t75 -31t29 -74t-29 -73.5t-75 -30.5t-75.5 30.5t-29.5 73.5z" />
    <glyph glyph-name="caron.alt" unicode="&#xe30b;" horiz-adv-x="491" 
d="M449 1450l-156 -379h-117l127 379h146z" />
    <glyph glyph-name="commaaccent" unicode="&#xe30c;" horiz-adv-x="491" 
d="M371 -92l-156 -379h-117l127 379h146z" />
    <glyph glyph-name="commaaccent.alt" unicode="&#xe30d;" horiz-adv-x="491" 
d="M197 1155l155 379h117l-127 -379h-145z" />
    <glyph glyph-name="uniF8FF" unicode="&#xf8ff;" horiz-adv-x="1048" 
d="M569 240h-114v137h114v-137zM555 479h-94l-4 35q0 115 26 166q28 54 95 121q62 58 82 94t20 76q0 73 -46 123.5t-110 50.5q-67 0 -112 -47.5t-56 -147.5l-102 17q13 142 86.5 211t189.5 69q112 0 183 -73.5t71 -194.5q0 -69 -27 -123t-102 -123q-77 -68 -88 -106
q-12 -41 -12 -148zM102 102h844v1264h-844v-1264zM0 1470h1049v-1470h-1049v1470z" />
    </font>
</defs>
</svg>
